<?xml version="1.0" encoding="utf-8" standalone="no"?>
<!DOCTYPE svg PUBLIC "-//W3C//DTD SVG 1.1//EN"
  "http://www.w3.org/Graphics/SVG/1.1/DTD/svg11.dtd">
<svg xmlns:xlink="http://www.w3.org/1999/xlink" width="628.2pt" height="291.782281pt" viewBox="0 0 628.2 291.782281" xmlns="http://www.w3.org/2000/svg" version="1.1">
 <metadata>
  <rdf:RDF xmlns:dc="http://purl.org/dc/elements/1.1/" xmlns:cc="http://creativecommons.org/ns#" xmlns:rdf="http://www.w3.org/1999/02/22-rdf-syntax-ns#">
   <cc:Work>
    <dc:type rdf:resource="http://purl.org/dc/dcmitype/StillImage"/>
    <dc:date>2026-04-26T15:38:01.714434</dc:date>
    <dc:format>image/svg+xml</dc:format>
    <dc:creator>
     <cc:Agent>
      <dc:title>Matplotlib v3.10.9, https://matplotlib.org/</dc:title>
     </cc:Agent>
    </dc:creator>
   </cc:Work>
  </rdf:RDF>
 </metadata>
 <defs>
  <style type="text/css">*{stroke-linejoin: round; stroke-linecap: butt}</style>
 </defs>
 <g id="figure_1">
  <g id="patch_1">
   <path d="M 0 291.782281 
L 628.2 291.782281 
L 628.2 0 
L 0 0 
z
" style="fill: #ffffff"/>
  </g>
  <g id="axes_1">
   <g id="patch_2">
    <path d="M 25.614 149.419561 
L 136.098 149.419561 
Q 148.374 149.419561 148.374 144.319081 
L 148.374 88.213801 
Q 148.374 83.113321 136.098 83.113321 
L 25.614 83.113321 
Q 13.338 83.113321 13.338 88.213801 
L 13.338 144.319081 
Q 13.338 149.419561 25.614 149.419561 
z
" clip-path="url(#pc868ccd2c5)" style="fill: #0173b2; opacity: 0.15; stroke: #0173b2; stroke-width: 1.2; stroke-linejoin: miter"/>
   </g>
   <g id="patch_3">
    <path d="M 179.064 149.419561 
L 289.548 149.419561 
Q 301.824 149.419561 301.824 144.319081 
L 301.824 88.213801 
Q 301.824 83.113321 289.548 83.113321 
L 179.064 83.113321 
Q 166.788 83.113321 166.788 88.213801 
L 166.788 144.319081 
Q 166.788 149.419561 179.064 149.419561 
z
" clip-path="url(#pc868ccd2c5)" style="fill: #de8f05; opacity: 0.15; stroke: #de8f05; stroke-width: 1.2; stroke-linejoin: miter"/>
   </g>
   <g id="patch_4">
    <path d="M 332.514 149.419561 
L 442.998 149.419561 
Q 455.274 149.419561 455.274 144.319081 
L 455.274 88.213801 
Q 455.274 83.113321 442.998 83.113321 
L 332.514 83.113321 
Q 320.238 83.113321 320.238 88.213801 
L 320.238 144.319081 
Q 320.238 149.419561 332.514 149.419561 
z
" clip-path="url(#pc868ccd2c5)" style="fill: #029e73; opacity: 0.15; stroke: #029e73; stroke-width: 1.2; stroke-linejoin: miter"/>
   </g>
   <g id="patch_5">
    <path d="M 485.964 149.419561 
L 596.448 149.419561 
Q 608.724 149.419561 608.724 144.319081 
L 608.724 88.213801 
Q 608.724 83.113321 596.448 83.113321 
L 485.964 83.113321 
Q 473.688 83.113321 473.688 88.213801 
L 473.688 144.319081 
Q 473.688 149.419561 485.964 149.419561 
z
" clip-path="url(#pc868ccd2c5)" style="fill: #d55e00; opacity: 0.15; stroke: #d55e00; stroke-width: 1.2; stroke-linejoin: miter"/>
   </g>
   <g id="patch_6">
    <path d="M 179.064 251.429161 
L 289.548 251.429161 
Q 301.824 251.429161 301.824 246.328681 
L 301.824 190.223401 
Q 301.824 185.122921 289.548 185.122921 
L 179.064 185.122921 
Q 166.788 185.122921 166.788 190.223401 
L 166.788 246.328681 
Q 166.788 251.429161 179.064 251.429161 
z
" clip-path="url(#pc868ccd2c5)" style="fill: #cc78bc; opacity: 0.15; stroke: #cc78bc; stroke-width: 1.2; stroke-linejoin: miter"/>
   </g>
   <g id="patch_7">
    <path d="M 332.514 251.429161 
L 442.998 251.429161 
Q 455.274 251.429161 455.274 246.328681 
L 455.274 190.223401 
Q 455.274 185.122921 442.998 185.122921 
L 332.514 185.122921 
Q 320.238 185.122921 320.238 190.223401 
L 320.238 246.328681 
Q 320.238 251.429161 332.514 251.429161 
z
" clip-path="url(#pc868ccd2c5)" style="fill: #ca9161; opacity: 0.15; stroke: #ca9161; stroke-width: 1.2; stroke-linejoin: miter"/>
   </g>
   <g id="patch_8">
    <path d="M 485.964 251.429161 
L 596.448 251.429161 
Q 608.724 251.429161 608.724 246.328681 
L 608.724 190.223401 
Q 608.724 185.122921 596.448 185.122921 
L 485.964 185.122921 
Q 473.688 185.122921 473.688 190.223401 
L 473.688 246.328681 
Q 473.688 251.429161 485.964 251.429161 
z
" clip-path="url(#pc868ccd2c5)" style="fill: #fbafe4; opacity: 0.15; stroke: #fbafe4; stroke-width: 1.2; stroke-linejoin: miter"/>
   </g>
   <g id="text_1">
    <!-- Workload Generator -->
    <g style="fill: #262626" transform="translate(29.330219 107.75691) scale(0.1 -0.1)">
     <defs>
      <path id="DejaVuSerif-57" d="M 4878 0 
L 4366 0 
L 3297 3794 
L 2228 0 
L 1716 0 
L 494 4331 
L 31 4331 
L 31 4666 
L 1734 4666 
L 1734 4331 
L 1153 4331 
L 2125 884 
L 3188 4666 
L 3694 4666 
L 4775 844 
L 5753 4331 
L 5216 4331 
L 5216 4666 
L 6559 4666 
L 6559 4331 
L 6100 4331 
L 4878 0 
z
" transform="scale(0.015625)"/>
      <path id="DejaVuSerif-6f" d="M 1925 219 
Q 2388 219 2623 584 
Q 2859 950 2859 1663 
Q 2859 2375 2623 2739 
Q 2388 3103 1925 3103 
Q 1463 3103 1227 2739 
Q 991 2375 991 1663 
Q 991 950 1228 584 
Q 1466 219 1925 219 
z
M 1925 -91 
Q 1200 -91 759 389 
Q 319 869 319 1663 
Q 319 2456 758 2934 
Q 1197 3413 1925 3413 
Q 2653 3413 3092 2934 
Q 3531 2456 3531 1663 
Q 3531 869 3092 389 
Q 2653 -91 1925 -91 
z
" transform="scale(0.015625)"/>
      <path id="DejaVuSerif-72" d="M 3059 3328 
L 3059 2497 
L 2728 2497 
Q 2713 2744 2591 2866 
Q 2469 2988 2234 2988 
Q 1809 2988 1582 2694 
Q 1356 2400 1356 1850 
L 1356 331 
L 2022 331 
L 2022 0 
L 263 0 
L 263 331 
L 781 331 
L 781 2994 
L 231 2994 
L 231 3322 
L 1356 3322 
L 1356 2731 
Q 1525 3078 1790 3245 
Q 2056 3413 2438 3413 
Q 2578 3413 2733 3391 
Q 2888 3369 3059 3328 
z
" transform="scale(0.015625)"/>
      <path id="DejaVuSerif-6b" d="M 1831 0 
L 219 0 
L 219 331 
L 738 331 
L 738 4531 
L 184 4531 
L 184 4863 
L 1313 4863 
L 1313 1697 
L 2713 2988 
L 2234 2988 
L 2234 3322 
L 3738 3322 
L 3738 2988 
L 3169 2988 
L 2181 2075 
L 3444 331 
L 3922 331 
L 3922 0 
L 2284 0 
L 2284 331 
L 2759 331 
L 1766 1697 
L 1313 1275 
L 1313 331 
L 1831 331 
L 1831 0 
z
" transform="scale(0.015625)"/>
      <path id="DejaVuSerif-6c" d="M 1313 331 
L 1856 331 
L 1856 0 
L 184 0 
L 184 331 
L 738 331 
L 738 4531 
L 184 4531 
L 184 4863 
L 1313 4863 
L 1313 331 
z
" transform="scale(0.015625)"/>
      <path id="DejaVuSerif-61" d="M 2547 1044 
L 2547 1747 
L 1806 1747 
Q 1378 1747 1168 1562 
Q 959 1378 959 997 
Q 959 650 1171 447 
Q 1384 244 1747 244 
Q 2106 244 2326 466 
Q 2547 688 2547 1044 
z
M 3122 2075 
L 3122 331 
L 3634 331 
L 3634 0 
L 2547 0 
L 2547 359 
Q 2356 128 2106 18 
Q 1856 -91 1522 -91 
Q 969 -91 644 203 
Q 319 497 319 997 
Q 319 1513 691 1797 
Q 1063 2081 1741 2081 
L 2547 2081 
L 2547 2309 
Q 2547 2688 2317 2895 
Q 2088 3103 1672 3103 
Q 1328 3103 1125 2947 
Q 922 2791 872 2484 
L 575 2484 
L 575 3156 
Q 875 3284 1158 3348 
Q 1441 3413 1709 3413 
Q 2400 3413 2761 3070 
Q 3122 2728 3122 2075 
z
" transform="scale(0.015625)"/>
      <path id="DejaVuSerif-64" d="M 3359 331 
L 3909 331 
L 3909 0 
L 2784 0 
L 2784 519 
Q 2616 206 2355 57 
Q 2094 -91 1709 -91 
Q 1097 -91 708 395 
Q 319 881 319 1663 
Q 319 2444 706 2928 
Q 1094 3413 1709 3413 
Q 2094 3413 2355 3264 
Q 2616 3116 2784 2803 
L 2784 4531 
L 2241 4531 
L 2241 4863 
L 3359 4863 
L 3359 331 
z
M 2784 1497 
L 2784 1825 
Q 2784 2422 2554 2737 
Q 2325 3053 1888 3053 
Q 1444 3053 1217 2703 
Q 991 2353 991 1663 
Q 991 975 1217 622 
Q 1444 269 1888 269 
Q 2325 269 2554 583 
Q 2784 897 2784 1497 
z
" transform="scale(0.015625)"/>
      <path id="DejaVuSerif-20" transform="scale(0.015625)"/>
      <path id="DejaVuSerif-47" d="M 4097 3272 
Q 3988 3856 3641 4136 
Q 3294 4416 2675 4416 
Q 1869 4416 1472 3897 
Q 1075 3378 1075 2328 
Q 1075 1300 1484 772 
Q 1894 244 2688 244 
Q 3041 244 3362 331 
Q 3684 419 3975 594 
L 3975 1797 
L 3097 1797 
L 3097 2131 
L 4609 2131 
L 4609 391 
Q 4194 150 3714 29 
Q 3234 -91 2688 -91 
Q 1631 -91 995 570 
Q 359 1231 359 2328 
Q 359 3434 996 4092 
Q 1634 4750 2713 4750 
Q 3113 4750 3539 4658 
Q 3966 4566 4447 4378 
L 4447 3272 
L 4097 3272 
z
" transform="scale(0.015625)"/>
      <path id="DejaVuSerif-65" d="M 3469 1600 
L 991 1600 
L 991 1575 
Q 991 903 1244 561 
Q 1497 219 1991 219 
Q 2369 219 2611 417 
Q 2853 616 2950 1006 
L 3413 1006 
Q 3275 459 2904 184 
Q 2534 -91 1931 -91 
Q 1203 -91 761 389 
Q 319 869 319 1663 
Q 319 2450 753 2931 
Q 1188 3413 1894 3413 
Q 2647 3413 3050 2948 
Q 3453 2484 3469 1600 
z
M 2791 1931 
Q 2772 2513 2545 2808 
Q 2319 3103 1894 3103 
Q 1497 3103 1269 2806 
Q 1041 2509 991 1931 
L 2791 1931 
z
" transform="scale(0.015625)"/>
      <path id="DejaVuSerif-6e" d="M 263 0 
L 263 331 
L 781 331 
L 781 2988 
L 231 2988 
L 231 3322 
L 1356 3322 
L 1356 2731 
Q 1516 3069 1770 3241 
Q 2025 3413 2363 3413 
Q 2913 3413 3172 3097 
Q 3431 2781 3431 2113 
L 3431 331 
L 3944 331 
L 3944 0 
L 2356 0 
L 2356 331 
L 2853 331 
L 2853 1931 
Q 2853 2541 2703 2767 
Q 2553 2994 2175 2994 
Q 1775 2994 1565 2701 
Q 1356 2409 1356 1850 
L 1356 331 
L 1856 331 
L 1856 0 
L 263 0 
z
" transform="scale(0.015625)"/>
      <path id="DejaVuSerif-74" d="M 691 2988 
L 184 2988 
L 184 3322 
L 691 3322 
L 691 4353 
L 1269 4353 
L 1269 3322 
L 2350 3322 
L 2350 2988 
L 1269 2988 
L 1269 878 
Q 1269 456 1350 337 
Q 1431 219 1650 219 
Q 1875 219 1978 351 
Q 2081 484 2088 781 
L 2522 781 
Q 2497 328 2275 118 
Q 2053 -91 1600 -91 
Q 1103 -91 897 129 
Q 691 350 691 878 
L 691 2988 
z
" transform="scale(0.015625)"/>
     </defs>
     <use xlink:href="#DejaVuSerif-57"/>
     <use xlink:href="#DejaVuSerif-6f" transform="translate(96.033203 0)"/>
     <use xlink:href="#DejaVuSerif-72" transform="translate(156.238281 0)"/>
     <use xlink:href="#DejaVuSerif-6b" transform="translate(204.041016 0)"/>
     <use xlink:href="#DejaVuSerif-6c" transform="translate(264.636719 0)"/>
     <use xlink:href="#DejaVuSerif-6f" transform="translate(296.619141 0)"/>
     <use xlink:href="#DejaVuSerif-61" transform="translate(356.824219 0)"/>
     <use xlink:href="#DejaVuSerif-64" transform="translate(416.443359 0)"/>
     <use xlink:href="#DejaVuSerif-20" transform="translate(480.457031 0)"/>
     <use xlink:href="#DejaVuSerif-47" transform="translate(512.244141 0)"/>
     <use xlink:href="#DejaVuSerif-65" transform="translate(592.126953 0)"/>
     <use xlink:href="#DejaVuSerif-6e" transform="translate(651.306641 0)"/>
     <use xlink:href="#DejaVuSerif-65" transform="translate(715.710938 0)"/>
     <use xlink:href="#DejaVuSerif-72" transform="translate(774.890625 0)"/>
     <use xlink:href="#DejaVuSerif-61" transform="translate(822.693359 0)"/>
     <use xlink:href="#DejaVuSerif-74" transform="translate(882.3125 0)"/>
     <use xlink:href="#DejaVuSerif-6f" transform="translate(922.498047 0)"/>
     <use xlink:href="#DejaVuSerif-72" transform="translate(982.703125 0)"/>
    </g>
    <!-- Low/high entropy blocks -->
    <g style="fill: #262626" transform="translate(18.322406 118.954722) scale(0.1 -0.1)">
     <defs>
      <path id="DejaVuSerif-4c" d="M 353 0 
L 353 331 
L 947 331 
L 947 4331 
L 353 4331 
L 353 4666 
L 2175 4666 
L 2175 4331 
L 1581 4331 
L 1581 384 
L 3713 384 
L 3713 1166 
L 4097 1166 
L 4097 0 
L 353 0 
z
" transform="scale(0.015625)"/>
      <path id="DejaVuSerif-77" d="M 3072 3322 
L 3922 728 
L 4672 2988 
L 4191 2988 
L 4191 3322 
L 5394 3322 
L 5394 2988 
L 5025 2988 
L 4038 0 
L 3559 0 
L 2741 2484 
L 1919 0 
L 1459 0 
L 475 2988 
L 103 2988 
L 103 3322 
L 1606 3322 
L 1606 2988 
L 1069 2988 
L 1813 728 
L 2669 3322 
L 3072 3322 
z
" transform="scale(0.015625)"/>
      <path id="DejaVuSerif-2f" d="M 1656 4666 
L 2156 4666 
L 500 -594 
L 0 -594 
L 1656 4666 
z
" transform="scale(0.015625)"/>
      <path id="DejaVuSerif-68" d="M 263 0 
L 263 331 
L 781 331 
L 781 4531 
L 231 4531 
L 231 4863 
L 1356 4863 
L 1356 2731 
Q 1516 3069 1770 3241 
Q 2025 3413 2363 3413 
Q 2913 3413 3172 3097 
Q 3431 2781 3431 2113 
L 3431 331 
L 3944 331 
L 3944 0 
L 2356 0 
L 2356 331 
L 2853 331 
L 2853 1931 
Q 2853 2541 2704 2764 
Q 2556 2988 2175 2988 
Q 1775 2988 1565 2697 
Q 1356 2406 1356 1850 
L 1356 331 
L 1856 331 
L 1856 0 
L 263 0 
z
" transform="scale(0.015625)"/>
      <path id="DejaVuSerif-69" d="M 622 4353 
Q 622 4497 726 4603 
Q 831 4709 978 4709 
Q 1122 4709 1226 4603 
Q 1331 4497 1331 4353 
Q 1331 4206 1228 4103 
Q 1125 4000 978 4000 
Q 831 4000 726 4103 
Q 622 4206 622 4353 
z
M 1356 331 
L 1900 331 
L 1900 0 
L 231 0 
L 231 331 
L 781 331 
L 781 2988 
L 231 2988 
L 231 3322 
L 1356 3322 
L 1356 331 
z
" transform="scale(0.015625)"/>
      <path id="DejaVuSerif-67" d="M 3359 2988 
L 3359 72 
Q 3359 -644 2965 -1033 
Q 2572 -1422 1844 -1422 
Q 1516 -1422 1216 -1362 
Q 916 -1303 641 -1184 
L 641 -488 
L 941 -488 
Q 997 -813 1206 -963 
Q 1416 -1113 1806 -1113 
Q 2313 -1113 2548 -827 
Q 2784 -541 2784 72 
L 2784 519 
Q 2616 206 2355 57 
Q 2094 -91 1709 -91 
Q 1097 -91 708 395 
Q 319 881 319 1663 
Q 319 2444 706 2928 
Q 1094 3413 1709 3413 
Q 2094 3413 2355 3264 
Q 2616 3116 2784 2803 
L 2784 3322 
L 3909 3322 
L 3909 2988 
L 3359 2988 
z
M 2784 1825 
Q 2784 2422 2554 2737 
Q 2325 3053 1888 3053 
Q 1444 3053 1217 2703 
Q 991 2353 991 1663 
Q 991 975 1217 622 
Q 1444 269 1888 269 
Q 2325 269 2554 583 
Q 2784 897 2784 1497 
L 2784 1825 
z
" transform="scale(0.015625)"/>
      <path id="DejaVuSerif-70" d="M 1313 1825 
L 1313 1497 
Q 1313 897 1542 583 
Q 1772 269 2209 269 
Q 2650 269 2876 622 
Q 3103 975 3103 1663 
Q 3103 2353 2876 2703 
Q 2650 3053 2209 3053 
Q 1772 3053 1542 2737 
Q 1313 2422 1313 1825 
z
M 738 2988 
L 184 2988 
L 184 3322 
L 1313 3322 
L 1313 2803 
Q 1481 3116 1742 3264 
Q 2003 3413 2388 3413 
Q 3000 3413 3387 2928 
Q 3775 2444 3775 1663 
Q 3775 881 3387 395 
Q 3000 -91 2388 -91 
Q 2003 -91 1742 57 
Q 1481 206 1313 519 
L 1313 -997 
L 1856 -997 
L 1856 -1331 
L 184 -1331 
L 184 -997 
L 738 -997 
L 738 2988 
z
" transform="scale(0.015625)"/>
      <path id="DejaVuSerif-79" d="M 1381 -609 
L 1600 -56 
L 359 2988 
L -19 2988 
L -19 3322 
L 1509 3322 
L 1509 2988 
L 978 2988 
L 1913 703 
L 2847 2988 
L 2350 2988 
L 2350 3322 
L 3597 3322 
L 3597 2988 
L 3225 2988 
L 1703 -750 
Q 1547 -1138 1356 -1280 
Q 1166 -1422 819 -1422 
Q 672 -1422 517 -1397 
Q 363 -1372 206 -1325 
L 206 -691 
L 500 -691 
Q 519 -903 608 -995 
Q 697 -1088 884 -1088 
Q 1056 -1088 1161 -992 
Q 1266 -897 1381 -609 
z
" transform="scale(0.015625)"/>
      <path id="DejaVuSerif-62" d="M 738 331 
L 738 4531 
L 184 4531 
L 184 4863 
L 1313 4863 
L 1313 2803 
Q 1481 3116 1742 3264 
Q 2003 3413 2388 3413 
Q 3000 3413 3387 2928 
Q 3775 2444 3775 1663 
Q 3775 881 3387 395 
Q 3000 -91 2388 -91 
Q 2003 -91 1742 57 
Q 1481 206 1313 519 
L 1313 0 
L 184 0 
L 184 331 
L 738 331 
z
M 1313 1497 
Q 1313 897 1542 583 
Q 1772 269 2209 269 
Q 2650 269 2876 622 
Q 3103 975 3103 1663 
Q 3103 2353 2876 2703 
Q 2650 3053 2209 3053 
Q 1772 3053 1542 2737 
Q 1313 2422 1313 1825 
L 1313 1497 
z
" transform="scale(0.015625)"/>
      <path id="DejaVuSerif-63" d="M 3291 997 
Q 3169 466 2822 187 
Q 2475 -91 1925 -91 
Q 1200 -91 759 389 
Q 319 869 319 1663 
Q 319 2459 759 2936 
Q 1200 3413 1925 3413 
Q 2241 3413 2553 3339 
Q 2866 3266 3181 3116 
L 3181 2266 
L 2847 2266 
Q 2781 2703 2561 2903 
Q 2341 3103 1931 3103 
Q 1466 3103 1228 2742 
Q 991 2381 991 1663 
Q 991 944 1227 581 
Q 1463 219 1931 219 
Q 2303 219 2525 412 
Q 2747 606 2828 997 
L 3291 997 
z
" transform="scale(0.015625)"/>
      <path id="DejaVuSerif-73" d="M 359 184 
L 359 959 
L 691 959 
Q 703 588 923 403 
Q 1144 219 1575 219 
Q 1963 219 2166 364 
Q 2369 509 2369 788 
Q 2369 1006 2220 1140 
Q 2072 1275 1594 1428 
L 1178 1569 
Q 750 1706 558 1912 
Q 366 2119 366 2438 
Q 366 2894 700 3153 
Q 1034 3413 1625 3413 
Q 1888 3413 2178 3344 
Q 2469 3275 2778 3144 
L 2778 2419 
L 2447 2419 
Q 2434 2741 2221 2922 
Q 2009 3103 1644 3103 
Q 1281 3103 1095 2975 
Q 909 2847 909 2591 
Q 909 2381 1050 2254 
Q 1191 2128 1613 1997 
L 2069 1856 
Q 2541 1709 2748 1489 
Q 2956 1269 2956 922 
Q 2956 450 2595 179 
Q 2234 -91 1600 -91 
Q 1278 -91 972 -22 
Q 666 47 359 184 
z
" transform="scale(0.015625)"/>
     </defs>
     <use xlink:href="#DejaVuSerif-4c"/>
     <use xlink:href="#DejaVuSerif-6f" transform="translate(66.40625 0)"/>
     <use xlink:href="#DejaVuSerif-77" transform="translate(126.611328 0)"/>
     <use xlink:href="#DejaVuSerif-2f" transform="translate(212.207031 0)"/>
     <use xlink:href="#DejaVuSerif-68" transform="translate(245.898438 0)"/>
     <use xlink:href="#DejaVuSerif-69" transform="translate(310.302734 0)"/>
     <use xlink:href="#DejaVuSerif-67" transform="translate(342.285156 0)"/>
     <use xlink:href="#DejaVuSerif-68" transform="translate(406.298828 0)"/>
     <use xlink:href="#DejaVuSerif-20" transform="translate(470.703125 0)"/>
     <use xlink:href="#DejaVuSerif-65" transform="translate(502.490234 0)"/>
     <use xlink:href="#DejaVuSerif-6e" transform="translate(561.669922 0)"/>
     <use xlink:href="#DejaVuSerif-74" transform="translate(626.074219 0)"/>
     <use xlink:href="#DejaVuSerif-72" transform="translate(666.259766 0)"/>
     <use xlink:href="#DejaVuSerif-6f" transform="translate(714.0625 0)"/>
     <use xlink:href="#DejaVuSerif-70" transform="translate(774.267578 0)"/>
     <use xlink:href="#DejaVuSerif-79" transform="translate(838.28125 0)"/>
     <use xlink:href="#DejaVuSerif-20" transform="translate(894.775391 0)"/>
     <use xlink:href="#DejaVuSerif-62" transform="translate(926.5625 0)"/>
     <use xlink:href="#DejaVuSerif-6c" transform="translate(990.576172 0)"/>
     <use xlink:href="#DejaVuSerif-6f" transform="translate(1022.558594 0)"/>
     <use xlink:href="#DejaVuSerif-63" transform="translate(1082.763672 0)"/>
     <use xlink:href="#DejaVuSerif-6b" transform="translate(1138.769531 0)"/>
     <use xlink:href="#DejaVuSerif-73" transform="translate(1199.365234 0)"/>
    </g>
    <!-- Stress scenarios -->
    <g style="fill: #262626" transform="translate(39.260688 130.294722) scale(0.1 -0.1)">
     <defs>
      <path id="DejaVuSerif-53" d="M 594 225 
L 594 1288 
L 953 1284 
Q 969 753 1261 498 
Q 1553 244 2150 244 
Q 2706 244 2998 464 
Q 3291 684 3291 1106 
Q 3291 1444 3114 1625 
Q 2938 1806 2369 1978 
L 1753 2163 
Q 1084 2366 811 2669 
Q 538 2972 538 3500 
Q 538 4094 959 4422 
Q 1381 4750 2144 4750 
Q 2469 4750 2856 4679 
Q 3244 4609 3681 4475 
L 3681 3481 
L 3328 3481 
Q 3275 3975 2998 4195 
Q 2722 4416 2156 4416 
Q 1663 4416 1405 4214 
Q 1147 4013 1147 3628 
Q 1147 3294 1340 3103 
Q 1534 2913 2163 2725 
L 2741 2553 
Q 3375 2363 3645 2067 
Q 3916 1772 3916 1275 
Q 3916 597 3481 253 
Q 3047 -91 2188 -91 
Q 1803 -91 1404 -12 
Q 1006 66 594 225 
z
" transform="scale(0.015625)"/>
     </defs>
     <use xlink:href="#DejaVuSerif-53"/>
     <use xlink:href="#DejaVuSerif-74" transform="translate(68.505859 0)"/>
     <use xlink:href="#DejaVuSerif-72" transform="translate(108.691406 0)"/>
     <use xlink:href="#DejaVuSerif-65" transform="translate(156.494141 0)"/>
     <use xlink:href="#DejaVuSerif-73" transform="translate(215.673828 0)"/>
     <use xlink:href="#DejaVuSerif-73" transform="translate(266.992188 0)"/>
     <use xlink:href="#DejaVuSerif-20" transform="translate(318.310547 0)"/>
     <use xlink:href="#DejaVuSerif-73" transform="translate(350.097656 0)"/>
     <use xlink:href="#DejaVuSerif-63" transform="translate(401.416016 0)"/>
     <use xlink:href="#DejaVuSerif-65" transform="translate(457.421875 0)"/>
     <use xlink:href="#DejaVuSerif-6e" transform="translate(516.601562 0)"/>
     <use xlink:href="#DejaVuSerif-61" transform="translate(581.005859 0)"/>
     <use xlink:href="#DejaVuSerif-72" transform="translate(640.625 0)"/>
     <use xlink:href="#DejaVuSerif-69" transform="translate(688.427734 0)"/>
     <use xlink:href="#DejaVuSerif-6f" transform="translate(720.410156 0)"/>
     <use xlink:href="#DejaVuSerif-73" transform="translate(780.615234 0)"/>
    </g>
   </g>
   <g id="text_2">
    <!-- Proxy Environment -->
    <g style="fill: #262626" transform="translate(185.463031 107.543629) scale(0.1 -0.1)">
     <defs>
      <path id="DejaVuSerif-50" d="M 1581 2375 
L 2406 2375 
Q 2872 2375 3115 2626 
Q 3359 2878 3359 3353 
Q 3359 3831 3115 4081 
Q 2872 4331 2406 4331 
L 1581 4331 
L 1581 2375 
z
M 353 0 
L 353 331 
L 947 331 
L 947 4331 
L 353 4331 
L 353 4666 
L 2559 4666 
Q 3259 4666 3668 4311 
Q 4078 3956 4078 3353 
Q 4078 2753 3668 2397 
Q 3259 2041 2559 2041 
L 1581 2041 
L 1581 331 
L 2303 331 
L 2303 0 
L 353 0 
z
" transform="scale(0.015625)"/>
      <path id="DejaVuSerif-78" d="M 1863 2028 
L 2559 2988 
L 2113 2988 
L 2113 3322 
L 3391 3322 
L 3391 2988 
L 2950 2988 
L 2059 1759 
L 3097 331 
L 3531 331 
L 3531 0 
L 1997 0 
L 1997 331 
L 2419 331 
L 1697 1325 
L 972 331 
L 1403 331 
L 1403 0 
L 141 0 
L 141 331 
L 581 331 
L 1497 1594 
L 488 2988 
L 78 2988 
L 78 3322 
L 1563 3322 
L 1563 2988 
L 1166 2988 
L 1863 2028 
z
" transform="scale(0.015625)"/>
      <path id="DejaVuSerif-45" d="M 353 0 
L 353 331 
L 947 331 
L 947 4331 
L 353 4331 
L 353 4666 
L 4109 4666 
L 4109 3628 
L 3725 3628 
L 3725 4281 
L 1581 4281 
L 1581 2719 
L 3109 2719 
L 3109 3303 
L 3494 3303 
L 3494 1753 
L 3109 1753 
L 3109 2338 
L 1581 2338 
L 1581 384 
L 3775 384 
L 3775 1038 
L 4159 1038 
L 4159 0 
L 353 0 
z
" transform="scale(0.015625)"/>
      <path id="DejaVuSerif-76" d="M 1581 0 
L 359 2988 
L -19 2988 
L -19 3322 
L 1509 3322 
L 1509 2988 
L 978 2988 
L 1913 703 
L 2847 2988 
L 2350 2988 
L 2350 3322 
L 3597 3322 
L 3597 2988 
L 3225 2988 
L 2003 0 
L 1581 0 
z
" transform="scale(0.015625)"/>
      <path id="DejaVuSerif-6d" d="M 3316 2675 
Q 3481 3041 3739 3227 
Q 3997 3413 4341 3413 
Q 4863 3413 5119 3089 
Q 5375 2766 5375 2113 
L 5375 331 
L 5894 331 
L 5894 0 
L 4300 0 
L 4300 331 
L 4800 331 
L 4800 2047 
Q 4800 2556 4650 2772 
Q 4500 2988 4153 2988 
Q 3769 2988 3567 2697 
Q 3366 2406 3366 1850 
L 3366 331 
L 3866 331 
L 3866 0 
L 2291 0 
L 2291 331 
L 2791 331 
L 2791 2069 
Q 2791 2566 2641 2777 
Q 2491 2988 2144 2988 
Q 1759 2988 1557 2697 
Q 1356 2406 1356 1850 
L 1356 331 
L 1856 331 
L 1856 0 
L 263 0 
L 263 331 
L 781 331 
L 781 2994 
L 231 2994 
L 231 3322 
L 1356 3322 
L 1356 2731 
Q 1516 3063 1762 3238 
Q 2009 3413 2322 3413 
Q 2709 3413 2968 3220 
Q 3228 3028 3316 2675 
z
" transform="scale(0.015625)"/>
     </defs>
     <use xlink:href="#DejaVuSerif-50"/>
     <use xlink:href="#DejaVuSerif-72" transform="translate(67.285156 0)"/>
     <use xlink:href="#DejaVuSerif-6f" transform="translate(115.087891 0)"/>
     <use xlink:href="#DejaVuSerif-78" transform="translate(175.292969 0)"/>
     <use xlink:href="#DejaVuSerif-79" transform="translate(231.689453 0)"/>
     <use xlink:href="#DejaVuSerif-20" transform="translate(288.183594 0)"/>
     <use xlink:href="#DejaVuSerif-45" transform="translate(319.970703 0)"/>
     <use xlink:href="#DejaVuSerif-6e" transform="translate(392.96875 0)"/>
     <use xlink:href="#DejaVuSerif-76" transform="translate(457.373047 0)"/>
     <use xlink:href="#DejaVuSerif-69" transform="translate(513.867188 0)"/>
     <use xlink:href="#DejaVuSerif-72" transform="translate(545.849609 0)"/>
     <use xlink:href="#DejaVuSerif-6f" transform="translate(593.652344 0)"/>
     <use xlink:href="#DejaVuSerif-6e" transform="translate(653.857422 0)"/>
     <use xlink:href="#DejaVuSerif-6d" transform="translate(718.261719 0)"/>
     <use xlink:href="#DejaVuSerif-65" transform="translate(813.085938 0)"/>
     <use xlink:href="#DejaVuSerif-6e" transform="translate(872.265625 0)"/>
     <use xlink:href="#DejaVuSerif-74" transform="translate(936.669922 0)"/>
    </g>
    <!-- Single node -->
    <g style="fill: #262626" transform="translate(204.322406 118.883629) scale(0.1 -0.1)">
     <use xlink:href="#DejaVuSerif-53"/>
     <use xlink:href="#DejaVuSerif-69" transform="translate(68.505859 0)"/>
     <use xlink:href="#DejaVuSerif-6e" transform="translate(100.488281 0)"/>
     <use xlink:href="#DejaVuSerif-67" transform="translate(164.892578 0)"/>
     <use xlink:href="#DejaVuSerif-6c" transform="translate(228.90625 0)"/>
     <use xlink:href="#DejaVuSerif-65" transform="translate(260.888672 0)"/>
     <use xlink:href="#DejaVuSerif-20" transform="translate(320.068359 0)"/>
     <use xlink:href="#DejaVuSerif-6e" transform="translate(351.855469 0)"/>
     <use xlink:href="#DejaVuSerif-6f" transform="translate(416.259766 0)"/>
     <use xlink:href="#DejaVuSerif-64" transform="translate(476.464844 0)"/>
     <use xlink:href="#DejaVuSerif-65" transform="translate(540.478516 0)"/>
    </g>
    <!-- CPU + memory -->
    <g style="fill: #262626" transform="translate(194.954438 130.223629) scale(0.1 -0.1)">
     <defs>
      <path id="DejaVuSerif-43" d="M 4513 1234 
Q 4306 581 3820 245 
Q 3334 -91 2591 -91 
Q 2134 -91 1743 65 
Q 1353 222 1050 525 
Q 700 875 529 1320 
Q 359 1766 359 2328 
Q 359 3416 987 4083 
Q 1616 4750 2644 4750 
Q 3025 4750 3456 4650 
Q 3888 4550 4384 4347 
L 4384 3272 
L 4031 3272 
Q 3916 3859 3567 4137 
Q 3219 4416 2591 4416 
Q 1844 4416 1459 3886 
Q 1075 3356 1075 2328 
Q 1075 1303 1459 773 
Q 1844 244 2591 244 
Q 3113 244 3450 492 
Q 3788 741 3938 1234 
L 4513 1234 
z
" transform="scale(0.015625)"/>
      <path id="DejaVuSerif-55" d="M 897 4331 
L 300 4331 
L 300 4666 
L 2125 4666 
L 2125 4331 
L 1528 4331 
L 1528 1919 
Q 1528 1025 1820 672 
Q 2113 319 2828 319 
Q 3544 319 3836 672 
Q 4128 1025 4128 1919 
L 4128 4331 
L 3531 4331 
L 3531 4666 
L 5106 4666 
L 5106 4331 
L 4513 4331 
L 4513 1856 
Q 4513 791 4103 350 
Q 3694 -91 2713 -91 
Q 1731 -91 1314 353 
Q 897 797 897 1856 
L 897 4331 
z
" transform="scale(0.015625)"/>
      <path id="DejaVuSerif-2b" d="M 2931 4013 
L 2931 2259 
L 4684 2259 
L 4684 1753 
L 2931 1753 
L 2931 0 
L 2431 0 
L 2431 1753 
L 678 1753 
L 678 2259 
L 2431 2259 
L 2431 4013 
L 2931 4013 
z
" transform="scale(0.015625)"/>
     </defs>
     <use xlink:href="#DejaVuSerif-43"/>
     <use xlink:href="#DejaVuSerif-50" transform="translate(76.513672 0)"/>
     <use xlink:href="#DejaVuSerif-55" transform="translate(142.048828 0)"/>
     <use xlink:href="#DejaVuSerif-20" transform="translate(226.326172 0)"/>
     <use xlink:href="#DejaVuSerif-2b" transform="translate(258.113281 0)"/>
     <use xlink:href="#DejaVuSerif-20" transform="translate(341.902344 0)"/>
     <use xlink:href="#DejaVuSerif-6d" transform="translate(373.689453 0)"/>
     <use xlink:href="#DejaVuSerif-65" transform="translate(468.513672 0)"/>
     <use xlink:href="#DejaVuSerif-6d" transform="translate(527.693359 0)"/>
     <use xlink:href="#DejaVuSerif-6f" transform="translate(622.517578 0)"/>
     <use xlink:href="#DejaVuSerif-72" transform="translate(682.722656 0)"/>
     <use xlink:href="#DejaVuSerif-79" transform="translate(730.525391 0)"/>
    </g>
   </g>
   <g id="text_3">
    <!-- Learners -->
    <g style="fill: #262626" transform="translate(364.970063 107.828004) scale(0.1 -0.1)">
     <use xlink:href="#DejaVuSerif-4c"/>
     <use xlink:href="#DejaVuSerif-65" transform="translate(66.40625 0)"/>
     <use xlink:href="#DejaVuSerif-61" transform="translate(125.585938 0)"/>
     <use xlink:href="#DejaVuSerif-72" transform="translate(185.205078 0)"/>
     <use xlink:href="#DejaVuSerif-6e" transform="translate(233.007812 0)"/>
     <use xlink:href="#DejaVuSerif-65" transform="translate(297.412109 0)"/>
     <use xlink:href="#DejaVuSerif-72" transform="translate(356.591797 0)"/>
     <use xlink:href="#DejaVuSerif-73" transform="translate(404.394531 0)"/>
    </g>
    <!-- Heuristic, PG, DQN, -->
    <g style="fill: #262626" transform="translate(336.966156 119.025816) scale(0.1 -0.1)">
     <defs>
      <path id="DejaVuSerif-48" d="M 353 0 
L 353 331 
L 947 331 
L 947 4331 
L 353 4331 
L 353 4666 
L 2175 4666 
L 2175 4331 
L 1581 4331 
L 1581 2719 
L 4000 2719 
L 4000 4331 
L 3406 4331 
L 3406 4666 
L 5228 4666 
L 5228 4331 
L 4634 4331 
L 4634 331 
L 5228 331 
L 5228 0 
L 3406 0 
L 3406 331 
L 4000 331 
L 4000 2338 
L 1581 2338 
L 1581 331 
L 2175 331 
L 2175 0 
L 353 0 
z
" transform="scale(0.015625)"/>
      <path id="DejaVuSerif-75" d="M 2266 3322 
L 3341 3322 
L 3341 331 
L 3884 331 
L 3884 0 
L 2766 0 
L 2766 588 
Q 2606 256 2353 82 
Q 2100 -91 1766 -91 
Q 1213 -91 952 223 
Q 691 538 691 1209 
L 691 2988 
L 172 2988 
L 172 3322 
L 1269 3322 
L 1269 1388 
Q 1269 781 1417 556 
Q 1566 331 1947 331 
Q 2347 331 2556 625 
Q 2766 919 2766 1478 
L 2766 2988 
L 2266 2988 
L 2266 3322 
z
" transform="scale(0.015625)"/>
      <path id="DejaVuSerif-2c" d="M 231 -622 
Q 525 -406 662 -114 
Q 800 178 800 594 
L 800 709 
L 1416 709 
Q 1391 175 1164 -208 
Q 938 -591 481 -872 
L 231 -622 
z
" transform="scale(0.015625)"/>
      <path id="DejaVuSerif-44" d="M 1581 331 
L 2163 331 
Q 3072 331 3558 850 
Q 4044 1369 4044 2338 
Q 4044 3306 3559 3818 
Q 3075 4331 2163 4331 
L 1581 4331 
L 1581 331 
z
M 353 0 
L 353 331 
L 947 331 
L 947 4331 
L 353 4331 
L 353 4666 
L 2209 4666 
Q 3416 4666 4089 4050 
Q 4763 3434 4763 2338 
Q 4763 1238 4088 619 
Q 3413 0 2209 0 
L 353 0 
z
" transform="scale(0.015625)"/>
      <path id="DejaVuSerif-51" d="M 2700 -91 
Q 1628 -91 993 567 
Q 359 1225 359 2328 
Q 359 2894 529 3339 
Q 700 3784 1050 4134 
Q 1356 4441 1750 4595 
Q 2144 4750 2625 4750 
Q 3641 4750 4266 4084 
Q 4891 3419 4891 2328 
Q 4891 1403 4422 773 
Q 3953 144 3128 -38 
Q 3297 -247 3539 -347 
Q 3781 -447 4122 -447 
L 4219 -447 
L 4219 -1025 
Q 3691 -1000 3314 -767 
Q 2938 -534 2700 -91 
z
M 2625 244 
Q 3391 244 3781 770 
Q 4172 1297 4172 2328 
Q 4172 3363 3781 3889 
Q 3391 4416 2625 4416 
Q 1856 4416 1465 3889 
Q 1075 3363 1075 2328 
Q 1075 1297 1465 770 
Q 1856 244 2625 244 
z
" transform="scale(0.015625)"/>
      <path id="DejaVuSerif-4e" d="M 313 0 
L 313 331 
L 941 331 
L 941 4331 
L 313 4331 
L 313 4666 
L 1509 4666 
L 4306 984 
L 4306 4331 
L 3681 4331 
L 3681 4666 
L 5319 4666 
L 5319 4331 
L 4691 4331 
L 4691 -91 
L 4313 -91 
L 1325 3841 
L 1325 331 
L 1953 331 
L 1953 0 
L 313 0 
z
" transform="scale(0.015625)"/>
     </defs>
     <use xlink:href="#DejaVuSerif-48"/>
     <use xlink:href="#DejaVuSerif-65" transform="translate(87.207031 0)"/>
     <use xlink:href="#DejaVuSerif-75" transform="translate(146.386719 0)"/>
     <use xlink:href="#DejaVuSerif-72" transform="translate(210.791016 0)"/>
     <use xlink:href="#DejaVuSerif-69" transform="translate(258.59375 0)"/>
     <use xlink:href="#DejaVuSerif-73" transform="translate(290.576172 0)"/>
     <use xlink:href="#DejaVuSerif-74" transform="translate(341.894531 0)"/>
     <use xlink:href="#DejaVuSerif-69" transform="translate(382.080078 0)"/>
     <use xlink:href="#DejaVuSerif-63" transform="translate(414.0625 0)"/>
     <use xlink:href="#DejaVuSerif-2c" transform="translate(470.068359 0)"/>
     <use xlink:href="#DejaVuSerif-20" transform="translate(501.855469 0)"/>
     <use xlink:href="#DejaVuSerif-50" transform="translate(533.642578 0)"/>
     <use xlink:href="#DejaVuSerif-47" transform="translate(600.927734 0)"/>
     <use xlink:href="#DejaVuSerif-2c" transform="translate(677.185547 0)"/>
     <use xlink:href="#DejaVuSerif-20" transform="translate(708.972656 0)"/>
     <use xlink:href="#DejaVuSerif-44" transform="translate(740.759766 0)"/>
     <use xlink:href="#DejaVuSerif-51" transform="translate(820.935547 0)"/>
     <use xlink:href="#DejaVuSerif-4e" transform="translate(902.917969 0)"/>
     <use xlink:href="#DejaVuSerif-2c" transform="translate(984.042969 0)"/>
    </g>
    <!-- DQN+RND, Simplified PSAIM -->
    <g style="fill: #262626" transform="translate(311.079438 130.223629) scale(0.1 -0.1)">
     <defs>
      <path id="DejaVuSerif-52" d="M 3066 2316 
Q 3284 2256 3442 2114 
Q 3600 1972 3725 1716 
L 4403 331 
L 4972 331 
L 4972 0 
L 3872 0 
L 3144 1484 
Q 2934 1916 2759 2042 
Q 2584 2169 2278 2169 
L 1581 2169 
L 1581 331 
L 2241 331 
L 2241 0 
L 353 0 
L 353 331 
L 947 331 
L 947 4331 
L 353 4331 
L 353 4666 
L 2719 4666 
Q 3400 4666 3770 4341 
Q 4141 4016 4141 3419 
Q 4141 2938 3870 2661 
Q 3600 2384 3066 2316 
z
M 1581 2503 
L 2503 2503 
Q 2975 2503 3200 2726 
Q 3425 2950 3425 3419 
Q 3425 3888 3200 4109 
Q 2975 4331 2503 4331 
L 1581 4331 
L 1581 2503 
z
" transform="scale(0.015625)"/>
      <path id="DejaVuSerif-66" d="M 2753 4078 
L 2450 4078 
Q 2447 4313 2317 4434 
Q 2188 4556 1941 4556 
Q 1619 4556 1487 4379 
Q 1356 4203 1356 3750 
L 1356 3322 
L 2284 3322 
L 2284 2988 
L 1356 2988 
L 1356 331 
L 2094 331 
L 2094 0 
L 231 0 
L 231 331 
L 781 331 
L 781 2988 
L 231 2988 
L 231 3322 
L 781 3322 
L 781 3738 
Q 781 4294 1070 4578 
Q 1359 4863 1919 4863 
Q 2128 4863 2337 4825 
Q 2547 4788 2753 4709 
L 2753 4078 
z
" transform="scale(0.015625)"/>
      <path id="DejaVuSerif-41" d="M 1281 1691 
L 2994 1691 
L 2138 3909 
L 1281 1691 
z
M -38 0 
L -38 331 
L 372 331 
L 2034 4666 
L 2559 4666 
L 4225 331 
L 4684 331 
L 4684 0 
L 2988 0 
L 2988 331 
L 3506 331 
L 3116 1356 
L 1153 1356 
L 763 331 
L 1275 331 
L 1275 0 
L -38 0 
z
" transform="scale(0.015625)"/>
      <path id="DejaVuSerif-49" d="M 1581 331 
L 2175 331 
L 2175 0 
L 353 0 
L 353 331 
L 947 331 
L 947 4331 
L 353 4331 
L 353 4666 
L 2175 4666 
L 2175 4331 
L 1581 4331 
L 1581 331 
z
" transform="scale(0.015625)"/>
      <path id="DejaVuSerif-4d" d="M 353 0 
L 353 331 
L 947 331 
L 947 4331 
L 319 4331 
L 319 4666 
L 1678 4666 
L 3316 1344 
L 4953 4666 
L 6228 4666 
L 6228 4331 
L 5606 4331 
L 5606 331 
L 6203 331 
L 6203 0 
L 4378 0 
L 4378 331 
L 4972 331 
L 4972 3938 
L 3372 684 
L 2931 684 
L 1331 3938 
L 1331 331 
L 1925 331 
L 1925 0 
L 353 0 
z
" transform="scale(0.015625)"/>
     </defs>
     <use xlink:href="#DejaVuSerif-44"/>
     <use xlink:href="#DejaVuSerif-51" transform="translate(80.175781 0)"/>
     <use xlink:href="#DejaVuSerif-4e" transform="translate(162.158203 0)"/>
     <use xlink:href="#DejaVuSerif-2b" transform="translate(249.658203 0)"/>
     <use xlink:href="#DejaVuSerif-52" transform="translate(333.447266 0)"/>
     <use xlink:href="#DejaVuSerif-4e" transform="translate(408.740234 0)"/>
     <use xlink:href="#DejaVuSerif-44" transform="translate(496.240234 0)"/>
     <use xlink:href="#DejaVuSerif-2c" transform="translate(572.791016 0)"/>
     <use xlink:href="#DejaVuSerif-20" transform="translate(604.578125 0)"/>
     <use xlink:href="#DejaVuSerif-53" transform="translate(636.365234 0)"/>
     <use xlink:href="#DejaVuSerif-69" transform="translate(704.871094 0)"/>
     <use xlink:href="#DejaVuSerif-6d" transform="translate(736.853516 0)"/>
     <use xlink:href="#DejaVuSerif-70" transform="translate(831.677734 0)"/>
     <use xlink:href="#DejaVuSerif-6c" transform="translate(895.691406 0)"/>
     <use xlink:href="#DejaVuSerif-69" transform="translate(927.673828 0)"/>
     <use xlink:href="#DejaVuSerif-66" transform="translate(959.65625 0)"/>
     <use xlink:href="#DejaVuSerif-69" transform="translate(996.667969 0)"/>
     <use xlink:href="#DejaVuSerif-65" transform="translate(1028.650391 0)"/>
     <use xlink:href="#DejaVuSerif-64" transform="translate(1087.830078 0)"/>
     <use xlink:href="#DejaVuSerif-20" transform="translate(1151.84375 0)"/>
     <use xlink:href="#DejaVuSerif-50" transform="translate(1183.630859 0)"/>
     <use xlink:href="#DejaVuSerif-53" transform="translate(1250.916016 0)"/>
     <use xlink:href="#DejaVuSerif-41" transform="translate(1319.421875 0)"/>
     <use xlink:href="#DejaVuSerif-49" transform="translate(1391.638672 0)"/>
     <use xlink:href="#DejaVuSerif-4d" transform="translate(1431.140625 0)"/>
    </g>
   </g>
   <g id="text_4">
    <!-- Isolated MLflow -->
    <g style="fill: #262626" transform="translate(500.136469 107.828004) scale(0.1 -0.1)">
     <use xlink:href="#DejaVuSerif-49"/>
     <use xlink:href="#DejaVuSerif-73" transform="translate(39.501953 0)"/>
     <use xlink:href="#DejaVuSerif-6f" transform="translate(90.820312 0)"/>
     <use xlink:href="#DejaVuSerif-6c" transform="translate(151.025391 0)"/>
     <use xlink:href="#DejaVuSerif-61" transform="translate(183.007812 0)"/>
     <use xlink:href="#DejaVuSerif-74" transform="translate(242.626953 0)"/>
     <use xlink:href="#DejaVuSerif-65" transform="translate(282.8125 0)"/>
     <use xlink:href="#DejaVuSerif-64" transform="translate(341.992188 0)"/>
     <use xlink:href="#DejaVuSerif-20" transform="translate(406.005859 0)"/>
     <use xlink:href="#DejaVuSerif-4d" transform="translate(437.792969 0)"/>
     <use xlink:href="#DejaVuSerif-4c" transform="translate(540.185547 0)"/>
     <use xlink:href="#DejaVuSerif-66" transform="translate(606.591797 0)"/>
     <use xlink:href="#DejaVuSerif-6c" transform="translate(643.603516 0)"/>
     <use xlink:href="#DejaVuSerif-6f" transform="translate(675.585938 0)"/>
     <use xlink:href="#DejaVuSerif-77" transform="translate(735.791016 0)"/>
    </g>
    <!-- 127.0.0.1:5001 -->
    <g style="fill: #262626" transform="translate(502.941938 119.025816) scale(0.1 -0.1)">
     <defs>
      <path id="DejaVuSerif-31" d="M 909 0 
L 909 331 
L 1722 331 
L 1722 4213 
L 781 3603 
L 781 4013 
L 1919 4750 
L 2350 4750 
L 2350 331 
L 3163 331 
L 3163 0 
L 909 0 
z
" transform="scale(0.015625)"/>
      <path id="DejaVuSerif-32" d="M 819 3553 
L 469 3553 
L 469 4384 
Q 803 4563 1142 4656 
Q 1481 4750 1806 4750 
Q 2534 4750 2956 4397 
Q 3378 4044 3378 3438 
Q 3378 2753 2422 1800 
Q 2347 1728 2309 1691 
L 1131 513 
L 3078 513 
L 3078 1088 
L 3444 1088 
L 3444 0 
L 434 0 
L 434 341 
L 1850 1753 
Q 2319 2222 2519 2614 
Q 2719 3006 2719 3438 
Q 2719 3909 2473 4175 
Q 2228 4441 1797 4441 
Q 1350 4441 1106 4219 
Q 863 3997 819 3553 
z
" transform="scale(0.015625)"/>
      <path id="DejaVuSerif-37" d="M 3609 4347 
L 1784 0 
L 1319 0 
L 3059 4153 
L 903 4153 
L 903 3578 
L 538 3578 
L 538 4666 
L 3609 4666 
L 3609 4347 
z
" transform="scale(0.015625)"/>
      <path id="DejaVuSerif-2e" d="M 603 325 
Q 603 500 722 622 
Q 841 744 1019 744 
Q 1191 744 1312 622 
Q 1434 500 1434 325 
Q 1434 153 1312 31 
Q 1191 -91 1019 -91 
Q 841 -91 722 29 
Q 603 150 603 325 
z
" transform="scale(0.015625)"/>
      <path id="DejaVuSerif-30" d="M 2034 219 
Q 2513 219 2750 744 
Q 2988 1269 2988 2328 
Q 2988 3391 2750 3916 
Q 2513 4441 2034 4441 
Q 1556 4441 1318 3916 
Q 1081 3391 1081 2328 
Q 1081 1269 1318 744 
Q 1556 219 2034 219 
z
M 2034 -91 
Q 1275 -91 848 546 
Q 422 1184 422 2328 
Q 422 3475 848 4112 
Q 1275 4750 2034 4750 
Q 2797 4750 3222 4112 
Q 3647 3475 3647 2328 
Q 3647 1184 3222 546 
Q 2797 -91 2034 -91 
z
" transform="scale(0.015625)"/>
      <path id="DejaVuSerif-3a" d="M 666 325 
Q 666 500 786 622 
Q 906 744 1081 744 
Q 1256 744 1376 622 
Q 1497 500 1497 325 
Q 1497 150 1378 29 
Q 1259 -91 1081 -91 
Q 903 -91 784 29 
Q 666 150 666 325 
z
M 666 2363 
Q 666 2538 786 2658 
Q 906 2778 1081 2778 
Q 1259 2778 1378 2659 
Q 1497 2541 1497 2363 
Q 1497 2184 1378 2065 
Q 1259 1947 1081 1947 
Q 906 1947 786 2067 
Q 666 2188 666 2363 
z
" transform="scale(0.015625)"/>
      <path id="DejaVuSerif-35" d="M 3219 4666 
L 3219 4153 
L 1081 4153 
L 1081 2816 
Q 1244 2928 1461 2984 
Q 1678 3041 1947 3041 
Q 2703 3041 3140 2622 
Q 3578 2203 3578 1478 
Q 3578 738 3136 323 
Q 2694 -91 1894 -91 
Q 1572 -91 1234 -12 
Q 897 66 544 225 
L 544 1131 
L 897 1131 
Q 925 688 1179 453 
Q 1434 219 1894 219 
Q 2388 219 2653 544 
Q 2919 869 2919 1478 
Q 2919 2084 2655 2407 
Q 2391 2731 1894 2731 
Q 1613 2731 1398 2631 
Q 1184 2531 1019 2322 
L 750 2322 
L 750 4666 
L 3219 4666 
z
" transform="scale(0.015625)"/>
     </defs>
     <use xlink:href="#DejaVuSerif-31"/>
     <use xlink:href="#DejaVuSerif-32" transform="translate(63.623047 0)"/>
     <use xlink:href="#DejaVuSerif-37" transform="translate(127.246094 0)"/>
     <use xlink:href="#DejaVuSerif-2e" transform="translate(190.869141 0)"/>
     <use xlink:href="#DejaVuSerif-30" transform="translate(222.65625 0)"/>
     <use xlink:href="#DejaVuSerif-2e" transform="translate(286.279297 0)"/>
     <use xlink:href="#DejaVuSerif-30" transform="translate(318.066406 0)"/>
     <use xlink:href="#DejaVuSerif-2e" transform="translate(381.689453 0)"/>
     <use xlink:href="#DejaVuSerif-31" transform="translate(413.476562 0)"/>
     <use xlink:href="#DejaVuSerif-3a" transform="translate(477.099609 0)"/>
     <use xlink:href="#DejaVuSerif-35" transform="translate(510.791016 0)"/>
     <use xlink:href="#DejaVuSerif-30" transform="translate(574.414062 0)"/>
     <use xlink:href="#DejaVuSerif-30" transform="translate(638.037109 0)"/>
     <use xlink:href="#DejaVuSerif-31" transform="translate(701.660156 0)"/>
    </g>
    <!-- SQLite + local artifacts -->
    <g style="fill: #262626" transform="translate(481.659906 130.223629) scale(0.1 -0.1)">
     <use xlink:href="#DejaVuSerif-53"/>
     <use xlink:href="#DejaVuSerif-51" transform="translate(68.505859 0)"/>
     <use xlink:href="#DejaVuSerif-4c" transform="translate(150.488281 0)"/>
     <use xlink:href="#DejaVuSerif-69" transform="translate(216.894531 0)"/>
     <use xlink:href="#DejaVuSerif-74" transform="translate(248.876953 0)"/>
     <use xlink:href="#DejaVuSerif-65" transform="translate(289.0625 0)"/>
     <use xlink:href="#DejaVuSerif-20" transform="translate(348.242188 0)"/>
     <use xlink:href="#DejaVuSerif-2b" transform="translate(380.029297 0)"/>
     <use xlink:href="#DejaVuSerif-20" transform="translate(463.818359 0)"/>
     <use xlink:href="#DejaVuSerif-6c" transform="translate(495.605469 0)"/>
     <use xlink:href="#DejaVuSerif-6f" transform="translate(527.587891 0)"/>
     <use xlink:href="#DejaVuSerif-63" transform="translate(587.792969 0)"/>
     <use xlink:href="#DejaVuSerif-61" transform="translate(643.798828 0)"/>
     <use xlink:href="#DejaVuSerif-6c" transform="translate(703.417969 0)"/>
     <use xlink:href="#DejaVuSerif-20" transform="translate(735.400391 0)"/>
     <use xlink:href="#DejaVuSerif-61" transform="translate(767.1875 0)"/>
     <use xlink:href="#DejaVuSerif-72" transform="translate(826.806641 0)"/>
     <use xlink:href="#DejaVuSerif-74" transform="translate(874.609375 0)"/>
     <use xlink:href="#DejaVuSerif-69" transform="translate(914.794922 0)"/>
     <use xlink:href="#DejaVuSerif-66" transform="translate(946.777344 0)"/>
     <use xlink:href="#DejaVuSerif-61" transform="translate(983.789062 0)"/>
     <use xlink:href="#DejaVuSerif-63" transform="translate(1043.408203 0)"/>
     <use xlink:href="#DejaVuSerif-74" transform="translate(1099.414062 0)"/>
     <use xlink:href="#DejaVuSerif-73" transform="translate(1139.599609 0)"/>
    </g>
   </g>
   <g id="text_5">
    <!-- Metrics Store -->
    <g style="fill: #262626" transform="translate(199.480219 209.837604) scale(0.1 -0.1)">
     <use xlink:href="#DejaVuSerif-4d"/>
     <use xlink:href="#DejaVuSerif-65" transform="translate(102.392578 0)"/>
     <use xlink:href="#DejaVuSerif-74" transform="translate(161.572266 0)"/>
     <use xlink:href="#DejaVuSerif-72" transform="translate(201.757812 0)"/>
     <use xlink:href="#DejaVuSerif-69" transform="translate(249.560547 0)"/>
     <use xlink:href="#DejaVuSerif-63" transform="translate(281.542969 0)"/>
     <use xlink:href="#DejaVuSerif-73" transform="translate(337.548828 0)"/>
     <use xlink:href="#DejaVuSerif-20" transform="translate(388.867188 0)"/>
     <use xlink:href="#DejaVuSerif-53" transform="translate(420.654297 0)"/>
     <use xlink:href="#DejaVuSerif-74" transform="translate(489.160156 0)"/>
     <use xlink:href="#DejaVuSerif-6f" transform="translate(529.345703 0)"/>
     <use xlink:href="#DejaVuSerif-72" transform="translate(589.550781 0)"/>
     <use xlink:href="#DejaVuSerif-65" transform="translate(637.353516 0)"/>
    </g>
    <!-- Slowdown, p95, -->
    <g style="fill: #262626" transform="translate(193.950531 221.035416) scale(0.1 -0.1)">
     <defs>
      <path id="DejaVuSerif-39" d="M 2994 2091 
Q 2784 1856 2512 1740 
Q 2241 1625 1900 1625 
Q 1206 1625 804 2044 
Q 403 2463 403 3188 
Q 403 3897 839 4323 
Q 1275 4750 2003 4750 
Q 2794 4750 3217 4161 
Q 3641 3572 3641 2478 
Q 3641 1253 3137 581 
Q 2634 -91 1722 -91 
Q 1475 -91 1203 -44 
Q 931 3 647 97 
L 647 872 
L 997 872 
Q 1038 556 1241 387 
Q 1444 219 1784 219 
Q 2391 219 2687 676 
Q 2984 1134 2994 2091 
z
M 1978 4441 
Q 1534 4441 1298 4117 
Q 1063 3794 1063 3188 
Q 1063 2581 1298 2256 
Q 1534 1931 1978 1931 
Q 2422 1931 2658 2245 
Q 2894 2559 2894 3150 
Q 2894 3772 2656 4106 
Q 2419 4441 1978 4441 
z
" transform="scale(0.015625)"/>
     </defs>
     <use xlink:href="#DejaVuSerif-53"/>
     <use xlink:href="#DejaVuSerif-6c" transform="translate(68.505859 0)"/>
     <use xlink:href="#DejaVuSerif-6f" transform="translate(100.488281 0)"/>
     <use xlink:href="#DejaVuSerif-77" transform="translate(160.693359 0)"/>
     <use xlink:href="#DejaVuSerif-64" transform="translate(246.289062 0)"/>
     <use xlink:href="#DejaVuSerif-6f" transform="translate(310.302734 0)"/>
     <use xlink:href="#DejaVuSerif-77" transform="translate(370.507812 0)"/>
     <use xlink:href="#DejaVuSerif-6e" transform="translate(456.103516 0)"/>
     <use xlink:href="#DejaVuSerif-2c" transform="translate(520.507812 0)"/>
     <use xlink:href="#DejaVuSerif-20" transform="translate(552.294922 0)"/>
     <use xlink:href="#DejaVuSerif-70" transform="translate(584.082031 0)"/>
     <use xlink:href="#DejaVuSerif-39" transform="translate(648.095703 0)"/>
     <use xlink:href="#DejaVuSerif-35" transform="translate(711.71875 0)"/>
     <use xlink:href="#DejaVuSerif-2c" transform="translate(775.341797 0)"/>
    </g>
    <!-- utilization, failures -->
    <g style="fill: #262626" transform="translate(186.480219 232.233229) scale(0.1 -0.1)">
     <defs>
      <path id="DejaVuSerif-7a" d="M 256 0 
L 256 269 
L 2338 2988 
L 691 2988 
L 691 2413 
L 359 2413 
L 359 3322 
L 3078 3322 
L 3078 3053 
L 997 331 
L 2803 331 
L 2803 934 
L 3138 934 
L 3138 0 
L 256 0 
z
" transform="scale(0.015625)"/>
     </defs>
     <use xlink:href="#DejaVuSerif-75"/>
     <use xlink:href="#DejaVuSerif-74" transform="translate(64.404297 0)"/>
     <use xlink:href="#DejaVuSerif-69" transform="translate(104.589844 0)"/>
     <use xlink:href="#DejaVuSerif-6c" transform="translate(136.572266 0)"/>
     <use xlink:href="#DejaVuSerif-69" transform="translate(168.554688 0)"/>
     <use xlink:href="#DejaVuSerif-7a" transform="translate(200.537109 0)"/>
     <use xlink:href="#DejaVuSerif-61" transform="translate(253.222656 0)"/>
     <use xlink:href="#DejaVuSerif-74" transform="translate(312.841797 0)"/>
     <use xlink:href="#DejaVuSerif-69" transform="translate(353.027344 0)"/>
     <use xlink:href="#DejaVuSerif-6f" transform="translate(385.009766 0)"/>
     <use xlink:href="#DejaVuSerif-6e" transform="translate(445.214844 0)"/>
     <use xlink:href="#DejaVuSerif-2c" transform="translate(509.619141 0)"/>
     <use xlink:href="#DejaVuSerif-20" transform="translate(541.40625 0)"/>
     <use xlink:href="#DejaVuSerif-66" transform="translate(573.193359 0)"/>
     <use xlink:href="#DejaVuSerif-61" transform="translate(610.205078 0)"/>
     <use xlink:href="#DejaVuSerif-69" transform="translate(669.824219 0)"/>
     <use xlink:href="#DejaVuSerif-6c" transform="translate(701.806641 0)"/>
     <use xlink:href="#DejaVuSerif-75" transform="translate(733.789062 0)"/>
     <use xlink:href="#DejaVuSerif-72" transform="translate(798.193359 0)"/>
     <use xlink:href="#DejaVuSerif-65" transform="translate(845.996094 0)"/>
     <use xlink:href="#DejaVuSerif-73" transform="translate(905.175781 0)"/>
    </g>
   </g>
   <g id="text_6">
    <!-- Figure Pipeline -->
    <g style="fill: #262626" transform="translate(348.826313 209.695416) scale(0.1 -0.1)">
     <defs>
      <path id="DejaVuSerif-46" d="M 353 0 
L 353 331 
L 947 331 
L 947 4331 
L 353 4331 
L 353 4666 
L 4172 4666 
L 4172 3628 
L 3788 3628 
L 3788 4281 
L 1581 4281 
L 1581 2719 
L 3175 2719 
L 3175 3303 
L 3559 3303 
L 3559 1753 
L 3175 1753 
L 3175 2338 
L 1581 2338 
L 1581 331 
L 2328 331 
L 2328 0 
L 353 0 
z
" transform="scale(0.015625)"/>
     </defs>
     <use xlink:href="#DejaVuSerif-46"/>
     <use xlink:href="#DejaVuSerif-69" transform="translate(69.384766 0)"/>
     <use xlink:href="#DejaVuSerif-67" transform="translate(101.367188 0)"/>
     <use xlink:href="#DejaVuSerif-75" transform="translate(165.380859 0)"/>
     <use xlink:href="#DejaVuSerif-72" transform="translate(229.785156 0)"/>
     <use xlink:href="#DejaVuSerif-65" transform="translate(277.587891 0)"/>
     <use xlink:href="#DejaVuSerif-20" transform="translate(336.767578 0)"/>
     <use xlink:href="#DejaVuSerif-50" transform="translate(368.554688 0)"/>
     <use xlink:href="#DejaVuSerif-69" transform="translate(435.839844 0)"/>
     <use xlink:href="#DejaVuSerif-70" transform="translate(467.822266 0)"/>
     <use xlink:href="#DejaVuSerif-65" transform="translate(531.835938 0)"/>
     <use xlink:href="#DejaVuSerif-6c" transform="translate(591.015625 0)"/>
     <use xlink:href="#DejaVuSerif-69" transform="translate(622.998047 0)"/>
     <use xlink:href="#DejaVuSerif-6e" transform="translate(654.980469 0)"/>
     <use xlink:href="#DejaVuSerif-65" transform="translate(719.384766 0)"/>
    </g>
    <!-- Deterministic styles -->
    <g style="fill: #262626" transform="translate(337.181781 221.035416) scale(0.1 -0.1)">
     <use xlink:href="#DejaVuSerif-44"/>
     <use xlink:href="#DejaVuSerif-65" transform="translate(80.175781 0)"/>
     <use xlink:href="#DejaVuSerif-74" transform="translate(139.355469 0)"/>
     <use xlink:href="#DejaVuSerif-65" transform="translate(179.541016 0)"/>
     <use xlink:href="#DejaVuSerif-72" transform="translate(238.720703 0)"/>
     <use xlink:href="#DejaVuSerif-6d" transform="translate(286.523438 0)"/>
     <use xlink:href="#DejaVuSerif-69" transform="translate(381.347656 0)"/>
     <use xlink:href="#DejaVuSerif-6e" transform="translate(413.330078 0)"/>
     <use xlink:href="#DejaVuSerif-69" transform="translate(477.734375 0)"/>
     <use xlink:href="#DejaVuSerif-73" transform="translate(509.716797 0)"/>
     <use xlink:href="#DejaVuSerif-74" transform="translate(561.035156 0)"/>
     <use xlink:href="#DejaVuSerif-69" transform="translate(601.220703 0)"/>
     <use xlink:href="#DejaVuSerif-63" transform="translate(633.203125 0)"/>
     <use xlink:href="#DejaVuSerif-20" transform="translate(689.208984 0)"/>
     <use xlink:href="#DejaVuSerif-73" transform="translate(720.996094 0)"/>
     <use xlink:href="#DejaVuSerif-74" transform="translate(772.314453 0)"/>
     <use xlink:href="#DejaVuSerif-79" transform="translate(812.5 0)"/>
     <use xlink:href="#DejaVuSerif-6c" transform="translate(868.994141 0)"/>
     <use xlink:href="#DejaVuSerif-65" transform="translate(900.976562 0)"/>
     <use xlink:href="#DejaVuSerif-73" transform="translate(960.15625 0)"/>
    </g>
    <!-- PDF/SVG/PNG -->
    <g style="fill: #262626" transform="translate(350.781 232.375416) scale(0.1 -0.1)">
     <defs>
      <path id="DejaVuSerif-56" d="M 1119 4331 
L 2497 750 
L 3872 4331 
L 3347 4331 
L 3347 4666 
L 4716 4666 
L 4716 4331 
L 4263 4331 
L 2597 0 
L 2059 0 
L 403 4331 
L -63 4331 
L -63 4666 
L 1638 4666 
L 1638 4331 
L 1119 4331 
z
" transform="scale(0.015625)"/>
     </defs>
     <use xlink:href="#DejaVuSerif-50"/>
     <use xlink:href="#DejaVuSerif-44" transform="translate(67.285156 0)"/>
     <use xlink:href="#DejaVuSerif-46" transform="translate(147.460938 0)"/>
     <use xlink:href="#DejaVuSerif-2f" transform="translate(216.845703 0)"/>
     <use xlink:href="#DejaVuSerif-53" transform="translate(250.537109 0)"/>
     <use xlink:href="#DejaVuSerif-56" transform="translate(319.042969 0)"/>
     <use xlink:href="#DejaVuSerif-47" transform="translate(391.259766 0)"/>
     <use xlink:href="#DejaVuSerif-2f" transform="translate(471.142578 0)"/>
     <use xlink:href="#DejaVuSerif-50" transform="translate(504.833984 0)"/>
     <use xlink:href="#DejaVuSerif-4e" transform="translate(572.119141 0)"/>
     <use xlink:href="#DejaVuSerif-47" transform="translate(659.619141 0)"/>
    </g>
   </g>
   <g id="text_7">
    <!-- Paper Assets -->
    <g style="fill: #262626" transform="translate(508.670063 209.76651) scale(0.1 -0.1)">
     <use xlink:href="#DejaVuSerif-50"/>
     <use xlink:href="#DejaVuSerif-61" transform="translate(62.785156 0)"/>
     <use xlink:href="#DejaVuSerif-70" transform="translate(122.404297 0)"/>
     <use xlink:href="#DejaVuSerif-65" transform="translate(186.417969 0)"/>
     <use xlink:href="#DejaVuSerif-72" transform="translate(245.597656 0)"/>
     <use xlink:href="#DejaVuSerif-20" transform="translate(293.400391 0)"/>
     <use xlink:href="#DejaVuSerif-41" transform="translate(325.1875 0)"/>
     <use xlink:href="#DejaVuSerif-73" transform="translate(397.404297 0)"/>
     <use xlink:href="#DejaVuSerif-73" transform="translate(448.722656 0)"/>
     <use xlink:href="#DejaVuSerif-65" transform="translate(500.041016 0)"/>
     <use xlink:href="#DejaVuSerif-74" transform="translate(559.220703 0)"/>
     <use xlink:href="#DejaVuSerif-73" transform="translate(599.40625 0)"/>
    </g>
    <!-- Main figures -->
    <g style="fill: #262626" transform="translate(508.910688 220.964322) scale(0.1 -0.1)">
     <use xlink:href="#DejaVuSerif-4d"/>
     <use xlink:href="#DejaVuSerif-61" transform="translate(102.392578 0)"/>
     <use xlink:href="#DejaVuSerif-69" transform="translate(162.011719 0)"/>
     <use xlink:href="#DejaVuSerif-6e" transform="translate(193.994141 0)"/>
     <use xlink:href="#DejaVuSerif-20" transform="translate(258.398438 0)"/>
     <use xlink:href="#DejaVuSerif-66" transform="translate(290.185547 0)"/>
     <use xlink:href="#DejaVuSerif-69" transform="translate(327.197266 0)"/>
     <use xlink:href="#DejaVuSerif-67" transform="translate(359.179688 0)"/>
     <use xlink:href="#DejaVuSerif-75" transform="translate(423.193359 0)"/>
     <use xlink:href="#DejaVuSerif-72" transform="translate(487.597656 0)"/>
     <use xlink:href="#DejaVuSerif-65" transform="translate(535.400391 0)"/>
     <use xlink:href="#DejaVuSerif-73" transform="translate(594.580078 0)"/>
    </g>
    <!-- Main + appendix tables -->
    <g style="fill: #262626" transform="translate(480.831 232.304322) scale(0.1 -0.1)">
     <use xlink:href="#DejaVuSerif-4d"/>
     <use xlink:href="#DejaVuSerif-61" transform="translate(102.392578 0)"/>
     <use xlink:href="#DejaVuSerif-69" transform="translate(162.011719 0)"/>
     <use xlink:href="#DejaVuSerif-6e" transform="translate(193.994141 0)"/>
     <use xlink:href="#DejaVuSerif-20" transform="translate(258.398438 0)"/>
     <use xlink:href="#DejaVuSerif-2b" transform="translate(290.185547 0)"/>
     <use xlink:href="#DejaVuSerif-20" transform="translate(373.974609 0)"/>
     <use xlink:href="#DejaVuSerif-61" transform="translate(405.761719 0)"/>
     <use xlink:href="#DejaVuSerif-70" transform="translate(465.380859 0)"/>
     <use xlink:href="#DejaVuSerif-70" transform="translate(529.394531 0)"/>
     <use xlink:href="#DejaVuSerif-65" transform="translate(593.408203 0)"/>
     <use xlink:href="#DejaVuSerif-6e" transform="translate(652.587891 0)"/>
     <use xlink:href="#DejaVuSerif-64" transform="translate(716.992188 0)"/>
     <use xlink:href="#DejaVuSerif-69" transform="translate(781.005859 0)"/>
     <use xlink:href="#DejaVuSerif-78" transform="translate(812.988281 0)"/>
     <use xlink:href="#DejaVuSerif-20" transform="translate(869.384766 0)"/>
     <use xlink:href="#DejaVuSerif-74" transform="translate(901.171875 0)"/>
     <use xlink:href="#DejaVuSerif-61" transform="translate(941.357422 0)"/>
     <use xlink:href="#DejaVuSerif-62" transform="translate(1000.976562 0)"/>
     <use xlink:href="#DejaVuSerif-6c" transform="translate(1064.990234 0)"/>
     <use xlink:href="#DejaVuSerif-65" transform="translate(1096.972656 0)"/>
     <use xlink:href="#DejaVuSerif-73" transform="translate(1156.152344 0)"/>
    </g>
   </g>
   <g id="patch_9">
    <path d="M 138.098919 116.266441 
Q 157.582586 116.266441 175.501005 116.266441 
" style="fill: none; stroke: #444444; stroke-width: 1.4; stroke-linecap: round"/>
    <path d="M 171.501005 114.266441 
L 175.501005 116.266441 
L 171.501005 118.266441 
" style="fill: none; stroke: #444444; stroke-width: 1.4; stroke-linecap: round"/>
   </g>
   <g id="patch_10">
    <path d="M 291.548919 116.266441 
Q 311.032586 116.266441 328.951005 116.266441 
" style="fill: none; stroke: #444444; stroke-width: 1.4; stroke-linecap: round"/>
    <path d="M 324.951005 114.266441 
L 328.951005 116.266441 
L 324.951005 118.266441 
" style="fill: none; stroke: #444444; stroke-width: 1.4; stroke-linecap: round"/>
   </g>
   <g id="patch_11">
    <path d="M 444.998919 116.266441 
Q 464.482586 116.266441 482.401005 116.266441 
" style="fill: none; stroke: #444444; stroke-width: 1.4; stroke-linecap: round"/>
    <path d="M 478.401005 114.266441 
L 482.401005 116.266441 
L 478.401005 118.266441 
" style="fill: none; stroke: #444444; stroke-width: 1.4; stroke-linecap: round"/>
   </g>
   <g id="patch_12">
    <path d="M 234.306 146.316748 
Q 234.306 167.269151 234.306 186.656306 
" style="fill: none; stroke: #444444; stroke-width: 1.4; stroke-linecap: round"/>
    <path d="M 236.306 182.656306 
L 234.306 186.656306 
L 232.306 182.656306 
" style="fill: none; stroke: #444444; stroke-width: 1.4; stroke-linecap: round"/>
   </g>
   <g id="patch_13">
    <path d="M 387.756 146.316748 
Q 387.756 167.269151 387.756 186.656306 
" style="fill: none; stroke: #444444; stroke-width: 1.4; stroke-linecap: round"/>
    <path d="M 389.756 182.656306 
L 387.756 186.656306 
L 385.756 182.656306 
" style="fill: none; stroke: #444444; stroke-width: 1.4; stroke-linecap: round"/>
   </g>
   <g id="patch_14">
    <path d="M 541.206 146.316748 
Q 541.206 167.269151 541.206 186.656306 
" style="fill: none; stroke: #444444; stroke-width: 1.4; stroke-linecap: round"/>
    <path d="M 543.206 182.656306 
L 541.206 186.656306 
L 539.206 182.656306 
" style="fill: none; stroke: #444444; stroke-width: 1.4; stroke-linecap: round"/>
   </g>
   <g id="patch_15">
    <path d="M 291.548919 218.276041 
Q 311.032586 218.276041 328.951005 218.276041 
" style="fill: none; stroke: #444444; stroke-width: 1.4; stroke-linecap: round"/>
    <path d="M 324.951005 216.276041 
L 328.951005 218.276041 
L 324.951005 220.276041 
" style="fill: none; stroke: #444444; stroke-width: 1.4; stroke-linecap: round"/>
   </g>
   <g id="patch_16">
    <path d="M 444.998919 218.276041 
Q 464.482586 218.276041 482.401005 218.276041 
" style="fill: none; stroke: #444444; stroke-width: 1.4; stroke-linecap: round"/>
    <path d="M 478.401005 216.276041 
L 482.401005 218.276041 
L 478.401005 220.276041 
" style="fill: none; stroke: #444444; stroke-width: 1.4; stroke-linecap: round"/>
   </g>
   <g id="text_8">
    <!-- Proxy Evaluation and Observability Pipeline -->
    <g style="fill: #262626" transform="translate(178.968438 15.558281) scale(0.11 -0.11)">
     <defs>
      <path id="DejaVuSerif-Bold-50" d="M 300 0 
L 300 378 
L 897 378 
L 897 4288 
L 300 4288 
L 300 4666 
L 2956 4666 
Q 3734 4666 4193 4295 
Q 4653 3925 4653 3303 
Q 4653 2678 4192 2304 
Q 3731 1931 2956 1931 
L 2100 1931 
L 2100 378 
L 2853 378 
L 2853 0 
L 300 0 
z
M 2100 2309 
L 2450 2309 
Q 2856 2309 3098 2579 
Q 3341 2850 3341 3303 
Q 3341 3753 3100 4020 
Q 2859 4288 2450 4288 
L 2100 4288 
L 2100 2309 
z
" transform="scale(0.015625)"/>
      <path id="DejaVuSerif-Bold-72" d="M 3438 3359 
L 3438 2369 
L 3084 2369 
Q 3066 2634 2941 2764 
Q 2816 2894 2578 2894 
Q 2216 2894 2006 2575 
Q 1797 2256 1797 1691 
L 1797 378 
L 2400 378 
L 2400 0 
L 219 0 
L 219 378 
L 691 378 
L 691 2944 
L 184 2944 
L 184 3322 
L 1797 3322 
L 1797 2731 
Q 1959 3078 2226 3245 
Q 2494 3413 2881 3413 
Q 2978 3413 3117 3398 
Q 3256 3384 3438 3359 
z
" transform="scale(0.015625)"/>
      <path id="DejaVuSerif-Bold-6f" d="M 2138 263 
Q 2488 263 2630 563 
Q 2772 863 2772 1663 
Q 2772 2463 2631 2761 
Q 2491 3059 2138 3059 
Q 1784 3059 1640 2757 
Q 1497 2456 1497 1663 
Q 1497 869 1640 566 
Q 1784 263 2138 263 
z
M 2138 -91 
Q 1259 -91 761 376 
Q 263 844 263 1663 
Q 263 2484 761 2948 
Q 1259 3413 2138 3413 
Q 3019 3413 3516 2948 
Q 4013 2484 4013 1663 
Q 4013 844 3514 376 
Q 3016 -91 2138 -91 
z
" transform="scale(0.015625)"/>
      <path id="DejaVuSerif-Bold-78" d="M 2247 2119 
L 2834 2944 
L 2425 2944 
L 2425 3322 
L 3719 3322 
L 3719 2944 
L 3278 2944 
L 2431 1759 
L 3419 378 
L 3859 378 
L 3859 0 
L 1747 0 
L 1747 378 
L 2175 378 
L 1550 1253 
L 922 378 
L 1369 378 
L 1369 0 
L 0 0 
L 0 378 
L 475 378 
L 1356 1619 
L 403 2944 
L 31 2944 
L 31 3322 
L 2059 3322 
L 2059 2944 
L 1656 2944 
L 2247 2119 
z
" transform="scale(0.015625)"/>
      <path id="DejaVuSerif-Bold-79" d="M 1997 -750 
Q 1847 -1116 1634 -1269 
Q 1422 -1422 1063 -1422 
Q 909 -1422 721 -1387 
Q 534 -1353 313 -1288 
L 313 -594 
L 666 -597 
Q 675 -838 779 -953 
Q 884 -1069 1094 -1069 
Q 1297 -1069 1422 -958 
Q 1547 -847 1672 -538 
L 1722 -422 
L 275 2944 
L -84 2944 
L -84 3322 
L 1831 3322 
L 1831 2944 
L 1434 2944 
L 2278 978 
L 3066 2944 
L 2625 2944 
L 2625 3322 
L 3872 3322 
L 3872 2944 
L 3469 2944 
L 1997 -750 
z
" transform="scale(0.015625)"/>
      <path id="DejaVuSerif-Bold-20" transform="scale(0.015625)"/>
      <path id="DejaVuSerif-Bold-45" d="M 300 0 
L 300 378 
L 897 378 
L 897 4288 
L 300 4288 
L 300 4666 
L 4494 4666 
L 4494 3566 
L 4063 3566 
L 4063 4238 
L 2100 4238 
L 2100 2741 
L 3322 2741 
L 3322 3334 
L 3750 3334 
L 3750 1722 
L 3322 1722 
L 3322 2316 
L 2100 2316 
L 2100 428 
L 4122 428 
L 4122 1100 
L 4550 1100 
L 4550 0 
L 300 0 
z
" transform="scale(0.015625)"/>
      <path id="DejaVuSerif-Bold-76" d="M 1428 0 
L 250 2944 
L -116 2944 
L -116 3322 
L 1791 3322 
L 1791 2944 
L 1388 2944 
L 2228 844 
L 3066 2944 
L 2631 2944 
L 2631 3322 
L 3878 3322 
L 3878 2944 
L 3494 2944 
L 2316 0 
L 1428 0 
z
" transform="scale(0.015625)"/>
      <path id="DejaVuSerif-Bold-61" d="M 3525 2041 
L 3525 378 
L 4000 378 
L 4000 0 
L 2419 0 
L 2419 422 
Q 2200 159 1931 34 
Q 1663 -91 1319 -91 
Q 809 -91 536 182 
Q 263 456 263 966 
Q 263 1525 655 1803 
Q 1047 2081 1838 2081 
L 2419 2081 
L 2419 2278 
Q 2419 2681 2228 2873 
Q 2038 3066 1638 3066 
Q 1306 3066 1126 2930 
Q 947 2794 872 2484 
L 519 2484 
L 519 3200 
Q 816 3306 1134 3359 
Q 1453 3413 1806 3413 
Q 2697 3413 3111 3081 
Q 3525 2750 3525 2041 
z
M 2419 1044 
L 2419 1709 
L 2003 1709 
Q 1694 1709 1528 1540 
Q 1363 1372 1363 1056 
Q 1363 741 1483 584 
Q 1603 428 1850 428 
Q 2106 428 2262 597 
Q 2419 766 2419 1044 
z
" transform="scale(0.015625)"/>
      <path id="DejaVuSerif-Bold-6c" d="M 1797 378 
L 2272 378 
L 2272 0 
L 219 0 
L 219 378 
L 691 378 
L 691 4488 
L 219 4488 
L 219 4863 
L 1797 4863 
L 1797 378 
z
" transform="scale(0.015625)"/>
      <path id="DejaVuSerif-Bold-75" d="M 3963 3322 
L 3963 378 
L 4434 378 
L 4434 0 
L 2853 0 
L 2853 469 
Q 2656 172 2400 40 
Q 2144 -91 1753 -91 
Q 1194 -91 908 239 
Q 622 569 622 1209 
L 622 2944 
L 147 2944 
L 147 3322 
L 1728 3322 
L 1728 1381 
Q 1728 763 1831 595 
Q 1934 428 2209 428 
Q 2544 428 2698 675 
Q 2853 922 2853 1459 
L 2853 2944 
L 2450 2944 
L 2450 3322 
L 3963 3322 
z
" transform="scale(0.015625)"/>
      <path id="DejaVuSerif-Bold-74" d="M 634 2944 
L 153 2944 
L 153 3322 
L 634 3322 
L 634 4353 
L 1741 4353 
L 1741 3322 
L 2663 3322 
L 2663 2944 
L 1741 2944 
L 1741 909 
Q 1741 475 1809 369 
Q 1878 263 2059 263 
Q 2259 263 2356 397 
Q 2453 531 2459 813 
L 2925 813 
Q 2897 313 2651 111 
Q 2406 -91 1806 -91 
Q 1122 -91 878 123 
Q 634 338 634 909 
L 634 2944 
z
" transform="scale(0.015625)"/>
      <path id="DejaVuSerif-Bold-69" d="M 588 4263 
Q 588 4516 763 4689 
Q 938 4863 1191 4863 
Q 1438 4863 1611 4689 
Q 1784 4516 1784 4263 
Q 1784 4016 1611 3842 
Q 1438 3669 1191 3669 
Q 938 3669 763 3841 
Q 588 4013 588 4263 
z
M 1797 378 
L 2272 378 
L 2272 0 
L 219 0 
L 219 378 
L 691 378 
L 691 2944 
L 219 2944 
L 219 3322 
L 1797 3322 
L 1797 378 
z
" transform="scale(0.015625)"/>
      <path id="DejaVuSerif-Bold-6e" d="M 219 0 
L 219 378 
L 691 378 
L 691 2944 
L 219 2944 
L 219 3322 
L 1797 3322 
L 1797 2853 
Q 1997 3150 2253 3281 
Q 2509 3413 2900 3413 
Q 3459 3413 3745 3083 
Q 4031 2753 4031 2113 
L 4031 378 
L 4506 378 
L 4506 0 
L 2522 0 
L 2522 378 
L 2925 378 
L 2925 2144 
Q 2925 2566 2817 2730 
Q 2709 2894 2444 2894 
Q 2109 2894 1953 2648 
Q 1797 2403 1797 1869 
L 1797 378 
L 2203 378 
L 2203 0 
L 219 0 
z
" transform="scale(0.015625)"/>
      <path id="DejaVuSerif-Bold-64" d="M 2747 1497 
L 2747 1825 
Q 2747 2406 2597 2665 
Q 2447 2925 2119 2925 
Q 1775 2925 1636 2651 
Q 1497 2378 1497 1663 
Q 1497 947 1637 672 
Q 1778 397 2119 397 
Q 2447 397 2597 656 
Q 2747 916 2747 1497 
z
M 3853 378 
L 4325 378 
L 4325 0 
L 2747 0 
L 2747 422 
Q 2606 163 2367 36 
Q 2128 -91 1778 -91 
Q 1072 -91 667 378 
Q 263 847 263 1663 
Q 263 2481 667 2947 
Q 1072 3413 1778 3413 
Q 2128 3413 2367 3286 
Q 2606 3159 2747 2900 
L 2747 4488 
L 2272 4488 
L 2272 4863 
L 3853 4863 
L 3853 378 
z
" transform="scale(0.015625)"/>
      <path id="DejaVuSerif-Bold-4f" d="M 2784 288 
Q 3381 288 3672 791 
Q 3963 1294 3963 2328 
Q 3963 3366 3672 3869 
Q 3381 4372 2784 4372 
Q 2191 4372 1898 3864 
Q 1606 3356 1606 2328 
Q 1606 1303 1898 795 
Q 2191 288 2784 288 
z
M 2784 -91 
Q 1606 -91 937 553 
Q 269 1197 269 2328 
Q 269 3459 939 4104 
Q 1609 4750 2784 4750 
Q 3963 4750 4631 4106 
Q 5300 3463 5300 2328 
Q 5300 1197 4629 553 
Q 3959 -91 2784 -91 
z
" transform="scale(0.015625)"/>
      <path id="DejaVuSerif-Bold-62" d="M 622 378 
L 622 4488 
L 147 4488 
L 147 4863 
L 1728 4863 
L 1728 2900 
Q 1869 3159 2106 3286 
Q 2344 3413 2694 3413 
Q 3403 3413 3811 2945 
Q 4219 2478 4219 1663 
Q 4219 847 3811 378 
Q 3403 -91 2694 -91 
Q 2344 -91 2106 36 
Q 1869 163 1728 422 
L 1728 0 
L 147 0 
L 147 378 
L 622 378 
z
M 1728 1497 
Q 1728 916 1876 656 
Q 2025 397 2356 397 
Q 2697 397 2836 672 
Q 2975 947 2975 1663 
Q 2975 2378 2836 2651 
Q 2697 2925 2356 2925 
Q 2025 2925 1876 2665 
Q 1728 2406 1728 1825 
L 1728 1497 
z
" transform="scale(0.015625)"/>
      <path id="DejaVuSerif-Bold-73" d="M 300 97 
L 300 1025 
L 653 1025 
Q 697 653 931 458 
Q 1166 263 1569 263 
Q 1906 263 2086 380 
Q 2266 497 2266 716 
Q 2266 916 2152 1025 
Q 2038 1134 1709 1216 
L 1253 1331 
Q 738 1459 506 1698 
Q 275 1938 275 2344 
Q 275 2884 650 3148 
Q 1025 3413 1806 3413 
Q 2100 3413 2433 3364 
Q 2766 3316 3169 3213 
L 3169 2375 
L 2816 2375 
Q 2788 2716 2573 2887 
Q 2359 3059 1959 3059 
Q 1622 3059 1448 2951 
Q 1275 2844 1275 2638 
Q 1275 2469 1375 2372 
Q 1475 2275 1734 2209 
L 2188 2094 
Q 2841 1928 3091 1684 
Q 3341 1441 3341 1006 
Q 3341 444 2939 176 
Q 2538 -91 1691 -91 
Q 1381 -91 1034 -44 
Q 688 3 300 97 
z
" transform="scale(0.015625)"/>
      <path id="DejaVuSerif-Bold-65" d="M 2566 1875 
Q 2566 2531 2444 2795 
Q 2322 3059 2028 3059 
Q 1744 3059 1620 2800 
Q 1497 2541 1497 1931 
L 1497 1875 
L 2566 1875 
z
M 3781 1503 
L 1497 1503 
L 1497 1478 
Q 1497 834 1690 548 
Q 1884 263 2316 263 
Q 2675 263 2897 453 
Q 3119 644 3181 1006 
L 3700 1006 
Q 3566 441 3166 175 
Q 2766 -91 2047 -91 
Q 1184 -91 723 364 
Q 263 819 263 1663 
Q 263 2488 734 2950 
Q 1206 3413 2047 3413 
Q 2872 3413 3312 2927 
Q 3753 2441 3781 1503 
z
" transform="scale(0.015625)"/>
      <path id="DejaVuSerif-Bold-70" d="M 1728 1825 
L 1728 1497 
Q 1728 916 1876 656 
Q 2025 397 2356 397 
Q 2697 397 2836 672 
Q 2975 947 2975 1663 
Q 2975 2378 2836 2651 
Q 2697 2925 2356 2925 
Q 2025 2925 1876 2665 
Q 1728 2406 1728 1825 
z
M 622 2944 
L 147 2944 
L 147 3322 
L 1728 3322 
L 1728 2900 
Q 1869 3159 2106 3286 
Q 2344 3413 2694 3413 
Q 3403 3413 3811 2945 
Q 4219 2478 4219 1663 
Q 4219 847 3811 378 
Q 3403 -91 2694 -91 
Q 2344 -91 2106 36 
Q 1869 163 1728 422 
L 1728 -953 
L 2241 -953 
L 2241 -1331 
L 147 -1331 
L 147 -953 
L 622 -953 
L 622 2944 
z
" transform="scale(0.015625)"/>
     </defs>
     <use xlink:href="#DejaVuSerif-Bold-50"/>
     <use xlink:href="#DejaVuSerif-Bold-72" transform="translate(75.195312 0)"/>
     <use xlink:href="#DejaVuSerif-Bold-6f" transform="translate(127.880859 0)"/>
     <use xlink:href="#DejaVuSerif-Bold-78" transform="translate(194.580078 0)"/>
     <use xlink:href="#DejaVuSerif-Bold-79" transform="translate(254.199219 0)"/>
     <use xlink:href="#DejaVuSerif-Bold-20" transform="translate(312.304688 0)"/>
     <use xlink:href="#DejaVuSerif-Bold-45" transform="translate(347.119141 0)"/>
     <use xlink:href="#DejaVuSerif-Bold-76" transform="translate(423.339844 0)"/>
     <use xlink:href="#DejaVuSerif-Bold-61" transform="translate(481.445312 0)"/>
     <use xlink:href="#DejaVuSerif-Bold-6c" transform="translate(546.240234 0)"/>
     <use xlink:href="#DejaVuSerif-Bold-75" transform="translate(584.228516 0)"/>
     <use xlink:href="#DejaVuSerif-Bold-61" transform="translate(656.933594 0)"/>
     <use xlink:href="#DejaVuSerif-Bold-74" transform="translate(721.728516 0)"/>
     <use xlink:href="#DejaVuSerif-Bold-69" transform="translate(767.919922 0)"/>
     <use xlink:href="#DejaVuSerif-Bold-6f" transform="translate(805.908203 0)"/>
     <use xlink:href="#DejaVuSerif-Bold-6e" transform="translate(872.607422 0)"/>
     <use xlink:href="#DejaVuSerif-Bold-20" transform="translate(945.3125 0)"/>
     <use xlink:href="#DejaVuSerif-Bold-61" transform="translate(980.126953 0)"/>
     <use xlink:href="#DejaVuSerif-Bold-6e" transform="translate(1044.921875 0)"/>
     <use xlink:href="#DejaVuSerif-Bold-64" transform="translate(1117.626953 0)"/>
     <use xlink:href="#DejaVuSerif-Bold-20" transform="translate(1187.548828 0)"/>
     <use xlink:href="#DejaVuSerif-Bold-4f" transform="translate(1222.363281 0)"/>
     <use xlink:href="#DejaVuSerif-Bold-62" transform="translate(1309.472656 0)"/>
     <use xlink:href="#DejaVuSerif-Bold-73" transform="translate(1379.394531 0)"/>
     <use xlink:href="#DejaVuSerif-Bold-65" transform="translate(1435.693359 0)"/>
     <use xlink:href="#DejaVuSerif-Bold-72" transform="translate(1499.316406 0)"/>
     <use xlink:href="#DejaVuSerif-Bold-76" transform="translate(1552.001953 0)"/>
     <use xlink:href="#DejaVuSerif-Bold-61" transform="translate(1610.107422 0)"/>
     <use xlink:href="#DejaVuSerif-Bold-62" transform="translate(1674.902344 0)"/>
     <use xlink:href="#DejaVuSerif-Bold-69" transform="translate(1744.824219 0)"/>
     <use xlink:href="#DejaVuSerif-Bold-6c" transform="translate(1782.8125 0)"/>
     <use xlink:href="#DejaVuSerif-Bold-69" transform="translate(1820.800781 0)"/>
     <use xlink:href="#DejaVuSerif-Bold-74" transform="translate(1858.789062 0)"/>
     <use xlink:href="#DejaVuSerif-Bold-79" transform="translate(1904.980469 0)"/>
     <use xlink:href="#DejaVuSerif-Bold-20" transform="translate(1963.085938 0)"/>
     <use xlink:href="#DejaVuSerif-Bold-50" transform="translate(1997.900391 0)"/>
     <use xlink:href="#DejaVuSerif-Bold-69" transform="translate(2073.095703 0)"/>
     <use xlink:href="#DejaVuSerif-Bold-70" transform="translate(2111.083984 0)"/>
     <use xlink:href="#DejaVuSerif-Bold-65" transform="translate(2181.005859 0)"/>
     <use xlink:href="#DejaVuSerif-Bold-6c" transform="translate(2244.628906 0)"/>
     <use xlink:href="#DejaVuSerif-Bold-69" transform="translate(2282.617188 0)"/>
     <use xlink:href="#DejaVuSerif-Bold-6e" transform="translate(2320.605469 0)"/>
     <use xlink:href="#DejaVuSerif-Bold-65" transform="translate(2393.310547 0)"/>
    </g>
   </g>
  </g>
 </g>
 <defs>
  <clipPath id="pc868ccd2c5">
   <rect x="7.2" y="29.558281" width="613.8" height="255.024"/>
  </clipPath>
 </defs>
</svg>
