<?xml version="1.0" encoding="utf-8" standalone="no"?>
<!DOCTYPE svg PUBLIC "-//W3C//DTD SVG 1.1//EN"
  "http://www.w3.org/Graphics/SVG/1.1/DTD/svg11.dtd">
<svg xmlns:xlink="http://www.w3.org/1999/xlink" width="785.150092pt" height="326.929294pt" viewBox="0 0 785.150092 326.929294" xmlns="http://www.w3.org/2000/svg" version="1.1">
 <metadata>
  <rdf:RDF xmlns:dc="http://purl.org/dc/elements/1.1/" xmlns:cc="http://creativecommons.org/ns#" xmlns:rdf="http://www.w3.org/1999/02/22-rdf-syntax-ns#">
   <cc:Work>
    <dc:type rdf:resource="http://purl.org/dc/dcmitype/StillImage"/>
    <dc:date>2026-04-26T15:38:05.098684</dc:date>
    <dc:format>image/svg+xml</dc:format>
    <dc:creator>
     <cc:Agent>
      <dc:title>Matplotlib v3.10.9, https://matplotlib.org/</dc:title>
     </cc:Agent>
    </dc:creator>
   </cc:Work>
  </rdf:RDF>
 </metadata>
 <defs>
  <style type="text/css">*{stroke-linejoin: round; stroke-linecap: butt}</style>
 </defs>
 <g id="figure_1">
  <g id="patch_1">
   <path d="M 0 326.929294 
L 785.150092 326.929294 
L 785.150092 0 
L 0 0 
z
" style="fill: #ffffff"/>
  </g>
  <g id="axes_1">
   <g id="patch_2">
    <path d="M 47.157548 278.193572 
L 380.137115 278.193572 
L 380.137115 66.65088 
L 47.157548 66.65088 
z
" style="fill: #ffffff"/>
   </g>
   <g id="matplotlib.axis_1">
    <g id="xtick_1">
     <g id="line2d_1">
      <path d="M 84.28464 278.193572 
L 84.28464 66.65088 
" clip-path="url(#p0f4abca4b4)" style="fill: none; stroke: #cccccc; stroke-opacity: 0.25; stroke-width: 0.8; stroke-linecap: round"/>
     </g>
     <g id="text_1">
      <!-- Heuristic -->
      <g style="fill: #262626" transform="translate(64.934545 306.070619) rotate(-18) scale(0.09 -0.09)">
       <defs>
        <path id="DejaVuSerif-48" d="M 353 0 
L 353 331 
L 947 331 
L 947 4331 
L 353 4331 
L 353 4666 
L 2175 4666 
L 2175 4331 
L 1581 4331 
L 1581 2719 
L 4000 2719 
L 4000 4331 
L 3406 4331 
L 3406 4666 
L 5228 4666 
L 5228 4331 
L 4634 4331 
L 4634 331 
L 5228 331 
L 5228 0 
L 3406 0 
L 3406 331 
L 4000 331 
L 4000 2338 
L 1581 2338 
L 1581 331 
L 2175 331 
L 2175 0 
L 353 0 
z
" transform="scale(0.015625)"/>
        <path id="DejaVuSerif-65" d="M 3469 1600 
L 991 1600 
L 991 1575 
Q 991 903 1244 561 
Q 1497 219 1991 219 
Q 2369 219 2611 417 
Q 2853 616 2950 1006 
L 3413 1006 
Q 3275 459 2904 184 
Q 2534 -91 1931 -91 
Q 1203 -91 761 389 
Q 319 869 319 1663 
Q 319 2450 753 2931 
Q 1188 3413 1894 3413 
Q 2647 3413 3050 2948 
Q 3453 2484 3469 1600 
z
M 2791 1931 
Q 2772 2513 2545 2808 
Q 2319 3103 1894 3103 
Q 1497 3103 1269 2806 
Q 1041 2509 991 1931 
L 2791 1931 
z
" transform="scale(0.015625)"/>
        <path id="DejaVuSerif-75" d="M 2266 3322 
L 3341 3322 
L 3341 331 
L 3884 331 
L 3884 0 
L 2766 0 
L 2766 588 
Q 2606 256 2353 82 
Q 2100 -91 1766 -91 
Q 1213 -91 952 223 
Q 691 538 691 1209 
L 691 2988 
L 172 2988 
L 172 3322 
L 1269 3322 
L 1269 1388 
Q 1269 781 1417 556 
Q 1566 331 1947 331 
Q 2347 331 2556 625 
Q 2766 919 2766 1478 
L 2766 2988 
L 2266 2988 
L 2266 3322 
z
" transform="scale(0.015625)"/>
        <path id="DejaVuSerif-72" d="M 3059 3328 
L 3059 2497 
L 2728 2497 
Q 2713 2744 2591 2866 
Q 2469 2988 2234 2988 
Q 1809 2988 1582 2694 
Q 1356 2400 1356 1850 
L 1356 331 
L 2022 331 
L 2022 0 
L 263 0 
L 263 331 
L 781 331 
L 781 2994 
L 231 2994 
L 231 3322 
L 1356 3322 
L 1356 2731 
Q 1525 3078 1790 3245 
Q 2056 3413 2438 3413 
Q 2578 3413 2733 3391 
Q 2888 3369 3059 3328 
z
" transform="scale(0.015625)"/>
        <path id="DejaVuSerif-69" d="M 622 4353 
Q 622 4497 726 4603 
Q 831 4709 978 4709 
Q 1122 4709 1226 4603 
Q 1331 4497 1331 4353 
Q 1331 4206 1228 4103 
Q 1125 4000 978 4000 
Q 831 4000 726 4103 
Q 622 4206 622 4353 
z
M 1356 331 
L 1900 331 
L 1900 0 
L 231 0 
L 231 331 
L 781 331 
L 781 2988 
L 231 2988 
L 231 3322 
L 1356 3322 
L 1356 331 
z
" transform="scale(0.015625)"/>
        <path id="DejaVuSerif-73" d="M 359 184 
L 359 959 
L 691 959 
Q 703 588 923 403 
Q 1144 219 1575 219 
Q 1963 219 2166 364 
Q 2369 509 2369 788 
Q 2369 1006 2220 1140 
Q 2072 1275 1594 1428 
L 1178 1569 
Q 750 1706 558 1912 
Q 366 2119 366 2438 
Q 366 2894 700 3153 
Q 1034 3413 1625 3413 
Q 1888 3413 2178 3344 
Q 2469 3275 2778 3144 
L 2778 2419 
L 2447 2419 
Q 2434 2741 2221 2922 
Q 2009 3103 1644 3103 
Q 1281 3103 1095 2975 
Q 909 2847 909 2591 
Q 909 2381 1050 2254 
Q 1191 2128 1613 1997 
L 2069 1856 
Q 2541 1709 2748 1489 
Q 2956 1269 2956 922 
Q 2956 450 2595 179 
Q 2234 -91 1600 -91 
Q 1278 -91 972 -22 
Q 666 47 359 184 
z
" transform="scale(0.015625)"/>
        <path id="DejaVuSerif-74" d="M 691 2988 
L 184 2988 
L 184 3322 
L 691 3322 
L 691 4353 
L 1269 4353 
L 1269 3322 
L 2350 3322 
L 2350 2988 
L 1269 2988 
L 1269 878 
Q 1269 456 1350 337 
Q 1431 219 1650 219 
Q 1875 219 1978 351 
Q 2081 484 2088 781 
L 2522 781 
Q 2497 328 2275 118 
Q 2053 -91 1600 -91 
Q 1103 -91 897 129 
Q 691 350 691 878 
L 691 2988 
z
" transform="scale(0.015625)"/>
        <path id="DejaVuSerif-63" d="M 3291 997 
Q 3169 466 2822 187 
Q 2475 -91 1925 -91 
Q 1200 -91 759 389 
Q 319 869 319 1663 
Q 319 2459 759 2936 
Q 1200 3413 1925 3413 
Q 2241 3413 2553 3339 
Q 2866 3266 3181 3116 
L 3181 2266 
L 2847 2266 
Q 2781 2703 2561 2903 
Q 2341 3103 1931 3103 
Q 1466 3103 1228 2742 
Q 991 2381 991 1663 
Q 991 944 1227 581 
Q 1463 219 1931 219 
Q 2303 219 2525 412 
Q 2747 606 2828 997 
L 3291 997 
z
" transform="scale(0.015625)"/>
       </defs>
       <use xlink:href="#DejaVuSerif-48"/>
       <use xlink:href="#DejaVuSerif-65" transform="translate(87.207031 0)"/>
       <use xlink:href="#DejaVuSerif-75" transform="translate(146.386719 0)"/>
       <use xlink:href="#DejaVuSerif-72" transform="translate(210.791016 0)"/>
       <use xlink:href="#DejaVuSerif-69" transform="translate(258.59375 0)"/>
       <use xlink:href="#DejaVuSerif-73" transform="translate(290.576172 0)"/>
       <use xlink:href="#DejaVuSerif-74" transform="translate(341.894531 0)"/>
       <use xlink:href="#DejaVuSerif-69" transform="translate(382.080078 0)"/>
       <use xlink:href="#DejaVuSerif-63" transform="translate(414.0625 0)"/>
      </g>
     </g>
    </g>
    <g id="xtick_2">
     <g id="line2d_2">
      <path d="M 148.965986 278.193572 
L 148.965986 66.65088 
" clip-path="url(#p0f4abca4b4)" style="fill: none; stroke: #cccccc; stroke-opacity: 0.25; stroke-width: 0.8; stroke-linecap: round"/>
     </g>
     <g id="text_2">
      <!-- PG proxy -->
      <g style="fill: #262626" transform="translate(129.841824 305.776395) rotate(-18) scale(0.09 -0.09)">
       <defs>
        <path id="DejaVuSerif-50" d="M 1581 2375 
L 2406 2375 
Q 2872 2375 3115 2626 
Q 3359 2878 3359 3353 
Q 3359 3831 3115 4081 
Q 2872 4331 2406 4331 
L 1581 4331 
L 1581 2375 
z
M 353 0 
L 353 331 
L 947 331 
L 947 4331 
L 353 4331 
L 353 4666 
L 2559 4666 
Q 3259 4666 3668 4311 
Q 4078 3956 4078 3353 
Q 4078 2753 3668 2397 
Q 3259 2041 2559 2041 
L 1581 2041 
L 1581 331 
L 2303 331 
L 2303 0 
L 353 0 
z
" transform="scale(0.015625)"/>
        <path id="DejaVuSerif-47" d="M 4097 3272 
Q 3988 3856 3641 4136 
Q 3294 4416 2675 4416 
Q 1869 4416 1472 3897 
Q 1075 3378 1075 2328 
Q 1075 1300 1484 772 
Q 1894 244 2688 244 
Q 3041 244 3362 331 
Q 3684 419 3975 594 
L 3975 1797 
L 3097 1797 
L 3097 2131 
L 4609 2131 
L 4609 391 
Q 4194 150 3714 29 
Q 3234 -91 2688 -91 
Q 1631 -91 995 570 
Q 359 1231 359 2328 
Q 359 3434 996 4092 
Q 1634 4750 2713 4750 
Q 3113 4750 3539 4658 
Q 3966 4566 4447 4378 
L 4447 3272 
L 4097 3272 
z
" transform="scale(0.015625)"/>
        <path id="DejaVuSerif-20" transform="scale(0.015625)"/>
        <path id="DejaVuSerif-70" d="M 1313 1825 
L 1313 1497 
Q 1313 897 1542 583 
Q 1772 269 2209 269 
Q 2650 269 2876 622 
Q 3103 975 3103 1663 
Q 3103 2353 2876 2703 
Q 2650 3053 2209 3053 
Q 1772 3053 1542 2737 
Q 1313 2422 1313 1825 
z
M 738 2988 
L 184 2988 
L 184 3322 
L 1313 3322 
L 1313 2803 
Q 1481 3116 1742 3264 
Q 2003 3413 2388 3413 
Q 3000 3413 3387 2928 
Q 3775 2444 3775 1663 
Q 3775 881 3387 395 
Q 3000 -91 2388 -91 
Q 2003 -91 1742 57 
Q 1481 206 1313 519 
L 1313 -997 
L 1856 -997 
L 1856 -1331 
L 184 -1331 
L 184 -997 
L 738 -997 
L 738 2988 
z
" transform="scale(0.015625)"/>
        <path id="DejaVuSerif-6f" d="M 1925 219 
Q 2388 219 2623 584 
Q 2859 950 2859 1663 
Q 2859 2375 2623 2739 
Q 2388 3103 1925 3103 
Q 1463 3103 1227 2739 
Q 991 2375 991 1663 
Q 991 950 1228 584 
Q 1466 219 1925 219 
z
M 1925 -91 
Q 1200 -91 759 389 
Q 319 869 319 1663 
Q 319 2456 758 2934 
Q 1197 3413 1925 3413 
Q 2653 3413 3092 2934 
Q 3531 2456 3531 1663 
Q 3531 869 3092 389 
Q 2653 -91 1925 -91 
z
" transform="scale(0.015625)"/>
        <path id="DejaVuSerif-78" d="M 1863 2028 
L 2559 2988 
L 2113 2988 
L 2113 3322 
L 3391 3322 
L 3391 2988 
L 2950 2988 
L 2059 1759 
L 3097 331 
L 3531 331 
L 3531 0 
L 1997 0 
L 1997 331 
L 2419 331 
L 1697 1325 
L 972 331 
L 1403 331 
L 1403 0 
L 141 0 
L 141 331 
L 581 331 
L 1497 1594 
L 488 2988 
L 78 2988 
L 78 3322 
L 1563 3322 
L 1563 2988 
L 1166 2988 
L 1863 2028 
z
" transform="scale(0.015625)"/>
        <path id="DejaVuSerif-79" d="M 1381 -609 
L 1600 -56 
L 359 2988 
L -19 2988 
L -19 3322 
L 1509 3322 
L 1509 2988 
L 978 2988 
L 1913 703 
L 2847 2988 
L 2350 2988 
L 2350 3322 
L 3597 3322 
L 3597 2988 
L 3225 2988 
L 1703 -750 
Q 1547 -1138 1356 -1280 
Q 1166 -1422 819 -1422 
Q 672 -1422 517 -1397 
Q 363 -1372 206 -1325 
L 206 -691 
L 500 -691 
Q 519 -903 608 -995 
Q 697 -1088 884 -1088 
Q 1056 -1088 1161 -992 
Q 1266 -897 1381 -609 
z
" transform="scale(0.015625)"/>
       </defs>
       <use xlink:href="#DejaVuSerif-50"/>
       <use xlink:href="#DejaVuSerif-47" transform="translate(67.285156 0)"/>
       <use xlink:href="#DejaVuSerif-20" transform="translate(147.167969 0)"/>
       <use xlink:href="#DejaVuSerif-70" transform="translate(178.955078 0)"/>
       <use xlink:href="#DejaVuSerif-72" transform="translate(242.96875 0)"/>
       <use xlink:href="#DejaVuSerif-6f" transform="translate(290.771484 0)"/>
       <use xlink:href="#DejaVuSerif-78" transform="translate(350.976562 0)"/>
       <use xlink:href="#DejaVuSerif-79" transform="translate(407.373047 0)"/>
      </g>
     </g>
    </g>
    <g id="xtick_3">
     <g id="line2d_3">
      <path d="M 213.647331 278.193572 
L 213.647331 66.65088 
" clip-path="url(#p0f4abca4b4)" style="fill: none; stroke: #cccccc; stroke-opacity: 0.25; stroke-width: 0.8; stroke-linecap: round"/>
     </g>
     <g id="text_3">
      <!-- DQN -->
      <g style="fill: #262626" transform="translate(203.730082 299.940784) rotate(-18) scale(0.09 -0.09)">
       <defs>
        <path id="DejaVuSerif-44" d="M 1581 331 
L 2163 331 
Q 3072 331 3558 850 
Q 4044 1369 4044 2338 
Q 4044 3306 3559 3818 
Q 3075 4331 2163 4331 
L 1581 4331 
L 1581 331 
z
M 353 0 
L 353 331 
L 947 331 
L 947 4331 
L 353 4331 
L 353 4666 
L 2209 4666 
Q 3416 4666 4089 4050 
Q 4763 3434 4763 2338 
Q 4763 1238 4088 619 
Q 3413 0 2209 0 
L 353 0 
z
" transform="scale(0.015625)"/>
        <path id="DejaVuSerif-51" d="M 2700 -91 
Q 1628 -91 993 567 
Q 359 1225 359 2328 
Q 359 2894 529 3339 
Q 700 3784 1050 4134 
Q 1356 4441 1750 4595 
Q 2144 4750 2625 4750 
Q 3641 4750 4266 4084 
Q 4891 3419 4891 2328 
Q 4891 1403 4422 773 
Q 3953 144 3128 -38 
Q 3297 -247 3539 -347 
Q 3781 -447 4122 -447 
L 4219 -447 
L 4219 -1025 
Q 3691 -1000 3314 -767 
Q 2938 -534 2700 -91 
z
M 2625 244 
Q 3391 244 3781 770 
Q 4172 1297 4172 2328 
Q 4172 3363 3781 3889 
Q 3391 4416 2625 4416 
Q 1856 4416 1465 3889 
Q 1075 3363 1075 2328 
Q 1075 1297 1465 770 
Q 1856 244 2625 244 
z
" transform="scale(0.015625)"/>
        <path id="DejaVuSerif-4e" d="M 313 0 
L 313 331 
L 941 331 
L 941 4331 
L 313 4331 
L 313 4666 
L 1509 4666 
L 4306 984 
L 4306 4331 
L 3681 4331 
L 3681 4666 
L 5319 4666 
L 5319 4331 
L 4691 4331 
L 4691 -91 
L 4313 -91 
L 1325 3841 
L 1325 331 
L 1953 331 
L 1953 0 
L 313 0 
z
" transform="scale(0.015625)"/>
       </defs>
       <use xlink:href="#DejaVuSerif-44"/>
       <use xlink:href="#DejaVuSerif-51" transform="translate(80.175781 0)"/>
       <use xlink:href="#DejaVuSerif-4e" transform="translate(162.158203 0)"/>
      </g>
     </g>
    </g>
    <g id="xtick_4">
     <g id="line2d_4">
      <path d="M 278.328677 278.193572 
L 278.328677 66.65088 
" clip-path="url(#p0f4abca4b4)" style="fill: none; stroke: #cccccc; stroke-opacity: 0.25; stroke-width: 0.8; stroke-linecap: round"/>
     </g>
     <g id="text_4">
      <!-- DQN+RND -->
      <g style="fill: #262626" transform="translate(254.426661 309.028636) rotate(-18) scale(0.09 -0.09)">
       <defs>
        <path id="DejaVuSerif-2b" d="M 2931 4013 
L 2931 2259 
L 4684 2259 
L 4684 1753 
L 2931 1753 
L 2931 0 
L 2431 0 
L 2431 1753 
L 678 1753 
L 678 2259 
L 2431 2259 
L 2431 4013 
L 2931 4013 
z
" transform="scale(0.015625)"/>
        <path id="DejaVuSerif-52" d="M 3066 2316 
Q 3284 2256 3442 2114 
Q 3600 1972 3725 1716 
L 4403 331 
L 4972 331 
L 4972 0 
L 3872 0 
L 3144 1484 
Q 2934 1916 2759 2042 
Q 2584 2169 2278 2169 
L 1581 2169 
L 1581 331 
L 2241 331 
L 2241 0 
L 353 0 
L 353 331 
L 947 331 
L 947 4331 
L 353 4331 
L 353 4666 
L 2719 4666 
Q 3400 4666 3770 4341 
Q 4141 4016 4141 3419 
Q 4141 2938 3870 2661 
Q 3600 2384 3066 2316 
z
M 1581 2503 
L 2503 2503 
Q 2975 2503 3200 2726 
Q 3425 2950 3425 3419 
Q 3425 3888 3200 4109 
Q 2975 4331 2503 4331 
L 1581 4331 
L 1581 2503 
z
" transform="scale(0.015625)"/>
       </defs>
       <use xlink:href="#DejaVuSerif-44"/>
       <use xlink:href="#DejaVuSerif-51" transform="translate(80.175781 0)"/>
       <use xlink:href="#DejaVuSerif-4e" transform="translate(162.158203 0)"/>
       <use xlink:href="#DejaVuSerif-2b" transform="translate(249.658203 0)"/>
       <use xlink:href="#DejaVuSerif-52" transform="translate(333.447266 0)"/>
       <use xlink:href="#DejaVuSerif-4e" transform="translate(408.740234 0)"/>
       <use xlink:href="#DejaVuSerif-44" transform="translate(496.240234 0)"/>
      </g>
     </g>
    </g>
    <g id="xtick_5">
     <g id="line2d_5">
      <path d="M 343.010022 278.193572 
L 343.010022 66.65088 
" clip-path="url(#p0f4abca4b4)" style="fill: none; stroke: #cccccc; stroke-opacity: 0.25; stroke-width: 0.8; stroke-linecap: round"/>
     </g>
     <g id="text_5">
      <!-- Simplified PSAIM -->
      <g style="fill: #262626" transform="translate(305.380695 317.949184) rotate(-18) scale(0.09 -0.09)">
       <defs>
        <path id="DejaVuSerif-53" d="M 594 225 
L 594 1288 
L 953 1284 
Q 969 753 1261 498 
Q 1553 244 2150 244 
Q 2706 244 2998 464 
Q 3291 684 3291 1106 
Q 3291 1444 3114 1625 
Q 2938 1806 2369 1978 
L 1753 2163 
Q 1084 2366 811 2669 
Q 538 2972 538 3500 
Q 538 4094 959 4422 
Q 1381 4750 2144 4750 
Q 2469 4750 2856 4679 
Q 3244 4609 3681 4475 
L 3681 3481 
L 3328 3481 
Q 3275 3975 2998 4195 
Q 2722 4416 2156 4416 
Q 1663 4416 1405 4214 
Q 1147 4013 1147 3628 
Q 1147 3294 1340 3103 
Q 1534 2913 2163 2725 
L 2741 2553 
Q 3375 2363 3645 2067 
Q 3916 1772 3916 1275 
Q 3916 597 3481 253 
Q 3047 -91 2188 -91 
Q 1803 -91 1404 -12 
Q 1006 66 594 225 
z
" transform="scale(0.015625)"/>
        <path id="DejaVuSerif-6d" d="M 3316 2675 
Q 3481 3041 3739 3227 
Q 3997 3413 4341 3413 
Q 4863 3413 5119 3089 
Q 5375 2766 5375 2113 
L 5375 331 
L 5894 331 
L 5894 0 
L 4300 0 
L 4300 331 
L 4800 331 
L 4800 2047 
Q 4800 2556 4650 2772 
Q 4500 2988 4153 2988 
Q 3769 2988 3567 2697 
Q 3366 2406 3366 1850 
L 3366 331 
L 3866 331 
L 3866 0 
L 2291 0 
L 2291 331 
L 2791 331 
L 2791 2069 
Q 2791 2566 2641 2777 
Q 2491 2988 2144 2988 
Q 1759 2988 1557 2697 
Q 1356 2406 1356 1850 
L 1356 331 
L 1856 331 
L 1856 0 
L 263 0 
L 263 331 
L 781 331 
L 781 2994 
L 231 2994 
L 231 3322 
L 1356 3322 
L 1356 2731 
Q 1516 3063 1762 3238 
Q 2009 3413 2322 3413 
Q 2709 3413 2968 3220 
Q 3228 3028 3316 2675 
z
" transform="scale(0.015625)"/>
        <path id="DejaVuSerif-6c" d="M 1313 331 
L 1856 331 
L 1856 0 
L 184 0 
L 184 331 
L 738 331 
L 738 4531 
L 184 4531 
L 184 4863 
L 1313 4863 
L 1313 331 
z
" transform="scale(0.015625)"/>
        <path id="DejaVuSerif-66" d="M 2753 4078 
L 2450 4078 
Q 2447 4313 2317 4434 
Q 2188 4556 1941 4556 
Q 1619 4556 1487 4379 
Q 1356 4203 1356 3750 
L 1356 3322 
L 2284 3322 
L 2284 2988 
L 1356 2988 
L 1356 331 
L 2094 331 
L 2094 0 
L 231 0 
L 231 331 
L 781 331 
L 781 2988 
L 231 2988 
L 231 3322 
L 781 3322 
L 781 3738 
Q 781 4294 1070 4578 
Q 1359 4863 1919 4863 
Q 2128 4863 2337 4825 
Q 2547 4788 2753 4709 
L 2753 4078 
z
" transform="scale(0.015625)"/>
        <path id="DejaVuSerif-64" d="M 3359 331 
L 3909 331 
L 3909 0 
L 2784 0 
L 2784 519 
Q 2616 206 2355 57 
Q 2094 -91 1709 -91 
Q 1097 -91 708 395 
Q 319 881 319 1663 
Q 319 2444 706 2928 
Q 1094 3413 1709 3413 
Q 2094 3413 2355 3264 
Q 2616 3116 2784 2803 
L 2784 4531 
L 2241 4531 
L 2241 4863 
L 3359 4863 
L 3359 331 
z
M 2784 1497 
L 2784 1825 
Q 2784 2422 2554 2737 
Q 2325 3053 1888 3053 
Q 1444 3053 1217 2703 
Q 991 2353 991 1663 
Q 991 975 1217 622 
Q 1444 269 1888 269 
Q 2325 269 2554 583 
Q 2784 897 2784 1497 
z
" transform="scale(0.015625)"/>
        <path id="DejaVuSerif-41" d="M 1281 1691 
L 2994 1691 
L 2138 3909 
L 1281 1691 
z
M -38 0 
L -38 331 
L 372 331 
L 2034 4666 
L 2559 4666 
L 4225 331 
L 4684 331 
L 4684 0 
L 2988 0 
L 2988 331 
L 3506 331 
L 3116 1356 
L 1153 1356 
L 763 331 
L 1275 331 
L 1275 0 
L -38 0 
z
" transform="scale(0.015625)"/>
        <path id="DejaVuSerif-49" d="M 1581 331 
L 2175 331 
L 2175 0 
L 353 0 
L 353 331 
L 947 331 
L 947 4331 
L 353 4331 
L 353 4666 
L 2175 4666 
L 2175 4331 
L 1581 4331 
L 1581 331 
z
" transform="scale(0.015625)"/>
        <path id="DejaVuSerif-4d" d="M 353 0 
L 353 331 
L 947 331 
L 947 4331 
L 319 4331 
L 319 4666 
L 1678 4666 
L 3316 1344 
L 4953 4666 
L 6228 4666 
L 6228 4331 
L 5606 4331 
L 5606 331 
L 6203 331 
L 6203 0 
L 4378 0 
L 4378 331 
L 4972 331 
L 4972 3938 
L 3372 684 
L 2931 684 
L 1331 3938 
L 1331 331 
L 1925 331 
L 1925 0 
L 353 0 
z
" transform="scale(0.015625)"/>
       </defs>
       <use xlink:href="#DejaVuSerif-53"/>
       <use xlink:href="#DejaVuSerif-69" transform="translate(68.505859 0)"/>
       <use xlink:href="#DejaVuSerif-6d" transform="translate(100.488281 0)"/>
       <use xlink:href="#DejaVuSerif-70" transform="translate(195.3125 0)"/>
       <use xlink:href="#DejaVuSerif-6c" transform="translate(259.326172 0)"/>
       <use xlink:href="#DejaVuSerif-69" transform="translate(291.308594 0)"/>
       <use xlink:href="#DejaVuSerif-66" transform="translate(323.291016 0)"/>
       <use xlink:href="#DejaVuSerif-69" transform="translate(360.302734 0)"/>
       <use xlink:href="#DejaVuSerif-65" transform="translate(392.285156 0)"/>
       <use xlink:href="#DejaVuSerif-64" transform="translate(451.464844 0)"/>
       <use xlink:href="#DejaVuSerif-20" transform="translate(515.478516 0)"/>
       <use xlink:href="#DejaVuSerif-50" transform="translate(547.265625 0)"/>
       <use xlink:href="#DejaVuSerif-53" transform="translate(614.550781 0)"/>
       <use xlink:href="#DejaVuSerif-41" transform="translate(683.056641 0)"/>
       <use xlink:href="#DejaVuSerif-49" transform="translate(755.273438 0)"/>
       <use xlink:href="#DejaVuSerif-4d" transform="translate(794.775391 0)"/>
      </g>
     </g>
    </g>
   </g>
   <g id="matplotlib.axis_2">
    <g id="ytick_1">
     <g id="line2d_6">
      <path d="M 47.157548 278.193572 
L 380.137115 278.193572 
" clip-path="url(#p0f4abca4b4)" style="fill: none; stroke: #cccccc; stroke-opacity: 0.25; stroke-width: 0.8; stroke-linecap: round"/>
     </g>
     <g id="text_6">
      <!-- 0 -->
      <g style="fill: #262626" transform="translate(33.131298 281.612869) scale(0.09 -0.09)">
       <defs>
        <path id="DejaVuSerif-30" d="M 2034 219 
Q 2513 219 2750 744 
Q 2988 1269 2988 2328 
Q 2988 3391 2750 3916 
Q 2513 4441 2034 4441 
Q 1556 4441 1318 3916 
Q 1081 3391 1081 2328 
Q 1081 1269 1318 744 
Q 1556 219 2034 219 
z
M 2034 -91 
Q 1275 -91 848 546 
Q 422 1184 422 2328 
Q 422 3475 848 4112 
Q 1275 4750 2034 4750 
Q 2797 4750 3222 4112 
Q 3647 3475 3647 2328 
Q 3647 1184 3222 546 
Q 2797 -91 2034 -91 
z
" transform="scale(0.015625)"/>
       </defs>
       <use xlink:href="#DejaVuSerif-30"/>
      </g>
     </g>
    </g>
    <g id="ytick_2">
     <g id="line2d_7">
      <path d="M 47.157548 239.114538 
L 380.137115 239.114538 
" clip-path="url(#p0f4abca4b4)" style="fill: none; stroke: #cccccc; stroke-opacity: 0.25; stroke-width: 0.8; stroke-linecap: round"/>
     </g>
     <g id="text_7">
      <!-- 1 -->
      <g style="fill: #262626" transform="translate(33.131298 242.533835) scale(0.09 -0.09)">
       <defs>
        <path id="DejaVuSerif-31" d="M 909 0 
L 909 331 
L 1722 331 
L 1722 4213 
L 781 3603 
L 781 4013 
L 1919 4750 
L 2350 4750 
L 2350 331 
L 3163 331 
L 3163 0 
L 909 0 
z
" transform="scale(0.015625)"/>
       </defs>
       <use xlink:href="#DejaVuSerif-31"/>
      </g>
     </g>
    </g>
    <g id="ytick_3">
     <g id="line2d_8">
      <path d="M 47.157548 200.035504 
L 380.137115 200.035504 
" clip-path="url(#p0f4abca4b4)" style="fill: none; stroke: #cccccc; stroke-opacity: 0.25; stroke-width: 0.8; stroke-linecap: round"/>
     </g>
     <g id="text_8">
      <!-- 2 -->
      <g style="fill: #262626" transform="translate(33.131298 203.454801) scale(0.09 -0.09)">
       <defs>
        <path id="DejaVuSerif-32" d="M 819 3553 
L 469 3553 
L 469 4384 
Q 803 4563 1142 4656 
Q 1481 4750 1806 4750 
Q 2534 4750 2956 4397 
Q 3378 4044 3378 3438 
Q 3378 2753 2422 1800 
Q 2347 1728 2309 1691 
L 1131 513 
L 3078 513 
L 3078 1088 
L 3444 1088 
L 3444 0 
L 434 0 
L 434 341 
L 1850 1753 
Q 2319 2222 2519 2614 
Q 2719 3006 2719 3438 
Q 2719 3909 2473 4175 
Q 2228 4441 1797 4441 
Q 1350 4441 1106 4219 
Q 863 3997 819 3553 
z
" transform="scale(0.015625)"/>
       </defs>
       <use xlink:href="#DejaVuSerif-32"/>
      </g>
     </g>
    </g>
    <g id="ytick_4">
     <g id="line2d_9">
      <path d="M 47.157548 160.95647 
L 380.137115 160.95647 
" clip-path="url(#p0f4abca4b4)" style="fill: none; stroke: #cccccc; stroke-opacity: 0.25; stroke-width: 0.8; stroke-linecap: round"/>
     </g>
     <g id="text_9">
      <!-- 3 -->
      <g style="fill: #262626" transform="translate(33.131298 164.375767) scale(0.09 -0.09)">
       <defs>
        <path id="DejaVuSerif-33" d="M 622 4469 
Q 988 4606 1323 4678 
Q 1659 4750 1953 4750 
Q 2638 4750 3022 4454 
Q 3406 4159 3406 3634 
Q 3406 3213 3140 2930 
Q 2875 2647 2388 2547 
Q 2963 2466 3280 2130 
Q 3597 1794 3597 1259 
Q 3597 606 3158 257 
Q 2719 -91 1894 -91 
Q 1528 -91 1179 -12 
Q 831 66 488 225 
L 488 1131 
L 838 1131 
Q 869 681 1141 450 
Q 1413 219 1906 219 
Q 2384 219 2661 495 
Q 2938 772 2938 1253 
Q 2938 1803 2653 2086 
Q 2369 2369 1819 2369 
L 1522 2369 
L 1522 2688 
L 1678 2688 
Q 2225 2688 2498 2914 
Q 2772 3141 2772 3597 
Q 2772 4006 2547 4223 
Q 2322 4441 1900 4441 
Q 1478 4441 1245 4241 
Q 1013 4041 972 3647 
L 622 3647 
L 622 4469 
z
" transform="scale(0.015625)"/>
       </defs>
       <use xlink:href="#DejaVuSerif-33"/>
      </g>
     </g>
    </g>
    <g id="ytick_5">
     <g id="line2d_10">
      <path d="M 47.157548 121.877436 
L 380.137115 121.877436 
" clip-path="url(#p0f4abca4b4)" style="fill: none; stroke: #cccccc; stroke-opacity: 0.25; stroke-width: 0.8; stroke-linecap: round"/>
     </g>
     <g id="text_10">
      <!-- 4 -->
      <g style="fill: #262626" transform="translate(33.131298 125.296733) scale(0.09 -0.09)">
       <defs>
        <path id="DejaVuSerif-34" d="M 2234 1581 
L 2234 4063 
L 641 1581 
L 2234 1581 
z
M 3609 0 
L 1484 0 
L 1484 331 
L 2234 331 
L 2234 1247 
L 197 1247 
L 197 1588 
L 2241 4750 
L 2859 4750 
L 2859 1581 
L 3750 1581 
L 3750 1247 
L 2859 1247 
L 2859 331 
L 3609 331 
L 3609 0 
z
" transform="scale(0.015625)"/>
       </defs>
       <use xlink:href="#DejaVuSerif-34"/>
      </g>
     </g>
    </g>
    <g id="ytick_6">
     <g id="line2d_11">
      <path d="M 47.157548 82.798402 
L 380.137115 82.798402 
" clip-path="url(#p0f4abca4b4)" style="fill: none; stroke: #cccccc; stroke-opacity: 0.25; stroke-width: 0.8; stroke-linecap: round"/>
     </g>
     <g id="text_11">
      <!-- 5 -->
      <g style="fill: #262626" transform="translate(33.131298 86.217699) scale(0.09 -0.09)">
       <defs>
        <path id="DejaVuSerif-35" d="M 3219 4666 
L 3219 4153 
L 1081 4153 
L 1081 2816 
Q 1244 2928 1461 2984 
Q 1678 3041 1947 3041 
Q 2703 3041 3140 2622 
Q 3578 2203 3578 1478 
Q 3578 738 3136 323 
Q 2694 -91 1894 -91 
Q 1572 -91 1234 -12 
Q 897 66 544 225 
L 544 1131 
L 897 1131 
Q 925 688 1179 453 
Q 1434 219 1894 219 
Q 2388 219 2653 544 
Q 2919 869 2919 1478 
Q 2919 2084 2655 2407 
Q 2391 2731 1894 2731 
Q 1613 2731 1398 2631 
Q 1184 2531 1019 2322 
L 750 2322 
L 750 4666 
L 3219 4666 
z
" transform="scale(0.015625)"/>
       </defs>
       <use xlink:href="#DejaVuSerif-35"/>
      </g>
     </g>
    </g>
    <g id="text_12">
     <!-- Average slowdown -->
     <g style="fill: #262626" transform="translate(26.909423 219.903476) rotate(-90) scale(0.1 -0.1)">
      <defs>
       <path id="DejaVuSerif-76" d="M 1581 0 
L 359 2988 
L -19 2988 
L -19 3322 
L 1509 3322 
L 1509 2988 
L 978 2988 
L 1913 703 
L 2847 2988 
L 2350 2988 
L 2350 3322 
L 3597 3322 
L 3597 2988 
L 3225 2988 
L 2003 0 
L 1581 0 
z
" transform="scale(0.015625)"/>
       <path id="DejaVuSerif-61" d="M 2547 1044 
L 2547 1747 
L 1806 1747 
Q 1378 1747 1168 1562 
Q 959 1378 959 997 
Q 959 650 1171 447 
Q 1384 244 1747 244 
Q 2106 244 2326 466 
Q 2547 688 2547 1044 
z
M 3122 2075 
L 3122 331 
L 3634 331 
L 3634 0 
L 2547 0 
L 2547 359 
Q 2356 128 2106 18 
Q 1856 -91 1522 -91 
Q 969 -91 644 203 
Q 319 497 319 997 
Q 319 1513 691 1797 
Q 1063 2081 1741 2081 
L 2547 2081 
L 2547 2309 
Q 2547 2688 2317 2895 
Q 2088 3103 1672 3103 
Q 1328 3103 1125 2947 
Q 922 2791 872 2484 
L 575 2484 
L 575 3156 
Q 875 3284 1158 3348 
Q 1441 3413 1709 3413 
Q 2400 3413 2761 3070 
Q 3122 2728 3122 2075 
z
" transform="scale(0.015625)"/>
       <path id="DejaVuSerif-67" d="M 3359 2988 
L 3359 72 
Q 3359 -644 2965 -1033 
Q 2572 -1422 1844 -1422 
Q 1516 -1422 1216 -1362 
Q 916 -1303 641 -1184 
L 641 -488 
L 941 -488 
Q 997 -813 1206 -963 
Q 1416 -1113 1806 -1113 
Q 2313 -1113 2548 -827 
Q 2784 -541 2784 72 
L 2784 519 
Q 2616 206 2355 57 
Q 2094 -91 1709 -91 
Q 1097 -91 708 395 
Q 319 881 319 1663 
Q 319 2444 706 2928 
Q 1094 3413 1709 3413 
Q 2094 3413 2355 3264 
Q 2616 3116 2784 2803 
L 2784 3322 
L 3909 3322 
L 3909 2988 
L 3359 2988 
z
M 2784 1825 
Q 2784 2422 2554 2737 
Q 2325 3053 1888 3053 
Q 1444 3053 1217 2703 
Q 991 2353 991 1663 
Q 991 975 1217 622 
Q 1444 269 1888 269 
Q 2325 269 2554 583 
Q 2784 897 2784 1497 
L 2784 1825 
z
" transform="scale(0.015625)"/>
       <path id="DejaVuSerif-77" d="M 3072 3322 
L 3922 728 
L 4672 2988 
L 4191 2988 
L 4191 3322 
L 5394 3322 
L 5394 2988 
L 5025 2988 
L 4038 0 
L 3559 0 
L 2741 2484 
L 1919 0 
L 1459 0 
L 475 2988 
L 103 2988 
L 103 3322 
L 1606 3322 
L 1606 2988 
L 1069 2988 
L 1813 728 
L 2669 3322 
L 3072 3322 
z
" transform="scale(0.015625)"/>
       <path id="DejaVuSerif-6e" d="M 263 0 
L 263 331 
L 781 331 
L 781 2988 
L 231 2988 
L 231 3322 
L 1356 3322 
L 1356 2731 
Q 1516 3069 1770 3241 
Q 2025 3413 2363 3413 
Q 2913 3413 3172 3097 
Q 3431 2781 3431 2113 
L 3431 331 
L 3944 331 
L 3944 0 
L 2356 0 
L 2356 331 
L 2853 331 
L 2853 1931 
Q 2853 2541 2703 2767 
Q 2553 2994 2175 2994 
Q 1775 2994 1565 2701 
Q 1356 2409 1356 1850 
L 1356 331 
L 1856 331 
L 1856 0 
L 263 0 
z
" transform="scale(0.015625)"/>
      </defs>
      <use xlink:href="#DejaVuSerif-41"/>
      <use xlink:href="#DejaVuSerif-76" transform="translate(68.216797 0)"/>
      <use xlink:href="#DejaVuSerif-65" transform="translate(124.710938 0)"/>
      <use xlink:href="#DejaVuSerif-72" transform="translate(183.890625 0)"/>
      <use xlink:href="#DejaVuSerif-61" transform="translate(231.693359 0)"/>
      <use xlink:href="#DejaVuSerif-67" transform="translate(291.3125 0)"/>
      <use xlink:href="#DejaVuSerif-65" transform="translate(355.326172 0)"/>
      <use xlink:href="#DejaVuSerif-20" transform="translate(414.505859 0)"/>
      <use xlink:href="#DejaVuSerif-73" transform="translate(446.292969 0)"/>
      <use xlink:href="#DejaVuSerif-6c" transform="translate(497.611328 0)"/>
      <use xlink:href="#DejaVuSerif-6f" transform="translate(529.59375 0)"/>
      <use xlink:href="#DejaVuSerif-77" transform="translate(589.798828 0)"/>
      <use xlink:href="#DejaVuSerif-64" transform="translate(675.394531 0)"/>
      <use xlink:href="#DejaVuSerif-6f" transform="translate(739.408203 0)"/>
      <use xlink:href="#DejaVuSerif-77" transform="translate(799.613281 0)"/>
      <use xlink:href="#DejaVuSerif-6e" transform="translate(885.208984 0)"/>
     </g>
    </g>
   </g>
   <g id="patch_3">
    <path d="M 62.292983 278.193572 
L 84.28464 278.193572 
L 84.28464 239.114538 
L 62.292983 239.114538 
z
" clip-path="url(#p0f4abca4b4)" style="fill: #cc78bc; opacity: 0.85; stroke: #ffffff; stroke-width: 0.8; stroke-linejoin: miter"/>
   </g>
   <g id="patch_4">
    <path d="M 126.974328 278.193572 
L 148.965986 278.193572 
L 148.965986 202.206562 
L 126.974328 202.206562 
z
" clip-path="url(#p0f4abca4b4)" style="fill: #cc78bc; opacity: 0.85; stroke: #ffffff; stroke-width: 0.8; stroke-linejoin: miter"/>
   </g>
   <g id="patch_5">
    <path d="M 191.655674 278.193572 
L 213.647331 278.193572 
L 213.647331 236.34644 
L 191.655674 236.34644 
z
" clip-path="url(#p0f4abca4b4)" style="fill: #cc78bc; opacity: 0.85; stroke: #ffffff; stroke-width: 0.8; stroke-linejoin: miter"/>
   </g>
   <g id="patch_6">
    <path d="M 256.337019 278.193572 
L 278.328677 278.193572 
L 278.328677 228.991983 
L 256.337019 228.991983 
z
" clip-path="url(#p0f4abca4b4)" style="fill: #cc78bc; opacity: 0.85; stroke: #ffffff; stroke-width: 0.8; stroke-linejoin: miter"/>
   </g>
   <g id="patch_7">
    <path d="M 321.018365 278.193572 
L 343.010022 278.193572 
L 343.010022 236.478739 
L 321.018365 236.478739 
z
" clip-path="url(#p0f4abca4b4)" style="fill: #cc78bc; opacity: 0.85; stroke: #ffffff; stroke-width: 0.8; stroke-linejoin: miter"/>
   </g>
   <g id="patch_8">
    <path d="M 84.28464 278.193572 
L 106.276298 278.193572 
L 106.276298 183.94411 
L 84.28464 183.94411 
z
" clip-path="url(#p0f4abca4b4)" style="fill: #ca9161; opacity: 0.85; stroke: #ffffff; stroke-width: 0.8; stroke-linejoin: miter"/>
   </g>
   <g id="patch_9">
    <path d="M 148.965986 278.193572 
L 170.957643 278.193572 
L 170.957643 132.38877 
L 148.965986 132.38877 
z
" clip-path="url(#p0f4abca4b4)" style="fill: #ca9161; opacity: 0.85; stroke: #ffffff; stroke-width: 0.8; stroke-linejoin: miter"/>
   </g>
   <g id="patch_10">
    <path d="M 213.647331 278.193572 
L 235.638989 278.193572 
L 235.638989 123.67924 
L 213.647331 123.67924 
z
" clip-path="url(#p0f4abca4b4)" style="fill: #ca9161; opacity: 0.85; stroke: #ffffff; stroke-width: 0.8; stroke-linejoin: miter"/>
   </g>
   <g id="patch_11">
    <path d="M 278.328677 278.193572 
L 300.320334 278.193572 
L 300.320334 124.953848 
L 278.328677 124.953848 
z
" clip-path="url(#p0f4abca4b4)" style="fill: #ca9161; opacity: 0.85; stroke: #ffffff; stroke-width: 0.8; stroke-linejoin: miter"/>
   </g>
   <g id="patch_12">
    <path d="M 343.010022 278.193572 
L 365.00168 278.193572 
L 365.00168 149.110268 
L 343.010022 149.110268 
z
" clip-path="url(#p0f4abca4b4)" style="fill: #ca9161; opacity: 0.85; stroke: #ffffff; stroke-width: 0.8; stroke-linejoin: miter"/>
   </g>
   <g id="LineCollection_1">
    <path d="M 73.288812 239.114538 
L 73.288812 239.114538 
" clip-path="url(#p0f4abca4b4)" style="fill: none; stroke: #000000"/>
    <path d="M 137.970157 239.114538 
L 137.970157 128.390608 
" clip-path="url(#p0f4abca4b4)" style="fill: none; stroke: #000000"/>
    <path d="M 202.651503 237.615406 
L 202.651503 235.037021 
" clip-path="url(#p0f4abca4b4)" style="fill: none; stroke: #000000"/>
    <path d="M 267.332848 237.235386 
L 267.332848 213.213568 
" clip-path="url(#p0f4abca4b4)" style="fill: none; stroke: #000000"/>
    <path d="M 332.014194 237.713867 
L 332.014194 235.043636 
" clip-path="url(#p0f4abca4b4)" style="fill: none; stroke: #000000"/>
   </g>
   <g id="line2d_12">
    <defs>
     <path id="me1167c41e9" d="M 3 0 
L -3 -0 
" style="stroke: #000000"/>
    </defs>
    <g clip-path="url(#p0f4abca4b4)">
     <use xlink:href="#me1167c41e9" x="73.288812" y="239.114538" style="stroke: #000000"/>
     <use xlink:href="#me1167c41e9" x="137.970157" y="239.114538" style="stroke: #000000"/>
     <use xlink:href="#me1167c41e9" x="202.651503" y="237.615406" style="stroke: #000000"/>
     <use xlink:href="#me1167c41e9" x="267.332848" y="237.235386" style="stroke: #000000"/>
     <use xlink:href="#me1167c41e9" x="332.014194" y="237.713867" style="stroke: #000000"/>
    </g>
   </g>
   <g id="line2d_13">
    <g clip-path="url(#p0f4abca4b4)">
     <use xlink:href="#me1167c41e9" x="73.288812" y="239.114538" style="stroke: #000000"/>
     <use xlink:href="#me1167c41e9" x="137.970157" y="128.390608" style="stroke: #000000"/>
     <use xlink:href="#me1167c41e9" x="202.651503" y="235.037021" style="stroke: #000000"/>
     <use xlink:href="#me1167c41e9" x="267.332848" y="213.213568" style="stroke: #000000"/>
     <use xlink:href="#me1167c41e9" x="332.014194" y="235.043636" style="stroke: #000000"/>
    </g>
   </g>
   <g id="LineCollection_2">
    <path d="M 95.280469 193.03382 
L 95.280469 172.794154 
" clip-path="url(#p0f4abca4b4)" style="fill: none; stroke: #000000"/>
    <path d="M 159.961815 160.602859 
L 159.961815 90.576175 
" clip-path="url(#p0f4abca4b4)" style="fill: none; stroke: #000000"/>
    <path d="M 224.64316 153.083919 
L 224.64316 86.89712 
" clip-path="url(#p0f4abca4b4)" style="fill: none; stroke: #000000"/>
    <path d="M 289.324506 159.589567 
L 289.324506 76.724342 
" clip-path="url(#p0f4abca4b4)" style="fill: none; stroke: #000000"/>
    <path d="M 354.005851 156.858169 
L 354.005851 140.879524 
" clip-path="url(#p0f4abca4b4)" style="fill: none; stroke: #000000"/>
   </g>
   <g id="line2d_14">
    <g clip-path="url(#p0f4abca4b4)">
     <use xlink:href="#me1167c41e9" x="95.280469" y="193.03382" style="stroke: #000000"/>
     <use xlink:href="#me1167c41e9" x="159.961815" y="160.602859" style="stroke: #000000"/>
     <use xlink:href="#me1167c41e9" x="224.64316" y="153.083919" style="stroke: #000000"/>
     <use xlink:href="#me1167c41e9" x="289.324506" y="159.589567" style="stroke: #000000"/>
     <use xlink:href="#me1167c41e9" x="354.005851" y="156.858169" style="stroke: #000000"/>
    </g>
   </g>
   <g id="line2d_15">
    <g clip-path="url(#p0f4abca4b4)">
     <use xlink:href="#me1167c41e9" x="95.280469" y="172.794154" style="stroke: #000000"/>
     <use xlink:href="#me1167c41e9" x="159.961815" y="90.576175" style="stroke: #000000"/>
     <use xlink:href="#me1167c41e9" x="224.64316" y="86.89712" style="stroke: #000000"/>
     <use xlink:href="#me1167c41e9" x="289.324506" y="76.724342" style="stroke: #000000"/>
     <use xlink:href="#me1167c41e9" x="354.005851" y="140.879524" style="stroke: #000000"/>
    </g>
   </g>
   <g id="patch_13">
    <path d="M 47.157548 278.193572 
L 47.157548 66.65088 
" style="fill: none; stroke: #cccccc; stroke-width: 0.8; stroke-linejoin: miter; stroke-linecap: square"/>
   </g>
   <g id="patch_14">
    <path d="M 47.157548 278.193572 
L 380.137115 278.193572 
" style="fill: none; stroke: #cccccc; stroke-width: 0.8; stroke-linejoin: miter; stroke-linecap: square"/>
   </g>
   <g id="text_13">
    <!-- A -->
    <g style="fill: #262626" transform="translate(7.2 58.84559) scale(0.12 -0.12)">
     <defs>
      <path id="DejaVuSerif-Bold-41" d="M -50 0 
L -50 378 
L 331 378 
L 2088 4666 
L 2834 4666 
L 4594 378 
L 5038 378 
L 5038 0 
L 2853 0 
L 2853 378 
L 3309 378 
L 2925 1331 
L 1172 1331 
L 781 378 
L 1338 378 
L 1338 0 
L -50 0 
z
M 1325 1709 
L 2772 1709 
L 2053 3494 
L 1325 1709 
z
" transform="scale(0.015625)"/>
     </defs>
     <use xlink:href="#DejaVuSerif-Bold-41"/>
    </g>
   </g>
   <g id="text_14">
    <!-- Average slowdown -->
    <g style="fill: #262626" transform="translate(157.347097 60.65088) scale(0.11 -0.11)">
     <defs>
      <path id="DejaVuSerif-Bold-76" d="M 1428 0 
L 250 2944 
L -116 2944 
L -116 3322 
L 1791 3322 
L 1791 2944 
L 1388 2944 
L 2228 844 
L 3066 2944 
L 2631 2944 
L 2631 3322 
L 3878 3322 
L 3878 2944 
L 3494 2944 
L 2316 0 
L 1428 0 
z
" transform="scale(0.015625)"/>
      <path id="DejaVuSerif-Bold-65" d="M 2566 1875 
Q 2566 2531 2444 2795 
Q 2322 3059 2028 3059 
Q 1744 3059 1620 2800 
Q 1497 2541 1497 1931 
L 1497 1875 
L 2566 1875 
z
M 3781 1503 
L 1497 1503 
L 1497 1478 
Q 1497 834 1690 548 
Q 1884 263 2316 263 
Q 2675 263 2897 453 
Q 3119 644 3181 1006 
L 3700 1006 
Q 3566 441 3166 175 
Q 2766 -91 2047 -91 
Q 1184 -91 723 364 
Q 263 819 263 1663 
Q 263 2488 734 2950 
Q 1206 3413 2047 3413 
Q 2872 3413 3312 2927 
Q 3753 2441 3781 1503 
z
" transform="scale(0.015625)"/>
      <path id="DejaVuSerif-Bold-72" d="M 3438 3359 
L 3438 2369 
L 3084 2369 
Q 3066 2634 2941 2764 
Q 2816 2894 2578 2894 
Q 2216 2894 2006 2575 
Q 1797 2256 1797 1691 
L 1797 378 
L 2400 378 
L 2400 0 
L 219 0 
L 219 378 
L 691 378 
L 691 2944 
L 184 2944 
L 184 3322 
L 1797 3322 
L 1797 2731 
Q 1959 3078 2226 3245 
Q 2494 3413 2881 3413 
Q 2978 3413 3117 3398 
Q 3256 3384 3438 3359 
z
" transform="scale(0.015625)"/>
      <path id="DejaVuSerif-Bold-61" d="M 3525 2041 
L 3525 378 
L 4000 378 
L 4000 0 
L 2419 0 
L 2419 422 
Q 2200 159 1931 34 
Q 1663 -91 1319 -91 
Q 809 -91 536 182 
Q 263 456 263 966 
Q 263 1525 655 1803 
Q 1047 2081 1838 2081 
L 2419 2081 
L 2419 2278 
Q 2419 2681 2228 2873 
Q 2038 3066 1638 3066 
Q 1306 3066 1126 2930 
Q 947 2794 872 2484 
L 519 2484 
L 519 3200 
Q 816 3306 1134 3359 
Q 1453 3413 1806 3413 
Q 2697 3413 3111 3081 
Q 3525 2750 3525 2041 
z
M 2419 1044 
L 2419 1709 
L 2003 1709 
Q 1694 1709 1528 1540 
Q 1363 1372 1363 1056 
Q 1363 741 1483 584 
Q 1603 428 1850 428 
Q 2106 428 2262 597 
Q 2419 766 2419 1044 
z
" transform="scale(0.015625)"/>
      <path id="DejaVuSerif-Bold-67" d="M 3853 2944 
L 3853 44 
Q 3853 -656 3354 -1039 
Q 2856 -1422 1947 -1422 
Q 1616 -1422 1275 -1370 
Q 934 -1319 575 -1216 
L 575 -422 
L 928 -422 
Q 975 -750 1192 -909 
Q 1409 -1069 1813 -1069 
Q 2325 -1069 2536 -823 
Q 2747 -578 2747 44 
L 2747 422 
Q 2606 163 2367 36 
Q 2128 -91 1778 -91 
Q 1072 -91 667 378 
Q 263 847 263 1663 
Q 263 2481 667 2947 
Q 1072 3413 1778 3413 
Q 2128 3413 2367 3286 
Q 2606 3159 2747 2900 
L 2747 3322 
L 4325 3322 
L 4325 2944 
L 3853 2944 
z
M 2747 1825 
Q 2747 2406 2597 2665 
Q 2447 2925 2119 2925 
Q 1775 2925 1636 2651 
Q 1497 2378 1497 1663 
Q 1497 947 1637 672 
Q 1778 397 2119 397 
Q 2447 397 2597 656 
Q 2747 916 2747 1497 
L 2747 1825 
z
" transform="scale(0.015625)"/>
      <path id="DejaVuSerif-Bold-20" transform="scale(0.015625)"/>
      <path id="DejaVuSerif-Bold-73" d="M 300 97 
L 300 1025 
L 653 1025 
Q 697 653 931 458 
Q 1166 263 1569 263 
Q 1906 263 2086 380 
Q 2266 497 2266 716 
Q 2266 916 2152 1025 
Q 2038 1134 1709 1216 
L 1253 1331 
Q 738 1459 506 1698 
Q 275 1938 275 2344 
Q 275 2884 650 3148 
Q 1025 3413 1806 3413 
Q 2100 3413 2433 3364 
Q 2766 3316 3169 3213 
L 3169 2375 
L 2816 2375 
Q 2788 2716 2573 2887 
Q 2359 3059 1959 3059 
Q 1622 3059 1448 2951 
Q 1275 2844 1275 2638 
Q 1275 2469 1375 2372 
Q 1475 2275 1734 2209 
L 2188 2094 
Q 2841 1928 3091 1684 
Q 3341 1441 3341 1006 
Q 3341 444 2939 176 
Q 2538 -91 1691 -91 
Q 1381 -91 1034 -44 
Q 688 3 300 97 
z
" transform="scale(0.015625)"/>
      <path id="DejaVuSerif-Bold-6c" d="M 1797 378 
L 2272 378 
L 2272 0 
L 219 0 
L 219 378 
L 691 378 
L 691 4488 
L 219 4488 
L 219 4863 
L 1797 4863 
L 1797 378 
z
" transform="scale(0.015625)"/>
      <path id="DejaVuSerif-Bold-6f" d="M 2138 263 
Q 2488 263 2630 563 
Q 2772 863 2772 1663 
Q 2772 2463 2631 2761 
Q 2491 3059 2138 3059 
Q 1784 3059 1640 2757 
Q 1497 2456 1497 1663 
Q 1497 869 1640 566 
Q 1784 263 2138 263 
z
M 2138 -91 
Q 1259 -91 761 376 
Q 263 844 263 1663 
Q 263 2484 761 2948 
Q 1259 3413 2138 3413 
Q 3019 3413 3516 2948 
Q 4013 2484 4013 1663 
Q 4013 844 3514 376 
Q 3016 -91 2138 -91 
z
" transform="scale(0.015625)"/>
      <path id="DejaVuSerif-Bold-77" d="M 3450 3322 
L 4206 1106 
L 4831 2944 
L 4397 2944 
L 4397 3322 
L 5638 3322 
L 5638 2944 
L 5247 2944 
L 4244 0 
L 3481 0 
L 2778 2081 
L 2069 0 
L 1313 0 
L 306 2944 
L -56 2944 
L -56 3322 
L 1825 3322 
L 1825 2944 
L 1434 2944 
L 2047 1147 
L 2791 3322 
L 3450 3322 
z
" transform="scale(0.015625)"/>
      <path id="DejaVuSerif-Bold-64" d="M 2747 1497 
L 2747 1825 
Q 2747 2406 2597 2665 
Q 2447 2925 2119 2925 
Q 1775 2925 1636 2651 
Q 1497 2378 1497 1663 
Q 1497 947 1637 672 
Q 1778 397 2119 397 
Q 2447 397 2597 656 
Q 2747 916 2747 1497 
z
M 3853 378 
L 4325 378 
L 4325 0 
L 2747 0 
L 2747 422 
Q 2606 163 2367 36 
Q 2128 -91 1778 -91 
Q 1072 -91 667 378 
Q 263 847 263 1663 
Q 263 2481 667 2947 
Q 1072 3413 1778 3413 
Q 2128 3413 2367 3286 
Q 2606 3159 2747 2900 
L 2747 4488 
L 2272 4488 
L 2272 4863 
L 3853 4863 
L 3853 378 
z
" transform="scale(0.015625)"/>
      <path id="DejaVuSerif-Bold-6e" d="M 219 0 
L 219 378 
L 691 378 
L 691 2944 
L 219 2944 
L 219 3322 
L 1797 3322 
L 1797 2853 
Q 1997 3150 2253 3281 
Q 2509 3413 2900 3413 
Q 3459 3413 3745 3083 
Q 4031 2753 4031 2113 
L 4031 378 
L 4506 378 
L 4506 0 
L 2522 0 
L 2522 378 
L 2925 378 
L 2925 2144 
Q 2925 2566 2817 2730 
Q 2709 2894 2444 2894 
Q 2109 2894 1953 2648 
Q 1797 2403 1797 1869 
L 1797 378 
L 2203 378 
L 2203 0 
L 219 0 
z
" transform="scale(0.015625)"/>
     </defs>
     <use xlink:href="#DejaVuSerif-Bold-41"/>
     <use xlink:href="#DejaVuSerif-Bold-76" transform="translate(73.587891 0)"/>
     <use xlink:href="#DejaVuSerif-Bold-65" transform="translate(131.693359 0)"/>
     <use xlink:href="#DejaVuSerif-Bold-72" transform="translate(195.316406 0)"/>
     <use xlink:href="#DejaVuSerif-Bold-61" transform="translate(248.001953 0)"/>
     <use xlink:href="#DejaVuSerif-Bold-67" transform="translate(312.796875 0)"/>
     <use xlink:href="#DejaVuSerif-Bold-65" transform="translate(382.71875 0)"/>
     <use xlink:href="#DejaVuSerif-Bold-20" transform="translate(446.341797 0)"/>
     <use xlink:href="#DejaVuSerif-Bold-73" transform="translate(481.15625 0)"/>
     <use xlink:href="#DejaVuSerif-Bold-6c" transform="translate(537.455078 0)"/>
     <use xlink:href="#DejaVuSerif-Bold-6f" transform="translate(575.443359 0)"/>
     <use xlink:href="#DejaVuSerif-Bold-77" transform="translate(642.142578 0)"/>
     <use xlink:href="#DejaVuSerif-Bold-64" transform="translate(728.226562 0)"/>
     <use xlink:href="#DejaVuSerif-Bold-6f" transform="translate(798.148438 0)"/>
     <use xlink:href="#DejaVuSerif-Bold-77" transform="translate(864.847656 0)"/>
     <use xlink:href="#DejaVuSerif-Bold-6e" transform="translate(950.931641 0)"/>
    </g>
   </g>
   <g id="legend_1">
    <g id="patch_15">
     <path d="M 55.257548 81.589474 
L 73.257548 81.589474 
L 73.257548 75.289474 
L 55.257548 75.289474 
z
" style="fill: #cc78bc; opacity: 0.85; stroke: #ffffff; stroke-width: 0.8; stroke-linejoin: miter"/>
    </g>
    <g id="text_15">
     <!-- Clean -->
     <g style="fill: #262626" transform="translate(80.457548 81.589474) scale(0.09 -0.09)">
      <defs>
       <path id="DejaVuSerif-43" d="M 4513 1234 
Q 4306 581 3820 245 
Q 3334 -91 2591 -91 
Q 2134 -91 1743 65 
Q 1353 222 1050 525 
Q 700 875 529 1320 
Q 359 1766 359 2328 
Q 359 3416 987 4083 
Q 1616 4750 2644 4750 
Q 3025 4750 3456 4650 
Q 3888 4550 4384 4347 
L 4384 3272 
L 4031 3272 
Q 3916 3859 3567 4137 
Q 3219 4416 2591 4416 
Q 1844 4416 1459 3886 
Q 1075 3356 1075 2328 
Q 1075 1303 1459 773 
Q 1844 244 2591 244 
Q 3113 244 3450 492 
Q 3788 741 3938 1234 
L 4513 1234 
z
" transform="scale(0.015625)"/>
      </defs>
      <use xlink:href="#DejaVuSerif-43"/>
      <use xlink:href="#DejaVuSerif-6c" transform="translate(76.513672 0)"/>
      <use xlink:href="#DejaVuSerif-65" transform="translate(108.496094 0)"/>
      <use xlink:href="#DejaVuSerif-61" transform="translate(167.675781 0)"/>
      <use xlink:href="#DejaVuSerif-6e" transform="translate(227.294922 0)"/>
     </g>
    </g>
    <g id="patch_16">
     <path d="M 55.257548 94.799786 
L 73.257548 94.799786 
L 73.257548 88.499786 
L 55.257548 88.499786 
z
" style="fill: #ca9161; opacity: 0.85; stroke: #ffffff; stroke-width: 0.8; stroke-linejoin: miter"/>
    </g>
    <g id="text_16">
     <!-- Stressed -->
     <g style="fill: #262626" transform="translate(80.457548 94.799786) scale(0.09 -0.09)">
      <use xlink:href="#DejaVuSerif-53"/>
      <use xlink:href="#DejaVuSerif-74" transform="translate(68.505859 0)"/>
      <use xlink:href="#DejaVuSerif-72" transform="translate(108.691406 0)"/>
      <use xlink:href="#DejaVuSerif-65" transform="translate(156.494141 0)"/>
      <use xlink:href="#DejaVuSerif-73" transform="translate(215.673828 0)"/>
      <use xlink:href="#DejaVuSerif-73" transform="translate(266.992188 0)"/>
      <use xlink:href="#DejaVuSerif-65" transform="translate(318.310547 0)"/>
      <use xlink:href="#DejaVuSerif-64" transform="translate(377.490234 0)"/>
     </g>
    </g>
   </g>
  </g>
  <g id="axes_2">
   <g id="patch_17">
    <path d="M 442.355048 278.193572 
L 775.334615 278.193572 
L 775.334615 66.65088 
L 442.355048 66.65088 
z
" style="fill: #ffffff"/>
   </g>
   <g id="matplotlib.axis_3">
    <g id="xtick_6">
     <g id="line2d_16">
      <path d="M 479.48214 278.193572 
L 479.48214 66.65088 
" clip-path="url(#p337f47f0b9)" style="fill: none; stroke: #cccccc; stroke-opacity: 0.25; stroke-width: 0.8; stroke-linecap: round"/>
     </g>
     <g id="text_17">
      <!-- Heuristic -->
      <g style="fill: #262626" transform="translate(460.132045 306.070619) rotate(-18) scale(0.09 -0.09)">
       <use xlink:href="#DejaVuSerif-48"/>
       <use xlink:href="#DejaVuSerif-65" transform="translate(87.207031 0)"/>
       <use xlink:href="#DejaVuSerif-75" transform="translate(146.386719 0)"/>
       <use xlink:href="#DejaVuSerif-72" transform="translate(210.791016 0)"/>
       <use xlink:href="#DejaVuSerif-69" transform="translate(258.59375 0)"/>
       <use xlink:href="#DejaVuSerif-73" transform="translate(290.576172 0)"/>
       <use xlink:href="#DejaVuSerif-74" transform="translate(341.894531 0)"/>
       <use xlink:href="#DejaVuSerif-69" transform="translate(382.080078 0)"/>
       <use xlink:href="#DejaVuSerif-63" transform="translate(414.0625 0)"/>
      </g>
     </g>
    </g>
    <g id="xtick_7">
     <g id="line2d_17">
      <path d="M 544.163486 278.193572 
L 544.163486 66.65088 
" clip-path="url(#p337f47f0b9)" style="fill: none; stroke: #cccccc; stroke-opacity: 0.25; stroke-width: 0.8; stroke-linecap: round"/>
     </g>
     <g id="text_18">
      <!-- PG proxy -->
      <g style="fill: #262626" transform="translate(525.039324 305.776395) rotate(-18) scale(0.09 -0.09)">
       <use xlink:href="#DejaVuSerif-50"/>
       <use xlink:href="#DejaVuSerif-47" transform="translate(67.285156 0)"/>
       <use xlink:href="#DejaVuSerif-20" transform="translate(147.167969 0)"/>
       <use xlink:href="#DejaVuSerif-70" transform="translate(178.955078 0)"/>
       <use xlink:href="#DejaVuSerif-72" transform="translate(242.96875 0)"/>
       <use xlink:href="#DejaVuSerif-6f" transform="translate(290.771484 0)"/>
       <use xlink:href="#DejaVuSerif-78" transform="translate(350.976562 0)"/>
       <use xlink:href="#DejaVuSerif-79" transform="translate(407.373047 0)"/>
      </g>
     </g>
    </g>
    <g id="xtick_8">
     <g id="line2d_18">
      <path d="M 608.844831 278.193572 
L 608.844831 66.65088 
" clip-path="url(#p337f47f0b9)" style="fill: none; stroke: #cccccc; stroke-opacity: 0.25; stroke-width: 0.8; stroke-linecap: round"/>
     </g>
     <g id="text_19">
      <!-- DQN -->
      <g style="fill: #262626" transform="translate(598.927582 299.940784) rotate(-18) scale(0.09 -0.09)">
       <use xlink:href="#DejaVuSerif-44"/>
       <use xlink:href="#DejaVuSerif-51" transform="translate(80.175781 0)"/>
       <use xlink:href="#DejaVuSerif-4e" transform="translate(162.158203 0)"/>
      </g>
     </g>
    </g>
    <g id="xtick_9">
     <g id="line2d_19">
      <path d="M 673.526177 278.193572 
L 673.526177 66.65088 
" clip-path="url(#p337f47f0b9)" style="fill: none; stroke: #cccccc; stroke-opacity: 0.25; stroke-width: 0.8; stroke-linecap: round"/>
     </g>
     <g id="text_20">
      <!-- DQN+RND -->
      <g style="fill: #262626" transform="translate(649.624161 309.028636) rotate(-18) scale(0.09 -0.09)">
       <use xlink:href="#DejaVuSerif-44"/>
       <use xlink:href="#DejaVuSerif-51" transform="translate(80.175781 0)"/>
       <use xlink:href="#DejaVuSerif-4e" transform="translate(162.158203 0)"/>
       <use xlink:href="#DejaVuSerif-2b" transform="translate(249.658203 0)"/>
       <use xlink:href="#DejaVuSerif-52" transform="translate(333.447266 0)"/>
       <use xlink:href="#DejaVuSerif-4e" transform="translate(408.740234 0)"/>
       <use xlink:href="#DejaVuSerif-44" transform="translate(496.240234 0)"/>
      </g>
     </g>
    </g>
    <g id="xtick_10">
     <g id="line2d_20">
      <path d="M 738.207522 278.193572 
L 738.207522 66.65088 
" clip-path="url(#p337f47f0b9)" style="fill: none; stroke: #cccccc; stroke-opacity: 0.25; stroke-width: 0.8; stroke-linecap: round"/>
     </g>
     <g id="text_21">
      <!-- Simplified PSAIM -->
      <g style="fill: #262626" transform="translate(700.578195 317.949184) rotate(-18) scale(0.09 -0.09)">
       <use xlink:href="#DejaVuSerif-53"/>
       <use xlink:href="#DejaVuSerif-69" transform="translate(68.505859 0)"/>
       <use xlink:href="#DejaVuSerif-6d" transform="translate(100.488281 0)"/>
       <use xlink:href="#DejaVuSerif-70" transform="translate(195.3125 0)"/>
       <use xlink:href="#DejaVuSerif-6c" transform="translate(259.326172 0)"/>
       <use xlink:href="#DejaVuSerif-69" transform="translate(291.308594 0)"/>
       <use xlink:href="#DejaVuSerif-66" transform="translate(323.291016 0)"/>
       <use xlink:href="#DejaVuSerif-69" transform="translate(360.302734 0)"/>
       <use xlink:href="#DejaVuSerif-65" transform="translate(392.285156 0)"/>
       <use xlink:href="#DejaVuSerif-64" transform="translate(451.464844 0)"/>
       <use xlink:href="#DejaVuSerif-20" transform="translate(515.478516 0)"/>
       <use xlink:href="#DejaVuSerif-50" transform="translate(547.265625 0)"/>
       <use xlink:href="#DejaVuSerif-53" transform="translate(614.550781 0)"/>
       <use xlink:href="#DejaVuSerif-41" transform="translate(683.056641 0)"/>
       <use xlink:href="#DejaVuSerif-49" transform="translate(755.273438 0)"/>
       <use xlink:href="#DejaVuSerif-4d" transform="translate(794.775391 0)"/>
      </g>
     </g>
    </g>
   </g>
   <g id="matplotlib.axis_4">
    <g id="ytick_7">
     <g id="line2d_21">
      <path d="M 442.355048 278.193572 
L 775.334615 278.193572 
" clip-path="url(#p337f47f0b9)" style="fill: none; stroke: #cccccc; stroke-opacity: 0.25; stroke-width: 0.8; stroke-linecap: round"/>
     </g>
     <g id="text_22">
      <!-- 0.00 -->
      <g style="fill: #262626" transform="translate(414.015986 281.612869) scale(0.09 -0.09)">
       <defs>
        <path id="DejaVuSerif-2e" d="M 603 325 
Q 603 500 722 622 
Q 841 744 1019 744 
Q 1191 744 1312 622 
Q 1434 500 1434 325 
Q 1434 153 1312 31 
Q 1191 -91 1019 -91 
Q 841 -91 722 29 
Q 603 150 603 325 
z
" transform="scale(0.015625)"/>
       </defs>
       <use xlink:href="#DejaVuSerif-30"/>
       <use xlink:href="#DejaVuSerif-2e" transform="translate(63.623047 0)"/>
       <use xlink:href="#DejaVuSerif-30" transform="translate(95.410156 0)"/>
       <use xlink:href="#DejaVuSerif-30" transform="translate(159.033203 0)"/>
      </g>
     </g>
    </g>
    <g id="ytick_8">
     <g id="line2d_22">
      <path d="M 442.355048 248.042395 
L 775.334615 248.042395 
" clip-path="url(#p337f47f0b9)" style="fill: none; stroke: #cccccc; stroke-opacity: 0.25; stroke-width: 0.8; stroke-linecap: round"/>
     </g>
     <g id="text_23">
      <!-- 0.05 -->
      <g style="fill: #262626" transform="translate(414.015986 251.461692) scale(0.09 -0.09)">
       <use xlink:href="#DejaVuSerif-30"/>
       <use xlink:href="#DejaVuSerif-2e" transform="translate(63.623047 0)"/>
       <use xlink:href="#DejaVuSerif-30" transform="translate(95.410156 0)"/>
       <use xlink:href="#DejaVuSerif-35" transform="translate(159.033203 0)"/>
      </g>
     </g>
    </g>
    <g id="ytick_9">
     <g id="line2d_23">
      <path d="M 442.355048 217.891218 
L 775.334615 217.891218 
" clip-path="url(#p337f47f0b9)" style="fill: none; stroke: #cccccc; stroke-opacity: 0.25; stroke-width: 0.8; stroke-linecap: round"/>
     </g>
     <g id="text_24">
      <!-- 0.10 -->
      <g style="fill: #262626" transform="translate(414.015986 221.310515) scale(0.09 -0.09)">
       <use xlink:href="#DejaVuSerif-30"/>
       <use xlink:href="#DejaVuSerif-2e" transform="translate(63.623047 0)"/>
       <use xlink:href="#DejaVuSerif-31" transform="translate(95.410156 0)"/>
       <use xlink:href="#DejaVuSerif-30" transform="translate(159.033203 0)"/>
      </g>
     </g>
    </g>
    <g id="ytick_10">
     <g id="line2d_24">
      <path d="M 442.355048 187.74004 
L 775.334615 187.74004 
" clip-path="url(#p337f47f0b9)" style="fill: none; stroke: #cccccc; stroke-opacity: 0.25; stroke-width: 0.8; stroke-linecap: round"/>
     </g>
     <g id="text_25">
      <!-- 0.15 -->
      <g style="fill: #262626" transform="translate(414.015986 191.159337) scale(0.09 -0.09)">
       <use xlink:href="#DejaVuSerif-30"/>
       <use xlink:href="#DejaVuSerif-2e" transform="translate(63.623047 0)"/>
       <use xlink:href="#DejaVuSerif-31" transform="translate(95.410156 0)"/>
       <use xlink:href="#DejaVuSerif-35" transform="translate(159.033203 0)"/>
      </g>
     </g>
    </g>
    <g id="ytick_11">
     <g id="line2d_25">
      <path d="M 442.355048 157.588863 
L 775.334615 157.588863 
" clip-path="url(#p337f47f0b9)" style="fill: none; stroke: #cccccc; stroke-opacity: 0.25; stroke-width: 0.8; stroke-linecap: round"/>
     </g>
     <g id="text_26">
      <!-- 0.20 -->
      <g style="fill: #262626" transform="translate(414.015986 161.00816) scale(0.09 -0.09)">
       <use xlink:href="#DejaVuSerif-30"/>
       <use xlink:href="#DejaVuSerif-2e" transform="translate(63.623047 0)"/>
       <use xlink:href="#DejaVuSerif-32" transform="translate(95.410156 0)"/>
       <use xlink:href="#DejaVuSerif-30" transform="translate(159.033203 0)"/>
      </g>
     </g>
    </g>
    <g id="ytick_12">
     <g id="line2d_26">
      <path d="M 442.355048 127.437686 
L 775.334615 127.437686 
" clip-path="url(#p337f47f0b9)" style="fill: none; stroke: #cccccc; stroke-opacity: 0.25; stroke-width: 0.8; stroke-linecap: round"/>
     </g>
     <g id="text_27">
      <!-- 0.25 -->
      <g style="fill: #262626" transform="translate(414.015986 130.856983) scale(0.09 -0.09)">
       <use xlink:href="#DejaVuSerif-30"/>
       <use xlink:href="#DejaVuSerif-2e" transform="translate(63.623047 0)"/>
       <use xlink:href="#DejaVuSerif-32" transform="translate(95.410156 0)"/>
       <use xlink:href="#DejaVuSerif-35" transform="translate(159.033203 0)"/>
      </g>
     </g>
    </g>
    <g id="ytick_13">
     <g id="line2d_27">
      <path d="M 442.355048 97.286509 
L 775.334615 97.286509 
" clip-path="url(#p337f47f0b9)" style="fill: none; stroke: #cccccc; stroke-opacity: 0.25; stroke-width: 0.8; stroke-linecap: round"/>
     </g>
     <g id="text_28">
      <!-- 0.30 -->
      <g style="fill: #262626" transform="translate(414.015986 100.705805) scale(0.09 -0.09)">
       <use xlink:href="#DejaVuSerif-30"/>
       <use xlink:href="#DejaVuSerif-2e" transform="translate(63.623047 0)"/>
       <use xlink:href="#DejaVuSerif-33" transform="translate(95.410156 0)"/>
       <use xlink:href="#DejaVuSerif-30" transform="translate(159.033203 0)"/>
      </g>
     </g>
    </g>
    <g id="ytick_14">
     <g id="line2d_28">
      <path d="M 442.355048 67.135331 
L 775.334615 67.135331 
" clip-path="url(#p337f47f0b9)" style="fill: none; stroke: #cccccc; stroke-opacity: 0.25; stroke-width: 0.8; stroke-linecap: round"/>
     </g>
     <g id="text_29">
      <!-- 0.35 -->
      <g style="fill: #262626" transform="translate(414.015986 70.554628) scale(0.09 -0.09)">
       <use xlink:href="#DejaVuSerif-30"/>
       <use xlink:href="#DejaVuSerif-2e" transform="translate(63.623047 0)"/>
       <use xlink:href="#DejaVuSerif-33" transform="translate(95.410156 0)"/>
       <use xlink:href="#DejaVuSerif-35" transform="translate(159.033203 0)"/>
      </g>
     </g>
    </g>
    <g id="text_30">
     <!-- Task failure rate -->
     <g style="fill: #262626" transform="translate(407.936298 214.064414) rotate(-90) scale(0.1 -0.1)">
      <defs>
       <path id="DejaVuSerif-54" d="M 1222 0 
L 1222 331 
L 1819 331 
L 1819 4294 
L 447 4294 
L 447 3566 
L 63 3566 
L 63 4666 
L 4206 4666 
L 4206 3566 
L 3822 3566 
L 3822 4294 
L 2450 4294 
L 2450 331 
L 3047 331 
L 3047 0 
L 1222 0 
z
" transform="scale(0.015625)"/>
       <path id="DejaVuSerif-6b" d="M 1831 0 
L 219 0 
L 219 331 
L 738 331 
L 738 4531 
L 184 4531 
L 184 4863 
L 1313 4863 
L 1313 1697 
L 2713 2988 
L 2234 2988 
L 2234 3322 
L 3738 3322 
L 3738 2988 
L 3169 2988 
L 2181 2075 
L 3444 331 
L 3922 331 
L 3922 0 
L 2284 0 
L 2284 331 
L 2759 331 
L 1766 1697 
L 1313 1275 
L 1313 331 
L 1831 331 
L 1831 0 
z
" transform="scale(0.015625)"/>
      </defs>
      <use xlink:href="#DejaVuSerif-54"/>
      <use xlink:href="#DejaVuSerif-61" transform="translate(58.949219 0)"/>
      <use xlink:href="#DejaVuSerif-73" transform="translate(118.568359 0)"/>
      <use xlink:href="#DejaVuSerif-6b" transform="translate(169.886719 0)"/>
      <use xlink:href="#DejaVuSerif-20" transform="translate(230.482422 0)"/>
      <use xlink:href="#DejaVuSerif-66" transform="translate(262.269531 0)"/>
      <use xlink:href="#DejaVuSerif-61" transform="translate(299.28125 0)"/>
      <use xlink:href="#DejaVuSerif-69" transform="translate(358.900391 0)"/>
      <use xlink:href="#DejaVuSerif-6c" transform="translate(390.882812 0)"/>
      <use xlink:href="#DejaVuSerif-75" transform="translate(422.865234 0)"/>
      <use xlink:href="#DejaVuSerif-72" transform="translate(487.269531 0)"/>
      <use xlink:href="#DejaVuSerif-65" transform="translate(535.072266 0)"/>
      <use xlink:href="#DejaVuSerif-20" transform="translate(594.251953 0)"/>
      <use xlink:href="#DejaVuSerif-72" transform="translate(626.039062 0)"/>
      <use xlink:href="#DejaVuSerif-61" transform="translate(673.841797 0)"/>
      <use xlink:href="#DejaVuSerif-74" transform="translate(733.460938 0)"/>
      <use xlink:href="#DejaVuSerif-65" transform="translate(773.646484 0)"/>
     </g>
    </g>
   </g>
   <g id="patch_18">
    <path d="M 457.490483 278.193572 
L 479.48214 278.193572 
L 479.48214 265.630582 
L 457.490483 265.630582 
z
" clip-path="url(#p337f47f0b9)" style="fill: #cc78bc; opacity: 0.85; stroke: #ffffff; stroke-width: 0.8; stroke-linejoin: miter"/>
   </g>
   <g id="patch_19">
    <path d="M 522.171828 278.193572 
L 544.163486 278.193572 
L 544.163486 244.273498 
L 522.171828 244.273498 
z
" clip-path="url(#p337f47f0b9)" style="fill: #cc78bc; opacity: 0.85; stroke: #ffffff; stroke-width: 0.8; stroke-linejoin: miter"/>
   </g>
   <g id="patch_20">
    <path d="M 586.853174 278.193572 
L 608.844831 278.193572 
L 608.844831 263.432059 
L 586.853174 263.432059 
z
" clip-path="url(#p337f47f0b9)" style="fill: #cc78bc; opacity: 0.85; stroke: #ffffff; stroke-width: 0.8; stroke-linejoin: miter"/>
   </g>
   <g id="patch_21">
    <path d="M 651.534519 278.193572 
L 673.526177 278.193572 
L 673.526177 259.192049 
L 651.534519 259.192049 
z
" clip-path="url(#p337f47f0b9)" style="fill: #cc78bc; opacity: 0.85; stroke: #ffffff; stroke-width: 0.8; stroke-linejoin: miter"/>
   </g>
   <g id="patch_22">
    <path d="M 716.215865 278.193572 
L 738.207522 278.193572 
L 738.207522 263.275021 
L 716.215865 263.275021 
z
" clip-path="url(#p337f47f0b9)" style="fill: #cc78bc; opacity: 0.85; stroke: #ffffff; stroke-width: 0.8; stroke-linejoin: miter"/>
   </g>
   <g id="patch_23">
    <path d="M 479.48214 278.193572 
L 501.473798 278.193572 
L 501.473798 192.960696 
L 479.48214 192.960696 
z
" clip-path="url(#p337f47f0b9)" style="fill: #ca9161; opacity: 0.85; stroke: #ffffff; stroke-width: 0.8; stroke-linejoin: miter"/>
   </g>
   <g id="patch_24">
    <path d="M 544.163486 278.193572 
L 566.155143 278.193572 
L 566.155143 154.237646 
L 544.163486 154.237646 
z
" clip-path="url(#p337f47f0b9)" style="fill: #ca9161; opacity: 0.85; stroke: #ffffff; stroke-width: 0.8; stroke-linejoin: miter"/>
   </g>
   <g id="patch_25">
    <path d="M 608.844831 278.193572 
L 630.836489 278.193572 
L 630.836489 129.108501 
L 608.844831 129.108501 
z
" clip-path="url(#p337f47f0b9)" style="fill: #ca9161; opacity: 0.85; stroke: #ffffff; stroke-width: 0.8; stroke-linejoin: miter"/>
   </g>
   <g id="patch_26">
    <path d="M 673.526177 278.193572 
L 695.517834 278.193572 
L 695.517834 138.271102 
L 673.526177 138.271102 
z
" clip-path="url(#p337f47f0b9)" style="fill: #ca9161; opacity: 0.85; stroke: #ffffff; stroke-width: 0.8; stroke-linejoin: miter"/>
   </g>
   <g id="patch_27">
    <path d="M 738.207522 278.193572 
L 760.19918 278.193572 
L 760.19918 162.624126 
L 738.207522 162.624126 
z
" clip-path="url(#p337f47f0b9)" style="fill: #ca9161; opacity: 0.85; stroke: #ffffff; stroke-width: 0.8; stroke-linejoin: miter"/>
   </g>
   <g id="LineCollection_3">
    <path d="M 468.486312 265.630582 
L 468.486312 265.630582 
" clip-path="url(#p337f47f0b9)" style="fill: none; stroke: #000000"/>
    <path d="M 533.167657 265.630582 
L 533.167657 201.55933 
" clip-path="url(#p337f47f0b9)" style="fill: none; stroke: #000000"/>
    <path d="M 597.849003 264.374283 
L 597.849003 262.489834 
" clip-path="url(#p337f47f0b9)" style="fill: none; stroke: #000000"/>
    <path d="M 662.530348 263.746133 
L 662.530348 250.869068 
" clip-path="url(#p337f47f0b9)" style="fill: none; stroke: #000000"/>
    <path d="M 727.211694 264.217245 
L 727.211694 262.175759 
" clip-path="url(#p337f47f0b9)" style="fill: none; stroke: #000000"/>
   </g>
   <g id="line2d_29">
    <g clip-path="url(#p337f47f0b9)">
     <use xlink:href="#me1167c41e9" x="468.486312" y="265.630582" style="stroke: #000000"/>
     <use xlink:href="#me1167c41e9" x="533.167657" y="265.630582" style="stroke: #000000"/>
     <use xlink:href="#me1167c41e9" x="597.849003" y="264.374283" style="stroke: #000000"/>
     <use xlink:href="#me1167c41e9" x="662.530348" y="263.746133" style="stroke: #000000"/>
     <use xlink:href="#me1167c41e9" x="727.211694" y="264.217245" style="stroke: #000000"/>
    </g>
   </g>
   <g id="line2d_30">
    <g clip-path="url(#p337f47f0b9)">
     <use xlink:href="#me1167c41e9" x="468.486312" y="265.630582" style="stroke: #000000"/>
     <use xlink:href="#me1167c41e9" x="533.167657" y="201.55933" style="stroke: #000000"/>
     <use xlink:href="#me1167c41e9" x="597.849003" y="262.489834" style="stroke: #000000"/>
     <use xlink:href="#me1167c41e9" x="662.530348" y="250.869068" style="stroke: #000000"/>
     <use xlink:href="#me1167c41e9" x="727.211694" y="262.175759" style="stroke: #000000"/>
    </g>
   </g>
   <g id="LineCollection_4">
    <path d="M 490.477969 201.355707 
L 490.477969 183.492396 
" clip-path="url(#p337f47f0b9)" style="fill: none; stroke: #000000"/>
    <path d="M 555.159315 172.44454 
L 555.159315 131.733483 
" clip-path="url(#p337f47f0b9)" style="fill: none; stroke: #000000"/>
    <path d="M 619.84066 166.890739 
L 619.84066 76.724342 
" clip-path="url(#p337f47f0b9)" style="fill: none; stroke: #000000"/>
    <path d="M 684.522006 170.81426 
L 684.522006 87.452021 
" clip-path="url(#p337f47f0b9)" style="fill: none; stroke: #000000"/>
    <path d="M 749.203351 172.635602 
L 749.203351 154.015175 
" clip-path="url(#p337f47f0b9)" style="fill: none; stroke: #000000"/>
   </g>
   <g id="line2d_31">
    <g clip-path="url(#p337f47f0b9)">
     <use xlink:href="#me1167c41e9" x="490.477969" y="201.355707" style="stroke: #000000"/>
     <use xlink:href="#me1167c41e9" x="555.159315" y="172.44454" style="stroke: #000000"/>
     <use xlink:href="#me1167c41e9" x="619.84066" y="166.890739" style="stroke: #000000"/>
     <use xlink:href="#me1167c41e9" x="684.522006" y="170.81426" style="stroke: #000000"/>
     <use xlink:href="#me1167c41e9" x="749.203351" y="172.635602" style="stroke: #000000"/>
    </g>
   </g>
   <g id="line2d_32">
    <g clip-path="url(#p337f47f0b9)">
     <use xlink:href="#me1167c41e9" x="490.477969" y="183.492396" style="stroke: #000000"/>
     <use xlink:href="#me1167c41e9" x="555.159315" y="131.733483" style="stroke: #000000"/>
     <use xlink:href="#me1167c41e9" x="619.84066" y="76.724342" style="stroke: #000000"/>
     <use xlink:href="#me1167c41e9" x="684.522006" y="87.452021" style="stroke: #000000"/>
     <use xlink:href="#me1167c41e9" x="749.203351" y="154.015175" style="stroke: #000000"/>
    </g>
   </g>
   <g id="patch_28">
    <path d="M 442.355048 278.193572 
L 442.355048 66.65088 
" style="fill: none; stroke: #cccccc; stroke-width: 0.8; stroke-linejoin: miter; stroke-linecap: square"/>
   </g>
   <g id="patch_29">
    <path d="M 442.355048 278.193572 
L 775.334615 278.193572 
" style="fill: none; stroke: #cccccc; stroke-width: 0.8; stroke-linejoin: miter; stroke-linecap: square"/>
   </g>
   <g id="text_31">
    <!-- B -->
    <g style="fill: #262626" transform="translate(402.3975 58.84559) scale(0.12 -0.12)">
     <defs>
      <path id="DejaVuSerif-Bold-42" d="M 300 0 
L 300 378 
L 897 378 
L 897 4288 
L 300 4288 
L 300 4666 
L 3066 4666 
Q 3919 4666 4347 4378 
Q 4775 4091 4775 3513 
Q 4775 3097 4479 2853 
Q 4184 2609 3603 2547 
Q 4306 2481 4681 2172 
Q 5056 1863 5056 1350 
Q 5056 656 4532 328 
Q 4009 0 2894 0 
L 300 0 
z
M 2100 2719 
L 2509 2719 
Q 3047 2719 3306 2914 
Q 3566 3109 3566 3513 
Q 3566 3919 3314 4103 
Q 3063 4288 2509 4288 
L 2100 4288 
L 2100 2719 
z
M 2100 378 
L 2547 378 
Q 3144 378 3431 615 
Q 3719 853 3719 1350 
Q 3719 1850 3428 2097 
Q 3138 2344 2547 2344 
L 2100 2344 
L 2100 378 
z
" transform="scale(0.015625)"/>
     </defs>
     <use xlink:href="#DejaVuSerif-Bold-42"/>
    </g>
   </g>
   <g id="text_32">
    <!-- Task failure rate -->
    <g style="fill: #262626" transform="translate(557.975847 60.65088) scale(0.11 -0.11)">
     <defs>
      <path id="DejaVuSerif-Bold-54" d="M 1159 0 
L 1159 378 
L 1778 378 
L 1778 4238 
L 500 4238 
L 500 3500 
L 72 3500 
L 72 4666 
L 4697 4666 
L 4697 3500 
L 4275 3500 
L 4275 4238 
L 2988 4238 
L 2988 378 
L 3609 378 
L 3609 0 
L 1159 0 
z
" transform="scale(0.015625)"/>
      <path id="DejaVuSerif-Bold-6b" d="M 2216 0 
L 219 0 
L 219 378 
L 691 378 
L 691 4488 
L 219 4488 
L 219 4863 
L 1797 4863 
L 1797 1741 
L 3138 2944 
L 2741 2944 
L 2741 3322 
L 4256 3322 
L 4256 2944 
L 3641 2944 
L 2784 2175 
L 4184 378 
L 4544 378 
L 4544 0 
L 2638 0 
L 2638 378 
L 3028 378 
L 2106 1563 
L 1797 1288 
L 1797 378 
L 2216 378 
L 2216 0 
z
" transform="scale(0.015625)"/>
      <path id="DejaVuSerif-Bold-66" d="M 3097 4031 
L 2747 4031 
Q 2722 4275 2605 4394 
Q 2488 4513 2272 4513 
Q 2022 4513 1909 4333 
Q 1797 4153 1797 3750 
L 1797 3322 
L 2631 3322 
L 2631 2944 
L 1797 2944 
L 1797 378 
L 2438 378 
L 2438 0 
L 219 0 
L 219 378 
L 691 378 
L 691 2944 
L 197 2944 
L 197 3322 
L 691 3322 
L 691 3738 
Q 691 4291 1044 4577 
Q 1397 4863 2081 4863 
Q 2347 4863 2600 4833 
Q 2853 4803 3097 4744 
L 3097 4031 
z
" transform="scale(0.015625)"/>
      <path id="DejaVuSerif-Bold-69" d="M 588 4263 
Q 588 4516 763 4689 
Q 938 4863 1191 4863 
Q 1438 4863 1611 4689 
Q 1784 4516 1784 4263 
Q 1784 4016 1611 3842 
Q 1438 3669 1191 3669 
Q 938 3669 763 3841 
Q 588 4013 588 4263 
z
M 1797 378 
L 2272 378 
L 2272 0 
L 219 0 
L 219 378 
L 691 378 
L 691 2944 
L 219 2944 
L 219 3322 
L 1797 3322 
L 1797 378 
z
" transform="scale(0.015625)"/>
      <path id="DejaVuSerif-Bold-75" d="M 3963 3322 
L 3963 378 
L 4434 378 
L 4434 0 
L 2853 0 
L 2853 469 
Q 2656 172 2400 40 
Q 2144 -91 1753 -91 
Q 1194 -91 908 239 
Q 622 569 622 1209 
L 622 2944 
L 147 2944 
L 147 3322 
L 1728 3322 
L 1728 1381 
Q 1728 763 1831 595 
Q 1934 428 2209 428 
Q 2544 428 2698 675 
Q 2853 922 2853 1459 
L 2853 2944 
L 2450 2944 
L 2450 3322 
L 3963 3322 
z
" transform="scale(0.015625)"/>
      <path id="DejaVuSerif-Bold-74" d="M 634 2944 
L 153 2944 
L 153 3322 
L 634 3322 
L 634 4353 
L 1741 4353 
L 1741 3322 
L 2663 3322 
L 2663 2944 
L 1741 2944 
L 1741 909 
Q 1741 475 1809 369 
Q 1878 263 2059 263 
Q 2259 263 2356 397 
Q 2453 531 2459 813 
L 2925 813 
Q 2897 313 2651 111 
Q 2406 -91 1806 -91 
Q 1122 -91 878 123 
Q 634 338 634 909 
L 634 2944 
z
" transform="scale(0.015625)"/>
     </defs>
     <use xlink:href="#DejaVuSerif-Bold-54"/>
     <use xlink:href="#DejaVuSerif-Bold-61" transform="translate(64.789062 0)"/>
     <use xlink:href="#DejaVuSerif-Bold-73" transform="translate(129.583984 0)"/>
     <use xlink:href="#DejaVuSerif-Bold-6b" transform="translate(185.882812 0)"/>
     <use xlink:href="#DejaVuSerif-Bold-20" transform="translate(255.169922 0)"/>
     <use xlink:href="#DejaVuSerif-Bold-66" transform="translate(289.984375 0)"/>
     <use xlink:href="#DejaVuSerif-Bold-61" transform="translate(333.001953 0)"/>
     <use xlink:href="#DejaVuSerif-Bold-69" transform="translate(397.796875 0)"/>
     <use xlink:href="#DejaVuSerif-Bold-6c" transform="translate(435.785156 0)"/>
     <use xlink:href="#DejaVuSerif-Bold-75" transform="translate(473.773438 0)"/>
     <use xlink:href="#DejaVuSerif-Bold-72" transform="translate(546.478516 0)"/>
     <use xlink:href="#DejaVuSerif-Bold-65" transform="translate(599.164062 0)"/>
     <use xlink:href="#DejaVuSerif-Bold-20" transform="translate(662.787109 0)"/>
     <use xlink:href="#DejaVuSerif-Bold-72" transform="translate(697.601562 0)"/>
     <use xlink:href="#DejaVuSerif-Bold-61" transform="translate(750.287109 0)"/>
     <use xlink:href="#DejaVuSerif-Bold-74" transform="translate(815.082031 0)"/>
     <use xlink:href="#DejaVuSerif-Bold-65" transform="translate(861.273438 0)"/>
    </g>
   </g>
  </g>
  <g id="text_33">
   <!-- Downstream Clean and Stressed Performance -->
   <g style="fill: #262626" transform="translate(244.859423 16.318125) scale(0.12 -0.12)">
    <defs>
     <path id="DejaVuSerif-Bold-44" d="M 2100 378 
L 2534 378 
Q 3266 378 3605 847 
Q 3944 1316 3944 2338 
Q 3944 3353 3606 3820 
Q 3269 4288 2534 4288 
L 2100 4288 
L 2100 378 
z
M 300 0 
L 300 378 
L 897 378 
L 897 4288 
L 300 4288 
L 300 4666 
L 2694 4666 
Q 3950 4666 4615 4066 
Q 5281 3466 5281 2338 
Q 5281 1203 4614 601 
Q 3947 0 2694 0 
L 300 0 
z
" transform="scale(0.015625)"/>
     <path id="DejaVuSerif-Bold-6d" d="M 3884 2778 
Q 4116 3109 4384 3261 
Q 4653 3413 5013 3413 
Q 5584 3413 5867 3089 
Q 6150 2766 6150 2113 
L 6150 378 
L 6625 378 
L 6625 0 
L 4647 0 
L 4647 378 
L 5044 378 
L 5044 1947 
Q 5044 2569 4948 2731 
Q 4853 2894 4594 2894 
Q 4300 2894 4137 2667 
Q 3975 2441 3975 2022 
L 3975 378 
L 4372 378 
L 4372 0 
L 2472 0 
L 2472 378 
L 2869 378 
L 2869 1947 
Q 2869 2569 2772 2731 
Q 2675 2894 2419 2894 
Q 2122 2894 1959 2667 
Q 1797 2441 1797 2022 
L 1797 378 
L 2194 378 
L 2194 0 
L 219 0 
L 219 378 
L 691 378 
L 691 2944 
L 219 2944 
L 219 3322 
L 1797 3322 
L 1797 2853 
Q 1991 3144 2241 3278 
Q 2491 3413 2834 3413 
Q 3241 3413 3494 3258 
Q 3747 3103 3884 2778 
z
" transform="scale(0.015625)"/>
     <path id="DejaVuSerif-Bold-43" d="M 4769 1331 
Q 4584 609 4106 259 
Q 3628 -91 2822 -91 
Q 1641 -91 955 561 
Q 269 1213 269 2328 
Q 269 3447 955 4098 
Q 1641 4750 2822 4750 
Q 3238 4750 3688 4650 
Q 4138 4550 4641 4347 
L 4641 3200 
L 4244 3200 
Q 4122 3788 3800 4080 
Q 3478 4372 2950 4372 
Q 2269 4372 1937 3870 
Q 1606 3369 1606 2328 
Q 1606 1288 1937 788 
Q 2269 288 2956 288 
Q 3422 288 3717 547 
Q 4013 806 4147 1331 
L 4769 1331 
z
" transform="scale(0.015625)"/>
     <path id="DejaVuSerif-Bold-53" d="M 494 225 
L 494 1331 
L 891 1331 
Q 981 806 1318 547 
Q 1656 288 2253 288 
Q 2738 288 2991 472 
Q 3244 656 3244 1013 
Q 3244 1294 3072 1450 
Q 2900 1606 2363 1741 
L 1663 1913 
Q 978 2088 700 2398 
Q 422 2709 422 3284 
Q 422 3978 883 4364 
Q 1344 4750 2175 4750 
Q 2584 4750 3026 4681 
Q 3469 4613 3944 4475 
L 3944 3444 
L 3547 3444 
Q 3456 3925 3150 4148 
Q 2844 4372 2278 4372 
Q 1816 4372 1580 4211 
Q 1344 4050 1344 3731 
Q 1344 3441 1506 3289 
Q 1669 3138 2303 2975 
L 3003 2803 
Q 3653 2641 3945 2297 
Q 4238 1953 4238 1350 
Q 4238 644 3750 276 
Q 3263 -91 2316 -91 
Q 1859 -91 1409 -12 
Q 959 66 494 225 
z
" transform="scale(0.015625)"/>
     <path id="DejaVuSerif-Bold-50" d="M 300 0 
L 300 378 
L 897 378 
L 897 4288 
L 300 4288 
L 300 4666 
L 2956 4666 
Q 3734 4666 4193 4295 
Q 4653 3925 4653 3303 
Q 4653 2678 4192 2304 
Q 3731 1931 2956 1931 
L 2100 1931 
L 2100 378 
L 2853 378 
L 2853 0 
L 300 0 
z
M 2100 2309 
L 2450 2309 
Q 2856 2309 3098 2579 
Q 3341 2850 3341 3303 
Q 3341 3753 3100 4020 
Q 2859 4288 2450 4288 
L 2100 4288 
L 2100 2309 
z
" transform="scale(0.015625)"/>
     <path id="DejaVuSerif-Bold-63" d="M 3609 1038 
Q 3491 469 3123 189 
Q 2756 -91 2125 -91 
Q 1238 -91 750 368 
Q 263 828 263 1663 
Q 263 2488 744 2950 
Q 1225 3413 2081 3413 
Q 2428 3413 2781 3347 
Q 3134 3281 3500 3150 
L 3500 2228 
L 3150 2228 
Q 3100 2650 2903 2854 
Q 2706 3059 2350 3059 
Q 1888 3059 1692 2746 
Q 1497 2434 1497 1663 
Q 1497 909 1687 586 
Q 1878 263 2309 263 
Q 2644 263 2845 463 
Q 3047 663 3091 1038 
L 3609 1038 
z
" transform="scale(0.015625)"/>
    </defs>
    <use xlink:href="#DejaVuSerif-Bold-44"/>
    <use xlink:href="#DejaVuSerif-Bold-6f" transform="translate(86.71875 0)"/>
    <use xlink:href="#DejaVuSerif-Bold-77" transform="translate(153.417969 0)"/>
    <use xlink:href="#DejaVuSerif-Bold-6e" transform="translate(239.501953 0)"/>
    <use xlink:href="#DejaVuSerif-Bold-73" transform="translate(312.207031 0)"/>
    <use xlink:href="#DejaVuSerif-Bold-74" transform="translate(368.505859 0)"/>
    <use xlink:href="#DejaVuSerif-Bold-72" transform="translate(414.697266 0)"/>
    <use xlink:href="#DejaVuSerif-Bold-65" transform="translate(467.382812 0)"/>
    <use xlink:href="#DejaVuSerif-Bold-61" transform="translate(531.005859 0)"/>
    <use xlink:href="#DejaVuSerif-Bold-6d" transform="translate(595.800781 0)"/>
    <use xlink:href="#DejaVuSerif-Bold-20" transform="translate(701.611328 0)"/>
    <use xlink:href="#DejaVuSerif-Bold-43" transform="translate(736.425781 0)"/>
    <use xlink:href="#DejaVuSerif-Bold-6c" transform="translate(816.015625 0)"/>
    <use xlink:href="#DejaVuSerif-Bold-65" transform="translate(854.003906 0)"/>
    <use xlink:href="#DejaVuSerif-Bold-61" transform="translate(917.626953 0)"/>
    <use xlink:href="#DejaVuSerif-Bold-6e" transform="translate(982.421875 0)"/>
    <use xlink:href="#DejaVuSerif-Bold-20" transform="translate(1055.126953 0)"/>
    <use xlink:href="#DejaVuSerif-Bold-61" transform="translate(1089.941406 0)"/>
    <use xlink:href="#DejaVuSerif-Bold-6e" transform="translate(1154.736328 0)"/>
    <use xlink:href="#DejaVuSerif-Bold-64" transform="translate(1227.441406 0)"/>
    <use xlink:href="#DejaVuSerif-Bold-20" transform="translate(1297.363281 0)"/>
    <use xlink:href="#DejaVuSerif-Bold-53" transform="translate(1332.177734 0)"/>
    <use xlink:href="#DejaVuSerif-Bold-74" transform="translate(1404.394531 0)"/>
    <use xlink:href="#DejaVuSerif-Bold-72" transform="translate(1450.585938 0)"/>
    <use xlink:href="#DejaVuSerif-Bold-65" transform="translate(1503.271484 0)"/>
    <use xlink:href="#DejaVuSerif-Bold-73" transform="translate(1566.894531 0)"/>
    <use xlink:href="#DejaVuSerif-Bold-73" transform="translate(1623.193359 0)"/>
    <use xlink:href="#DejaVuSerif-Bold-65" transform="translate(1679.492188 0)"/>
    <use xlink:href="#DejaVuSerif-Bold-64" transform="translate(1743.115234 0)"/>
    <use xlink:href="#DejaVuSerif-Bold-20" transform="translate(1813.037109 0)"/>
    <use xlink:href="#DejaVuSerif-Bold-50" transform="translate(1847.851562 0)"/>
    <use xlink:href="#DejaVuSerif-Bold-65" transform="translate(1920.421875 0)"/>
    <use xlink:href="#DejaVuSerif-Bold-72" transform="translate(1984.044922 0)"/>
    <use xlink:href="#DejaVuSerif-Bold-66" transform="translate(2036.730469 0)"/>
    <use xlink:href="#DejaVuSerif-Bold-6f" transform="translate(2079.748047 0)"/>
    <use xlink:href="#DejaVuSerif-Bold-72" transform="translate(2146.447266 0)"/>
    <use xlink:href="#DejaVuSerif-Bold-6d" transform="translate(2199.132812 0)"/>
    <use xlink:href="#DejaVuSerif-Bold-61" transform="translate(2304.943359 0)"/>
    <use xlink:href="#DejaVuSerif-Bold-6e" transform="translate(2369.738281 0)"/>
    <use xlink:href="#DejaVuSerif-Bold-63" transform="translate(2442.443359 0)"/>
    <use xlink:href="#DejaVuSerif-Bold-65" transform="translate(2503.332031 0)"/>
   </g>
  </g>
 </g>
 <defs>
  <clipPath id="p0f4abca4b4">
   <rect x="47.157548" y="66.65088" width="332.979567" height="211.542692"/>
  </clipPath>
  <clipPath id="p337f47f0b9">
   <rect x="442.355048" y="66.65088" width="332.979567" height="211.542692"/>
  </clipPath>
 </defs>
</svg>
