<?xml version="1.0" encoding="utf-8" standalone="no"?>
<!DOCTYPE svg PUBLIC "-//W3C//DTD SVG 1.1//EN"
  "http://www.w3.org/Graphics/SVG/1.1/DTD/svg11.dtd">
<svg xmlns:xlink="http://www.w3.org/1999/xlink" width="748.274062pt" height="517.596406pt" viewBox="0 0 748.274062 517.596406" xmlns="http://www.w3.org/2000/svg" version="1.1">
 <metadata>
  <rdf:RDF xmlns:dc="http://purl.org/dc/elements/1.1/" xmlns:cc="http://creativecommons.org/ns#" xmlns:rdf="http://www.w3.org/1999/02/22-rdf-syntax-ns#">
   <cc:Work>
    <dc:type rdf:resource="http://purl.org/dc/dcmitype/StillImage"/>
    <dc:date>2026-04-26T15:38:02.475612</dc:date>
    <dc:format>image/svg+xml</dc:format>
    <dc:creator>
     <cc:Agent>
      <dc:title>Matplotlib v3.10.9, https://matplotlib.org/</dc:title>
     </cc:Agent>
    </dc:creator>
   </cc:Work>
  </rdf:RDF>
 </metadata>
 <defs>
  <style type="text/css">*{stroke-linejoin: round; stroke-linecap: butt}</style>
 </defs>
 <g id="figure_1">
  <g id="patch_1">
   <path d="M 0 517.596406 
L 748.274062 517.596406 
L 748.274062 0 
L 0 0 
z
" style="fill: #ffffff"/>
  </g>
  <g id="axes_1">
   <g id="patch_2">
    <path d="M 46.499063 252.73 
L 372.407472 252.73 
L 372.407472 65.28 
L 46.499063 65.28 
z
" style="fill: #ffffff"/>
   </g>
   <g id="matplotlib.axis_1">
    <g id="xtick_1">
     <g id="line2d_1">
      <path d="M 61.313081 252.73 
L 61.313081 65.28 
" clip-path="url(#p03eb5c9fc2)" style="fill: none; stroke: #cccccc; stroke-opacity: 0.25; stroke-width: 0.8; stroke-linecap: round"/>
     </g>
    </g>
    <g id="xtick_2">
     <g id="line2d_2">
      <path d="M 209.453267 252.73 
L 209.453267 65.28 
" clip-path="url(#p03eb5c9fc2)" style="fill: none; stroke: #cccccc; stroke-opacity: 0.25; stroke-width: 0.8; stroke-linecap: round"/>
     </g>
    </g>
    <g id="xtick_3">
     <g id="line2d_3">
      <path d="M 357.593453 252.73 
L 357.593453 65.28 
" clip-path="url(#p03eb5c9fc2)" style="fill: none; stroke: #cccccc; stroke-opacity: 0.25; stroke-width: 0.8; stroke-linecap: round"/>
     </g>
    </g>
    <g id="text_1">
     <!-- Stress severity -->
     <g style="fill: #262626" transform="translate(171.816548 264.18625) scale(0.1 -0.1)">
      <defs>
       <path id="DejaVuSerif-53" d="M 594 225 
L 594 1288 
L 953 1284 
Q 969 753 1261 498 
Q 1553 244 2150 244 
Q 2706 244 2998 464 
Q 3291 684 3291 1106 
Q 3291 1444 3114 1625 
Q 2938 1806 2369 1978 
L 1753 2163 
Q 1084 2366 811 2669 
Q 538 2972 538 3500 
Q 538 4094 959 4422 
Q 1381 4750 2144 4750 
Q 2469 4750 2856 4679 
Q 3244 4609 3681 4475 
L 3681 3481 
L 3328 3481 
Q 3275 3975 2998 4195 
Q 2722 4416 2156 4416 
Q 1663 4416 1405 4214 
Q 1147 4013 1147 3628 
Q 1147 3294 1340 3103 
Q 1534 2913 2163 2725 
L 2741 2553 
Q 3375 2363 3645 2067 
Q 3916 1772 3916 1275 
Q 3916 597 3481 253 
Q 3047 -91 2188 -91 
Q 1803 -91 1404 -12 
Q 1006 66 594 225 
z
" transform="scale(0.015625)"/>
       <path id="DejaVuSerif-74" d="M 691 2988 
L 184 2988 
L 184 3322 
L 691 3322 
L 691 4353 
L 1269 4353 
L 1269 3322 
L 2350 3322 
L 2350 2988 
L 1269 2988 
L 1269 878 
Q 1269 456 1350 337 
Q 1431 219 1650 219 
Q 1875 219 1978 351 
Q 2081 484 2088 781 
L 2522 781 
Q 2497 328 2275 118 
Q 2053 -91 1600 -91 
Q 1103 -91 897 129 
Q 691 350 691 878 
L 691 2988 
z
" transform="scale(0.015625)"/>
       <path id="DejaVuSerif-72" d="M 3059 3328 
L 3059 2497 
L 2728 2497 
Q 2713 2744 2591 2866 
Q 2469 2988 2234 2988 
Q 1809 2988 1582 2694 
Q 1356 2400 1356 1850 
L 1356 331 
L 2022 331 
L 2022 0 
L 263 0 
L 263 331 
L 781 331 
L 781 2994 
L 231 2994 
L 231 3322 
L 1356 3322 
L 1356 2731 
Q 1525 3078 1790 3245 
Q 2056 3413 2438 3413 
Q 2578 3413 2733 3391 
Q 2888 3369 3059 3328 
z
" transform="scale(0.015625)"/>
       <path id="DejaVuSerif-65" d="M 3469 1600 
L 991 1600 
L 991 1575 
Q 991 903 1244 561 
Q 1497 219 1991 219 
Q 2369 219 2611 417 
Q 2853 616 2950 1006 
L 3413 1006 
Q 3275 459 2904 184 
Q 2534 -91 1931 -91 
Q 1203 -91 761 389 
Q 319 869 319 1663 
Q 319 2450 753 2931 
Q 1188 3413 1894 3413 
Q 2647 3413 3050 2948 
Q 3453 2484 3469 1600 
z
M 2791 1931 
Q 2772 2513 2545 2808 
Q 2319 3103 1894 3103 
Q 1497 3103 1269 2806 
Q 1041 2509 991 1931 
L 2791 1931 
z
" transform="scale(0.015625)"/>
       <path id="DejaVuSerif-73" d="M 359 184 
L 359 959 
L 691 959 
Q 703 588 923 403 
Q 1144 219 1575 219 
Q 1963 219 2166 364 
Q 2369 509 2369 788 
Q 2369 1006 2220 1140 
Q 2072 1275 1594 1428 
L 1178 1569 
Q 750 1706 558 1912 
Q 366 2119 366 2438 
Q 366 2894 700 3153 
Q 1034 3413 1625 3413 
Q 1888 3413 2178 3344 
Q 2469 3275 2778 3144 
L 2778 2419 
L 2447 2419 
Q 2434 2741 2221 2922 
Q 2009 3103 1644 3103 
Q 1281 3103 1095 2975 
Q 909 2847 909 2591 
Q 909 2381 1050 2254 
Q 1191 2128 1613 1997 
L 2069 1856 
Q 2541 1709 2748 1489 
Q 2956 1269 2956 922 
Q 2956 450 2595 179 
Q 2234 -91 1600 -91 
Q 1278 -91 972 -22 
Q 666 47 359 184 
z
" transform="scale(0.015625)"/>
       <path id="DejaVuSerif-20" transform="scale(0.015625)"/>
       <path id="DejaVuSerif-76" d="M 1581 0 
L 359 2988 
L -19 2988 
L -19 3322 
L 1509 3322 
L 1509 2988 
L 978 2988 
L 1913 703 
L 2847 2988 
L 2350 2988 
L 2350 3322 
L 3597 3322 
L 3597 2988 
L 3225 2988 
L 2003 0 
L 1581 0 
z
" transform="scale(0.015625)"/>
       <path id="DejaVuSerif-69" d="M 622 4353 
Q 622 4497 726 4603 
Q 831 4709 978 4709 
Q 1122 4709 1226 4603 
Q 1331 4497 1331 4353 
Q 1331 4206 1228 4103 
Q 1125 4000 978 4000 
Q 831 4000 726 4103 
Q 622 4206 622 4353 
z
M 1356 331 
L 1900 331 
L 1900 0 
L 231 0 
L 231 331 
L 781 331 
L 781 2988 
L 231 2988 
L 231 3322 
L 1356 3322 
L 1356 331 
z
" transform="scale(0.015625)"/>
       <path id="DejaVuSerif-79" d="M 1381 -609 
L 1600 -56 
L 359 2988 
L -19 2988 
L -19 3322 
L 1509 3322 
L 1509 2988 
L 978 2988 
L 1913 703 
L 2847 2988 
L 2350 2988 
L 2350 3322 
L 3597 3322 
L 3597 2988 
L 3225 2988 
L 1703 -750 
Q 1547 -1138 1356 -1280 
Q 1166 -1422 819 -1422 
Q 672 -1422 517 -1397 
Q 363 -1372 206 -1325 
L 206 -691 
L 500 -691 
Q 519 -903 608 -995 
Q 697 -1088 884 -1088 
Q 1056 -1088 1161 -992 
Q 1266 -897 1381 -609 
z
" transform="scale(0.015625)"/>
      </defs>
      <use xlink:href="#DejaVuSerif-53"/>
      <use xlink:href="#DejaVuSerif-74" transform="translate(68.505859 0)"/>
      <use xlink:href="#DejaVuSerif-72" transform="translate(108.691406 0)"/>
      <use xlink:href="#DejaVuSerif-65" transform="translate(156.494141 0)"/>
      <use xlink:href="#DejaVuSerif-73" transform="translate(215.673828 0)"/>
      <use xlink:href="#DejaVuSerif-73" transform="translate(266.992188 0)"/>
      <use xlink:href="#DejaVuSerif-20" transform="translate(318.310547 0)"/>
      <use xlink:href="#DejaVuSerif-73" transform="translate(350.097656 0)"/>
      <use xlink:href="#DejaVuSerif-65" transform="translate(401.416016 0)"/>
      <use xlink:href="#DejaVuSerif-76" transform="translate(460.595703 0)"/>
      <use xlink:href="#DejaVuSerif-65" transform="translate(517.089844 0)"/>
      <use xlink:href="#DejaVuSerif-72" transform="translate(576.269531 0)"/>
      <use xlink:href="#DejaVuSerif-69" transform="translate(624.072266 0)"/>
      <use xlink:href="#DejaVuSerif-74" transform="translate(656.054688 0)"/>
      <use xlink:href="#DejaVuSerif-79" transform="translate(696.240234 0)"/>
     </g>
    </g>
   </g>
   <g id="matplotlib.axis_2">
    <g id="ytick_1">
     <g id="line2d_4">
      <path d="M 46.499063 226.958506 
L 372.407472 226.958506 
" clip-path="url(#p03eb5c9fc2)" style="fill: none; stroke: #cccccc; stroke-opacity: 0.25; stroke-width: 0.8; stroke-linecap: round"/>
     </g>
     <g id="text_2">
      <!-- 0 -->
      <g style="fill: #262626" transform="translate(32.472813 230.377803) scale(0.09 -0.09)">
       <defs>
        <path id="DejaVuSerif-30" d="M 2034 219 
Q 2513 219 2750 744 
Q 2988 1269 2988 2328 
Q 2988 3391 2750 3916 
Q 2513 4441 2034 4441 
Q 1556 4441 1318 3916 
Q 1081 3391 1081 2328 
Q 1081 1269 1318 744 
Q 1556 219 2034 219 
z
M 2034 -91 
Q 1275 -91 848 546 
Q 422 1184 422 2328 
Q 422 3475 848 4112 
Q 1275 4750 2034 4750 
Q 2797 4750 3222 4112 
Q 3647 3475 3647 2328 
Q 3647 1184 3222 546 
Q 2797 -91 2034 -91 
z
" transform="scale(0.015625)"/>
       </defs>
       <use xlink:href="#DejaVuSerif-30"/>
      </g>
     </g>
    </g>
    <g id="ytick_2">
     <g id="line2d_5">
      <path d="M 46.499063 189.790201 
L 372.407472 189.790201 
" clip-path="url(#p03eb5c9fc2)" style="fill: none; stroke: #cccccc; stroke-opacity: 0.25; stroke-width: 0.8; stroke-linecap: round"/>
     </g>
     <g id="text_3">
      <!-- 100 -->
      <g style="fill: #262626" transform="translate(21.020313 193.209498) scale(0.09 -0.09)">
       <defs>
        <path id="DejaVuSerif-31" d="M 909 0 
L 909 331 
L 1722 331 
L 1722 4213 
L 781 3603 
L 781 4013 
L 1919 4750 
L 2350 4750 
L 2350 331 
L 3163 331 
L 3163 0 
L 909 0 
z
" transform="scale(0.015625)"/>
       </defs>
       <use xlink:href="#DejaVuSerif-31"/>
       <use xlink:href="#DejaVuSerif-30" transform="translate(63.623047 0)"/>
       <use xlink:href="#DejaVuSerif-30" transform="translate(127.246094 0)"/>
      </g>
     </g>
    </g>
    <g id="ytick_3">
     <g id="line2d_6">
      <path d="M 46.499063 152.621896 
L 372.407472 152.621896 
" clip-path="url(#p03eb5c9fc2)" style="fill: none; stroke: #cccccc; stroke-opacity: 0.25; stroke-width: 0.8; stroke-linecap: round"/>
     </g>
     <g id="text_4">
      <!-- 200 -->
      <g style="fill: #262626" transform="translate(21.020313 156.041193) scale(0.09 -0.09)">
       <defs>
        <path id="DejaVuSerif-32" d="M 819 3553 
L 469 3553 
L 469 4384 
Q 803 4563 1142 4656 
Q 1481 4750 1806 4750 
Q 2534 4750 2956 4397 
Q 3378 4044 3378 3438 
Q 3378 2753 2422 1800 
Q 2347 1728 2309 1691 
L 1131 513 
L 3078 513 
L 3078 1088 
L 3444 1088 
L 3444 0 
L 434 0 
L 434 341 
L 1850 1753 
Q 2319 2222 2519 2614 
Q 2719 3006 2719 3438 
Q 2719 3909 2473 4175 
Q 2228 4441 1797 4441 
Q 1350 4441 1106 4219 
Q 863 3997 819 3553 
z
" transform="scale(0.015625)"/>
       </defs>
       <use xlink:href="#DejaVuSerif-32"/>
       <use xlink:href="#DejaVuSerif-30" transform="translate(63.623047 0)"/>
       <use xlink:href="#DejaVuSerif-30" transform="translate(127.246094 0)"/>
      </g>
     </g>
    </g>
    <g id="ytick_4">
     <g id="line2d_7">
      <path d="M 46.499063 115.453591 
L 372.407472 115.453591 
" clip-path="url(#p03eb5c9fc2)" style="fill: none; stroke: #cccccc; stroke-opacity: 0.25; stroke-width: 0.8; stroke-linecap: round"/>
     </g>
     <g id="text_5">
      <!-- 300 -->
      <g style="fill: #262626" transform="translate(21.020313 118.872887) scale(0.09 -0.09)">
       <defs>
        <path id="DejaVuSerif-33" d="M 622 4469 
Q 988 4606 1323 4678 
Q 1659 4750 1953 4750 
Q 2638 4750 3022 4454 
Q 3406 4159 3406 3634 
Q 3406 3213 3140 2930 
Q 2875 2647 2388 2547 
Q 2963 2466 3280 2130 
Q 3597 1794 3597 1259 
Q 3597 606 3158 257 
Q 2719 -91 1894 -91 
Q 1528 -91 1179 -12 
Q 831 66 488 225 
L 488 1131 
L 838 1131 
Q 869 681 1141 450 
Q 1413 219 1906 219 
Q 2384 219 2661 495 
Q 2938 772 2938 1253 
Q 2938 1803 2653 2086 
Q 2369 2369 1819 2369 
L 1522 2369 
L 1522 2688 
L 1678 2688 
Q 2225 2688 2498 2914 
Q 2772 3141 2772 3597 
Q 2772 4006 2547 4223 
Q 2322 4441 1900 4441 
Q 1478 4441 1245 4241 
Q 1013 4041 972 3647 
L 622 3647 
L 622 4469 
z
" transform="scale(0.015625)"/>
       </defs>
       <use xlink:href="#DejaVuSerif-33"/>
       <use xlink:href="#DejaVuSerif-30" transform="translate(63.623047 0)"/>
       <use xlink:href="#DejaVuSerif-30" transform="translate(127.246094 0)"/>
      </g>
     </g>
    </g>
    <g id="ytick_5">
     <g id="line2d_8">
      <path d="M 46.499063 78.285285 
L 372.407472 78.285285 
" clip-path="url(#p03eb5c9fc2)" style="fill: none; stroke: #cccccc; stroke-opacity: 0.25; stroke-width: 0.8; stroke-linecap: round"/>
     </g>
     <g id="text_6">
      <!-- 400 -->
      <g style="fill: #262626" transform="translate(21.020313 81.704582) scale(0.09 -0.09)">
       <defs>
        <path id="DejaVuSerif-34" d="M 2234 1581 
L 2234 4063 
L 641 1581 
L 2234 1581 
z
M 3609 0 
L 1484 0 
L 1484 331 
L 2234 331 
L 2234 1247 
L 197 1247 
L 197 1588 
L 2241 4750 
L 2859 4750 
L 2859 1581 
L 3750 1581 
L 3750 1247 
L 2859 1247 
L 2859 331 
L 3609 331 
L 3609 0 
z
" transform="scale(0.015625)"/>
       </defs>
       <use xlink:href="#DejaVuSerif-34"/>
       <use xlink:href="#DejaVuSerif-30" transform="translate(63.623047 0)"/>
       <use xlink:href="#DejaVuSerif-30" transform="translate(127.246094 0)"/>
      </g>
     </g>
    </g>
    <g id="text_7">
     <!-- Degradation vs clean (%) -->
     <g style="fill: #262626" transform="translate(14.798438 222.93625) rotate(-90) scale(0.1 -0.1)">
      <defs>
       <path id="DejaVuSerif-44" d="M 1581 331 
L 2163 331 
Q 3072 331 3558 850 
Q 4044 1369 4044 2338 
Q 4044 3306 3559 3818 
Q 3075 4331 2163 4331 
L 1581 4331 
L 1581 331 
z
M 353 0 
L 353 331 
L 947 331 
L 947 4331 
L 353 4331 
L 353 4666 
L 2209 4666 
Q 3416 4666 4089 4050 
Q 4763 3434 4763 2338 
Q 4763 1238 4088 619 
Q 3413 0 2209 0 
L 353 0 
z
" transform="scale(0.015625)"/>
       <path id="DejaVuSerif-67" d="M 3359 2988 
L 3359 72 
Q 3359 -644 2965 -1033 
Q 2572 -1422 1844 -1422 
Q 1516 -1422 1216 -1362 
Q 916 -1303 641 -1184 
L 641 -488 
L 941 -488 
Q 997 -813 1206 -963 
Q 1416 -1113 1806 -1113 
Q 2313 -1113 2548 -827 
Q 2784 -541 2784 72 
L 2784 519 
Q 2616 206 2355 57 
Q 2094 -91 1709 -91 
Q 1097 -91 708 395 
Q 319 881 319 1663 
Q 319 2444 706 2928 
Q 1094 3413 1709 3413 
Q 2094 3413 2355 3264 
Q 2616 3116 2784 2803 
L 2784 3322 
L 3909 3322 
L 3909 2988 
L 3359 2988 
z
M 2784 1825 
Q 2784 2422 2554 2737 
Q 2325 3053 1888 3053 
Q 1444 3053 1217 2703 
Q 991 2353 991 1663 
Q 991 975 1217 622 
Q 1444 269 1888 269 
Q 2325 269 2554 583 
Q 2784 897 2784 1497 
L 2784 1825 
z
" transform="scale(0.015625)"/>
       <path id="DejaVuSerif-61" d="M 2547 1044 
L 2547 1747 
L 1806 1747 
Q 1378 1747 1168 1562 
Q 959 1378 959 997 
Q 959 650 1171 447 
Q 1384 244 1747 244 
Q 2106 244 2326 466 
Q 2547 688 2547 1044 
z
M 3122 2075 
L 3122 331 
L 3634 331 
L 3634 0 
L 2547 0 
L 2547 359 
Q 2356 128 2106 18 
Q 1856 -91 1522 -91 
Q 969 -91 644 203 
Q 319 497 319 997 
Q 319 1513 691 1797 
Q 1063 2081 1741 2081 
L 2547 2081 
L 2547 2309 
Q 2547 2688 2317 2895 
Q 2088 3103 1672 3103 
Q 1328 3103 1125 2947 
Q 922 2791 872 2484 
L 575 2484 
L 575 3156 
Q 875 3284 1158 3348 
Q 1441 3413 1709 3413 
Q 2400 3413 2761 3070 
Q 3122 2728 3122 2075 
z
" transform="scale(0.015625)"/>
       <path id="DejaVuSerif-64" d="M 3359 331 
L 3909 331 
L 3909 0 
L 2784 0 
L 2784 519 
Q 2616 206 2355 57 
Q 2094 -91 1709 -91 
Q 1097 -91 708 395 
Q 319 881 319 1663 
Q 319 2444 706 2928 
Q 1094 3413 1709 3413 
Q 2094 3413 2355 3264 
Q 2616 3116 2784 2803 
L 2784 4531 
L 2241 4531 
L 2241 4863 
L 3359 4863 
L 3359 331 
z
M 2784 1497 
L 2784 1825 
Q 2784 2422 2554 2737 
Q 2325 3053 1888 3053 
Q 1444 3053 1217 2703 
Q 991 2353 991 1663 
Q 991 975 1217 622 
Q 1444 269 1888 269 
Q 2325 269 2554 583 
Q 2784 897 2784 1497 
z
" transform="scale(0.015625)"/>
       <path id="DejaVuSerif-6f" d="M 1925 219 
Q 2388 219 2623 584 
Q 2859 950 2859 1663 
Q 2859 2375 2623 2739 
Q 2388 3103 1925 3103 
Q 1463 3103 1227 2739 
Q 991 2375 991 1663 
Q 991 950 1228 584 
Q 1466 219 1925 219 
z
M 1925 -91 
Q 1200 -91 759 389 
Q 319 869 319 1663 
Q 319 2456 758 2934 
Q 1197 3413 1925 3413 
Q 2653 3413 3092 2934 
Q 3531 2456 3531 1663 
Q 3531 869 3092 389 
Q 2653 -91 1925 -91 
z
" transform="scale(0.015625)"/>
       <path id="DejaVuSerif-6e" d="M 263 0 
L 263 331 
L 781 331 
L 781 2988 
L 231 2988 
L 231 3322 
L 1356 3322 
L 1356 2731 
Q 1516 3069 1770 3241 
Q 2025 3413 2363 3413 
Q 2913 3413 3172 3097 
Q 3431 2781 3431 2113 
L 3431 331 
L 3944 331 
L 3944 0 
L 2356 0 
L 2356 331 
L 2853 331 
L 2853 1931 
Q 2853 2541 2703 2767 
Q 2553 2994 2175 2994 
Q 1775 2994 1565 2701 
Q 1356 2409 1356 1850 
L 1356 331 
L 1856 331 
L 1856 0 
L 263 0 
z
" transform="scale(0.015625)"/>
       <path id="DejaVuSerif-63" d="M 3291 997 
Q 3169 466 2822 187 
Q 2475 -91 1925 -91 
Q 1200 -91 759 389 
Q 319 869 319 1663 
Q 319 2459 759 2936 
Q 1200 3413 1925 3413 
Q 2241 3413 2553 3339 
Q 2866 3266 3181 3116 
L 3181 2266 
L 2847 2266 
Q 2781 2703 2561 2903 
Q 2341 3103 1931 3103 
Q 1466 3103 1228 2742 
Q 991 2381 991 1663 
Q 991 944 1227 581 
Q 1463 219 1931 219 
Q 2303 219 2525 412 
Q 2747 606 2828 997 
L 3291 997 
z
" transform="scale(0.015625)"/>
       <path id="DejaVuSerif-6c" d="M 1313 331 
L 1856 331 
L 1856 0 
L 184 0 
L 184 331 
L 738 331 
L 738 4531 
L 184 4531 
L 184 4863 
L 1313 4863 
L 1313 331 
z
" transform="scale(0.015625)"/>
       <path id="DejaVuSerif-28" d="M 2041 -997 
Q 1281 -656 893 83 
Q 506 822 506 1931 
Q 506 3044 893 3783 
Q 1281 4522 2041 4863 
L 2041 4556 
Q 1559 4225 1350 3623 
Q 1141 3022 1141 1931 
Q 1141 844 1350 242 
Q 1559 -359 2041 -691 
L 2041 -997 
z
" transform="scale(0.015625)"/>
       <path id="DejaVuSerif-25" d="M 1434 4459 
Q 1159 4459 1004 4200 
Q 850 3941 850 3475 
Q 850 3016 1008 2753 
Q 1166 2491 1434 2491 
Q 1700 2491 1854 2752 
Q 2009 3013 2009 3475 
Q 2009 3938 1854 4198 
Q 1700 4459 1434 4459 
z
M 4653 2169 
Q 4381 2169 4226 1906 
Q 4072 1644 4072 1178 
Q 4072 719 4228 458 
Q 4384 197 4653 197 
Q 4922 197 5075 458 
Q 5228 719 5228 1178 
Q 5228 1641 5073 1905 
Q 4919 2169 4653 2169 
z
M 4653 2450 
Q 5147 2450 5437 2106 
Q 5728 1763 5728 1178 
Q 5728 594 5436 251 
Q 5144 -91 4653 -91 
Q 4153 -91 3862 251 
Q 3572 594 3572 1178 
Q 3572 1766 3864 2108 
Q 4156 2450 4653 2450 
z
M 4263 4750 
L 4738 4750 
L 1819 -91 
L 1344 -91 
L 4263 4750 
z
M 1428 4750 
Q 1922 4750 2215 4408 
Q 2509 4066 2509 3481 
Q 2509 2891 2217 2550 
Q 1925 2209 1428 2209 
Q 931 2209 642 2551 
Q 353 2894 353 3481 
Q 353 4063 643 4406 
Q 934 4750 1428 4750 
z
" transform="scale(0.015625)"/>
       <path id="DejaVuSerif-29" d="M 453 -997 
L 453 -691 
Q 934 -359 1145 242 
Q 1356 844 1356 1931 
Q 1356 3022 1145 3623 
Q 934 4225 453 4556 
L 453 4863 
Q 1216 4522 1603 3783 
Q 1991 3044 1991 1931 
Q 1991 822 1603 83 
Q 1216 -656 453 -997 
z
" transform="scale(0.015625)"/>
      </defs>
      <use xlink:href="#DejaVuSerif-44"/>
      <use xlink:href="#DejaVuSerif-65" transform="translate(80.175781 0)"/>
      <use xlink:href="#DejaVuSerif-67" transform="translate(139.355469 0)"/>
      <use xlink:href="#DejaVuSerif-72" transform="translate(203.369141 0)"/>
      <use xlink:href="#DejaVuSerif-61" transform="translate(251.171875 0)"/>
      <use xlink:href="#DejaVuSerif-64" transform="translate(310.791016 0)"/>
      <use xlink:href="#DejaVuSerif-61" transform="translate(374.804688 0)"/>
      <use xlink:href="#DejaVuSerif-74" transform="translate(434.423828 0)"/>
      <use xlink:href="#DejaVuSerif-69" transform="translate(474.609375 0)"/>
      <use xlink:href="#DejaVuSerif-6f" transform="translate(506.591797 0)"/>
      <use xlink:href="#DejaVuSerif-6e" transform="translate(566.796875 0)"/>
      <use xlink:href="#DejaVuSerif-20" transform="translate(631.201172 0)"/>
      <use xlink:href="#DejaVuSerif-76" transform="translate(662.988281 0)"/>
      <use xlink:href="#DejaVuSerif-73" transform="translate(719.482422 0)"/>
      <use xlink:href="#DejaVuSerif-20" transform="translate(770.800781 0)"/>
      <use xlink:href="#DejaVuSerif-63" transform="translate(802.587891 0)"/>
      <use xlink:href="#DejaVuSerif-6c" transform="translate(858.59375 0)"/>
      <use xlink:href="#DejaVuSerif-65" transform="translate(890.576172 0)"/>
      <use xlink:href="#DejaVuSerif-61" transform="translate(949.755859 0)"/>
      <use xlink:href="#DejaVuSerif-6e" transform="translate(1009.375 0)"/>
      <use xlink:href="#DejaVuSerif-20" transform="translate(1073.779297 0)"/>
      <use xlink:href="#DejaVuSerif-28" transform="translate(1105.566406 0)"/>
      <use xlink:href="#DejaVuSerif-25" transform="translate(1144.580078 0)"/>
      <use xlink:href="#DejaVuSerif-29" transform="translate(1239.599609 0)"/>
     </g>
    </g>
   </g>
   <g id="FillBetweenPolyCollection_1">
    <defs>
     <path id="mf853c941f8" d="M 61.313081 -301.950927 
L 61.313081 -292.629252 
L 209.453267 -294.868744 
L 357.593453 -299.047549 
L 357.593453 -313.232477 
L 357.593453 -313.232477 
L 209.453267 -303.901787 
L 61.313081 -301.950927 
z
" style="stroke: #d55e00; stroke-opacity: 0.16; stroke-width: 0.8"/>
    </defs>
    <g clip-path="url(#p03eb5c9fc2)">
     <use xlink:href="#mf853c941f8" x="0" y="517.596406" style="fill: #d55e00; fill-opacity: 0.16; stroke: #d55e00; stroke-opacity: 0.16; stroke-width: 0.8"/>
    </g>
   </g>
   <g id="FillBetweenPolyCollection_2">
    <defs>
     <path id="m4570fc54f7" d="M 61.313081 -304.375055 
L 61.313081 -303.36927 
L 209.453267 -306.465436 
L 357.593453 -314.543199 
L 357.593453 -315.92655 
L 357.593453 -315.92655 
L 209.453267 -307.751294 
L 61.313081 -304.375055 
z
" style="stroke: #0173b2; stroke-opacity: 0.16; stroke-width: 0.8"/>
    </defs>
    <g clip-path="url(#p03eb5c9fc2)">
     <use xlink:href="#m4570fc54f7" x="0" y="517.596406" style="fill: #0173b2; fill-opacity: 0.16; stroke: #0173b2; stroke-opacity: 0.16; stroke-width: 0.8"/>
    </g>
   </g>
   <g id="FillBetweenPolyCollection_3">
    <defs>
     <path id="mf803e189f1" d="M 61.313081 -316.018508 
L 61.313081 -309.145858 
L 209.453267 -310.981668 
L 357.593453 -319.545441 
L 357.593453 -325.998488 
L 357.593453 -325.998488 
L 209.453267 -316.442393 
L 61.313081 -316.018508 
z
" style="stroke: #029e73; stroke-opacity: 0.16; stroke-width: 0.8"/>
    </defs>
    <g clip-path="url(#p03eb5c9fc2)">
     <use xlink:href="#mf803e189f1" x="0" y="517.596406" style="fill: #029e73; fill-opacity: 0.16; stroke: #029e73; stroke-opacity: 0.16; stroke-width: 0.8"/>
    </g>
   </g>
   <g id="line2d_9">
    <path d="M 61.313081 220.478116 
L 209.453267 218.605876 
L 357.593453 211.595797 
" clip-path="url(#p03eb5c9fc2)" style="fill: none; stroke: #d55e00; stroke-width: 2.2; stroke-linecap: round"/>
    <defs>
     <path id="m04af7e1b5e" d="M 0 3 
C 0.795609 3 1.55874 2.683901 2.12132 2.12132 
C 2.683901 1.55874 3 0.795609 3 0 
C 3 -0.795609 2.683901 -1.55874 2.12132 -2.12132 
C 1.55874 -2.683901 0.795609 -3 0 -3 
C -0.795609 -3 -1.55874 -2.683901 -2.12132 -2.12132 
C -2.683901 -1.55874 -3 -0.795609 -3 0 
C -3 0.795609 -2.683901 1.55874 -2.12132 2.12132 
C -1.55874 2.683901 -0.795609 3 0 3 
z
" style="stroke: #d55e00"/>
    </defs>
    <g clip-path="url(#p03eb5c9fc2)">
     <use xlink:href="#m04af7e1b5e" x="61.313081" y="220.478116" style="fill: #d55e00; stroke: #d55e00"/>
     <use xlink:href="#m04af7e1b5e" x="209.453267" y="218.605876" style="fill: #d55e00; stroke: #d55e00"/>
     <use xlink:href="#m04af7e1b5e" x="357.593453" y="211.595797" style="fill: #d55e00; stroke: #d55e00"/>
    </g>
   </g>
   <g id="line2d_10">
    <path d="M 61.313081 213.732412 
L 209.453267 210.478713 
L 357.593453 202.285365 
" clip-path="url(#p03eb5c9fc2)" style="fill: none; stroke: #0173b2; stroke-width: 2.2; stroke-linecap: round"/>
    <defs>
     <path id="m0898fd4729" d="M 0 3 
C 0.795609 3 1.55874 2.683901 2.12132 2.12132 
C 2.683901 1.55874 3 0.795609 3 0 
C 3 -0.795609 2.683901 -1.55874 2.12132 -2.12132 
C 1.55874 -2.683901 0.795609 -3 0 -3 
C -0.795609 -3 -1.55874 -2.683901 -2.12132 -2.12132 
C -2.683901 -1.55874 -3 -0.795609 -3 0 
C -3 0.795609 -2.683901 1.55874 -2.12132 2.12132 
C -1.55874 2.683901 -0.795609 3 0 3 
z
" style="stroke: #0173b2"/>
    </defs>
    <g clip-path="url(#p03eb5c9fc2)">
     <use xlink:href="#m0898fd4729" x="61.313081" y="213.732412" style="fill: #0173b2; stroke: #0173b2"/>
     <use xlink:href="#m0898fd4729" x="209.453267" y="210.478713" style="fill: #0173b2; stroke: #0173b2"/>
     <use xlink:href="#m0898fd4729" x="357.593453" y="202.285365" style="fill: #0173b2; stroke: #0173b2"/>
    </g>
   </g>
   <g id="line2d_11">
    <path d="M 61.313081 204.815565 
L 209.453267 203.912803 
L 357.593453 194.790244 
" clip-path="url(#p03eb5c9fc2)" style="fill: none; stroke: #029e73; stroke-width: 2.2; stroke-linecap: round"/>
    <defs>
     <path id="m9ee69a33b4" d="M 0 3 
C 0.795609 3 1.55874 2.683901 2.12132 2.12132 
C 2.683901 1.55874 3 0.795609 3 0 
C 3 -0.795609 2.683901 -1.55874 2.12132 -2.12132 
C 1.55874 -2.683901 0.795609 -3 0 -3 
C -0.795609 -3 -1.55874 -2.683901 -2.12132 -2.12132 
C -2.683901 -1.55874 -3 -0.795609 -3 0 
C -3 0.795609 -2.683901 1.55874 -2.12132 2.12132 
C -1.55874 2.683901 -0.795609 3 0 3 
z
" style="stroke: #029e73"/>
    </defs>
    <g clip-path="url(#p03eb5c9fc2)">
     <use xlink:href="#m9ee69a33b4" x="61.313081" y="204.815565" style="fill: #029e73; stroke: #029e73"/>
     <use xlink:href="#m9ee69a33b4" x="209.453267" y="203.912803" style="fill: #029e73; stroke: #029e73"/>
     <use xlink:href="#m9ee69a33b4" x="357.593453" y="194.790244" style="fill: #029e73; stroke: #029e73"/>
    </g>
   </g>
   <g id="patch_3">
    <path d="M 46.499063 252.73 
L 46.499063 65.28 
" style="fill: none; stroke: #cccccc; stroke-width: 0.8; stroke-linejoin: miter; stroke-linecap: square"/>
   </g>
   <g id="patch_4">
    <path d="M 46.499063 252.73 
L 372.407472 252.73 
" style="fill: none; stroke: #cccccc; stroke-width: 0.8; stroke-linejoin: miter; stroke-linecap: square"/>
   </g>
   <g id="text_8">
    <!-- A -->
    <g style="fill: #262626" transform="translate(7.390053 59.402125) scale(0.12 -0.12)">
     <defs>
      <path id="DejaVuSerif-Bold-41" d="M -50 0 
L -50 378 
L 331 378 
L 2088 4666 
L 2834 4666 
L 4594 378 
L 5038 378 
L 5038 0 
L 2853 0 
L 2853 378 
L 3309 378 
L 2925 1331 
L 1172 1331 
L 781 378 
L 1338 378 
L 1338 0 
L -50 0 
z
M 1325 1709 
L 2772 1709 
L 2053 3494 
L 1325 1709 
z
" transform="scale(0.015625)"/>
     </defs>
     <use xlink:href="#DejaVuSerif-Bold-41"/>
    </g>
   </g>
   <g id="text_9">
    <!-- Observation Noise -->
    <g style="fill: #262626" transform="translate(152.970845 59.28) scale(0.11 -0.11)">
     <defs>
      <path id="DejaVuSerif-Bold-4f" d="M 2784 288 
Q 3381 288 3672 791 
Q 3963 1294 3963 2328 
Q 3963 3366 3672 3869 
Q 3381 4372 2784 4372 
Q 2191 4372 1898 3864 
Q 1606 3356 1606 2328 
Q 1606 1303 1898 795 
Q 2191 288 2784 288 
z
M 2784 -91 
Q 1606 -91 937 553 
Q 269 1197 269 2328 
Q 269 3459 939 4104 
Q 1609 4750 2784 4750 
Q 3963 4750 4631 4106 
Q 5300 3463 5300 2328 
Q 5300 1197 4629 553 
Q 3959 -91 2784 -91 
z
" transform="scale(0.015625)"/>
      <path id="DejaVuSerif-Bold-62" d="M 622 378 
L 622 4488 
L 147 4488 
L 147 4863 
L 1728 4863 
L 1728 2900 
Q 1869 3159 2106 3286 
Q 2344 3413 2694 3413 
Q 3403 3413 3811 2945 
Q 4219 2478 4219 1663 
Q 4219 847 3811 378 
Q 3403 -91 2694 -91 
Q 2344 -91 2106 36 
Q 1869 163 1728 422 
L 1728 0 
L 147 0 
L 147 378 
L 622 378 
z
M 1728 1497 
Q 1728 916 1876 656 
Q 2025 397 2356 397 
Q 2697 397 2836 672 
Q 2975 947 2975 1663 
Q 2975 2378 2836 2651 
Q 2697 2925 2356 2925 
Q 2025 2925 1876 2665 
Q 1728 2406 1728 1825 
L 1728 1497 
z
" transform="scale(0.015625)"/>
      <path id="DejaVuSerif-Bold-73" d="M 300 97 
L 300 1025 
L 653 1025 
Q 697 653 931 458 
Q 1166 263 1569 263 
Q 1906 263 2086 380 
Q 2266 497 2266 716 
Q 2266 916 2152 1025 
Q 2038 1134 1709 1216 
L 1253 1331 
Q 738 1459 506 1698 
Q 275 1938 275 2344 
Q 275 2884 650 3148 
Q 1025 3413 1806 3413 
Q 2100 3413 2433 3364 
Q 2766 3316 3169 3213 
L 3169 2375 
L 2816 2375 
Q 2788 2716 2573 2887 
Q 2359 3059 1959 3059 
Q 1622 3059 1448 2951 
Q 1275 2844 1275 2638 
Q 1275 2469 1375 2372 
Q 1475 2275 1734 2209 
L 2188 2094 
Q 2841 1928 3091 1684 
Q 3341 1441 3341 1006 
Q 3341 444 2939 176 
Q 2538 -91 1691 -91 
Q 1381 -91 1034 -44 
Q 688 3 300 97 
z
" transform="scale(0.015625)"/>
      <path id="DejaVuSerif-Bold-65" d="M 2566 1875 
Q 2566 2531 2444 2795 
Q 2322 3059 2028 3059 
Q 1744 3059 1620 2800 
Q 1497 2541 1497 1931 
L 1497 1875 
L 2566 1875 
z
M 3781 1503 
L 1497 1503 
L 1497 1478 
Q 1497 834 1690 548 
Q 1884 263 2316 263 
Q 2675 263 2897 453 
Q 3119 644 3181 1006 
L 3700 1006 
Q 3566 441 3166 175 
Q 2766 -91 2047 -91 
Q 1184 -91 723 364 
Q 263 819 263 1663 
Q 263 2488 734 2950 
Q 1206 3413 2047 3413 
Q 2872 3413 3312 2927 
Q 3753 2441 3781 1503 
z
" transform="scale(0.015625)"/>
      <path id="DejaVuSerif-Bold-72" d="M 3438 3359 
L 3438 2369 
L 3084 2369 
Q 3066 2634 2941 2764 
Q 2816 2894 2578 2894 
Q 2216 2894 2006 2575 
Q 1797 2256 1797 1691 
L 1797 378 
L 2400 378 
L 2400 0 
L 219 0 
L 219 378 
L 691 378 
L 691 2944 
L 184 2944 
L 184 3322 
L 1797 3322 
L 1797 2731 
Q 1959 3078 2226 3245 
Q 2494 3413 2881 3413 
Q 2978 3413 3117 3398 
Q 3256 3384 3438 3359 
z
" transform="scale(0.015625)"/>
      <path id="DejaVuSerif-Bold-76" d="M 1428 0 
L 250 2944 
L -116 2944 
L -116 3322 
L 1791 3322 
L 1791 2944 
L 1388 2944 
L 2228 844 
L 3066 2944 
L 2631 2944 
L 2631 3322 
L 3878 3322 
L 3878 2944 
L 3494 2944 
L 2316 0 
L 1428 0 
z
" transform="scale(0.015625)"/>
      <path id="DejaVuSerif-Bold-61" d="M 3525 2041 
L 3525 378 
L 4000 378 
L 4000 0 
L 2419 0 
L 2419 422 
Q 2200 159 1931 34 
Q 1663 -91 1319 -91 
Q 809 -91 536 182 
Q 263 456 263 966 
Q 263 1525 655 1803 
Q 1047 2081 1838 2081 
L 2419 2081 
L 2419 2278 
Q 2419 2681 2228 2873 
Q 2038 3066 1638 3066 
Q 1306 3066 1126 2930 
Q 947 2794 872 2484 
L 519 2484 
L 519 3200 
Q 816 3306 1134 3359 
Q 1453 3413 1806 3413 
Q 2697 3413 3111 3081 
Q 3525 2750 3525 2041 
z
M 2419 1044 
L 2419 1709 
L 2003 1709 
Q 1694 1709 1528 1540 
Q 1363 1372 1363 1056 
Q 1363 741 1483 584 
Q 1603 428 1850 428 
Q 2106 428 2262 597 
Q 2419 766 2419 1044 
z
" transform="scale(0.015625)"/>
      <path id="DejaVuSerif-Bold-74" d="M 634 2944 
L 153 2944 
L 153 3322 
L 634 3322 
L 634 4353 
L 1741 4353 
L 1741 3322 
L 2663 3322 
L 2663 2944 
L 1741 2944 
L 1741 909 
Q 1741 475 1809 369 
Q 1878 263 2059 263 
Q 2259 263 2356 397 
Q 2453 531 2459 813 
L 2925 813 
Q 2897 313 2651 111 
Q 2406 -91 1806 -91 
Q 1122 -91 878 123 
Q 634 338 634 909 
L 634 2944 
z
" transform="scale(0.015625)"/>
      <path id="DejaVuSerif-Bold-69" d="M 588 4263 
Q 588 4516 763 4689 
Q 938 4863 1191 4863 
Q 1438 4863 1611 4689 
Q 1784 4516 1784 4263 
Q 1784 4016 1611 3842 
Q 1438 3669 1191 3669 
Q 938 3669 763 3841 
Q 588 4013 588 4263 
z
M 1797 378 
L 2272 378 
L 2272 0 
L 219 0 
L 219 378 
L 691 378 
L 691 2944 
L 219 2944 
L 219 3322 
L 1797 3322 
L 1797 378 
z
" transform="scale(0.015625)"/>
      <path id="DejaVuSerif-Bold-6f" d="M 2138 263 
Q 2488 263 2630 563 
Q 2772 863 2772 1663 
Q 2772 2463 2631 2761 
Q 2491 3059 2138 3059 
Q 1784 3059 1640 2757 
Q 1497 2456 1497 1663 
Q 1497 869 1640 566 
Q 1784 263 2138 263 
z
M 2138 -91 
Q 1259 -91 761 376 
Q 263 844 263 1663 
Q 263 2484 761 2948 
Q 1259 3413 2138 3413 
Q 3019 3413 3516 2948 
Q 4013 2484 4013 1663 
Q 4013 844 3514 376 
Q 3016 -91 2138 -91 
z
" transform="scale(0.015625)"/>
      <path id="DejaVuSerif-Bold-6e" d="M 219 0 
L 219 378 
L 691 378 
L 691 2944 
L 219 2944 
L 219 3322 
L 1797 3322 
L 1797 2853 
Q 1997 3150 2253 3281 
Q 2509 3413 2900 3413 
Q 3459 3413 3745 3083 
Q 4031 2753 4031 2113 
L 4031 378 
L 4506 378 
L 4506 0 
L 2522 0 
L 2522 378 
L 2925 378 
L 2925 2144 
Q 2925 2566 2817 2730 
Q 2709 2894 2444 2894 
Q 2109 2894 1953 2648 
Q 1797 2403 1797 1869 
L 1797 378 
L 2203 378 
L 2203 0 
L 219 0 
z
" transform="scale(0.015625)"/>
      <path id="DejaVuSerif-Bold-20" transform="scale(0.015625)"/>
      <path id="DejaVuSerif-Bold-4e" d="M 281 0 
L 281 378 
L 878 378 
L 878 4288 
L 281 4288 
L 281 4666 
L 1741 4666 
L 4556 1363 
L 4556 4288 
L 3963 4288 
L 3963 4666 
L 5594 4666 
L 5594 4288 
L 4997 4288 
L 4997 0 
L 4178 0 
L 1319 3372 
L 1319 378 
L 1913 378 
L 1913 0 
L 281 0 
z
" transform="scale(0.015625)"/>
     </defs>
     <use xlink:href="#DejaVuSerif-Bold-4f"/>
     <use xlink:href="#DejaVuSerif-Bold-62" transform="translate(87.109375 0)"/>
     <use xlink:href="#DejaVuSerif-Bold-73" transform="translate(157.03125 0)"/>
     <use xlink:href="#DejaVuSerif-Bold-65" transform="translate(213.330078 0)"/>
     <use xlink:href="#DejaVuSerif-Bold-72" transform="translate(276.953125 0)"/>
     <use xlink:href="#DejaVuSerif-Bold-76" transform="translate(329.638672 0)"/>
     <use xlink:href="#DejaVuSerif-Bold-61" transform="translate(387.744141 0)"/>
     <use xlink:href="#DejaVuSerif-Bold-74" transform="translate(452.539062 0)"/>
     <use xlink:href="#DejaVuSerif-Bold-69" transform="translate(498.730469 0)"/>
     <use xlink:href="#DejaVuSerif-Bold-6f" transform="translate(536.71875 0)"/>
     <use xlink:href="#DejaVuSerif-Bold-6e" transform="translate(603.417969 0)"/>
     <use xlink:href="#DejaVuSerif-Bold-20" transform="translate(676.123047 0)"/>
     <use xlink:href="#DejaVuSerif-Bold-4e" transform="translate(710.9375 0)"/>
     <use xlink:href="#DejaVuSerif-Bold-6f" transform="translate(802.34375 0)"/>
     <use xlink:href="#DejaVuSerif-Bold-69" transform="translate(869.042969 0)"/>
     <use xlink:href="#DejaVuSerif-Bold-73" transform="translate(907.03125 0)"/>
     <use xlink:href="#DejaVuSerif-Bold-65" transform="translate(963.330078 0)"/>
    </g>
   </g>
   <g id="legend_1">
    <g id="line2d_12">
     <path d="M 54.599063 77.068594 
L 63.599063 77.068594 
L 72.599063 77.068594 
" style="fill: none; stroke: #d55e00; stroke-width: 2.2; stroke-linecap: round"/>
     <g>
      <use xlink:href="#m04af7e1b5e" x="63.599063" y="77.068594" style="fill: #d55e00; stroke: #d55e00"/>
     </g>
    </g>
    <g id="text_10">
     <!-- PG proxy -->
     <g style="fill: #262626" transform="translate(79.799063 80.218594) scale(0.09 -0.09)">
      <defs>
       <path id="DejaVuSerif-50" d="M 1581 2375 
L 2406 2375 
Q 2872 2375 3115 2626 
Q 3359 2878 3359 3353 
Q 3359 3831 3115 4081 
Q 2872 4331 2406 4331 
L 1581 4331 
L 1581 2375 
z
M 353 0 
L 353 331 
L 947 331 
L 947 4331 
L 353 4331 
L 353 4666 
L 2559 4666 
Q 3259 4666 3668 4311 
Q 4078 3956 4078 3353 
Q 4078 2753 3668 2397 
Q 3259 2041 2559 2041 
L 1581 2041 
L 1581 331 
L 2303 331 
L 2303 0 
L 353 0 
z
" transform="scale(0.015625)"/>
       <path id="DejaVuSerif-47" d="M 4097 3272 
Q 3988 3856 3641 4136 
Q 3294 4416 2675 4416 
Q 1869 4416 1472 3897 
Q 1075 3378 1075 2328 
Q 1075 1300 1484 772 
Q 1894 244 2688 244 
Q 3041 244 3362 331 
Q 3684 419 3975 594 
L 3975 1797 
L 3097 1797 
L 3097 2131 
L 4609 2131 
L 4609 391 
Q 4194 150 3714 29 
Q 3234 -91 2688 -91 
Q 1631 -91 995 570 
Q 359 1231 359 2328 
Q 359 3434 996 4092 
Q 1634 4750 2713 4750 
Q 3113 4750 3539 4658 
Q 3966 4566 4447 4378 
L 4447 3272 
L 4097 3272 
z
" transform="scale(0.015625)"/>
       <path id="DejaVuSerif-70" d="M 1313 1825 
L 1313 1497 
Q 1313 897 1542 583 
Q 1772 269 2209 269 
Q 2650 269 2876 622 
Q 3103 975 3103 1663 
Q 3103 2353 2876 2703 
Q 2650 3053 2209 3053 
Q 1772 3053 1542 2737 
Q 1313 2422 1313 1825 
z
M 738 2988 
L 184 2988 
L 184 3322 
L 1313 3322 
L 1313 2803 
Q 1481 3116 1742 3264 
Q 2003 3413 2388 3413 
Q 3000 3413 3387 2928 
Q 3775 2444 3775 1663 
Q 3775 881 3387 395 
Q 3000 -91 2388 -91 
Q 2003 -91 1742 57 
Q 1481 206 1313 519 
L 1313 -997 
L 1856 -997 
L 1856 -1331 
L 184 -1331 
L 184 -997 
L 738 -997 
L 738 2988 
z
" transform="scale(0.015625)"/>
       <path id="DejaVuSerif-78" d="M 1863 2028 
L 2559 2988 
L 2113 2988 
L 2113 3322 
L 3391 3322 
L 3391 2988 
L 2950 2988 
L 2059 1759 
L 3097 331 
L 3531 331 
L 3531 0 
L 1997 0 
L 1997 331 
L 2419 331 
L 1697 1325 
L 972 331 
L 1403 331 
L 1403 0 
L 141 0 
L 141 331 
L 581 331 
L 1497 1594 
L 488 2988 
L 78 2988 
L 78 3322 
L 1563 3322 
L 1563 2988 
L 1166 2988 
L 1863 2028 
z
" transform="scale(0.015625)"/>
      </defs>
      <use xlink:href="#DejaVuSerif-50"/>
      <use xlink:href="#DejaVuSerif-47" transform="translate(67.285156 0)"/>
      <use xlink:href="#DejaVuSerif-20" transform="translate(147.167969 0)"/>
      <use xlink:href="#DejaVuSerif-70" transform="translate(178.955078 0)"/>
      <use xlink:href="#DejaVuSerif-72" transform="translate(242.96875 0)"/>
      <use xlink:href="#DejaVuSerif-6f" transform="translate(290.771484 0)"/>
      <use xlink:href="#DejaVuSerif-78" transform="translate(350.976562 0)"/>
      <use xlink:href="#DejaVuSerif-79" transform="translate(407.373047 0)"/>
     </g>
    </g>
    <g id="line2d_13">
     <path d="M 54.599063 90.406875 
L 63.599063 90.406875 
L 72.599063 90.406875 
" style="fill: none; stroke: #0173b2; stroke-width: 2.2; stroke-linecap: round"/>
     <g>
      <use xlink:href="#m0898fd4729" x="63.599063" y="90.406875" style="fill: #0173b2; stroke: #0173b2"/>
     </g>
    </g>
    <g id="text_11">
     <!-- Heuristic -->
     <g style="fill: #262626" transform="translate(79.799063 93.556875) scale(0.09 -0.09)">
      <defs>
       <path id="DejaVuSerif-48" d="M 353 0 
L 353 331 
L 947 331 
L 947 4331 
L 353 4331 
L 353 4666 
L 2175 4666 
L 2175 4331 
L 1581 4331 
L 1581 2719 
L 4000 2719 
L 4000 4331 
L 3406 4331 
L 3406 4666 
L 5228 4666 
L 5228 4331 
L 4634 4331 
L 4634 331 
L 5228 331 
L 5228 0 
L 3406 0 
L 3406 331 
L 4000 331 
L 4000 2338 
L 1581 2338 
L 1581 331 
L 2175 331 
L 2175 0 
L 353 0 
z
" transform="scale(0.015625)"/>
       <path id="DejaVuSerif-75" d="M 2266 3322 
L 3341 3322 
L 3341 331 
L 3884 331 
L 3884 0 
L 2766 0 
L 2766 588 
Q 2606 256 2353 82 
Q 2100 -91 1766 -91 
Q 1213 -91 952 223 
Q 691 538 691 1209 
L 691 2988 
L 172 2988 
L 172 3322 
L 1269 3322 
L 1269 1388 
Q 1269 781 1417 556 
Q 1566 331 1947 331 
Q 2347 331 2556 625 
Q 2766 919 2766 1478 
L 2766 2988 
L 2266 2988 
L 2266 3322 
z
" transform="scale(0.015625)"/>
      </defs>
      <use xlink:href="#DejaVuSerif-48"/>
      <use xlink:href="#DejaVuSerif-65" transform="translate(87.207031 0)"/>
      <use xlink:href="#DejaVuSerif-75" transform="translate(146.386719 0)"/>
      <use xlink:href="#DejaVuSerif-72" transform="translate(210.791016 0)"/>
      <use xlink:href="#DejaVuSerif-69" transform="translate(258.59375 0)"/>
      <use xlink:href="#DejaVuSerif-73" transform="translate(290.576172 0)"/>
      <use xlink:href="#DejaVuSerif-74" transform="translate(341.894531 0)"/>
      <use xlink:href="#DejaVuSerif-69" transform="translate(382.080078 0)"/>
      <use xlink:href="#DejaVuSerif-63" transform="translate(414.0625 0)"/>
     </g>
    </g>
    <g id="line2d_14">
     <path d="M 54.599063 103.617188 
L 63.599063 103.617188 
L 72.599063 103.617188 
" style="fill: none; stroke: #029e73; stroke-width: 2.2; stroke-linecap: round"/>
     <g>
      <use xlink:href="#m9ee69a33b4" x="63.599063" y="103.617188" style="fill: #029e73; stroke: #029e73"/>
     </g>
    </g>
    <g id="text_12">
     <!-- DQN -->
     <g style="fill: #262626" transform="translate(79.799063 106.767188) scale(0.09 -0.09)">
      <defs>
       <path id="DejaVuSerif-51" d="M 2700 -91 
Q 1628 -91 993 567 
Q 359 1225 359 2328 
Q 359 2894 529 3339 
Q 700 3784 1050 4134 
Q 1356 4441 1750 4595 
Q 2144 4750 2625 4750 
Q 3641 4750 4266 4084 
Q 4891 3419 4891 2328 
Q 4891 1403 4422 773 
Q 3953 144 3128 -38 
Q 3297 -247 3539 -347 
Q 3781 -447 4122 -447 
L 4219 -447 
L 4219 -1025 
Q 3691 -1000 3314 -767 
Q 2938 -534 2700 -91 
z
M 2625 244 
Q 3391 244 3781 770 
Q 4172 1297 4172 2328 
Q 4172 3363 3781 3889 
Q 3391 4416 2625 4416 
Q 1856 4416 1465 3889 
Q 1075 3363 1075 2328 
Q 1075 1297 1465 770 
Q 1856 244 2625 244 
z
" transform="scale(0.015625)"/>
       <path id="DejaVuSerif-4e" d="M 313 0 
L 313 331 
L 941 331 
L 941 4331 
L 313 4331 
L 313 4666 
L 1509 4666 
L 4306 984 
L 4306 4331 
L 3681 4331 
L 3681 4666 
L 5319 4666 
L 5319 4331 
L 4691 4331 
L 4691 -91 
L 4313 -91 
L 1325 3841 
L 1325 331 
L 1953 331 
L 1953 0 
L 313 0 
z
" transform="scale(0.015625)"/>
      </defs>
      <use xlink:href="#DejaVuSerif-44"/>
      <use xlink:href="#DejaVuSerif-51" transform="translate(80.175781 0)"/>
      <use xlink:href="#DejaVuSerif-4e" transform="translate(162.158203 0)"/>
     </g>
    </g>
   </g>
  </g>
  <g id="axes_2">
   <g id="patch_5">
    <path d="M 415.165653 252.73 
L 741.074062 252.73 
L 741.074062 65.28 
L 415.165653 65.28 
z
" style="fill: #ffffff"/>
   </g>
   <g id="matplotlib.axis_3">
    <g id="xtick_4">
     <g id="line2d_15">
      <path d="M 429.979672 252.73 
L 429.979672 65.28 
" clip-path="url(#p4cfcd548d6)" style="fill: none; stroke: #cccccc; stroke-opacity: 0.25; stroke-width: 0.8; stroke-linecap: round"/>
     </g>
    </g>
    <g id="xtick_5">
     <g id="line2d_16">
      <path d="M 578.119858 252.73 
L 578.119858 65.28 
" clip-path="url(#p4cfcd548d6)" style="fill: none; stroke: #cccccc; stroke-opacity: 0.25; stroke-width: 0.8; stroke-linecap: round"/>
     </g>
    </g>
    <g id="xtick_6">
     <g id="line2d_17">
      <path d="M 726.260044 252.73 
L 726.260044 65.28 
" clip-path="url(#p4cfcd548d6)" style="fill: none; stroke: #cccccc; stroke-opacity: 0.25; stroke-width: 0.8; stroke-linecap: round"/>
     </g>
    </g>
    <g id="text_13">
     <!-- Stress severity -->
     <g style="fill: #262626" transform="translate(540.483139 264.18625) scale(0.1 -0.1)">
      <use xlink:href="#DejaVuSerif-53"/>
      <use xlink:href="#DejaVuSerif-74" transform="translate(68.505859 0)"/>
      <use xlink:href="#DejaVuSerif-72" transform="translate(108.691406 0)"/>
      <use xlink:href="#DejaVuSerif-65" transform="translate(156.494141 0)"/>
      <use xlink:href="#DejaVuSerif-73" transform="translate(215.673828 0)"/>
      <use xlink:href="#DejaVuSerif-73" transform="translate(266.992188 0)"/>
      <use xlink:href="#DejaVuSerif-20" transform="translate(318.310547 0)"/>
      <use xlink:href="#DejaVuSerif-73" transform="translate(350.097656 0)"/>
      <use xlink:href="#DejaVuSerif-65" transform="translate(401.416016 0)"/>
      <use xlink:href="#DejaVuSerif-76" transform="translate(460.595703 0)"/>
      <use xlink:href="#DejaVuSerif-65" transform="translate(517.089844 0)"/>
      <use xlink:href="#DejaVuSerif-72" transform="translate(576.269531 0)"/>
      <use xlink:href="#DejaVuSerif-69" transform="translate(624.072266 0)"/>
      <use xlink:href="#DejaVuSerif-74" transform="translate(656.054688 0)"/>
      <use xlink:href="#DejaVuSerif-79" transform="translate(696.240234 0)"/>
     </g>
    </g>
   </g>
   <g id="matplotlib.axis_4">
    <g id="ytick_6">
     <g id="line2d_18">
      <path d="M 415.165653 226.958506 
L 741.074062 226.958506 
" clip-path="url(#p4cfcd548d6)" style="fill: none; stroke: #cccccc; stroke-opacity: 0.25; stroke-width: 0.8; stroke-linecap: round"/>
     </g>
    </g>
    <g id="ytick_7">
     <g id="line2d_19">
      <path d="M 415.165653 189.790201 
L 741.074062 189.790201 
" clip-path="url(#p4cfcd548d6)" style="fill: none; stroke: #cccccc; stroke-opacity: 0.25; stroke-width: 0.8; stroke-linecap: round"/>
     </g>
    </g>
    <g id="ytick_8">
     <g id="line2d_20">
      <path d="M 415.165653 152.621896 
L 741.074062 152.621896 
" clip-path="url(#p4cfcd548d6)" style="fill: none; stroke: #cccccc; stroke-opacity: 0.25; stroke-width: 0.8; stroke-linecap: round"/>
     </g>
    </g>
    <g id="ytick_9">
     <g id="line2d_21">
      <path d="M 415.165653 115.453591 
L 741.074062 115.453591 
" clip-path="url(#p4cfcd548d6)" style="fill: none; stroke: #cccccc; stroke-opacity: 0.25; stroke-width: 0.8; stroke-linecap: round"/>
     </g>
    </g>
    <g id="ytick_10">
     <g id="line2d_22">
      <path d="M 415.165653 78.285285 
L 741.074062 78.285285 
" clip-path="url(#p4cfcd548d6)" style="fill: none; stroke: #cccccc; stroke-opacity: 0.25; stroke-width: 0.8; stroke-linecap: round"/>
     </g>
    </g>
    <g id="text_14">
     <!-- Degradation vs clean (%) -->
     <g style="fill: #262626" transform="translate(408.943778 222.93625) rotate(-90) scale(0.1 -0.1)">
      <use xlink:href="#DejaVuSerif-44"/>
      <use xlink:href="#DejaVuSerif-65" transform="translate(80.175781 0)"/>
      <use xlink:href="#DejaVuSerif-67" transform="translate(139.355469 0)"/>
      <use xlink:href="#DejaVuSerif-72" transform="translate(203.369141 0)"/>
      <use xlink:href="#DejaVuSerif-61" transform="translate(251.171875 0)"/>
      <use xlink:href="#DejaVuSerif-64" transform="translate(310.791016 0)"/>
      <use xlink:href="#DejaVuSerif-61" transform="translate(374.804688 0)"/>
      <use xlink:href="#DejaVuSerif-74" transform="translate(434.423828 0)"/>
      <use xlink:href="#DejaVuSerif-69" transform="translate(474.609375 0)"/>
      <use xlink:href="#DejaVuSerif-6f" transform="translate(506.591797 0)"/>
      <use xlink:href="#DejaVuSerif-6e" transform="translate(566.796875 0)"/>
      <use xlink:href="#DejaVuSerif-20" transform="translate(631.201172 0)"/>
      <use xlink:href="#DejaVuSerif-76" transform="translate(662.988281 0)"/>
      <use xlink:href="#DejaVuSerif-73" transform="translate(719.482422 0)"/>
      <use xlink:href="#DejaVuSerif-20" transform="translate(770.800781 0)"/>
      <use xlink:href="#DejaVuSerif-63" transform="translate(802.587891 0)"/>
      <use xlink:href="#DejaVuSerif-6c" transform="translate(858.59375 0)"/>
      <use xlink:href="#DejaVuSerif-65" transform="translate(890.576172 0)"/>
      <use xlink:href="#DejaVuSerif-61" transform="translate(949.755859 0)"/>
      <use xlink:href="#DejaVuSerif-6e" transform="translate(1009.375 0)"/>
      <use xlink:href="#DejaVuSerif-20" transform="translate(1073.779297 0)"/>
      <use xlink:href="#DejaVuSerif-28" transform="translate(1105.566406 0)"/>
      <use xlink:href="#DejaVuSerif-25" transform="translate(1144.580078 0)"/>
      <use xlink:href="#DejaVuSerif-29" transform="translate(1239.599609 0)"/>
     </g>
    </g>
   </g>
   <g id="FillBetweenPolyCollection_4">
    <defs>
     <path id="m34823c0484" d="M 429.979672 -302.035239 
L 429.979672 -286.787179 
L 578.119858 -279.713846 
L 726.260044 -311.494909 
L 726.260044 -371.272028 
L 726.260044 -371.272028 
L 578.119858 -320.585122 
L 429.979672 -302.035239 
z
" style="stroke: #d55e00; stroke-opacity: 0.16; stroke-width: 0.8"/>
    </defs>
    <g clip-path="url(#p4cfcd548d6)">
     <use xlink:href="#m34823c0484" x="0" y="517.596406" style="fill: #d55e00; fill-opacity: 0.16; stroke: #d55e00; stroke-opacity: 0.16; stroke-width: 0.8"/>
    </g>
   </g>
   <g id="FillBetweenPolyCollection_5">
    <defs>
     <path id="me6d5aa3302" d="M 429.979672 -290.6379 
L 429.979672 -290.6379 
L 578.119858 -290.6379 
L 726.260044 -290.6379 
L 726.260044 -290.6379 
L 726.260044 -290.6379 
L 578.119858 -290.6379 
L 429.979672 -290.6379 
z
" style="stroke: #0173b2; stroke-opacity: 0.16; stroke-width: 0.8"/>
    </defs>
    <g clip-path="url(#p4cfcd548d6)">
     <use xlink:href="#me6d5aa3302" x="0" y="517.596406" style="fill: #0173b2; fill-opacity: 0.16; stroke: #0173b2; stroke-opacity: 0.16; stroke-width: 0.8"/>
    </g>
   </g>
   <g id="FillBetweenPolyCollection_6">
    <defs>
     <path id="me74c5b9f29" d="M 429.979672 -331.567097 
L 429.979672 -304.355506 
L 578.119858 -358.490331 
L 726.260044 -395.710873 
L 726.260044 -443.795952 
L 726.260044 -443.795952 
L 578.119858 -391.926283 
L 429.979672 -331.567097 
z
" style="stroke: #029e73; stroke-opacity: 0.16; stroke-width: 0.8"/>
    </defs>
    <g clip-path="url(#p4cfcd548d6)">
     <use xlink:href="#me74c5b9f29" x="0" y="517.596406" style="fill: #029e73; fill-opacity: 0.16; stroke: #029e73; stroke-opacity: 0.16; stroke-width: 0.8"/>
    </g>
   </g>
   <g id="line2d_23">
    <path d="M 429.979672 224.145862 
L 578.119858 220.226057 
L 726.260044 176.724684 
" clip-path="url(#p4cfcd548d6)" style="fill: none; stroke: #d55e00; stroke-width: 2.2; stroke-linecap: round"/>
    <g clip-path="url(#p4cfcd548d6)">
     <use xlink:href="#m04af7e1b5e" x="429.979672" y="224.145862" style="fill: #d55e00; stroke: #d55e00"/>
     <use xlink:href="#m04af7e1b5e" x="578.119858" y="220.226057" style="fill: #d55e00; stroke: #d55e00"/>
     <use xlink:href="#m04af7e1b5e" x="726.260044" y="176.724684" style="fill: #d55e00; stroke: #d55e00"/>
    </g>
   </g>
   <g id="line2d_24">
    <path d="M 429.979672 226.958506 
L 578.119858 226.958506 
L 726.260044 226.958506 
" clip-path="url(#p4cfcd548d6)" style="fill: none; stroke: #0173b2; stroke-width: 2.2; stroke-linecap: round"/>
    <g clip-path="url(#p4cfcd548d6)">
     <use xlink:href="#m0898fd4729" x="429.979672" y="226.958506" style="fill: #0173b2; stroke: #0173b2"/>
     <use xlink:href="#m0898fd4729" x="578.119858" y="226.958506" style="fill: #0173b2; stroke: #0173b2"/>
     <use xlink:href="#m0898fd4729" x="726.260044" y="226.958506" style="fill: #0173b2; stroke: #0173b2"/>
    </g>
   </g>
   <g id="line2d_25">
    <path d="M 429.979672 201.048776 
L 578.119858 142.91478 
L 726.260044 97.006022 
" clip-path="url(#p4cfcd548d6)" style="fill: none; stroke: #029e73; stroke-width: 2.2; stroke-linecap: round"/>
    <g clip-path="url(#p4cfcd548d6)">
     <use xlink:href="#m9ee69a33b4" x="429.979672" y="201.048776" style="fill: #029e73; stroke: #029e73"/>
     <use xlink:href="#m9ee69a33b4" x="578.119858" y="142.91478" style="fill: #029e73; stroke: #029e73"/>
     <use xlink:href="#m9ee69a33b4" x="726.260044" y="97.006022" style="fill: #029e73; stroke: #029e73"/>
    </g>
   </g>
   <g id="patch_6">
    <path d="M 415.165653 252.73 
L 415.165653 65.28 
" style="fill: none; stroke: #cccccc; stroke-width: 0.8; stroke-linejoin: miter; stroke-linecap: square"/>
   </g>
   <g id="patch_7">
    <path d="M 415.165653 252.73 
L 741.074063 252.73 
" style="fill: none; stroke: #cccccc; stroke-width: 0.8; stroke-linejoin: miter; stroke-linecap: square"/>
   </g>
   <g id="text_15">
    <!-- B -->
    <g style="fill: #262626" transform="translate(376.056644 59.402125) scale(0.12 -0.12)">
     <defs>
      <path id="DejaVuSerif-Bold-42" d="M 300 0 
L 300 378 
L 897 378 
L 897 4288 
L 300 4288 
L 300 4666 
L 3066 4666 
Q 3919 4666 4347 4378 
Q 4775 4091 4775 3513 
Q 4775 3097 4479 2853 
Q 4184 2609 3603 2547 
Q 4306 2481 4681 2172 
Q 5056 1863 5056 1350 
Q 5056 656 4532 328 
Q 4009 0 2894 0 
L 300 0 
z
M 2100 2719 
L 2509 2719 
Q 3047 2719 3306 2914 
Q 3566 3109 3566 3513 
Q 3566 3919 3314 4103 
Q 3063 4288 2509 4288 
L 2100 4288 
L 2100 2719 
z
M 2100 378 
L 2547 378 
Q 3144 378 3431 615 
Q 3719 853 3719 1350 
Q 3719 1850 3428 2097 
Q 3138 2344 2547 2344 
L 2100 2344 
L 2100 378 
z
" transform="scale(0.015625)"/>
     </defs>
     <use xlink:href="#DejaVuSerif-Bold-42"/>
    </g>
   </g>
   <g id="text_16">
    <!-- Reward Corruption -->
    <g style="fill: #262626" transform="translate(519.110014 59.28) scale(0.11 -0.11)">
     <defs>
      <path id="DejaVuSerif-Bold-52" d="M 3397 2278 
Q 3675 2238 3865 2094 
Q 4056 1950 4197 1678 
L 4878 378 
L 5356 378 
L 5356 0 
L 3822 0 
L 3078 1409 
Q 2863 1847 2711 1967 
Q 2559 2088 2291 2088 
L 2100 2088 
L 2100 378 
L 2700 378 
L 2700 0 
L 300 0 
L 300 378 
L 897 378 
L 897 4288 
L 300 4288 
L 300 4666 
L 2963 4666 
Q 3775 4666 4217 4339 
Q 4659 4013 4659 3413 
Q 4659 2925 4345 2642 
Q 4031 2359 3397 2278 
z
M 2100 2463 
L 2509 2463 
Q 2947 2463 3183 2700 
Q 3419 2938 3419 3378 
Q 3419 3819 3183 4053 
Q 2947 4288 2509 4288 
L 2100 4288 
L 2100 2463 
z
" transform="scale(0.015625)"/>
      <path id="DejaVuSerif-Bold-77" d="M 3450 3322 
L 4206 1106 
L 4831 2944 
L 4397 2944 
L 4397 3322 
L 5638 3322 
L 5638 2944 
L 5247 2944 
L 4244 0 
L 3481 0 
L 2778 2081 
L 2069 0 
L 1313 0 
L 306 2944 
L -56 2944 
L -56 3322 
L 1825 3322 
L 1825 2944 
L 1434 2944 
L 2047 1147 
L 2791 3322 
L 3450 3322 
z
" transform="scale(0.015625)"/>
      <path id="DejaVuSerif-Bold-64" d="M 2747 1497 
L 2747 1825 
Q 2747 2406 2597 2665 
Q 2447 2925 2119 2925 
Q 1775 2925 1636 2651 
Q 1497 2378 1497 1663 
Q 1497 947 1637 672 
Q 1778 397 2119 397 
Q 2447 397 2597 656 
Q 2747 916 2747 1497 
z
M 3853 378 
L 4325 378 
L 4325 0 
L 2747 0 
L 2747 422 
Q 2606 163 2367 36 
Q 2128 -91 1778 -91 
Q 1072 -91 667 378 
Q 263 847 263 1663 
Q 263 2481 667 2947 
Q 1072 3413 1778 3413 
Q 2128 3413 2367 3286 
Q 2606 3159 2747 2900 
L 2747 4488 
L 2272 4488 
L 2272 4863 
L 3853 4863 
L 3853 378 
z
" transform="scale(0.015625)"/>
      <path id="DejaVuSerif-Bold-43" d="M 4769 1331 
Q 4584 609 4106 259 
Q 3628 -91 2822 -91 
Q 1641 -91 955 561 
Q 269 1213 269 2328 
Q 269 3447 955 4098 
Q 1641 4750 2822 4750 
Q 3238 4750 3688 4650 
Q 4138 4550 4641 4347 
L 4641 3200 
L 4244 3200 
Q 4122 3788 3800 4080 
Q 3478 4372 2950 4372 
Q 2269 4372 1937 3870 
Q 1606 3369 1606 2328 
Q 1606 1288 1937 788 
Q 2269 288 2956 288 
Q 3422 288 3717 547 
Q 4013 806 4147 1331 
L 4769 1331 
z
" transform="scale(0.015625)"/>
      <path id="DejaVuSerif-Bold-75" d="M 3963 3322 
L 3963 378 
L 4434 378 
L 4434 0 
L 2853 0 
L 2853 469 
Q 2656 172 2400 40 
Q 2144 -91 1753 -91 
Q 1194 -91 908 239 
Q 622 569 622 1209 
L 622 2944 
L 147 2944 
L 147 3322 
L 1728 3322 
L 1728 1381 
Q 1728 763 1831 595 
Q 1934 428 2209 428 
Q 2544 428 2698 675 
Q 2853 922 2853 1459 
L 2853 2944 
L 2450 2944 
L 2450 3322 
L 3963 3322 
z
" transform="scale(0.015625)"/>
      <path id="DejaVuSerif-Bold-70" d="M 1728 1825 
L 1728 1497 
Q 1728 916 1876 656 
Q 2025 397 2356 397 
Q 2697 397 2836 672 
Q 2975 947 2975 1663 
Q 2975 2378 2836 2651 
Q 2697 2925 2356 2925 
Q 2025 2925 1876 2665 
Q 1728 2406 1728 1825 
z
M 622 2944 
L 147 2944 
L 147 3322 
L 1728 3322 
L 1728 2900 
Q 1869 3159 2106 3286 
Q 2344 3413 2694 3413 
Q 3403 3413 3811 2945 
Q 4219 2478 4219 1663 
Q 4219 847 3811 378 
Q 3403 -91 2694 -91 
Q 2344 -91 2106 36 
Q 1869 163 1728 422 
L 1728 -953 
L 2241 -953 
L 2241 -1331 
L 147 -1331 
L 147 -953 
L 622 -953 
L 622 2944 
z
" transform="scale(0.015625)"/>
     </defs>
     <use xlink:href="#DejaVuSerif-Bold-52"/>
     <use xlink:href="#DejaVuSerif-Bold-65" transform="translate(83.105469 0)"/>
     <use xlink:href="#DejaVuSerif-Bold-77" transform="translate(146.728516 0)"/>
     <use xlink:href="#DejaVuSerif-Bold-61" transform="translate(232.8125 0)"/>
     <use xlink:href="#DejaVuSerif-Bold-72" transform="translate(297.607422 0)"/>
     <use xlink:href="#DejaVuSerif-Bold-64" transform="translate(350.292969 0)"/>
     <use xlink:href="#DejaVuSerif-Bold-20" transform="translate(420.214844 0)"/>
     <use xlink:href="#DejaVuSerif-Bold-43" transform="translate(455.029297 0)"/>
     <use xlink:href="#DejaVuSerif-Bold-6f" transform="translate(534.619141 0)"/>
     <use xlink:href="#DejaVuSerif-Bold-72" transform="translate(601.318359 0)"/>
     <use xlink:href="#DejaVuSerif-Bold-72" transform="translate(654.003906 0)"/>
     <use xlink:href="#DejaVuSerif-Bold-75" transform="translate(706.689453 0)"/>
     <use xlink:href="#DejaVuSerif-Bold-70" transform="translate(779.394531 0)"/>
     <use xlink:href="#DejaVuSerif-Bold-74" transform="translate(849.316406 0)"/>
     <use xlink:href="#DejaVuSerif-Bold-69" transform="translate(895.507812 0)"/>
     <use xlink:href="#DejaVuSerif-Bold-6f" transform="translate(933.496094 0)"/>
     <use xlink:href="#DejaVuSerif-Bold-6e" transform="translate(1000.195312 0)"/>
    </g>
   </g>
  </g>
  <g id="axes_3">
   <g id="patch_8">
    <path d="M 46.499063 479.58 
L 372.407472 479.58 
L 372.407472 292.13 
L 46.499063 292.13 
z
" style="fill: #ffffff"/>
   </g>
   <g id="matplotlib.axis_5">
    <g id="xtick_7">
     <g id="line2d_26">
      <path d="M 61.313081 479.58 
L 61.313081 292.13 
" clip-path="url(#pdc421844ea)" style="fill: none; stroke: #cccccc; stroke-opacity: 0.25; stroke-width: 0.8; stroke-linecap: round"/>
     </g>
     <g id="text_17">
      <!-- Low -->
      <g style="fill: #262626" transform="translate(51.76394 494.718594) scale(0.09 -0.09)">
       <defs>
        <path id="DejaVuSerif-4c" d="M 353 0 
L 353 331 
L 947 331 
L 947 4331 
L 353 4331 
L 353 4666 
L 2175 4666 
L 2175 4331 
L 1581 4331 
L 1581 384 
L 3713 384 
L 3713 1166 
L 4097 1166 
L 4097 0 
L 353 0 
z
" transform="scale(0.015625)"/>
        <path id="DejaVuSerif-77" d="M 3072 3322 
L 3922 728 
L 4672 2988 
L 4191 2988 
L 4191 3322 
L 5394 3322 
L 5394 2988 
L 5025 2988 
L 4038 0 
L 3559 0 
L 2741 2484 
L 1919 0 
L 1459 0 
L 475 2988 
L 103 2988 
L 103 3322 
L 1606 3322 
L 1606 2988 
L 1069 2988 
L 1813 728 
L 2669 3322 
L 3072 3322 
z
" transform="scale(0.015625)"/>
       </defs>
       <use xlink:href="#DejaVuSerif-4c"/>
       <use xlink:href="#DejaVuSerif-6f" transform="translate(66.40625 0)"/>
       <use xlink:href="#DejaVuSerif-77" transform="translate(126.611328 0)"/>
      </g>
     </g>
    </g>
    <g id="xtick_8">
     <g id="line2d_27">
      <path d="M 209.453267 479.58 
L 209.453267 292.13 
" clip-path="url(#pdc421844ea)" style="fill: none; stroke: #cccccc; stroke-opacity: 0.25; stroke-width: 0.8; stroke-linecap: round"/>
     </g>
     <g id="text_18">
      <!-- Med -->
      <g style="fill: #262626" transform="translate(199.301548 494.718594) scale(0.09 -0.09)">
       <defs>
        <path id="DejaVuSerif-4d" d="M 353 0 
L 353 331 
L 947 331 
L 947 4331 
L 319 4331 
L 319 4666 
L 1678 4666 
L 3316 1344 
L 4953 4666 
L 6228 4666 
L 6228 4331 
L 5606 4331 
L 5606 331 
L 6203 331 
L 6203 0 
L 4378 0 
L 4378 331 
L 4972 331 
L 4972 3938 
L 3372 684 
L 2931 684 
L 1331 3938 
L 1331 331 
L 1925 331 
L 1925 0 
L 353 0 
z
" transform="scale(0.015625)"/>
       </defs>
       <use xlink:href="#DejaVuSerif-4d"/>
       <use xlink:href="#DejaVuSerif-65" transform="translate(102.392578 0)"/>
       <use xlink:href="#DejaVuSerif-64" transform="translate(161.572266 0)"/>
      </g>
     </g>
    </g>
    <g id="xtick_9">
     <g id="line2d_28">
      <path d="M 357.593453 479.58 
L 357.593453 292.13 
" clip-path="url(#pdc421844ea)" style="fill: none; stroke: #cccccc; stroke-opacity: 0.25; stroke-width: 0.8; stroke-linecap: round"/>
     </g>
     <g id="text_19">
      <!-- High -->
      <g style="fill: #262626" transform="translate(346.451031 494.718594) scale(0.09 -0.09)">
       <defs>
        <path id="DejaVuSerif-68" d="M 263 0 
L 263 331 
L 781 331 
L 781 4531 
L 231 4531 
L 231 4863 
L 1356 4863 
L 1356 2731 
Q 1516 3069 1770 3241 
Q 2025 3413 2363 3413 
Q 2913 3413 3172 3097 
Q 3431 2781 3431 2113 
L 3431 331 
L 3944 331 
L 3944 0 
L 2356 0 
L 2356 331 
L 2853 331 
L 2853 1931 
Q 2853 2541 2704 2764 
Q 2556 2988 2175 2988 
Q 1775 2988 1565 2697 
Q 1356 2406 1356 1850 
L 1356 331 
L 1856 331 
L 1856 0 
L 263 0 
z
" transform="scale(0.015625)"/>
       </defs>
       <use xlink:href="#DejaVuSerif-48"/>
       <use xlink:href="#DejaVuSerif-69" transform="translate(87.207031 0)"/>
       <use xlink:href="#DejaVuSerif-67" transform="translate(119.189453 0)"/>
       <use xlink:href="#DejaVuSerif-68" transform="translate(183.203125 0)"/>
      </g>
     </g>
    </g>
    <g id="text_20">
     <!-- Stress severity -->
     <g style="fill: #262626" transform="translate(171.816548 508.174531) scale(0.1 -0.1)">
      <use xlink:href="#DejaVuSerif-53"/>
      <use xlink:href="#DejaVuSerif-74" transform="translate(68.505859 0)"/>
      <use xlink:href="#DejaVuSerif-72" transform="translate(108.691406 0)"/>
      <use xlink:href="#DejaVuSerif-65" transform="translate(156.494141 0)"/>
      <use xlink:href="#DejaVuSerif-73" transform="translate(215.673828 0)"/>
      <use xlink:href="#DejaVuSerif-73" transform="translate(266.992188 0)"/>
      <use xlink:href="#DejaVuSerif-20" transform="translate(318.310547 0)"/>
      <use xlink:href="#DejaVuSerif-73" transform="translate(350.097656 0)"/>
      <use xlink:href="#DejaVuSerif-65" transform="translate(401.416016 0)"/>
      <use xlink:href="#DejaVuSerif-76" transform="translate(460.595703 0)"/>
      <use xlink:href="#DejaVuSerif-65" transform="translate(517.089844 0)"/>
      <use xlink:href="#DejaVuSerif-72" transform="translate(576.269531 0)"/>
      <use xlink:href="#DejaVuSerif-69" transform="translate(624.072266 0)"/>
      <use xlink:href="#DejaVuSerif-74" transform="translate(656.054688 0)"/>
      <use xlink:href="#DejaVuSerif-79" transform="translate(696.240234 0)"/>
     </g>
    </g>
   </g>
   <g id="matplotlib.axis_6">
    <g id="ytick_11">
     <g id="line2d_29">
      <path d="M 46.499063 453.808506 
L 372.407472 453.808506 
" clip-path="url(#pdc421844ea)" style="fill: none; stroke: #cccccc; stroke-opacity: 0.25; stroke-width: 0.8; stroke-linecap: round"/>
     </g>
     <g id="text_21">
      <!-- 0 -->
      <g style="fill: #262626" transform="translate(32.472813 457.227803) scale(0.09 -0.09)">
       <use xlink:href="#DejaVuSerif-30"/>
      </g>
     </g>
    </g>
    <g id="ytick_12">
     <g id="line2d_30">
      <path d="M 46.499063 416.640201 
L 372.407472 416.640201 
" clip-path="url(#pdc421844ea)" style="fill: none; stroke: #cccccc; stroke-opacity: 0.25; stroke-width: 0.8; stroke-linecap: round"/>
     </g>
     <g id="text_22">
      <!-- 100 -->
      <g style="fill: #262626" transform="translate(21.020313 420.059498) scale(0.09 -0.09)">
       <use xlink:href="#DejaVuSerif-31"/>
       <use xlink:href="#DejaVuSerif-30" transform="translate(63.623047 0)"/>
       <use xlink:href="#DejaVuSerif-30" transform="translate(127.246094 0)"/>
      </g>
     </g>
    </g>
    <g id="ytick_13">
     <g id="line2d_31">
      <path d="M 46.499063 379.471896 
L 372.407472 379.471896 
" clip-path="url(#pdc421844ea)" style="fill: none; stroke: #cccccc; stroke-opacity: 0.25; stroke-width: 0.8; stroke-linecap: round"/>
     </g>
     <g id="text_23">
      <!-- 200 -->
      <g style="fill: #262626" transform="translate(21.020313 382.891193) scale(0.09 -0.09)">
       <use xlink:href="#DejaVuSerif-32"/>
       <use xlink:href="#DejaVuSerif-30" transform="translate(63.623047 0)"/>
       <use xlink:href="#DejaVuSerif-30" transform="translate(127.246094 0)"/>
      </g>
     </g>
    </g>
    <g id="ytick_14">
     <g id="line2d_32">
      <path d="M 46.499063 342.303591 
L 372.407472 342.303591 
" clip-path="url(#pdc421844ea)" style="fill: none; stroke: #cccccc; stroke-opacity: 0.25; stroke-width: 0.8; stroke-linecap: round"/>
     </g>
     <g id="text_24">
      <!-- 300 -->
      <g style="fill: #262626" transform="translate(21.020313 345.722887) scale(0.09 -0.09)">
       <use xlink:href="#DejaVuSerif-33"/>
       <use xlink:href="#DejaVuSerif-30" transform="translate(63.623047 0)"/>
       <use xlink:href="#DejaVuSerif-30" transform="translate(127.246094 0)"/>
      </g>
     </g>
    </g>
    <g id="ytick_15">
     <g id="line2d_33">
      <path d="M 46.499063 305.135285 
L 372.407472 305.135285 
" clip-path="url(#pdc421844ea)" style="fill: none; stroke: #cccccc; stroke-opacity: 0.25; stroke-width: 0.8; stroke-linecap: round"/>
     </g>
     <g id="text_25">
      <!-- 400 -->
      <g style="fill: #262626" transform="translate(21.020313 308.554582) scale(0.09 -0.09)">
       <use xlink:href="#DejaVuSerif-34"/>
       <use xlink:href="#DejaVuSerif-30" transform="translate(63.623047 0)"/>
       <use xlink:href="#DejaVuSerif-30" transform="translate(127.246094 0)"/>
      </g>
     </g>
    </g>
    <g id="text_26">
     <!-- Degradation vs clean (%) -->
     <g style="fill: #262626" transform="translate(14.798438 449.78625) rotate(-90) scale(0.1 -0.1)">
      <use xlink:href="#DejaVuSerif-44"/>
      <use xlink:href="#DejaVuSerif-65" transform="translate(80.175781 0)"/>
      <use xlink:href="#DejaVuSerif-67" transform="translate(139.355469 0)"/>
      <use xlink:href="#DejaVuSerif-72" transform="translate(203.369141 0)"/>
      <use xlink:href="#DejaVuSerif-61" transform="translate(251.171875 0)"/>
      <use xlink:href="#DejaVuSerif-64" transform="translate(310.791016 0)"/>
      <use xlink:href="#DejaVuSerif-61" transform="translate(374.804688 0)"/>
      <use xlink:href="#DejaVuSerif-74" transform="translate(434.423828 0)"/>
      <use xlink:href="#DejaVuSerif-69" transform="translate(474.609375 0)"/>
      <use xlink:href="#DejaVuSerif-6f" transform="translate(506.591797 0)"/>
      <use xlink:href="#DejaVuSerif-6e" transform="translate(566.796875 0)"/>
      <use xlink:href="#DejaVuSerif-20" transform="translate(631.201172 0)"/>
      <use xlink:href="#DejaVuSerif-76" transform="translate(662.988281 0)"/>
      <use xlink:href="#DejaVuSerif-73" transform="translate(719.482422 0)"/>
      <use xlink:href="#DejaVuSerif-20" transform="translate(770.800781 0)"/>
      <use xlink:href="#DejaVuSerif-63" transform="translate(802.587891 0)"/>
      <use xlink:href="#DejaVuSerif-6c" transform="translate(858.59375 0)"/>
      <use xlink:href="#DejaVuSerif-65" transform="translate(890.576172 0)"/>
      <use xlink:href="#DejaVuSerif-61" transform="translate(949.755859 0)"/>
      <use xlink:href="#DejaVuSerif-6e" transform="translate(1009.375 0)"/>
      <use xlink:href="#DejaVuSerif-20" transform="translate(1073.779297 0)"/>
      <use xlink:href="#DejaVuSerif-28" transform="translate(1105.566406 0)"/>
      <use xlink:href="#DejaVuSerif-25" transform="translate(1144.580078 0)"/>
      <use xlink:href="#DejaVuSerif-29" transform="translate(1239.599609 0)"/>
     </g>
    </g>
   </g>
   <g id="FillBetweenPolyCollection_7">
    <defs>
     <path id="m35f69e2469" d="M 61.313081 -61.092973 
L 61.313081 -53.701159 
L 209.453267 -65.512753 
L 357.593453 -79.61149 
L 357.593453 -110.944466 
L 357.593453 -110.944466 
L 209.453267 -89.124035 
L 61.313081 -61.092973 
z
" style="stroke: #d55e00; stroke-opacity: 0.16; stroke-width: 0.8"/>
    </defs>
    <g clip-path="url(#pdc421844ea)">
     <use xlink:href="#m35f69e2469" x="0" y="517.596406" style="fill: #d55e00; fill-opacity: 0.16; stroke: #d55e00; stroke-opacity: 0.16; stroke-width: 0.8"/>
    </g>
   </g>
   <g id="FillBetweenPolyCollection_8">
    <defs>
     <path id="m437babd3ca" d="M 61.313081 -49.281031 
L 61.313081 -46.536861 
L 209.453267 -71.002761 
L 357.593453 -98.688811 
L 357.593453 -103.301244 
L 357.593453 -103.301244 
L 209.453267 -77.927881 
L 61.313081 -49.281031 
z
" style="stroke: #0173b2; stroke-opacity: 0.16; stroke-width: 0.8"/>
    </defs>
    <g clip-path="url(#pdc421844ea)">
     <use xlink:href="#m437babd3ca" x="0" y="517.596406" style="fill: #0173b2; fill-opacity: 0.16; stroke: #0173b2; stroke-opacity: 0.16; stroke-width: 0.8"/>
    </g>
   </g>
   <g id="FillBetweenPolyCollection_9">
    <defs>
     <path id="m363492bd0d" d="M 61.313081 -74.46627 
L 61.313081 -68.071275 
L 209.453267 -102.446857 
L 357.593453 -134.664616 
L 357.593453 -144.456592 
L 357.593453 -144.456592 
L 209.453267 -111.308997 
L 61.313081 -74.46627 
z
" style="stroke: #029e73; stroke-opacity: 0.16; stroke-width: 0.8"/>
    </defs>
    <g clip-path="url(#pdc421844ea)">
     <use xlink:href="#m363492bd0d" x="0" y="517.596406" style="fill: #029e73; fill-opacity: 0.16; stroke: #029e73; stroke-opacity: 0.16; stroke-width: 0.8"/>
    </g>
   </g>
   <g id="line2d_34">
    <path d="M 61.313081 460.143916 
L 209.453267 440.125853 
L 357.593453 421.953679 
" clip-path="url(#pdc421844ea)" style="fill: none; stroke: #d55e00; stroke-width: 2.2; stroke-linecap: round"/>
    <g clip-path="url(#pdc421844ea)">
     <use xlink:href="#m04af7e1b5e" x="61.313081" y="460.143916" style="fill: #d55e00; stroke: #d55e00"/>
     <use xlink:href="#m04af7e1b5e" x="209.453267" y="440.125853" style="fill: #d55e00; stroke: #d55e00"/>
     <use xlink:href="#m04af7e1b5e" x="357.593453" y="421.953679" style="fill: #d55e00; stroke: #d55e00"/>
    </g>
   </g>
   <g id="line2d_35">
    <path d="M 61.313081 469.750177 
L 209.453267 443.229361 
L 357.593453 416.601468 
" clip-path="url(#pdc421844ea)" style="fill: none; stroke: #0173b2; stroke-width: 2.2; stroke-linecap: round"/>
    <g clip-path="url(#pdc421844ea)">
     <use xlink:href="#m0898fd4729" x="61.313081" y="469.750177" style="fill: #0173b2; stroke: #0173b2"/>
     <use xlink:href="#m0898fd4729" x="209.453267" y="443.229361" style="fill: #0173b2; stroke: #0173b2"/>
     <use xlink:href="#m0898fd4729" x="357.593453" y="416.601468" style="fill: #0173b2; stroke: #0173b2"/>
    </g>
   </g>
   <g id="line2d_36">
    <path d="M 61.313081 446.417974 
L 209.453267 410.766451 
L 357.593453 378.219898 
" clip-path="url(#pdc421844ea)" style="fill: none; stroke: #029e73; stroke-width: 2.2; stroke-linecap: round"/>
    <g clip-path="url(#pdc421844ea)">
     <use xlink:href="#m9ee69a33b4" x="61.313081" y="446.417974" style="fill: #029e73; stroke: #029e73"/>
     <use xlink:href="#m9ee69a33b4" x="209.453267" y="410.766451" style="fill: #029e73; stroke: #029e73"/>
     <use xlink:href="#m9ee69a33b4" x="357.593453" y="378.219898" style="fill: #029e73; stroke: #029e73"/>
    </g>
   </g>
   <g id="patch_9">
    <path d="M 46.499063 479.58 
L 46.499063 292.13 
" style="fill: none; stroke: #cccccc; stroke-width: 0.8; stroke-linejoin: miter; stroke-linecap: square"/>
   </g>
   <g id="patch_10">
    <path d="M 46.499063 479.58 
L 372.407472 479.58 
" style="fill: none; stroke: #cccccc; stroke-width: 0.8; stroke-linejoin: miter; stroke-linecap: square"/>
   </g>
   <g id="text_27">
    <!-- C -->
    <g style="fill: #262626" transform="translate(7.390053 286.252125) scale(0.12 -0.12)">
     <use xlink:href="#DejaVuSerif-Bold-43"/>
    </g>
   </g>
   <g id="text_28">
    <!-- Distribution Shift -->
    <g style="fill: #262626" transform="translate(154.949126 286.13) scale(0.11 -0.11)">
     <defs>
      <path id="DejaVuSerif-Bold-44" d="M 2100 378 
L 2534 378 
Q 3266 378 3605 847 
Q 3944 1316 3944 2338 
Q 3944 3353 3606 3820 
Q 3269 4288 2534 4288 
L 2100 4288 
L 2100 378 
z
M 300 0 
L 300 378 
L 897 378 
L 897 4288 
L 300 4288 
L 300 4666 
L 2694 4666 
Q 3950 4666 4615 4066 
Q 5281 3466 5281 2338 
Q 5281 1203 4614 601 
Q 3947 0 2694 0 
L 300 0 
z
" transform="scale(0.015625)"/>
      <path id="DejaVuSerif-Bold-53" d="M 494 225 
L 494 1331 
L 891 1331 
Q 981 806 1318 547 
Q 1656 288 2253 288 
Q 2738 288 2991 472 
Q 3244 656 3244 1013 
Q 3244 1294 3072 1450 
Q 2900 1606 2363 1741 
L 1663 1913 
Q 978 2088 700 2398 
Q 422 2709 422 3284 
Q 422 3978 883 4364 
Q 1344 4750 2175 4750 
Q 2584 4750 3026 4681 
Q 3469 4613 3944 4475 
L 3944 3444 
L 3547 3444 
Q 3456 3925 3150 4148 
Q 2844 4372 2278 4372 
Q 1816 4372 1580 4211 
Q 1344 4050 1344 3731 
Q 1344 3441 1506 3289 
Q 1669 3138 2303 2975 
L 3003 2803 
Q 3653 2641 3945 2297 
Q 4238 1953 4238 1350 
Q 4238 644 3750 276 
Q 3263 -91 2316 -91 
Q 1859 -91 1409 -12 
Q 959 66 494 225 
z
" transform="scale(0.015625)"/>
      <path id="DejaVuSerif-Bold-68" d="M 219 0 
L 219 378 
L 691 378 
L 691 4488 
L 197 4488 
L 197 4863 
L 1797 4863 
L 1797 2853 
Q 1997 3150 2253 3281 
Q 2509 3413 2900 3413 
Q 3459 3413 3745 3083 
Q 4031 2753 4031 2113 
L 4031 378 
L 4506 378 
L 4506 0 
L 2522 0 
L 2522 378 
L 2925 378 
L 2925 2144 
Q 2925 2566 2817 2730 
Q 2709 2894 2444 2894 
Q 2109 2894 1953 2648 
Q 1797 2403 1797 1869 
L 1797 378 
L 2203 378 
L 2203 0 
L 219 0 
z
" transform="scale(0.015625)"/>
      <path id="DejaVuSerif-Bold-66" d="M 3097 4031 
L 2747 4031 
Q 2722 4275 2605 4394 
Q 2488 4513 2272 4513 
Q 2022 4513 1909 4333 
Q 1797 4153 1797 3750 
L 1797 3322 
L 2631 3322 
L 2631 2944 
L 1797 2944 
L 1797 378 
L 2438 378 
L 2438 0 
L 219 0 
L 219 378 
L 691 378 
L 691 2944 
L 197 2944 
L 197 3322 
L 691 3322 
L 691 3738 
Q 691 4291 1044 4577 
Q 1397 4863 2081 4863 
Q 2347 4863 2600 4833 
Q 2853 4803 3097 4744 
L 3097 4031 
z
" transform="scale(0.015625)"/>
     </defs>
     <use xlink:href="#DejaVuSerif-Bold-44"/>
     <use xlink:href="#DejaVuSerif-Bold-69" transform="translate(86.71875 0)"/>
     <use xlink:href="#DejaVuSerif-Bold-73" transform="translate(124.707031 0)"/>
     <use xlink:href="#DejaVuSerif-Bold-74" transform="translate(181.005859 0)"/>
     <use xlink:href="#DejaVuSerif-Bold-72" transform="translate(227.197266 0)"/>
     <use xlink:href="#DejaVuSerif-Bold-69" transform="translate(279.882812 0)"/>
     <use xlink:href="#DejaVuSerif-Bold-62" transform="translate(317.871094 0)"/>
     <use xlink:href="#DejaVuSerif-Bold-75" transform="translate(387.792969 0)"/>
     <use xlink:href="#DejaVuSerif-Bold-74" transform="translate(460.498047 0)"/>
     <use xlink:href="#DejaVuSerif-Bold-69" transform="translate(506.689453 0)"/>
     <use xlink:href="#DejaVuSerif-Bold-6f" transform="translate(544.677734 0)"/>
     <use xlink:href="#DejaVuSerif-Bold-6e" transform="translate(611.376953 0)"/>
     <use xlink:href="#DejaVuSerif-Bold-20" transform="translate(684.082031 0)"/>
     <use xlink:href="#DejaVuSerif-Bold-53" transform="translate(718.896484 0)"/>
     <use xlink:href="#DejaVuSerif-Bold-68" transform="translate(791.113281 0)"/>
     <use xlink:href="#DejaVuSerif-Bold-69" transform="translate(863.818359 0)"/>
     <use xlink:href="#DejaVuSerif-Bold-66" transform="translate(901.806641 0)"/>
     <use xlink:href="#DejaVuSerif-Bold-74" transform="translate(944.824219 0)"/>
    </g>
   </g>
  </g>
  <g id="axes_4">
   <g id="patch_11">
    <path d="M 415.165653 479.58 
L 741.074062 479.58 
L 741.074062 292.13 
L 415.165653 292.13 
z
" style="fill: #ffffff"/>
   </g>
   <g id="matplotlib.axis_7">
    <g id="xtick_10">
     <g id="line2d_37">
      <path d="M 429.979672 479.58 
L 429.979672 292.13 
" clip-path="url(#pb8f4dd9878)" style="fill: none; stroke: #cccccc; stroke-opacity: 0.25; stroke-width: 0.8; stroke-linecap: round"/>
     </g>
     <g id="text_29">
      <!-- Low -->
      <g style="fill: #262626" transform="translate(420.430531 494.718594) scale(0.09 -0.09)">
       <use xlink:href="#DejaVuSerif-4c"/>
       <use xlink:href="#DejaVuSerif-6f" transform="translate(66.40625 0)"/>
       <use xlink:href="#DejaVuSerif-77" transform="translate(126.611328 0)"/>
      </g>
     </g>
    </g>
    <g id="xtick_11">
     <g id="line2d_38">
      <path d="M 578.119858 479.58 
L 578.119858 292.13 
" clip-path="url(#pb8f4dd9878)" style="fill: none; stroke: #cccccc; stroke-opacity: 0.25; stroke-width: 0.8; stroke-linecap: round"/>
     </g>
     <g id="text_30">
      <!-- Med -->
      <g style="fill: #262626" transform="translate(567.968139 494.718594) scale(0.09 -0.09)">
       <use xlink:href="#DejaVuSerif-4d"/>
       <use xlink:href="#DejaVuSerif-65" transform="translate(102.392578 0)"/>
       <use xlink:href="#DejaVuSerif-64" transform="translate(161.572266 0)"/>
      </g>
     </g>
    </g>
    <g id="xtick_12">
     <g id="line2d_39">
      <path d="M 726.260044 479.58 
L 726.260044 292.13 
" clip-path="url(#pb8f4dd9878)" style="fill: none; stroke: #cccccc; stroke-opacity: 0.25; stroke-width: 0.8; stroke-linecap: round"/>
     </g>
     <g id="text_31">
      <!-- High -->
      <g style="fill: #262626" transform="translate(715.117622 494.718594) scale(0.09 -0.09)">
       <use xlink:href="#DejaVuSerif-48"/>
       <use xlink:href="#DejaVuSerif-69" transform="translate(87.207031 0)"/>
       <use xlink:href="#DejaVuSerif-67" transform="translate(119.189453 0)"/>
       <use xlink:href="#DejaVuSerif-68" transform="translate(183.203125 0)"/>
      </g>
     </g>
    </g>
    <g id="text_32">
     <!-- Stress severity -->
     <g style="fill: #262626" transform="translate(540.483139 508.174531) scale(0.1 -0.1)">
      <use xlink:href="#DejaVuSerif-53"/>
      <use xlink:href="#DejaVuSerif-74" transform="translate(68.505859 0)"/>
      <use xlink:href="#DejaVuSerif-72" transform="translate(108.691406 0)"/>
      <use xlink:href="#DejaVuSerif-65" transform="translate(156.494141 0)"/>
      <use xlink:href="#DejaVuSerif-73" transform="translate(215.673828 0)"/>
      <use xlink:href="#DejaVuSerif-73" transform="translate(266.992188 0)"/>
      <use xlink:href="#DejaVuSerif-20" transform="translate(318.310547 0)"/>
      <use xlink:href="#DejaVuSerif-73" transform="translate(350.097656 0)"/>
      <use xlink:href="#DejaVuSerif-65" transform="translate(401.416016 0)"/>
      <use xlink:href="#DejaVuSerif-76" transform="translate(460.595703 0)"/>
      <use xlink:href="#DejaVuSerif-65" transform="translate(517.089844 0)"/>
      <use xlink:href="#DejaVuSerif-72" transform="translate(576.269531 0)"/>
      <use xlink:href="#DejaVuSerif-69" transform="translate(624.072266 0)"/>
      <use xlink:href="#DejaVuSerif-74" transform="translate(656.054688 0)"/>
      <use xlink:href="#DejaVuSerif-79" transform="translate(696.240234 0)"/>
     </g>
    </g>
   </g>
   <g id="matplotlib.axis_8">
    <g id="ytick_16">
     <g id="line2d_40">
      <path d="M 415.165653 453.808506 
L 741.074062 453.808506 
" clip-path="url(#pb8f4dd9878)" style="fill: none; stroke: #cccccc; stroke-opacity: 0.25; stroke-width: 0.8; stroke-linecap: round"/>
     </g>
    </g>
    <g id="ytick_17">
     <g id="line2d_41">
      <path d="M 415.165653 416.640201 
L 741.074062 416.640201 
" clip-path="url(#pb8f4dd9878)" style="fill: none; stroke: #cccccc; stroke-opacity: 0.25; stroke-width: 0.8; stroke-linecap: round"/>
     </g>
    </g>
    <g id="ytick_18">
     <g id="line2d_42">
      <path d="M 415.165653 379.471896 
L 741.074062 379.471896 
" clip-path="url(#pb8f4dd9878)" style="fill: none; stroke: #cccccc; stroke-opacity: 0.25; stroke-width: 0.8; stroke-linecap: round"/>
     </g>
    </g>
    <g id="ytick_19">
     <g id="line2d_43">
      <path d="M 415.165653 342.303591 
L 741.074062 342.303591 
" clip-path="url(#pb8f4dd9878)" style="fill: none; stroke: #cccccc; stroke-opacity: 0.25; stroke-width: 0.8; stroke-linecap: round"/>
     </g>
    </g>
    <g id="ytick_20">
     <g id="line2d_44">
      <path d="M 415.165653 305.135285 
L 741.074062 305.135285 
" clip-path="url(#pb8f4dd9878)" style="fill: none; stroke: #cccccc; stroke-opacity: 0.25; stroke-width: 0.8; stroke-linecap: round"/>
     </g>
    </g>
    <g id="text_33">
     <!-- Degradation vs clean (%) -->
     <g style="fill: #262626" transform="translate(408.943778 449.78625) rotate(-90) scale(0.1 -0.1)">
      <use xlink:href="#DejaVuSerif-44"/>
      <use xlink:href="#DejaVuSerif-65" transform="translate(80.175781 0)"/>
      <use xlink:href="#DejaVuSerif-67" transform="translate(139.355469 0)"/>
      <use xlink:href="#DejaVuSerif-72" transform="translate(203.369141 0)"/>
      <use xlink:href="#DejaVuSerif-61" transform="translate(251.171875 0)"/>
      <use xlink:href="#DejaVuSerif-64" transform="translate(310.791016 0)"/>
      <use xlink:href="#DejaVuSerif-61" transform="translate(374.804688 0)"/>
      <use xlink:href="#DejaVuSerif-74" transform="translate(434.423828 0)"/>
      <use xlink:href="#DejaVuSerif-69" transform="translate(474.609375 0)"/>
      <use xlink:href="#DejaVuSerif-6f" transform="translate(506.591797 0)"/>
      <use xlink:href="#DejaVuSerif-6e" transform="translate(566.796875 0)"/>
      <use xlink:href="#DejaVuSerif-20" transform="translate(631.201172 0)"/>
      <use xlink:href="#DejaVuSerif-76" transform="translate(662.988281 0)"/>
      <use xlink:href="#DejaVuSerif-73" transform="translate(719.482422 0)"/>
      <use xlink:href="#DejaVuSerif-20" transform="translate(770.800781 0)"/>
      <use xlink:href="#DejaVuSerif-63" transform="translate(802.587891 0)"/>
      <use xlink:href="#DejaVuSerif-6c" transform="translate(858.59375 0)"/>
      <use xlink:href="#DejaVuSerif-65" transform="translate(890.576172 0)"/>
      <use xlink:href="#DejaVuSerif-61" transform="translate(949.755859 0)"/>
      <use xlink:href="#DejaVuSerif-6e" transform="translate(1009.375 0)"/>
      <use xlink:href="#DejaVuSerif-20" transform="translate(1073.779297 0)"/>
      <use xlink:href="#DejaVuSerif-28" transform="translate(1105.566406 0)"/>
      <use xlink:href="#DejaVuSerif-25" transform="translate(1144.580078 0)"/>
      <use xlink:href="#DejaVuSerif-29" transform="translate(1239.599609 0)"/>
     </g>
    </g>
   </g>
   <g id="FillBetweenPolyCollection_10">
    <defs>
     <path id="m6f20b61dbf" d="M 429.979672 -79.912747 
L 429.979672 -68.101417 
L 578.119858 -71.277162 
L 726.260044 -76.253377 
L 726.260044 -88.861016 
L 726.260044 -88.861016 
L 578.119858 -81.399711 
L 429.979672 -79.912747 
z
" style="stroke: #d55e00; stroke-opacity: 0.16; stroke-width: 0.8"/>
    </defs>
    <g clip-path="url(#pb8f4dd9878)">
     <use xlink:href="#m6f20b61dbf" x="0" y="517.596406" style="fill: #d55e00; fill-opacity: 0.16; stroke: #d55e00; stroke-opacity: 0.16; stroke-width: 0.8"/>
    </g>
   </g>
   <g id="FillBetweenPolyCollection_11">
    <defs>
     <path id="m01021a7266" d="M 429.979672 -89.121634 
L 429.979672 -88.125922 
L 578.119858 -95.673086 
L 726.260044 -103.262984 
L 726.260044 -104.353734 
L 726.260044 -104.353734 
L 578.119858 -97.085077 
L 429.979672 -89.121634 
z
" style="stroke: #0173b2; stroke-opacity: 0.16; stroke-width: 0.8"/>
    </defs>
    <g clip-path="url(#pb8f4dd9878)">
     <use xlink:href="#m01021a7266" x="0" y="517.596406" style="fill: #0173b2; fill-opacity: 0.16; stroke: #0173b2; stroke-opacity: 0.16; stroke-width: 0.8"/>
    </g>
   </g>
   <g id="FillBetweenPolyCollection_12">
    <defs>
     <path id="mc428ee3b18" d="M 429.979672 -100.174381 
L 429.979672 -86.200761 
L 578.119858 -85.697618 
L 726.260044 -90.095185 
L 726.260044 -96.224434 
L 726.260044 -96.224434 
L 578.119858 -91.812814 
L 429.979672 -100.174381 
z
" style="stroke: #029e73; stroke-opacity: 0.16; stroke-width: 0.8"/>
    </defs>
    <g clip-path="url(#pb8f4dd9878)">
     <use xlink:href="#mc428ee3b18" x="0" y="517.596406" style="fill: #029e73; fill-opacity: 0.16; stroke: #029e73; stroke-opacity: 0.16; stroke-width: 0.8"/>
    </g>
   </g>
   <g id="line2d_45">
    <path d="M 429.979672 444.116162 
L 578.119858 441.144895 
L 726.260044 434.587338 
" clip-path="url(#pb8f4dd9878)" style="fill: none; stroke: #d55e00; stroke-width: 2.2; stroke-linecap: round"/>
    <g clip-path="url(#pb8f4dd9878)">
     <use xlink:href="#m04af7e1b5e" x="429.979672" y="444.116162" style="fill: #d55e00; stroke: #d55e00"/>
     <use xlink:href="#m04af7e1b5e" x="578.119858" y="441.144895" style="fill: #d55e00; stroke: #d55e00"/>
     <use xlink:href="#m04af7e1b5e" x="726.260044" y="434.587338" style="fill: #d55e00; stroke: #d55e00"/>
    </g>
   </g>
   <g id="line2d_46">
    <path d="M 429.979672 428.936227 
L 578.119858 421.182626 
L 726.260044 413.785179 
" clip-path="url(#pb8f4dd9878)" style="fill: none; stroke: #0173b2; stroke-width: 2.2; stroke-linecap: round"/>
    <g clip-path="url(#pb8f4dd9878)">
     <use xlink:href="#m0898fd4729" x="429.979672" y="428.936227" style="fill: #0173b2; stroke: #0173b2"/>
     <use xlink:href="#m0898fd4729" x="578.119858" y="421.182626" style="fill: #0173b2; stroke: #0173b2"/>
     <use xlink:href="#m0898fd4729" x="726.260044" y="413.785179" style="fill: #0173b2; stroke: #0173b2"/>
    </g>
   </g>
   <g id="line2d_47">
    <path d="M 429.979672 424.419814 
L 578.119858 428.703027 
L 726.260044 424.295369 
" clip-path="url(#pb8f4dd9878)" style="fill: none; stroke: #029e73; stroke-width: 2.2; stroke-linecap: round"/>
    <g clip-path="url(#pb8f4dd9878)">
     <use xlink:href="#m9ee69a33b4" x="429.979672" y="424.419814" style="fill: #029e73; stroke: #029e73"/>
     <use xlink:href="#m9ee69a33b4" x="578.119858" y="428.703027" style="fill: #029e73; stroke: #029e73"/>
     <use xlink:href="#m9ee69a33b4" x="726.260044" y="424.295369" style="fill: #029e73; stroke: #029e73"/>
    </g>
   </g>
   <g id="patch_12">
    <path d="M 415.165653 479.58 
L 415.165653 292.13 
" style="fill: none; stroke: #cccccc; stroke-width: 0.8; stroke-linejoin: miter; stroke-linecap: square"/>
   </g>
   <g id="patch_13">
    <path d="M 415.165653 479.58 
L 741.074063 479.58 
" style="fill: none; stroke: #cccccc; stroke-width: 0.8; stroke-linejoin: miter; stroke-linecap: square"/>
   </g>
   <g id="text_34">
    <!-- D -->
    <g style="fill: #262626" transform="translate(376.056644 286.252125) scale(0.12 -0.12)">
     <use xlink:href="#DejaVuSerif-Bold-44"/>
    </g>
   </g>
   <g id="text_35">
    <!-- Co-tenant Interference -->
    <g style="fill: #262626" transform="translate(507.116577 286.13) scale(0.11 -0.11)">
     <defs>
      <path id="DejaVuSerif-Bold-2d" d="M 347 2138 
L 2309 2138 
L 2309 1294 
L 347 1294 
L 347 2138 
z
" transform="scale(0.015625)"/>
      <path id="DejaVuSerif-Bold-49" d="M 300 0 
L 300 378 
L 897 378 
L 897 4288 
L 300 4288 
L 300 4666 
L 2700 4666 
L 2700 4288 
L 2100 4288 
L 2100 378 
L 2700 378 
L 2700 0 
L 300 0 
z
" transform="scale(0.015625)"/>
      <path id="DejaVuSerif-Bold-63" d="M 3609 1038 
Q 3491 469 3123 189 
Q 2756 -91 2125 -91 
Q 1238 -91 750 368 
Q 263 828 263 1663 
Q 263 2488 744 2950 
Q 1225 3413 2081 3413 
Q 2428 3413 2781 3347 
Q 3134 3281 3500 3150 
L 3500 2228 
L 3150 2228 
Q 3100 2650 2903 2854 
Q 2706 3059 2350 3059 
Q 1888 3059 1692 2746 
Q 1497 2434 1497 1663 
Q 1497 909 1687 586 
Q 1878 263 2309 263 
Q 2644 263 2845 463 
Q 3047 663 3091 1038 
L 3609 1038 
z
" transform="scale(0.015625)"/>
     </defs>
     <use xlink:href="#DejaVuSerif-Bold-43"/>
     <use xlink:href="#DejaVuSerif-Bold-6f" transform="translate(79.589844 0)"/>
     <use xlink:href="#DejaVuSerif-Bold-2d" transform="translate(146.289062 0)"/>
     <use xlink:href="#DejaVuSerif-Bold-74" transform="translate(187.792969 0)"/>
     <use xlink:href="#DejaVuSerif-Bold-65" transform="translate(233.984375 0)"/>
     <use xlink:href="#DejaVuSerif-Bold-6e" transform="translate(297.607422 0)"/>
     <use xlink:href="#DejaVuSerif-Bold-61" transform="translate(370.3125 0)"/>
     <use xlink:href="#DejaVuSerif-Bold-6e" transform="translate(435.107422 0)"/>
     <use xlink:href="#DejaVuSerif-Bold-74" transform="translate(507.8125 0)"/>
     <use xlink:href="#DejaVuSerif-Bold-20" transform="translate(554.003906 0)"/>
     <use xlink:href="#DejaVuSerif-Bold-49" transform="translate(588.818359 0)"/>
     <use xlink:href="#DejaVuSerif-Bold-6e" transform="translate(635.595703 0)"/>
     <use xlink:href="#DejaVuSerif-Bold-74" transform="translate(708.300781 0)"/>
     <use xlink:href="#DejaVuSerif-Bold-65" transform="translate(754.492188 0)"/>
     <use xlink:href="#DejaVuSerif-Bold-72" transform="translate(818.115234 0)"/>
     <use xlink:href="#DejaVuSerif-Bold-66" transform="translate(870.800781 0)"/>
     <use xlink:href="#DejaVuSerif-Bold-65" transform="translate(913.818359 0)"/>
     <use xlink:href="#DejaVuSerif-Bold-72" transform="translate(977.441406 0)"/>
     <use xlink:href="#DejaVuSerif-Bold-65" transform="translate(1030.126953 0)"/>
     <use xlink:href="#DejaVuSerif-Bold-6e" transform="translate(1093.75 0)"/>
     <use xlink:href="#DejaVuSerif-Bold-63" transform="translate(1166.455078 0)"/>
     <use xlink:href="#DejaVuSerif-Bold-65" transform="translate(1227.34375 0)"/>
    </g>
   </g>
  </g>
  <g id="text_36">
   <!-- Robustness Degradation Across Orchestration-Like Stressors -->
   <g style="fill: #262626" transform="translate(167.721562 16.318125) scale(0.12 -0.12)">
    <defs>
     <path id="DejaVuSerif-Bold-67" d="M 3853 2944 
L 3853 44 
Q 3853 -656 3354 -1039 
Q 2856 -1422 1947 -1422 
Q 1616 -1422 1275 -1370 
Q 934 -1319 575 -1216 
L 575 -422 
L 928 -422 
Q 975 -750 1192 -909 
Q 1409 -1069 1813 -1069 
Q 2325 -1069 2536 -823 
Q 2747 -578 2747 44 
L 2747 422 
Q 2606 163 2367 36 
Q 2128 -91 1778 -91 
Q 1072 -91 667 378 
Q 263 847 263 1663 
Q 263 2481 667 2947 
Q 1072 3413 1778 3413 
Q 2128 3413 2367 3286 
Q 2606 3159 2747 2900 
L 2747 3322 
L 4325 3322 
L 4325 2944 
L 3853 2944 
z
M 2747 1825 
Q 2747 2406 2597 2665 
Q 2447 2925 2119 2925 
Q 1775 2925 1636 2651 
Q 1497 2378 1497 1663 
Q 1497 947 1637 672 
Q 1778 397 2119 397 
Q 2447 397 2597 656 
Q 2747 916 2747 1497 
L 2747 1825 
z
" transform="scale(0.015625)"/>
     <path id="DejaVuSerif-Bold-4c" d="M 300 0 
L 300 378 
L 897 378 
L 897 4288 
L 300 4288 
L 300 4666 
L 2700 4666 
L 2700 4288 
L 2100 4288 
L 2100 428 
L 3938 428 
L 3938 1166 
L 4359 1166 
L 4359 0 
L 300 0 
z
" transform="scale(0.015625)"/>
     <path id="DejaVuSerif-Bold-6b" d="M 2216 0 
L 219 0 
L 219 378 
L 691 378 
L 691 4488 
L 219 4488 
L 219 4863 
L 1797 4863 
L 1797 1741 
L 3138 2944 
L 2741 2944 
L 2741 3322 
L 4256 3322 
L 4256 2944 
L 3641 2944 
L 2784 2175 
L 4184 378 
L 4544 378 
L 4544 0 
L 2638 0 
L 2638 378 
L 3028 378 
L 2106 1563 
L 1797 1288 
L 1797 378 
L 2216 378 
L 2216 0 
z
" transform="scale(0.015625)"/>
    </defs>
    <use xlink:href="#DejaVuSerif-Bold-52"/>
    <use xlink:href="#DejaVuSerif-Bold-6f" transform="translate(83.105469 0)"/>
    <use xlink:href="#DejaVuSerif-Bold-62" transform="translate(149.804688 0)"/>
    <use xlink:href="#DejaVuSerif-Bold-75" transform="translate(219.726562 0)"/>
    <use xlink:href="#DejaVuSerif-Bold-73" transform="translate(292.431641 0)"/>
    <use xlink:href="#DejaVuSerif-Bold-74" transform="translate(348.730469 0)"/>
    <use xlink:href="#DejaVuSerif-Bold-6e" transform="translate(394.921875 0)"/>
    <use xlink:href="#DejaVuSerif-Bold-65" transform="translate(467.626953 0)"/>
    <use xlink:href="#DejaVuSerif-Bold-73" transform="translate(531.25 0)"/>
    <use xlink:href="#DejaVuSerif-Bold-73" transform="translate(587.548828 0)"/>
    <use xlink:href="#DejaVuSerif-Bold-20" transform="translate(643.847656 0)"/>
    <use xlink:href="#DejaVuSerif-Bold-44" transform="translate(678.662109 0)"/>
    <use xlink:href="#DejaVuSerif-Bold-65" transform="translate(765.380859 0)"/>
    <use xlink:href="#DejaVuSerif-Bold-67" transform="translate(829.003906 0)"/>
    <use xlink:href="#DejaVuSerif-Bold-72" transform="translate(898.925781 0)"/>
    <use xlink:href="#DejaVuSerif-Bold-61" transform="translate(951.611328 0)"/>
    <use xlink:href="#DejaVuSerif-Bold-64" transform="translate(1016.40625 0)"/>
    <use xlink:href="#DejaVuSerif-Bold-61" transform="translate(1086.328125 0)"/>
    <use xlink:href="#DejaVuSerif-Bold-74" transform="translate(1151.123047 0)"/>
    <use xlink:href="#DejaVuSerif-Bold-69" transform="translate(1197.314453 0)"/>
    <use xlink:href="#DejaVuSerif-Bold-6f" transform="translate(1235.302734 0)"/>
    <use xlink:href="#DejaVuSerif-Bold-6e" transform="translate(1302.001953 0)"/>
    <use xlink:href="#DejaVuSerif-Bold-20" transform="translate(1374.707031 0)"/>
    <use xlink:href="#DejaVuSerif-Bold-41" transform="translate(1409.521484 0)"/>
    <use xlink:href="#DejaVuSerif-Bold-63" transform="translate(1487.109375 0)"/>
    <use xlink:href="#DejaVuSerif-Bold-72" transform="translate(1547.998047 0)"/>
    <use xlink:href="#DejaVuSerif-Bold-6f" transform="translate(1600.683594 0)"/>
    <use xlink:href="#DejaVuSerif-Bold-73" transform="translate(1667.382812 0)"/>
    <use xlink:href="#DejaVuSerif-Bold-73" transform="translate(1723.681641 0)"/>
    <use xlink:href="#DejaVuSerif-Bold-20" transform="translate(1779.980469 0)"/>
    <use xlink:href="#DejaVuSerif-Bold-4f" transform="translate(1814.794922 0)"/>
    <use xlink:href="#DejaVuSerif-Bold-72" transform="translate(1901.904297 0)"/>
    <use xlink:href="#DejaVuSerif-Bold-63" transform="translate(1954.589844 0)"/>
    <use xlink:href="#DejaVuSerif-Bold-68" transform="translate(2015.478516 0)"/>
    <use xlink:href="#DejaVuSerif-Bold-65" transform="translate(2088.183594 0)"/>
    <use xlink:href="#DejaVuSerif-Bold-73" transform="translate(2151.806641 0)"/>
    <use xlink:href="#DejaVuSerif-Bold-74" transform="translate(2208.105469 0)"/>
    <use xlink:href="#DejaVuSerif-Bold-72" transform="translate(2254.296875 0)"/>
    <use xlink:href="#DejaVuSerif-Bold-61" transform="translate(2306.982422 0)"/>
    <use xlink:href="#DejaVuSerif-Bold-74" transform="translate(2371.777344 0)"/>
    <use xlink:href="#DejaVuSerif-Bold-69" transform="translate(2417.96875 0)"/>
    <use xlink:href="#DejaVuSerif-Bold-6f" transform="translate(2455.957031 0)"/>
    <use xlink:href="#DejaVuSerif-Bold-6e" transform="translate(2522.65625 0)"/>
    <use xlink:href="#DejaVuSerif-Bold-2d" transform="translate(2595.361328 0)"/>
    <use xlink:href="#DejaVuSerif-Bold-4c" transform="translate(2636.865234 0)"/>
    <use xlink:href="#DejaVuSerif-Bold-69" transform="translate(2707.177734 0)"/>
    <use xlink:href="#DejaVuSerif-Bold-6b" transform="translate(2745.166016 0)"/>
    <use xlink:href="#DejaVuSerif-Bold-65" transform="translate(2814.453125 0)"/>
    <use xlink:href="#DejaVuSerif-Bold-20" transform="translate(2878.076172 0)"/>
    <use xlink:href="#DejaVuSerif-Bold-53" transform="translate(2912.890625 0)"/>
    <use xlink:href="#DejaVuSerif-Bold-74" transform="translate(2985.107422 0)"/>
    <use xlink:href="#DejaVuSerif-Bold-72" transform="translate(3031.298828 0)"/>
    <use xlink:href="#DejaVuSerif-Bold-65" transform="translate(3083.984375 0)"/>
    <use xlink:href="#DejaVuSerif-Bold-73" transform="translate(3147.607422 0)"/>
    <use xlink:href="#DejaVuSerif-Bold-73" transform="translate(3203.90625 0)"/>
    <use xlink:href="#DejaVuSerif-Bold-6f" transform="translate(3260.205078 0)"/>
    <use xlink:href="#DejaVuSerif-Bold-72" transform="translate(3326.904297 0)"/>
    <use xlink:href="#DejaVuSerif-Bold-73" transform="translate(3379.589844 0)"/>
   </g>
  </g>
 </g>
 <defs>
  <clipPath id="p03eb5c9fc2">
   <rect x="46.499063" y="65.28" width="325.908409" height="187.45"/>
  </clipPath>
  <clipPath id="p4cfcd548d6">
   <rect x="415.165653" y="65.28" width="325.908409" height="187.45"/>
  </clipPath>
  <clipPath id="pdc421844ea">
   <rect x="46.499063" y="292.13" width="325.908409" height="187.45"/>
  </clipPath>
  <clipPath id="pb8f4dd9878">
   <rect x="415.165653" y="292.13" width="325.908409" height="187.45"/>
  </clipPath>
 </defs>
</svg>
