<?xml version="1.0" encoding="utf-8" standalone="no"?>
<!DOCTYPE svg PUBLIC "-//W3C//DTD SVG 1.1//EN"
  "http://www.w3.org/Graphics/SVG/1.1/DTD/svg11.dtd">
<svg xmlns:xlink="http://www.w3.org/1999/xlink" width="757.084403pt" height="585.148438pt" viewBox="0 0 757.084403 585.148438" xmlns="http://www.w3.org/2000/svg" version="1.1">
 <metadata>
  <rdf:RDF xmlns:dc="http://purl.org/dc/elements/1.1/" xmlns:cc="http://creativecommons.org/ns#" xmlns:rdf="http://www.w3.org/1999/02/22-rdf-syntax-ns#">
   <cc:Work>
    <dc:type rdf:resource="http://purl.org/dc/dcmitype/StillImage"/>
    <dc:date>2026-04-26T15:38:04.255011</dc:date>
    <dc:format>image/svg+xml</dc:format>
    <dc:creator>
     <cc:Agent>
      <dc:title>Matplotlib v3.10.9, https://matplotlib.org/</dc:title>
     </cc:Agent>
    </dc:creator>
   </cc:Work>
  </rdf:RDF>
 </metadata>
 <defs>
  <style type="text/css">*{stroke-linejoin: round; stroke-linecap: butt}</style>
 </defs>
 <g id="figure_1">
  <g id="patch_1">
   <path d="M 0 585.148438 
L 757.084403 585.148438 
L 757.084403 0 
L 0 0 
z
" style="fill: #ffffff"/>
  </g>
  <g id="axes_1">
   <g id="patch_2">
    <path d="M 86.388676 206.34 
L 746.294313 206.34 
L 746.294313 62.28 
L 86.388676 62.28 
z
" style="fill: #ffffff"/>
   </g>
   <g id="matplotlib.axis_1">
    <g id="xtick_1">
     <g id="line2d_1">
      <path d="M 116.384387 206.34 
L 116.384387 62.28 
" clip-path="url(#p6b70720a77)" style="fill: none; stroke: #cccccc; stroke-opacity: 0.25; stroke-width: 0.8; stroke-linecap: round"/>
     </g>
    </g>
    <g id="xtick_2">
     <g id="line2d_2">
      <path d="M 241.366515 206.34 
L 241.366515 62.28 
" clip-path="url(#p6b70720a77)" style="fill: none; stroke: #cccccc; stroke-opacity: 0.25; stroke-width: 0.8; stroke-linecap: round"/>
     </g>
    </g>
    <g id="xtick_3">
     <g id="line2d_3">
      <path d="M 366.348643 206.34 
L 366.348643 62.28 
" clip-path="url(#p6b70720a77)" style="fill: none; stroke: #cccccc; stroke-opacity: 0.25; stroke-width: 0.8; stroke-linecap: round"/>
     </g>
    </g>
    <g id="xtick_4">
     <g id="line2d_4">
      <path d="M 491.330771 206.34 
L 491.330771 62.28 
" clip-path="url(#p6b70720a77)" style="fill: none; stroke: #cccccc; stroke-opacity: 0.25; stroke-width: 0.8; stroke-linecap: round"/>
     </g>
    </g>
    <g id="xtick_5">
     <g id="line2d_5">
      <path d="M 616.3129 206.34 
L 616.3129 62.28 
" clip-path="url(#p6b70720a77)" style="fill: none; stroke: #cccccc; stroke-opacity: 0.25; stroke-width: 0.8; stroke-linecap: round"/>
     </g>
    </g>
    <g id="xtick_6">
     <g id="line2d_6">
      <path d="M 741.295028 206.34 
L 741.295028 62.28 
" clip-path="url(#p6b70720a77)" style="fill: none; stroke: #cccccc; stroke-opacity: 0.25; stroke-width: 0.8; stroke-linecap: round"/>
     </g>
    </g>
   </g>
   <g id="matplotlib.axis_2">
    <g id="ytick_1">
     <g id="line2d_7">
      <path d="M 86.388676 179.999652 
L 746.294313 179.999652 
" clip-path="url(#p6b70720a77)" style="fill: none; stroke: #cccccc; stroke-opacity: 0.25; stroke-width: 0.8; stroke-linecap: round"/>
     </g>
     <g id="text_1">
      <!-- 0.02 -->
      <g style="fill: #262626" transform="translate(58.049614 183.418949) scale(0.09 -0.09)">
       <defs>
        <path id="DejaVuSerif-30" d="M 2034 219 
Q 2513 219 2750 744 
Q 2988 1269 2988 2328 
Q 2988 3391 2750 3916 
Q 2513 4441 2034 4441 
Q 1556 4441 1318 3916 
Q 1081 3391 1081 2328 
Q 1081 1269 1318 744 
Q 1556 219 2034 219 
z
M 2034 -91 
Q 1275 -91 848 546 
Q 422 1184 422 2328 
Q 422 3475 848 4112 
Q 1275 4750 2034 4750 
Q 2797 4750 3222 4112 
Q 3647 3475 3647 2328 
Q 3647 1184 3222 546 
Q 2797 -91 2034 -91 
z
" transform="scale(0.015625)"/>
        <path id="DejaVuSerif-2e" d="M 603 325 
Q 603 500 722 622 
Q 841 744 1019 744 
Q 1191 744 1312 622 
Q 1434 500 1434 325 
Q 1434 153 1312 31 
Q 1191 -91 1019 -91 
Q 841 -91 722 29 
Q 603 150 603 325 
z
" transform="scale(0.015625)"/>
        <path id="DejaVuSerif-32" d="M 819 3553 
L 469 3553 
L 469 4384 
Q 803 4563 1142 4656 
Q 1481 4750 1806 4750 
Q 2534 4750 2956 4397 
Q 3378 4044 3378 3438 
Q 3378 2753 2422 1800 
Q 2347 1728 2309 1691 
L 1131 513 
L 3078 513 
L 3078 1088 
L 3444 1088 
L 3444 0 
L 434 0 
L 434 341 
L 1850 1753 
Q 2319 2222 2519 2614 
Q 2719 3006 2719 3438 
Q 2719 3909 2473 4175 
Q 2228 4441 1797 4441 
Q 1350 4441 1106 4219 
Q 863 3997 819 3553 
z
" transform="scale(0.015625)"/>
       </defs>
       <use xlink:href="#DejaVuSerif-30"/>
       <use xlink:href="#DejaVuSerif-2e" transform="translate(63.623047 0)"/>
       <use xlink:href="#DejaVuSerif-30" transform="translate(95.410156 0)"/>
       <use xlink:href="#DejaVuSerif-32" transform="translate(159.033203 0)"/>
      </g>
     </g>
    </g>
    <g id="ytick_2">
     <g id="line2d_8">
      <path d="M 86.388676 147.587292 
L 746.294313 147.587292 
" clip-path="url(#p6b70720a77)" style="fill: none; stroke: #cccccc; stroke-opacity: 0.25; stroke-width: 0.8; stroke-linecap: round"/>
     </g>
     <g id="text_2">
      <!-- 0.04 -->
      <g style="fill: #262626" transform="translate(58.049614 151.006589) scale(0.09 -0.09)">
       <defs>
        <path id="DejaVuSerif-34" d="M 2234 1581 
L 2234 4063 
L 641 1581 
L 2234 1581 
z
M 3609 0 
L 1484 0 
L 1484 331 
L 2234 331 
L 2234 1247 
L 197 1247 
L 197 1588 
L 2241 4750 
L 2859 4750 
L 2859 1581 
L 3750 1581 
L 3750 1247 
L 2859 1247 
L 2859 331 
L 3609 331 
L 3609 0 
z
" transform="scale(0.015625)"/>
       </defs>
       <use xlink:href="#DejaVuSerif-30"/>
       <use xlink:href="#DejaVuSerif-2e" transform="translate(63.623047 0)"/>
       <use xlink:href="#DejaVuSerif-30" transform="translate(95.410156 0)"/>
       <use xlink:href="#DejaVuSerif-34" transform="translate(159.033203 0)"/>
      </g>
     </g>
    </g>
    <g id="ytick_3">
     <g id="line2d_9">
      <path d="M 86.388676 115.174932 
L 746.294313 115.174932 
" clip-path="url(#p6b70720a77)" style="fill: none; stroke: #cccccc; stroke-opacity: 0.25; stroke-width: 0.8; stroke-linecap: round"/>
     </g>
     <g id="text_3">
      <!-- 0.06 -->
      <g style="fill: #262626" transform="translate(58.049614 118.594229) scale(0.09 -0.09)">
       <defs>
        <path id="DejaVuSerif-36" d="M 2094 219 
Q 2534 219 2771 542 
Q 3009 866 3009 1472 
Q 3009 2078 2771 2401 
Q 2534 2725 2094 2725 
Q 1647 2725 1412 2412 
Q 1178 2100 1178 1509 
Q 1178 888 1415 553 
Q 1653 219 2094 219 
z
M 1075 2569 
Q 1288 2803 1556 2918 
Q 1825 3034 2163 3034 
Q 2859 3034 3264 2615 
Q 3669 2197 3669 1472 
Q 3669 763 3233 336 
Q 2797 -91 2069 -91 
Q 1278 -91 853 498 
Q 428 1088 428 2181 
Q 428 3406 931 4078 
Q 1434 4750 2350 4750 
Q 2597 4750 2869 4703 
Q 3141 4656 3425 4563 
L 3425 3794 
L 3072 3794 
Q 3034 4109 2831 4275 
Q 2628 4441 2284 4441 
Q 1678 4441 1381 3981 
Q 1084 3522 1075 2569 
z
" transform="scale(0.015625)"/>
       </defs>
       <use xlink:href="#DejaVuSerif-30"/>
       <use xlink:href="#DejaVuSerif-2e" transform="translate(63.623047 0)"/>
       <use xlink:href="#DejaVuSerif-30" transform="translate(95.410156 0)"/>
       <use xlink:href="#DejaVuSerif-36" transform="translate(159.033203 0)"/>
      </g>
     </g>
    </g>
    <g id="ytick_4">
     <g id="line2d_10">
      <path d="M 86.388676 82.762572 
L 746.294313 82.762572 
" clip-path="url(#p6b70720a77)" style="fill: none; stroke: #cccccc; stroke-opacity: 0.25; stroke-width: 0.8; stroke-linecap: round"/>
     </g>
     <g id="text_4">
      <!-- 0.08 -->
      <g style="fill: #262626" transform="translate(58.049614 86.181869) scale(0.09 -0.09)">
       <defs>
        <path id="DejaVuSerif-38" d="M 2981 1275 
Q 2981 1775 2732 2051 
Q 2484 2328 2034 2328 
Q 1584 2328 1336 2051 
Q 1088 1775 1088 1275 
Q 1088 772 1336 495 
Q 1584 219 2034 219 
Q 2484 219 2732 495 
Q 2981 772 2981 1275 
z
M 2853 3541 
Q 2853 3966 2637 4203 
Q 2422 4441 2034 4441 
Q 1650 4441 1433 4203 
Q 1216 3966 1216 3541 
Q 1216 3113 1433 2875 
Q 1650 2638 2034 2638 
Q 2422 2638 2637 2875 
Q 2853 3113 2853 3541 
z
M 2516 2484 
Q 3047 2413 3344 2092 
Q 3641 1772 3641 1275 
Q 3641 619 3225 264 
Q 2809 -91 2034 -91 
Q 1263 -91 845 264 
Q 428 619 428 1275 
Q 428 1772 725 2092 
Q 1022 2413 1556 2484 
Q 1084 2569 832 2842 
Q 581 3116 581 3541 
Q 581 4103 968 4426 
Q 1356 4750 2034 4750 
Q 2713 4750 3100 4426 
Q 3488 4103 3488 3541 
Q 3488 3116 3236 2842 
Q 2984 2569 2516 2484 
z
" transform="scale(0.015625)"/>
       </defs>
       <use xlink:href="#DejaVuSerif-30"/>
       <use xlink:href="#DejaVuSerif-2e" transform="translate(63.623047 0)"/>
       <use xlink:href="#DejaVuSerif-30" transform="translate(95.410156 0)"/>
       <use xlink:href="#DejaVuSerif-38" transform="translate(159.033203 0)"/>
      </g>
     </g>
    </g>
    <g id="text_5">
     <!-- Signal value -->
     <g style="fill: #262626" transform="translate(51.827739 165.51) rotate(-90) scale(0.1 -0.1)">
      <defs>
       <path id="DejaVuSerif-53" d="M 594 225 
L 594 1288 
L 953 1284 
Q 969 753 1261 498 
Q 1553 244 2150 244 
Q 2706 244 2998 464 
Q 3291 684 3291 1106 
Q 3291 1444 3114 1625 
Q 2938 1806 2369 1978 
L 1753 2163 
Q 1084 2366 811 2669 
Q 538 2972 538 3500 
Q 538 4094 959 4422 
Q 1381 4750 2144 4750 
Q 2469 4750 2856 4679 
Q 3244 4609 3681 4475 
L 3681 3481 
L 3328 3481 
Q 3275 3975 2998 4195 
Q 2722 4416 2156 4416 
Q 1663 4416 1405 4214 
Q 1147 4013 1147 3628 
Q 1147 3294 1340 3103 
Q 1534 2913 2163 2725 
L 2741 2553 
Q 3375 2363 3645 2067 
Q 3916 1772 3916 1275 
Q 3916 597 3481 253 
Q 3047 -91 2188 -91 
Q 1803 -91 1404 -12 
Q 1006 66 594 225 
z
" transform="scale(0.015625)"/>
       <path id="DejaVuSerif-69" d="M 622 4353 
Q 622 4497 726 4603 
Q 831 4709 978 4709 
Q 1122 4709 1226 4603 
Q 1331 4497 1331 4353 
Q 1331 4206 1228 4103 
Q 1125 4000 978 4000 
Q 831 4000 726 4103 
Q 622 4206 622 4353 
z
M 1356 331 
L 1900 331 
L 1900 0 
L 231 0 
L 231 331 
L 781 331 
L 781 2988 
L 231 2988 
L 231 3322 
L 1356 3322 
L 1356 331 
z
" transform="scale(0.015625)"/>
       <path id="DejaVuSerif-67" d="M 3359 2988 
L 3359 72 
Q 3359 -644 2965 -1033 
Q 2572 -1422 1844 -1422 
Q 1516 -1422 1216 -1362 
Q 916 -1303 641 -1184 
L 641 -488 
L 941 -488 
Q 997 -813 1206 -963 
Q 1416 -1113 1806 -1113 
Q 2313 -1113 2548 -827 
Q 2784 -541 2784 72 
L 2784 519 
Q 2616 206 2355 57 
Q 2094 -91 1709 -91 
Q 1097 -91 708 395 
Q 319 881 319 1663 
Q 319 2444 706 2928 
Q 1094 3413 1709 3413 
Q 2094 3413 2355 3264 
Q 2616 3116 2784 2803 
L 2784 3322 
L 3909 3322 
L 3909 2988 
L 3359 2988 
z
M 2784 1825 
Q 2784 2422 2554 2737 
Q 2325 3053 1888 3053 
Q 1444 3053 1217 2703 
Q 991 2353 991 1663 
Q 991 975 1217 622 
Q 1444 269 1888 269 
Q 2325 269 2554 583 
Q 2784 897 2784 1497 
L 2784 1825 
z
" transform="scale(0.015625)"/>
       <path id="DejaVuSerif-6e" d="M 263 0 
L 263 331 
L 781 331 
L 781 2988 
L 231 2988 
L 231 3322 
L 1356 3322 
L 1356 2731 
Q 1516 3069 1770 3241 
Q 2025 3413 2363 3413 
Q 2913 3413 3172 3097 
Q 3431 2781 3431 2113 
L 3431 331 
L 3944 331 
L 3944 0 
L 2356 0 
L 2356 331 
L 2853 331 
L 2853 1931 
Q 2853 2541 2703 2767 
Q 2553 2994 2175 2994 
Q 1775 2994 1565 2701 
Q 1356 2409 1356 1850 
L 1356 331 
L 1856 331 
L 1856 0 
L 263 0 
z
" transform="scale(0.015625)"/>
       <path id="DejaVuSerif-61" d="M 2547 1044 
L 2547 1747 
L 1806 1747 
Q 1378 1747 1168 1562 
Q 959 1378 959 997 
Q 959 650 1171 447 
Q 1384 244 1747 244 
Q 2106 244 2326 466 
Q 2547 688 2547 1044 
z
M 3122 2075 
L 3122 331 
L 3634 331 
L 3634 0 
L 2547 0 
L 2547 359 
Q 2356 128 2106 18 
Q 1856 -91 1522 -91 
Q 969 -91 644 203 
Q 319 497 319 997 
Q 319 1513 691 1797 
Q 1063 2081 1741 2081 
L 2547 2081 
L 2547 2309 
Q 2547 2688 2317 2895 
Q 2088 3103 1672 3103 
Q 1328 3103 1125 2947 
Q 922 2791 872 2484 
L 575 2484 
L 575 3156 
Q 875 3284 1158 3348 
Q 1441 3413 1709 3413 
Q 2400 3413 2761 3070 
Q 3122 2728 3122 2075 
z
" transform="scale(0.015625)"/>
       <path id="DejaVuSerif-6c" d="M 1313 331 
L 1856 331 
L 1856 0 
L 184 0 
L 184 331 
L 738 331 
L 738 4531 
L 184 4531 
L 184 4863 
L 1313 4863 
L 1313 331 
z
" transform="scale(0.015625)"/>
       <path id="DejaVuSerif-20" transform="scale(0.015625)"/>
       <path id="DejaVuSerif-76" d="M 1581 0 
L 359 2988 
L -19 2988 
L -19 3322 
L 1509 3322 
L 1509 2988 
L 978 2988 
L 1913 703 
L 2847 2988 
L 2350 2988 
L 2350 3322 
L 3597 3322 
L 3597 2988 
L 3225 2988 
L 2003 0 
L 1581 0 
z
" transform="scale(0.015625)"/>
       <path id="DejaVuSerif-75" d="M 2266 3322 
L 3341 3322 
L 3341 331 
L 3884 331 
L 3884 0 
L 2766 0 
L 2766 588 
Q 2606 256 2353 82 
Q 2100 -91 1766 -91 
Q 1213 -91 952 223 
Q 691 538 691 1209 
L 691 2988 
L 172 2988 
L 172 3322 
L 1269 3322 
L 1269 1388 
Q 1269 781 1417 556 
Q 1566 331 1947 331 
Q 2347 331 2556 625 
Q 2766 919 2766 1478 
L 2766 2988 
L 2266 2988 
L 2266 3322 
z
" transform="scale(0.015625)"/>
       <path id="DejaVuSerif-65" d="M 3469 1600 
L 991 1600 
L 991 1575 
Q 991 903 1244 561 
Q 1497 219 1991 219 
Q 2369 219 2611 417 
Q 2853 616 2950 1006 
L 3413 1006 
Q 3275 459 2904 184 
Q 2534 -91 1931 -91 
Q 1203 -91 761 389 
Q 319 869 319 1663 
Q 319 2450 753 2931 
Q 1188 3413 1894 3413 
Q 2647 3413 3050 2948 
Q 3453 2484 3469 1600 
z
M 2791 1931 
Q 2772 2513 2545 2808 
Q 2319 3103 1894 3103 
Q 1497 3103 1269 2806 
Q 1041 2509 991 1931 
L 2791 1931 
z
" transform="scale(0.015625)"/>
      </defs>
      <use xlink:href="#DejaVuSerif-53"/>
      <use xlink:href="#DejaVuSerif-69" transform="translate(68.505859 0)"/>
      <use xlink:href="#DejaVuSerif-67" transform="translate(100.488281 0)"/>
      <use xlink:href="#DejaVuSerif-6e" transform="translate(164.501953 0)"/>
      <use xlink:href="#DejaVuSerif-61" transform="translate(228.90625 0)"/>
      <use xlink:href="#DejaVuSerif-6c" transform="translate(288.525391 0)"/>
      <use xlink:href="#DejaVuSerif-20" transform="translate(320.507812 0)"/>
      <use xlink:href="#DejaVuSerif-76" transform="translate(352.294922 0)"/>
      <use xlink:href="#DejaVuSerif-61" transform="translate(408.789062 0)"/>
      <use xlink:href="#DejaVuSerif-6c" transform="translate(468.408203 0)"/>
      <use xlink:href="#DejaVuSerif-75" transform="translate(500.390625 0)"/>
      <use xlink:href="#DejaVuSerif-65" transform="translate(564.794922 0)"/>
     </g>
    </g>
   </g>
   <g id="patch_3">
    <path d="M 116.384387 206.34 
L 266.362941 206.34 
L 266.362941 62.28 
L 116.384387 62.28 
z
" clip-path="url(#p6b70720a77)" style="fill: #d8ecff; opacity: 0.35"/>
   </g>
   <g id="patch_4">
    <path d="M 266.362941 206.34 
L 416.341495 206.34 
L 416.341495 62.28 
L 266.362941 62.28 
z
" clip-path="url(#p6b70720a77)" style="fill: #ffe7d1; opacity: 0.35"/>
   </g>
   <g id="patch_5">
    <path d="M 416.341495 206.34 
L 566.320048 206.34 
L 566.320048 62.28 
L 416.341495 62.28 
z
" clip-path="url(#p6b70720a77)" style="fill: #d8ecff; opacity: 0.35"/>
   </g>
   <g id="patch_6">
    <path d="M 566.320048 206.34 
L 716.298602 206.34 
L 716.298602 62.28 
L 566.320048 62.28 
z
" clip-path="url(#p6b70720a77)" style="fill: #ffe7d1; opacity: 0.35"/>
   </g>
   <g id="FillBetweenPolyCollection_1">
    <defs>
     <path id="m3cf9b7e3eb" d="M 116.384387 -387.55397 
L 116.384387 -386.340113 
L 122.633494 -385.356619 
L 128.8826 -386.16857 
L 135.131706 -385.356619 
L 141.380813 -386.266108 
L 147.629919 -385.35987 
L 153.879026 -386.306471 
L 160.128132 -385.370489 
L 166.377238 -386.241781 
L 172.626345 -385.364706 
L 178.875451 -386.24409 
L 185.124558 -385.363893 
L 191.373664 -386.155647 
L 197.62277 -385.368146 
L 203.871877 -386.155368 
L 210.120983 -385.358477 
L 216.37009 -386.241585 
L 222.619196 -385.36583 
L 228.868302 -386.265007 
L 235.117409 -385.368162 
L 241.366515 -386.341669 
L 247.615622 -385.362864 
L 253.864728 -386.421277 
L 260.113834 -385.362803 
L 266.362941 -389.137333 
L 272.612047 -406.445153 
L 278.861154 -432.680634 
L 285.11026 -443.173858 
L 291.359366 -443.998509 
L 297.608473 -455.130213 
L 303.857579 -460.89321 
L 310.106686 -473.510925 
L 316.355792 -472.344879 
L 322.604898 -472.02541 
L 328.854005 -482.055011 
L 335.103111 -481.045963 
L 341.352218 -479.630055 
L 347.601324 -479.629154 
L 353.85043 -481.369391 
L 360.099537 -479.762622 
L 366.348643 -486.196905 
L 372.59775 -487.605322 
L 378.846856 -482.954898 
L 385.095963 -489.299765 
L 391.345069 -490.013012 
L 397.594175 -484.037949 
L 403.843282 -486.26336 
L 410.092388 -492.306953 
L 416.341495 -481.192934 
L 422.590601 -484.120386 
L 428.839707 -472.923068 
L 435.088814 -464.82448 
L 441.33792 -462.070454 
L 447.587027 -461.792814 
L 453.836133 -451.042751 
L 460.085239 -442.653624 
L 466.334346 -442.979904 
L 472.583452 -432.989335 
L 478.832559 -432.21103 
L 485.081665 -422.139231 
L 491.330771 -420.783729 
L 497.579878 -413.124371 
L 503.828984 -411.676952 
L 510.078091 -406.063199 
L 516.327197 -406.108851 
L 522.576303 -400.273089 
L 528.82541 -399.22752 
L 535.074516 -397.576731 
L 541.323623 -398.049194 
L 547.572729 -393.835834 
L 553.821835 -393.465229 
L 560.070942 -390.512399 
L 566.320048 -393.695072 
L 572.569155 -414.783733 
L 578.818261 -438.612529 
L 585.067367 -458.985851 
L 591.316474 -460.748951 
L 597.56558 -462.675481 
L 603.814687 -471.463959 
L 610.063793 -476.371662 
L 616.3129 -474.245147 
L 622.562006 -475.105327 
L 628.811112 -474.487946 
L 635.060219 -466.471662 
L 641.309325 -481.053961 
L 647.558432 -480.397394 
L 653.807538 -463.286034 
L 660.056644 -479.734833 
L 666.305751 -473.31061 
L 672.554857 -475.881981 
L 678.803964 -481.928125 
L 685.05307 -481.989572 
L 691.302176 -476.914838 
L 697.551283 -473.772377 
L 703.800389 -472.737929 
L 710.049496 -485.233442 
L 710.049496 -508.934859 
L 710.049496 -508.934859 
L 703.800389 -489.70353 
L 697.551283 -493.178092 
L 691.302176 -497.138015 
L 685.05307 -502.687619 
L 678.803964 -502.046177 
L 672.554857 -494.617439 
L 666.305751 -493.700552 
L 660.056644 -502.849735 
L 653.807538 -481.969509 
L 647.558432 -500.380304 
L 641.309325 -502.187871 
L 635.060219 -484.475292 
L 628.811112 -495.534576 
L 622.562006 -497.096777 
L 616.3129 -499.531884 
L 610.063793 -500.596611 
L 603.814687 -495.168492 
L 597.56558 -485.594808 
L 591.316474 -482.806319 
L 585.067367 -482.532947 
L 578.818261 -456.832992 
L 572.569155 -423.392499 
L 566.320048 -399.145003 
L 560.070942 -399.011677 
L 553.821835 -399.956813 
L 547.572729 -400.442809 
L 541.323623 -405.441395 
L 535.074516 -403.705661 
L 528.82541 -404.375703 
L 522.576303 -408.219542 
L 516.327197 -414.229507 
L 510.078091 -414.209762 
L 503.828984 -423.135965 
L 497.579878 -423.20436 
L 491.330771 -431.280852 
L 485.081665 -435.210907 
L 478.832559 -445.553346 
L 472.583452 -445.860762 
L 466.334346 -460.423267 
L 460.085239 -459.155039 
L 453.836133 -468.603018 
L 447.587027 -482.452403 
L 441.33792 -482.158652 
L 435.088814 -483.192283 
L 428.839707 -491.95738 
L 422.590601 -506.764183 
L 416.341495 -501.896298 
L 410.092388 -516.320256 
L 403.843282 -508.951225 
L 397.594175 -504.434751 
L 391.345069 -511.53504 
L 385.095963 -513.304377 
L 378.846856 -506.151241 
L 372.59775 -512.50411 
L 366.348643 -509.911771 
L 360.099537 -502.323587 
L 353.85043 -506.847849 
L 347.601324 -503.106817 
L 341.352218 -504.047365 
L 335.103111 -503.359198 
L 328.854005 -508.417417 
L 322.604898 -494.772071 
L 316.355792 -493.155854 
L 310.106686 -493.114957 
L 303.857579 -482.819204 
L 297.608473 -474.703922 
L 291.359366 -460.878537 
L 285.11026 -467.83037 
L 278.861154 -450.218009 
L 272.612047 -413.978377 
L 266.362941 -392.99653 
L 260.113834 -385.695497 
L 253.864728 -387.69035 
L 247.615622 -385.70277 
L 241.366515 -387.51346 
L 235.117409 -385.924901 
L 228.868302 -387.487491 
L 222.619196 -385.723633 
L 216.37009 -387.317769 
L 210.120983 -385.404581 
L 203.871877 -387.20589 
L 197.62277 -385.942296 
L 191.373664 -387.211927 
L 185.124558 -385.669347 
L 178.875451 -387.383261 
L 172.626345 -385.69792 
L 166.377238 -387.313703 
L 160.128132 -385.894631 
L 153.879026 -387.502499 
L 147.629919 -385.406411 
L 141.380813 -387.528935 
L 135.131706 -385.402133 
L 128.8826 -387.295503 
L 122.633494 -385.402133 
L 116.384387 -387.55397 
z
" style="stroke: #0173b2; stroke-opacity: 0.18; stroke-width: 0.8"/>
    </defs>
    <g clip-path="url(#p6b70720a77)">
     <use xlink:href="#m3cf9b7e3eb" x="0" y="585.148438" style="fill: #0173b2; fill-opacity: 0.18; stroke: #0173b2; stroke-opacity: 0.18; stroke-width: 0.8"/>
    </g>
   </g>
   <g id="line2d_11">
    <path d="M 116.384387 198.240621 
L 122.633494 199.769509 
L 128.8826 198.432647 
L 135.131706 199.769509 
L 141.380813 198.304613 
L 147.629919 199.766308 
L 153.879026 198.307102 
L 160.128132 199.564405 
L 166.377238 198.416059 
L 172.626345 199.666852 
L 178.875451 198.407197 
L 185.124558 199.67585 
L 191.373664 198.513068 
L 197.62277 199.550755 
L 203.871877 198.515137 
L 210.120983 199.767439 
L 216.37009 198.418548 
L 222.619196 199.658609 
L 228.868302 198.316746 
L 235.117409 199.559101 
L 241.366515 198.302369 
L 247.615622 199.665006 
L 253.864728 198.141342 
L 260.113834 199.671625 
L 266.362941 194.19138 
L 272.612047 174.875305 
L 278.861154 144.08178 
L 285.11026 130.083732 
L 291.359366 133.105924 
L 297.608473 120.842269 
L 303.857579 113.661853 
L 310.106686 102.268365 
L 316.355792 102.647955 
L 322.604898 102.095461 
L 328.854005 90.325226 
L 335.103111 93.245427 
L 341.352218 93.897177 
L 347.601324 94.090229 
L 353.85043 91.360314 
L 360.099537 94.804078 
L 366.348643 87.850157 
L 372.59775 85.261101 
L 378.846856 90.791925 
L 385.095963 84.331033 
L 391.345069 84.602512 
L 397.594175 91.147759 
L 403.843282 88.294232 
L 410.092388 81.205626 
L 416.341495 93.718295 
L 422.590601 90.238466 
L 428.839707 103.174439 
L 435.088814 111.677495 
L 441.33792 113.197821 
L 447.587027 113.400813 
L 453.836133 125.477324 
L 460.085239 134.383462 
L 466.334346 133.711142 
L 472.583452 146.106589 
L 478.832559 146.538544 
L 485.081665 156.771606 
L 491.330771 159.142817 
L 497.579878 167.248258 
L 503.828984 168.212882 
L 510.078091 175.17073 
L 516.327197 174.96843 
L 522.576303 181.268091 
L 528.82541 183.503392 
L 535.074516 184.664413 
L 541.323623 183.683146 
L 547.572729 188.357589 
L 553.821835 188.790143 
L 560.070942 191.011075 
L 566.320048 188.823157 
L 572.569155 166.206259 
L 578.818261 138.093869 
L 585.067367 114.868943 
L 591.316474 113.221872 
L 597.56558 110.903001 
L 603.814687 102.14094 
L 610.063793 97.589143 
L 616.3129 98.898282 
L 622.562006 98.798874 
L 628.811112 100.780178 
L 635.060219 109.850223 
L 641.309325 93.297445 
L 647.558432 95.09 
L 653.807538 112.995319 
L 660.056644 94.411507 
L 666.305751 101.915719 
L 672.554857 100.198493 
L 678.803964 93.474222 
L 685.05307 93.349865 
L 691.302176 98.01101 
L 697.551283 102.044892 
L 703.800389 104.447666 
L 710.049496 88.005074 
" clip-path="url(#p6b70720a77)" style="fill: none; stroke: #0173b2; stroke-width: 2.2; stroke-linecap: round"/>
   </g>
   <g id="patch_7">
    <path d="M 86.388676 206.34 
L 86.388676 62.28 
" style="fill: none; stroke: #cccccc; stroke-width: 0.8; stroke-linejoin: miter; stroke-linecap: square"/>
   </g>
   <g id="patch_8">
    <path d="M 86.388676 206.34 
L 746.294313 206.34 
" style="fill: none; stroke: #cccccc; stroke-width: 0.8; stroke-linejoin: miter; stroke-linecap: square"/>
   </g>
   <g id="text_6">
    <!-- A -->
    <g style="fill: #262626" transform="translate(7.2 59.873325) scale(0.12 -0.12)">
     <defs>
      <path id="DejaVuSerif-Bold-41" d="M -50 0 
L -50 378 
L 331 378 
L 2088 4666 
L 2834 4666 
L 4594 378 
L 5038 378 
L 5038 0 
L 2853 0 
L 2853 378 
L 3309 378 
L 2925 1331 
L 1172 1331 
L 781 378 
L 1338 378 
L 1338 0 
L -50 0 
z
M 1325 1709 
L 2772 1709 
L 2053 3494 
L 1325 1709 
z
" transform="scale(0.015625)"/>
     </defs>
     <use xlink:href="#DejaVuSerif-Bold-41"/>
    </g>
   </g>
   <g id="text_7">
    <!-- Epistemic signal $V_{epi}$ -->
    <g style="fill: #262626" transform="translate(86.388676 56.28) scale(0.11 -0.11)">
     <defs>
      <path id="DejaVuSerif-Bold-45" d="M 300 0 
L 300 378 
L 897 378 
L 897 4288 
L 300 4288 
L 300 4666 
L 4494 4666 
L 4494 3566 
L 4063 3566 
L 4063 4238 
L 2100 4238 
L 2100 2741 
L 3322 2741 
L 3322 3334 
L 3750 3334 
L 3750 1722 
L 3322 1722 
L 3322 2316 
L 2100 2316 
L 2100 428 
L 4122 428 
L 4122 1100 
L 4550 1100 
L 4550 0 
L 300 0 
z
" transform="scale(0.015625)"/>
      <path id="DejaVuSerif-Bold-70" d="M 1728 1825 
L 1728 1497 
Q 1728 916 1876 656 
Q 2025 397 2356 397 
Q 2697 397 2836 672 
Q 2975 947 2975 1663 
Q 2975 2378 2836 2651 
Q 2697 2925 2356 2925 
Q 2025 2925 1876 2665 
Q 1728 2406 1728 1825 
z
M 622 2944 
L 147 2944 
L 147 3322 
L 1728 3322 
L 1728 2900 
Q 1869 3159 2106 3286 
Q 2344 3413 2694 3413 
Q 3403 3413 3811 2945 
Q 4219 2478 4219 1663 
Q 4219 847 3811 378 
Q 3403 -91 2694 -91 
Q 2344 -91 2106 36 
Q 1869 163 1728 422 
L 1728 -953 
L 2241 -953 
L 2241 -1331 
L 147 -1331 
L 147 -953 
L 622 -953 
L 622 2944 
z
" transform="scale(0.015625)"/>
      <path id="DejaVuSerif-Bold-69" d="M 588 4263 
Q 588 4516 763 4689 
Q 938 4863 1191 4863 
Q 1438 4863 1611 4689 
Q 1784 4516 1784 4263 
Q 1784 4016 1611 3842 
Q 1438 3669 1191 3669 
Q 938 3669 763 3841 
Q 588 4013 588 4263 
z
M 1797 378 
L 2272 378 
L 2272 0 
L 219 0 
L 219 378 
L 691 378 
L 691 2944 
L 219 2944 
L 219 3322 
L 1797 3322 
L 1797 378 
z
" transform="scale(0.015625)"/>
      <path id="DejaVuSerif-Bold-73" d="M 300 97 
L 300 1025 
L 653 1025 
Q 697 653 931 458 
Q 1166 263 1569 263 
Q 1906 263 2086 380 
Q 2266 497 2266 716 
Q 2266 916 2152 1025 
Q 2038 1134 1709 1216 
L 1253 1331 
Q 738 1459 506 1698 
Q 275 1938 275 2344 
Q 275 2884 650 3148 
Q 1025 3413 1806 3413 
Q 2100 3413 2433 3364 
Q 2766 3316 3169 3213 
L 3169 2375 
L 2816 2375 
Q 2788 2716 2573 2887 
Q 2359 3059 1959 3059 
Q 1622 3059 1448 2951 
Q 1275 2844 1275 2638 
Q 1275 2469 1375 2372 
Q 1475 2275 1734 2209 
L 2188 2094 
Q 2841 1928 3091 1684 
Q 3341 1441 3341 1006 
Q 3341 444 2939 176 
Q 2538 -91 1691 -91 
Q 1381 -91 1034 -44 
Q 688 3 300 97 
z
" transform="scale(0.015625)"/>
      <path id="DejaVuSerif-Bold-74" d="M 634 2944 
L 153 2944 
L 153 3322 
L 634 3322 
L 634 4353 
L 1741 4353 
L 1741 3322 
L 2663 3322 
L 2663 2944 
L 1741 2944 
L 1741 909 
Q 1741 475 1809 369 
Q 1878 263 2059 263 
Q 2259 263 2356 397 
Q 2453 531 2459 813 
L 2925 813 
Q 2897 313 2651 111 
Q 2406 -91 1806 -91 
Q 1122 -91 878 123 
Q 634 338 634 909 
L 634 2944 
z
" transform="scale(0.015625)"/>
      <path id="DejaVuSerif-Bold-65" d="M 2566 1875 
Q 2566 2531 2444 2795 
Q 2322 3059 2028 3059 
Q 1744 3059 1620 2800 
Q 1497 2541 1497 1931 
L 1497 1875 
L 2566 1875 
z
M 3781 1503 
L 1497 1503 
L 1497 1478 
Q 1497 834 1690 548 
Q 1884 263 2316 263 
Q 2675 263 2897 453 
Q 3119 644 3181 1006 
L 3700 1006 
Q 3566 441 3166 175 
Q 2766 -91 2047 -91 
Q 1184 -91 723 364 
Q 263 819 263 1663 
Q 263 2488 734 2950 
Q 1206 3413 2047 3413 
Q 2872 3413 3312 2927 
Q 3753 2441 3781 1503 
z
" transform="scale(0.015625)"/>
      <path id="DejaVuSerif-Bold-6d" d="M 3884 2778 
Q 4116 3109 4384 3261 
Q 4653 3413 5013 3413 
Q 5584 3413 5867 3089 
Q 6150 2766 6150 2113 
L 6150 378 
L 6625 378 
L 6625 0 
L 4647 0 
L 4647 378 
L 5044 378 
L 5044 1947 
Q 5044 2569 4948 2731 
Q 4853 2894 4594 2894 
Q 4300 2894 4137 2667 
Q 3975 2441 3975 2022 
L 3975 378 
L 4372 378 
L 4372 0 
L 2472 0 
L 2472 378 
L 2869 378 
L 2869 1947 
Q 2869 2569 2772 2731 
Q 2675 2894 2419 2894 
Q 2122 2894 1959 2667 
Q 1797 2441 1797 2022 
L 1797 378 
L 2194 378 
L 2194 0 
L 219 0 
L 219 378 
L 691 378 
L 691 2944 
L 219 2944 
L 219 3322 
L 1797 3322 
L 1797 2853 
Q 1991 3144 2241 3278 
Q 2491 3413 2834 3413 
Q 3241 3413 3494 3258 
Q 3747 3103 3884 2778 
z
" transform="scale(0.015625)"/>
      <path id="DejaVuSerif-Bold-63" d="M 3609 1038 
Q 3491 469 3123 189 
Q 2756 -91 2125 -91 
Q 1238 -91 750 368 
Q 263 828 263 1663 
Q 263 2488 744 2950 
Q 1225 3413 2081 3413 
Q 2428 3413 2781 3347 
Q 3134 3281 3500 3150 
L 3500 2228 
L 3150 2228 
Q 3100 2650 2903 2854 
Q 2706 3059 2350 3059 
Q 1888 3059 1692 2746 
Q 1497 2434 1497 1663 
Q 1497 909 1687 586 
Q 1878 263 2309 263 
Q 2644 263 2845 463 
Q 3047 663 3091 1038 
L 3609 1038 
z
" transform="scale(0.015625)"/>
      <path id="DejaVuSerif-Bold-20" transform="scale(0.015625)"/>
      <path id="DejaVuSerif-Bold-67" d="M 3853 2944 
L 3853 44 
Q 3853 -656 3354 -1039 
Q 2856 -1422 1947 -1422 
Q 1616 -1422 1275 -1370 
Q 934 -1319 575 -1216 
L 575 -422 
L 928 -422 
Q 975 -750 1192 -909 
Q 1409 -1069 1813 -1069 
Q 2325 -1069 2536 -823 
Q 2747 -578 2747 44 
L 2747 422 
Q 2606 163 2367 36 
Q 2128 -91 1778 -91 
Q 1072 -91 667 378 
Q 263 847 263 1663 
Q 263 2481 667 2947 
Q 1072 3413 1778 3413 
Q 2128 3413 2367 3286 
Q 2606 3159 2747 2900 
L 2747 3322 
L 4325 3322 
L 4325 2944 
L 3853 2944 
z
M 2747 1825 
Q 2747 2406 2597 2665 
Q 2447 2925 2119 2925 
Q 1775 2925 1636 2651 
Q 1497 2378 1497 1663 
Q 1497 947 1637 672 
Q 1778 397 2119 397 
Q 2447 397 2597 656 
Q 2747 916 2747 1497 
L 2747 1825 
z
" transform="scale(0.015625)"/>
      <path id="DejaVuSerif-Bold-6e" d="M 219 0 
L 219 378 
L 691 378 
L 691 2944 
L 219 2944 
L 219 3322 
L 1797 3322 
L 1797 2853 
Q 1997 3150 2253 3281 
Q 2509 3413 2900 3413 
Q 3459 3413 3745 3083 
Q 4031 2753 4031 2113 
L 4031 378 
L 4506 378 
L 4506 0 
L 2522 0 
L 2522 378 
L 2925 378 
L 2925 2144 
Q 2925 2566 2817 2730 
Q 2709 2894 2444 2894 
Q 2109 2894 1953 2648 
Q 1797 2403 1797 1869 
L 1797 378 
L 2203 378 
L 2203 0 
L 219 0 
z
" transform="scale(0.015625)"/>
      <path id="DejaVuSerif-Bold-61" d="M 3525 2041 
L 3525 378 
L 4000 378 
L 4000 0 
L 2419 0 
L 2419 422 
Q 2200 159 1931 34 
Q 1663 -91 1319 -91 
Q 809 -91 536 182 
Q 263 456 263 966 
Q 263 1525 655 1803 
Q 1047 2081 1838 2081 
L 2419 2081 
L 2419 2278 
Q 2419 2681 2228 2873 
Q 2038 3066 1638 3066 
Q 1306 3066 1126 2930 
Q 947 2794 872 2484 
L 519 2484 
L 519 3200 
Q 816 3306 1134 3359 
Q 1453 3413 1806 3413 
Q 2697 3413 3111 3081 
Q 3525 2750 3525 2041 
z
M 2419 1044 
L 2419 1709 
L 2003 1709 
Q 1694 1709 1528 1540 
Q 1363 1372 1363 1056 
Q 1363 741 1483 584 
Q 1603 428 1850 428 
Q 2106 428 2262 597 
Q 2419 766 2419 1044 
z
" transform="scale(0.015625)"/>
      <path id="DejaVuSerif-Bold-6c" d="M 1797 378 
L 2272 378 
L 2272 0 
L 219 0 
L 219 378 
L 691 378 
L 691 4488 
L 219 4488 
L 219 4863 
L 1797 4863 
L 1797 378 
z
" transform="scale(0.015625)"/>
      <path id="DejaVuSans-Oblique-56" d="M 1319 0 
L 500 4666 
L 1119 4666 
L 1797 653 
L 4063 4666 
L 4750 4666 
L 2053 0 
L 1319 0 
z
" transform="scale(0.015625)"/>
      <path id="DejaVuSans-Oblique-65" d="M 3078 2063 
Q 3088 2113 3092 2166 
Q 3097 2219 3097 2272 
Q 3097 2653 2873 2875 
Q 2650 3097 2266 3097 
Q 1838 3097 1509 2826 
Q 1181 2556 1013 2059 
L 3078 2063 
z
M 3578 1613 
L 903 1613 
Q 884 1494 878 1425 
Q 872 1356 872 1306 
Q 872 872 1139 634 
Q 1406 397 1894 397 
Q 2269 397 2603 481 
Q 2938 566 3225 728 
L 3116 159 
Q 2806 34 2476 -28 
Q 2147 -91 1806 -91 
Q 1078 -91 686 257 
Q 294 606 294 1247 
Q 294 1794 489 2264 
Q 684 2734 1063 3103 
Q 1306 3334 1642 3459 
Q 1978 3584 2356 3584 
Q 2950 3584 3301 3228 
Q 3653 2872 3653 2272 
Q 3653 2128 3634 1964 
Q 3616 1800 3578 1613 
z
" transform="scale(0.015625)"/>
      <path id="DejaVuSans-Oblique-70" d="M 3175 2156 
Q 3175 2616 2975 2859 
Q 2775 3103 2400 3103 
Q 2144 3103 1911 2972 
Q 1678 2841 1497 2591 
Q 1319 2344 1212 1994 
Q 1106 1644 1106 1300 
Q 1106 863 1306 627 
Q 1506 391 1875 391 
Q 2147 391 2380 519 
Q 2613 647 2778 891 
Q 2956 1147 3065 1494 
Q 3175 1841 3175 2156 
z
M 1394 2969 
Q 1625 3272 1939 3428 
Q 2253 3584 2638 3584 
Q 3175 3584 3472 3232 
Q 3769 2881 3769 2247 
Q 3769 1728 3584 1258 
Q 3400 788 3053 416 
Q 2822 169 2531 39 
Q 2241 -91 1919 -91 
Q 1547 -91 1294 64 
Q 1041 219 916 525 
L 556 -1331 
L -19 -1331 
L 922 3500 
L 1497 3500 
L 1394 2969 
z
" transform="scale(0.015625)"/>
      <path id="DejaVuSans-Oblique-69" d="M 1172 4863 
L 1747 4863 
L 1606 4134 
L 1031 4134 
L 1172 4863 
z
M 909 3500 
L 1484 3500 
L 800 0 
L 225 0 
L 909 3500 
z
" transform="scale(0.015625)"/>
     </defs>
     <use xlink:href="#DejaVuSerif-Bold-45" transform="translate(0 0.015625)"/>
     <use xlink:href="#DejaVuSerif-Bold-70" transform="translate(76.220703 0.015625)"/>
     <use xlink:href="#DejaVuSerif-Bold-69" transform="translate(146.142578 0.015625)"/>
     <use xlink:href="#DejaVuSerif-Bold-73" transform="translate(184.130859 0.015625)"/>
     <use xlink:href="#DejaVuSerif-Bold-74" transform="translate(240.429688 0.015625)"/>
     <use xlink:href="#DejaVuSerif-Bold-65" transform="translate(286.621094 0.015625)"/>
     <use xlink:href="#DejaVuSerif-Bold-6d" transform="translate(350.244141 0.015625)"/>
     <use xlink:href="#DejaVuSerif-Bold-69" transform="translate(456.054688 0.015625)"/>
     <use xlink:href="#DejaVuSerif-Bold-63" transform="translate(494.042969 0.015625)"/>
     <use xlink:href="#DejaVuSerif-Bold-20" transform="translate(554.931641 0.015625)"/>
     <use xlink:href="#DejaVuSerif-Bold-73" transform="translate(589.746094 0.015625)"/>
     <use xlink:href="#DejaVuSerif-Bold-69" transform="translate(646.044922 0.015625)"/>
     <use xlink:href="#DejaVuSerif-Bold-67" transform="translate(684.033203 0.015625)"/>
     <use xlink:href="#DejaVuSerif-Bold-6e" transform="translate(753.955078 0.015625)"/>
     <use xlink:href="#DejaVuSerif-Bold-61" transform="translate(826.660156 0.015625)"/>
     <use xlink:href="#DejaVuSerif-Bold-6c" transform="translate(891.455078 0.015625)"/>
     <use xlink:href="#DejaVuSerif-Bold-20" transform="translate(929.443359 0.015625)"/>
     <use xlink:href="#DejaVuSans-Oblique-56" transform="translate(964.257812 0.015625)"/>
     <use xlink:href="#DejaVuSans-Oblique-65" transform="translate(1032.666016 -16.390625) scale(0.7)"/>
     <use xlink:href="#DejaVuSans-Oblique-70" transform="translate(1075.732422 -16.390625) scale(0.7)"/>
     <use xlink:href="#DejaVuSans-Oblique-69" transform="translate(1120.166016 -16.390625) scale(0.7)"/>
    </g>
   </g>
  </g>
  <g id="axes_2">
   <g id="patch_9">
    <path d="M 86.388676 376.8 
L 746.294313 376.8 
L 746.294313 232.74 
L 86.388676 232.74 
z
" style="fill: #ffffff"/>
   </g>
   <g id="matplotlib.axis_3">
    <g id="xtick_7">
     <g id="line2d_12">
      <path d="M 116.384387 376.8 
L 116.384387 232.74 
" clip-path="url(#p27aa33df2e)" style="fill: none; stroke: #cccccc; stroke-opacity: 0.25; stroke-width: 0.8; stroke-linecap: round"/>
     </g>
    </g>
    <g id="xtick_8">
     <g id="line2d_13">
      <path d="M 241.366515 376.8 
L 241.366515 232.74 
" clip-path="url(#p27aa33df2e)" style="fill: none; stroke: #cccccc; stroke-opacity: 0.25; stroke-width: 0.8; stroke-linecap: round"/>
     </g>
    </g>
    <g id="xtick_9">
     <g id="line2d_14">
      <path d="M 366.348643 376.8 
L 366.348643 232.74 
" clip-path="url(#p27aa33df2e)" style="fill: none; stroke: #cccccc; stroke-opacity: 0.25; stroke-width: 0.8; stroke-linecap: round"/>
     </g>
    </g>
    <g id="xtick_10">
     <g id="line2d_15">
      <path d="M 491.330771 376.8 
L 491.330771 232.74 
" clip-path="url(#p27aa33df2e)" style="fill: none; stroke: #cccccc; stroke-opacity: 0.25; stroke-width: 0.8; stroke-linecap: round"/>
     </g>
    </g>
    <g id="xtick_11">
     <g id="line2d_16">
      <path d="M 616.3129 376.8 
L 616.3129 232.74 
" clip-path="url(#p27aa33df2e)" style="fill: none; stroke: #cccccc; stroke-opacity: 0.25; stroke-width: 0.8; stroke-linecap: round"/>
     </g>
    </g>
    <g id="xtick_12">
     <g id="line2d_17">
      <path d="M 741.295028 376.8 
L 741.295028 232.74 
" clip-path="url(#p27aa33df2e)" style="fill: none; stroke: #cccccc; stroke-opacity: 0.25; stroke-width: 0.8; stroke-linecap: round"/>
     </g>
    </g>
   </g>
   <g id="matplotlib.axis_4">
    <g id="ytick_5">
     <g id="line2d_18">
      <path d="M 86.388676 363.002276 
L 746.294313 363.002276 
" clip-path="url(#p27aa33df2e)" style="fill: none; stroke: #cccccc; stroke-opacity: 0.25; stroke-width: 0.8; stroke-linecap: round"/>
     </g>
     <g id="text_8">
      <!-- 0.035 -->
      <g style="fill: #262626" transform="translate(52.323364 366.421573) scale(0.09 -0.09)">
       <defs>
        <path id="DejaVuSerif-33" d="M 622 4469 
Q 988 4606 1323 4678 
Q 1659 4750 1953 4750 
Q 2638 4750 3022 4454 
Q 3406 4159 3406 3634 
Q 3406 3213 3140 2930 
Q 2875 2647 2388 2547 
Q 2963 2466 3280 2130 
Q 3597 1794 3597 1259 
Q 3597 606 3158 257 
Q 2719 -91 1894 -91 
Q 1528 -91 1179 -12 
Q 831 66 488 225 
L 488 1131 
L 838 1131 
Q 869 681 1141 450 
Q 1413 219 1906 219 
Q 2384 219 2661 495 
Q 2938 772 2938 1253 
Q 2938 1803 2653 2086 
Q 2369 2369 1819 2369 
L 1522 2369 
L 1522 2688 
L 1678 2688 
Q 2225 2688 2498 2914 
Q 2772 3141 2772 3597 
Q 2772 4006 2547 4223 
Q 2322 4441 1900 4441 
Q 1478 4441 1245 4241 
Q 1013 4041 972 3647 
L 622 3647 
L 622 4469 
z
" transform="scale(0.015625)"/>
        <path id="DejaVuSerif-35" d="M 3219 4666 
L 3219 4153 
L 1081 4153 
L 1081 2816 
Q 1244 2928 1461 2984 
Q 1678 3041 1947 3041 
Q 2703 3041 3140 2622 
Q 3578 2203 3578 1478 
Q 3578 738 3136 323 
Q 2694 -91 1894 -91 
Q 1572 -91 1234 -12 
Q 897 66 544 225 
L 544 1131 
L 897 1131 
Q 925 688 1179 453 
Q 1434 219 1894 219 
Q 2388 219 2653 544 
Q 2919 869 2919 1478 
Q 2919 2084 2655 2407 
Q 2391 2731 1894 2731 
Q 1613 2731 1398 2631 
Q 1184 2531 1019 2322 
L 750 2322 
L 750 4666 
L 3219 4666 
z
" transform="scale(0.015625)"/>
       </defs>
       <use xlink:href="#DejaVuSerif-30"/>
       <use xlink:href="#DejaVuSerif-2e" transform="translate(63.623047 0)"/>
       <use xlink:href="#DejaVuSerif-30" transform="translate(95.410156 0)"/>
       <use xlink:href="#DejaVuSerif-33" transform="translate(159.033203 0)"/>
       <use xlink:href="#DejaVuSerif-35" transform="translate(222.65625 0)"/>
      </g>
     </g>
    </g>
    <g id="ytick_6">
     <g id="line2d_19">
      <path d="M 86.388676 341.552516 
L 746.294313 341.552516 
" clip-path="url(#p27aa33df2e)" style="fill: none; stroke: #cccccc; stroke-opacity: 0.25; stroke-width: 0.8; stroke-linecap: round"/>
     </g>
     <g id="text_9">
      <!-- 0.040 -->
      <g style="fill: #262626" transform="translate(52.323364 344.971813) scale(0.09 -0.09)">
       <use xlink:href="#DejaVuSerif-30"/>
       <use xlink:href="#DejaVuSerif-2e" transform="translate(63.623047 0)"/>
       <use xlink:href="#DejaVuSerif-30" transform="translate(95.410156 0)"/>
       <use xlink:href="#DejaVuSerif-34" transform="translate(159.033203 0)"/>
       <use xlink:href="#DejaVuSerif-30" transform="translate(222.65625 0)"/>
      </g>
     </g>
    </g>
    <g id="ytick_7">
     <g id="line2d_20">
      <path d="M 86.388676 320.102756 
L 746.294313 320.102756 
" clip-path="url(#p27aa33df2e)" style="fill: none; stroke: #cccccc; stroke-opacity: 0.25; stroke-width: 0.8; stroke-linecap: round"/>
     </g>
     <g id="text_10">
      <!-- 0.045 -->
      <g style="fill: #262626" transform="translate(52.323364 323.522053) scale(0.09 -0.09)">
       <use xlink:href="#DejaVuSerif-30"/>
       <use xlink:href="#DejaVuSerif-2e" transform="translate(63.623047 0)"/>
       <use xlink:href="#DejaVuSerif-30" transform="translate(95.410156 0)"/>
       <use xlink:href="#DejaVuSerif-34" transform="translate(159.033203 0)"/>
       <use xlink:href="#DejaVuSerif-35" transform="translate(222.65625 0)"/>
      </g>
     </g>
    </g>
    <g id="ytick_8">
     <g id="line2d_21">
      <path d="M 86.388676 298.652996 
L 746.294313 298.652996 
" clip-path="url(#p27aa33df2e)" style="fill: none; stroke: #cccccc; stroke-opacity: 0.25; stroke-width: 0.8; stroke-linecap: round"/>
     </g>
     <g id="text_11">
      <!-- 0.050 -->
      <g style="fill: #262626" transform="translate(52.323364 302.072293) scale(0.09 -0.09)">
       <use xlink:href="#DejaVuSerif-30"/>
       <use xlink:href="#DejaVuSerif-2e" transform="translate(63.623047 0)"/>
       <use xlink:href="#DejaVuSerif-30" transform="translate(95.410156 0)"/>
       <use xlink:href="#DejaVuSerif-35" transform="translate(159.033203 0)"/>
       <use xlink:href="#DejaVuSerif-30" transform="translate(222.65625 0)"/>
      </g>
     </g>
    </g>
    <g id="ytick_9">
     <g id="line2d_22">
      <path d="M 86.388676 277.203236 
L 746.294313 277.203236 
" clip-path="url(#p27aa33df2e)" style="fill: none; stroke: #cccccc; stroke-opacity: 0.25; stroke-width: 0.8; stroke-linecap: round"/>
     </g>
     <g id="text_12">
      <!-- 0.055 -->
      <g style="fill: #262626" transform="translate(52.323364 280.622533) scale(0.09 -0.09)">
       <use xlink:href="#DejaVuSerif-30"/>
       <use xlink:href="#DejaVuSerif-2e" transform="translate(63.623047 0)"/>
       <use xlink:href="#DejaVuSerif-30" transform="translate(95.410156 0)"/>
       <use xlink:href="#DejaVuSerif-35" transform="translate(159.033203 0)"/>
       <use xlink:href="#DejaVuSerif-35" transform="translate(222.65625 0)"/>
      </g>
     </g>
    </g>
    <g id="ytick_10">
     <g id="line2d_23">
      <path d="M 86.388676 255.753476 
L 746.294313 255.753476 
" clip-path="url(#p27aa33df2e)" style="fill: none; stroke: #cccccc; stroke-opacity: 0.25; stroke-width: 0.8; stroke-linecap: round"/>
     </g>
     <g id="text_13">
      <!-- 0.060 -->
      <g style="fill: #262626" transform="translate(52.323364 259.172773) scale(0.09 -0.09)">
       <use xlink:href="#DejaVuSerif-30"/>
       <use xlink:href="#DejaVuSerif-2e" transform="translate(63.623047 0)"/>
       <use xlink:href="#DejaVuSerif-30" transform="translate(95.410156 0)"/>
       <use xlink:href="#DejaVuSerif-36" transform="translate(159.033203 0)"/>
       <use xlink:href="#DejaVuSerif-30" transform="translate(222.65625 0)"/>
      </g>
     </g>
    </g>
    <g id="ytick_11">
     <g id="line2d_24">
      <path d="M 86.388676 234.303716 
L 746.294313 234.303716 
" clip-path="url(#p27aa33df2e)" style="fill: none; stroke: #cccccc; stroke-opacity: 0.25; stroke-width: 0.8; stroke-linecap: round"/>
     </g>
     <g id="text_14">
      <!-- 0.065 -->
      <g style="fill: #262626" transform="translate(52.323364 237.723013) scale(0.09 -0.09)">
       <use xlink:href="#DejaVuSerif-30"/>
       <use xlink:href="#DejaVuSerif-2e" transform="translate(63.623047 0)"/>
       <use xlink:href="#DejaVuSerif-30" transform="translate(95.410156 0)"/>
       <use xlink:href="#DejaVuSerif-36" transform="translate(159.033203 0)"/>
       <use xlink:href="#DejaVuSerif-35" transform="translate(222.65625 0)"/>
      </g>
     </g>
    </g>
    <g id="text_15">
     <!-- Signal value -->
     <g style="fill: #262626" transform="translate(46.101489 335.97) rotate(-90) scale(0.1 -0.1)">
      <use xlink:href="#DejaVuSerif-53"/>
      <use xlink:href="#DejaVuSerif-69" transform="translate(68.505859 0)"/>
      <use xlink:href="#DejaVuSerif-67" transform="translate(100.488281 0)"/>
      <use xlink:href="#DejaVuSerif-6e" transform="translate(164.501953 0)"/>
      <use xlink:href="#DejaVuSerif-61" transform="translate(228.90625 0)"/>
      <use xlink:href="#DejaVuSerif-6c" transform="translate(288.525391 0)"/>
      <use xlink:href="#DejaVuSerif-20" transform="translate(320.507812 0)"/>
      <use xlink:href="#DejaVuSerif-76" transform="translate(352.294922 0)"/>
      <use xlink:href="#DejaVuSerif-61" transform="translate(408.789062 0)"/>
      <use xlink:href="#DejaVuSerif-6c" transform="translate(468.408203 0)"/>
      <use xlink:href="#DejaVuSerif-75" transform="translate(500.390625 0)"/>
      <use xlink:href="#DejaVuSerif-65" transform="translate(564.794922 0)"/>
     </g>
    </g>
   </g>
   <g id="patch_10">
    <path d="M 116.384387 376.8 
L 266.362941 376.8 
L 266.362941 232.74 
L 116.384387 232.74 
z
" clip-path="url(#p27aa33df2e)" style="fill: #d8ecff; opacity: 0.35"/>
   </g>
   <g id="patch_11">
    <path d="M 266.362941 376.8 
L 416.341495 376.8 
L 416.341495 232.74 
L 266.362941 232.74 
z
" clip-path="url(#p27aa33df2e)" style="fill: #ffe7d1; opacity: 0.35"/>
   </g>
   <g id="patch_12">
    <path d="M 416.341495 376.8 
L 566.320048 376.8 
L 566.320048 232.74 
L 416.341495 232.74 
z
" clip-path="url(#p27aa33df2e)" style="fill: #d8ecff; opacity: 0.35"/>
   </g>
   <g id="patch_13">
    <path d="M 566.320048 376.8 
L 716.298602 376.8 
L 716.298602 232.74 
L 566.320048 232.74 
z
" clip-path="url(#p27aa33df2e)" style="fill: #ffe7d1; opacity: 0.35"/>
   </g>
   <g id="FillBetweenPolyCollection_2">
    <defs>
     <path id="mc7d5b44aac" d="M 116.384387 -236.337886 
L 116.384387 -216.359165 
L 122.633494 -214.913524 
L 128.8826 -216.318038 
L 135.131706 -214.913524 
L 141.380813 -216.32603 
L 147.629919 -214.913524 
L 153.879026 -216.332921 
L 160.128132 -214.896619 
L 166.377238 -216.33109 
L 172.626345 -215.003816 
L 178.875451 -216.260695 
L 185.124558 -215.230235 
L 191.373664 -216.32603 
L 197.62277 -214.917168 
L 203.871877 -216.326032 
L 210.120983 -214.913522 
L 216.37009 -216.25279 
L 222.619196 -215.043395 
L 228.868302 -216.335747 
L 235.117409 -215.417923 
L 241.366515 -216.334423 
L 247.615622 -215.01471 
L 253.864728 -216.602931 
L 260.113834 -215.004092 
L 266.362941 -224.878716 
L 272.612047 -258.558617 
L 278.861154 -272.489122 
L 285.11026 -268.796289 
L 291.359366 -283.609232 
L 297.608473 -293.5275 
L 303.857579 -295.613385 
L 310.106686 -297.408327 
L 316.355792 -301.316748 
L 322.604898 -300.548245 
L 328.854005 -285.40791 
L 335.103111 -299.497538 
L 341.352218 -293.273194 
L 347.601324 -299.2327 
L 353.85043 -289.049621 
L 360.099537 -295.099199 
L 366.348643 -302.800921 
L 372.59775 -296.562438 
L 378.846856 -293.211749 
L 385.095963 -299.933478 
L 391.345069 -297.68783 
L 397.594175 -306.021286 
L 403.843282 -302.005216 
L 410.092388 -292.518282 
L 416.341495 -302.340012 
L 422.590601 -293.372027 
L 428.839707 -296.34158 
L 435.088814 -293.418192 
L 441.33792 -288.409984 
L 447.587027 -284.793845 
L 453.836133 -285.313968 
L 460.085239 -280.257504 
L 466.334346 -281.052444 
L 472.583452 -279.777667 
L 478.832559 -278.610449 
L 485.081665 -269.401264 
L 491.330771 -269.123654 
L 497.579878 -265.563119 
L 503.828984 -264.512925 
L 510.078091 -256.209357 
L 516.327197 -254.42753 
L 522.576303 -247.005027 
L 528.82541 -248.741354 
L 535.074516 -236.178761 
L 541.323623 -235.197417 
L 547.572729 -228.549154 
L 553.821835 -229.006776 
L 560.070942 -220.422856 
L 566.320048 -234.160955 
L 572.569155 -272.052525 
L 578.818261 -283.062501 
L 585.067367 -280.778089 
L 591.316474 -296.37798 
L 597.56558 -287.067233 
L 603.814687 -291.392649 
L 610.063793 -281.482587 
L 616.3129 -288.122711 
L 622.562006 -297.327553 
L 628.811112 -296.865781 
L 635.060219 -296.886606 
L 641.309325 -299.758255 
L 647.558432 -297.896641 
L 653.807538 -291.203572 
L 660.056644 -292.948626 
L 666.305751 -293.536626 
L 672.554857 -302.650584 
L 678.803964 -298.733359 
L 685.05307 -299.462826 
L 691.302176 -295.241415 
L 697.551283 -302.698038 
L 703.800389 -311.143113 
L 710.049496 -301.436476 
L 710.049496 -337.251538 
L 710.049496 -337.251538 
L 703.800389 -345.860256 
L 697.551283 -337.173436 
L 691.302176 -331.009779 
L 685.05307 -335.959327 
L 678.803964 -334.508203 
L 672.554857 -337.806224 
L 666.305751 -328.414504 
L 660.056644 -327.130972 
L 653.807538 -326.828221 
L 647.558432 -333.840953 
L 641.309325 -336.485253 
L 635.060219 -332.144175 
L 628.811112 -333.306235 
L 622.562006 -333.473142 
L 616.3129 -324.486484 
L 610.063793 -317.400804 
L 603.814687 -328.857542 
L 597.56558 -322.028938 
L 591.316474 -332.64957 
L 585.067367 -316.307558 
L 578.818261 -318.181047 
L 572.569155 -303.679581 
L 566.320048 -259.597909 
L 560.070942 -242.453172 
L 553.821835 -252.490822 
L 547.572729 -251.586362 
L 541.323623 -259.841485 
L 535.074516 -260.854577 
L 528.82541 -275.996178 
L 522.576303 -274.6662 
L 516.327197 -283.415434 
L 510.078091 -284.789396 
L 503.828984 -294.772995 
L 497.579878 -296.282079 
L 491.330771 -300.166204 
L 485.081665 -300.864377 
L 478.832559 -311.096224 
L 472.583452 -312.528781 
L 466.334346 -313.714648 
L 460.085239 -312.945506 
L 453.836133 -317.864008 
L 447.587027 -318.908217 
L 441.33792 -321.284462 
L 435.088814 -328.506891 
L 428.839707 -331.915632 
L 422.590601 -329.012807 
L 416.341495 -337.342073 
L 410.092388 -330.455663 
L 403.843282 -338.060054 
L 397.594175 -341.096999 
L 391.345069 -333.947978 
L 385.095963 -336.892711 
L 378.846856 -329.328076 
L 372.59775 -334.236181 
L 366.348643 -339.685367 
L 360.099537 -331.233276 
L 353.85043 -324.958567 
L 347.601324 -335.023051 
L 341.352218 -328.012629 
L 335.103111 -335.656983 
L 328.854005 -321.051394 
L 322.604898 -336.473216 
L 316.355792 -338.726474 
L 310.106686 -333.810188 
L 303.857579 -331.316014 
L 297.608473 -327.811038 
L 291.359366 -317.343456 
L 285.11026 -302.378308 
L 278.861154 -305.816649 
L 272.612047 -288.393553 
L 266.362941 -247.939048 
L 260.113834 -234.915648 
L 253.864728 -236.72714 
L 247.615622 -234.915776 
L 241.366515 -236.389619 
L 235.117409 -235.260517 
L 228.868302 -236.237505 
L 222.619196 -234.823109 
L 216.37009 -236.312067 
L 210.120983 -234.734559 
L 203.871877 -236.265234 
L 197.62277 -234.779314 
L 191.373664 -236.265232 
L 185.124558 -235.067049 
L 178.875451 -236.219153 
L 172.626345 -234.766669 
L 166.377238 -236.29428 
L 160.128132 -234.683232 
L 153.879026 -236.303128 
L 147.629919 -234.734644 
L 141.380813 -236.265232 
L 135.131706 -234.734644 
L 128.8826 -236.264959 
L 122.633494 -234.734644 
L 116.384387 -236.337886 
z
" style="stroke: #de8f05; stroke-opacity: 0.18; stroke-width: 0.8"/>
    </defs>
    <g clip-path="url(#p27aa33df2e)">
     <use xlink:href="#mc7d5b44aac" x="0" y="585.148438" style="fill: #de8f05; fill-opacity: 0.18; stroke: #de8f05; stroke-opacity: 0.18; stroke-width: 0.8"/>
    </g>
   </g>
   <g id="line2d_25">
    <path d="M 116.384387 358.639924 
L 122.633494 360.098533 
L 128.8826 358.754911 
L 135.131706 360.098533 
L 141.380813 358.752179 
L 147.629919 360.098533 
L 153.879026 358.715471 
L 160.128132 360.116959 
L 166.377238 358.735784 
L 172.626345 360.049596 
L 178.875451 358.798258 
L 185.124558 359.839699 
L 191.373664 358.752179 
L 197.62277 360.072053 
L 203.871877 358.752092 
L 210.120983 360.09862 
L 216.37009 358.775489 
L 222.619196 359.984858 
L 228.868302 358.776752 
L 235.117409 359.632469 
L 241.366515 358.642856 
L 247.615622 359.936121 
L 253.864728 358.434394 
L 260.113834 359.991402 
L 266.362941 348.457869 
L 272.612047 311.8732 
L 278.861154 295.783399 
L 285.11026 299.561369 
L 291.359366 284.43577 
L 297.608473 274.78388 
L 303.857579 271.482253 
L 310.106686 268.703832 
L 316.355792 264.924554 
L 322.604898 266.833968 
L 328.854005 281.828267 
L 335.103111 266.87152 
L 341.352218 274.297497 
L 347.601324 267.558486 
L 353.85043 278.109658 
L 360.099537 271.824002 
L 366.348643 264.139449 
L 372.59775 269.735945 
L 378.846856 273.603036 
L 385.095963 266.728248 
L 391.345069 268.816977 
L 397.594175 261.547688 
L 403.843282 264.793932 
L 410.092388 273.540993 
L 416.341495 264.282509 
L 422.590601 273.745003 
L 428.839707 270.797939 
L 435.088814 273.741761 
L 441.33792 279.775676 
L 447.587027 282.790205 
L 453.836133 283.089688 
L 460.085239 287.773947 
L 466.334346 286.843712 
L 472.583452 288.19261 
L 478.832559 289.734243 
L 485.081665 299.203902 
L 491.330771 300.007499 
L 497.579878 303.937233 
L 503.828984 305.42462 
L 510.078091 314.610197 
L 516.327197 316.292628 
L 522.576303 324.144945 
L 528.82541 322.679722 
L 535.074516 336.48963 
L 541.323623 337.4538 
L 547.572729 344.999294 
L 553.821835 344.247292 
L 560.070942 353.530912 
L 566.320048 338.177974 
L 572.569155 297.020154 
L 578.818261 284.794613 
L 585.067367 286.249444 
L 591.316474 270.32785 
L 597.56558 280.202742 
L 603.814687 274.335915 
L 610.063793 285.174228 
L 616.3129 278.339275 
L 622.562006 269.951134 
L 628.811112 269.676006 
L 635.060219 270.574578 
L 641.309325 267.140595 
L 647.558432 268.572698 
L 653.807538 276.218285 
L 660.056644 274.887913 
L 666.305751 273.584337 
L 672.554857 264.124456 
L 678.803964 268.569164 
L 685.05307 267.155479 
L 691.302176 271.688612 
L 697.551283 264.602852 
L 703.800389 256.032649 
L 710.049496 265.491413 
" clip-path="url(#p27aa33df2e)" style="fill: none; stroke: #de8f05; stroke-width: 2.2; stroke-linecap: round"/>
   </g>
   <g id="patch_14">
    <path d="M 86.388676 376.8 
L 86.388676 232.74 
" style="fill: none; stroke: #cccccc; stroke-width: 0.8; stroke-linejoin: miter; stroke-linecap: square"/>
   </g>
   <g id="patch_15">
    <path d="M 86.388676 376.8 
L 746.294313 376.8 
" style="fill: none; stroke: #cccccc; stroke-width: 0.8; stroke-linejoin: miter; stroke-linecap: square"/>
   </g>
   <g id="text_16">
    <!-- B -->
    <g style="fill: #262626" transform="translate(7.2 230.333325) scale(0.12 -0.12)">
     <defs>
      <path id="DejaVuSerif-Bold-42" d="M 300 0 
L 300 378 
L 897 378 
L 897 4288 
L 300 4288 
L 300 4666 
L 3066 4666 
Q 3919 4666 4347 4378 
Q 4775 4091 4775 3513 
Q 4775 3097 4479 2853 
Q 4184 2609 3603 2547 
Q 4306 2481 4681 2172 
Q 5056 1863 5056 1350 
Q 5056 656 4532 328 
Q 4009 0 2894 0 
L 300 0 
z
M 2100 2719 
L 2509 2719 
Q 3047 2719 3306 2914 
Q 3566 3109 3566 3513 
Q 3566 3919 3314 4103 
Q 3063 4288 2509 4288 
L 2100 4288 
L 2100 2719 
z
M 2100 378 
L 2547 378 
Q 3144 378 3431 615 
Q 3719 853 3719 1350 
Q 3719 1850 3428 2097 
Q 3138 2344 2547 2344 
L 2100 2344 
L 2100 378 
z
" transform="scale(0.015625)"/>
     </defs>
     <use xlink:href="#DejaVuSerif-Bold-42"/>
    </g>
   </g>
   <g id="text_17">
    <!-- Aleatoric signal $V_{ale}$ -->
    <g style="fill: #262626" transform="translate(86.388676 226.74) scale(0.11 -0.11)">
     <defs>
      <path id="DejaVuSerif-Bold-6f" d="M 2138 263 
Q 2488 263 2630 563 
Q 2772 863 2772 1663 
Q 2772 2463 2631 2761 
Q 2491 3059 2138 3059 
Q 1784 3059 1640 2757 
Q 1497 2456 1497 1663 
Q 1497 869 1640 566 
Q 1784 263 2138 263 
z
M 2138 -91 
Q 1259 -91 761 376 
Q 263 844 263 1663 
Q 263 2484 761 2948 
Q 1259 3413 2138 3413 
Q 3019 3413 3516 2948 
Q 4013 2484 4013 1663 
Q 4013 844 3514 376 
Q 3016 -91 2138 -91 
z
" transform="scale(0.015625)"/>
      <path id="DejaVuSerif-Bold-72" d="M 3438 3359 
L 3438 2369 
L 3084 2369 
Q 3066 2634 2941 2764 
Q 2816 2894 2578 2894 
Q 2216 2894 2006 2575 
Q 1797 2256 1797 1691 
L 1797 378 
L 2400 378 
L 2400 0 
L 219 0 
L 219 378 
L 691 378 
L 691 2944 
L 184 2944 
L 184 3322 
L 1797 3322 
L 1797 2731 
Q 1959 3078 2226 3245 
Q 2494 3413 2881 3413 
Q 2978 3413 3117 3398 
Q 3256 3384 3438 3359 
z
" transform="scale(0.015625)"/>
      <path id="DejaVuSans-Oblique-61" d="M 3438 1997 
L 3047 0 
L 2472 0 
L 2578 531 
Q 2325 219 2001 64 
Q 1678 -91 1281 -91 
Q 834 -91 548 182 
Q 263 456 263 884 
Q 263 1497 752 1853 
Q 1241 2209 2100 2209 
L 2900 2209 
L 2931 2363 
Q 2938 2388 2941 2417 
Q 2944 2447 2944 2509 
Q 2944 2788 2717 2942 
Q 2491 3097 2081 3097 
Q 1800 3097 1504 3025 
Q 1209 2953 897 2809 
L 997 3341 
Q 1322 3463 1633 3523 
Q 1944 3584 2234 3584 
Q 2853 3584 3176 3315 
Q 3500 3047 3500 2534 
Q 3500 2431 3484 2292 
Q 3469 2153 3438 1997 
z
M 2816 1759 
L 2241 1759 
Q 1534 1759 1195 1570 
Q 856 1381 856 984 
Q 856 709 1029 553 
Q 1203 397 1509 397 
Q 1978 397 2328 733 
Q 2678 1069 2791 1631 
L 2816 1759 
z
" transform="scale(0.015625)"/>
      <path id="DejaVuSans-Oblique-6c" d="M 1172 4863 
L 1747 4863 
L 800 0 
L 225 0 
L 1172 4863 
z
" transform="scale(0.015625)"/>
     </defs>
     <use xlink:href="#DejaVuSerif-Bold-41" transform="translate(0 0.015625)"/>
     <use xlink:href="#DejaVuSerif-Bold-6c" transform="translate(77.587891 0.015625)"/>
     <use xlink:href="#DejaVuSerif-Bold-65" transform="translate(115.576172 0.015625)"/>
     <use xlink:href="#DejaVuSerif-Bold-61" transform="translate(179.199219 0.015625)"/>
     <use xlink:href="#DejaVuSerif-Bold-74" transform="translate(243.994141 0.015625)"/>
     <use xlink:href="#DejaVuSerif-Bold-6f" transform="translate(290.185547 0.015625)"/>
     <use xlink:href="#DejaVuSerif-Bold-72" transform="translate(356.884766 0.015625)"/>
     <use xlink:href="#DejaVuSerif-Bold-69" transform="translate(409.570312 0.015625)"/>
     <use xlink:href="#DejaVuSerif-Bold-63" transform="translate(447.558594 0.015625)"/>
     <use xlink:href="#DejaVuSerif-Bold-20" transform="translate(508.447266 0.015625)"/>
     <use xlink:href="#DejaVuSerif-Bold-73" transform="translate(543.261719 0.015625)"/>
     <use xlink:href="#DejaVuSerif-Bold-69" transform="translate(599.560547 0.015625)"/>
     <use xlink:href="#DejaVuSerif-Bold-67" transform="translate(637.548828 0.015625)"/>
     <use xlink:href="#DejaVuSerif-Bold-6e" transform="translate(707.470703 0.015625)"/>
     <use xlink:href="#DejaVuSerif-Bold-61" transform="translate(780.175781 0.015625)"/>
     <use xlink:href="#DejaVuSerif-Bold-6c" transform="translate(844.970703 0.015625)"/>
     <use xlink:href="#DejaVuSerif-Bold-20" transform="translate(882.958984 0.015625)"/>
     <use xlink:href="#DejaVuSans-Oblique-56" transform="translate(917.773438 0.015625)"/>
     <use xlink:href="#DejaVuSans-Oblique-61" transform="translate(986.181641 -16.390625) scale(0.7)"/>
     <use xlink:href="#DejaVuSans-Oblique-6c" transform="translate(1029.077148 -16.390625) scale(0.7)"/>
     <use xlink:href="#DejaVuSans-Oblique-65" transform="translate(1048.525391 -16.390625) scale(0.7)"/>
    </g>
   </g>
  </g>
  <g id="axes_3">
   <g id="patch_16">
    <path d="M 86.388676 547.26 
L 746.294313 547.26 
L 746.294313 403.2 
L 86.388676 403.2 
z
" style="fill: #ffffff"/>
   </g>
   <g id="matplotlib.axis_5">
    <g id="xtick_13">
     <g id="line2d_26">
      <path d="M 116.384387 547.26 
L 116.384387 403.2 
" clip-path="url(#p312d0bf15b)" style="fill: none; stroke: #cccccc; stroke-opacity: 0.25; stroke-width: 0.8; stroke-linecap: round"/>
     </g>
     <g id="text_18">
      <!-- 0 -->
      <g style="fill: #262626" transform="translate(113.521262 562.398594) scale(0.09 -0.09)">
       <use xlink:href="#DejaVuSerif-30"/>
      </g>
     </g>
    </g>
    <g id="xtick_14">
     <g id="line2d_27">
      <path d="M 241.366515 547.26 
L 241.366515 403.2 
" clip-path="url(#p312d0bf15b)" style="fill: none; stroke: #cccccc; stroke-opacity: 0.25; stroke-width: 0.8; stroke-linecap: round"/>
     </g>
     <g id="text_19">
      <!-- 20 -->
      <g style="fill: #262626" transform="translate(235.640265 562.398594) scale(0.09 -0.09)">
       <use xlink:href="#DejaVuSerif-32"/>
       <use xlink:href="#DejaVuSerif-30" transform="translate(63.623047 0)"/>
      </g>
     </g>
    </g>
    <g id="xtick_15">
     <g id="line2d_28">
      <path d="M 366.348643 547.26 
L 366.348643 403.2 
" clip-path="url(#p312d0bf15b)" style="fill: none; stroke: #cccccc; stroke-opacity: 0.25; stroke-width: 0.8; stroke-linecap: round"/>
     </g>
     <g id="text_20">
      <!-- 40 -->
      <g style="fill: #262626" transform="translate(360.622393 562.398594) scale(0.09 -0.09)">
       <use xlink:href="#DejaVuSerif-34"/>
       <use xlink:href="#DejaVuSerif-30" transform="translate(63.623047 0)"/>
      </g>
     </g>
    </g>
    <g id="xtick_16">
     <g id="line2d_29">
      <path d="M 491.330771 547.26 
L 491.330771 403.2 
" clip-path="url(#p312d0bf15b)" style="fill: none; stroke: #cccccc; stroke-opacity: 0.25; stroke-width: 0.8; stroke-linecap: round"/>
     </g>
     <g id="text_21">
      <!-- 60 -->
      <g style="fill: #262626" transform="translate(485.604521 562.398594) scale(0.09 -0.09)">
       <use xlink:href="#DejaVuSerif-36"/>
       <use xlink:href="#DejaVuSerif-30" transform="translate(63.623047 0)"/>
      </g>
     </g>
    </g>
    <g id="xtick_17">
     <g id="line2d_30">
      <path d="M 616.3129 547.26 
L 616.3129 403.2 
" clip-path="url(#p312d0bf15b)" style="fill: none; stroke: #cccccc; stroke-opacity: 0.25; stroke-width: 0.8; stroke-linecap: round"/>
     </g>
     <g id="text_22">
      <!-- 80 -->
      <g style="fill: #262626" transform="translate(610.58665 562.398594) scale(0.09 -0.09)">
       <use xlink:href="#DejaVuSerif-38"/>
       <use xlink:href="#DejaVuSerif-30" transform="translate(63.623047 0)"/>
      </g>
     </g>
    </g>
    <g id="xtick_18">
     <g id="line2d_31">
      <path d="M 741.295028 547.26 
L 741.295028 403.2 
" clip-path="url(#p312d0bf15b)" style="fill: none; stroke: #cccccc; stroke-opacity: 0.25; stroke-width: 0.8; stroke-linecap: round"/>
     </g>
     <g id="text_23">
      <!-- 100 -->
      <g style="fill: #262626" transform="translate(732.705653 562.398594) scale(0.09 -0.09)">
       <defs>
        <path id="DejaVuSerif-31" d="M 909 0 
L 909 331 
L 1722 331 
L 1722 4213 
L 781 3603 
L 781 4013 
L 1919 4750 
L 2350 4750 
L 2350 331 
L 3163 331 
L 3163 0 
L 909 0 
z
" transform="scale(0.015625)"/>
       </defs>
       <use xlink:href="#DejaVuSerif-31"/>
       <use xlink:href="#DejaVuSerif-30" transform="translate(63.623047 0)"/>
       <use xlink:href="#DejaVuSerif-30" transform="translate(127.246094 0)"/>
      </g>
     </g>
    </g>
    <g id="text_24">
     <!-- Decision step within held-out evaluation episode -->
     <g style="fill: #262626" transform="translate(293.160245 575.86875) scale(0.1 -0.1)">
      <defs>
       <path id="DejaVuSerif-44" d="M 1581 331 
L 2163 331 
Q 3072 331 3558 850 
Q 4044 1369 4044 2338 
Q 4044 3306 3559 3818 
Q 3075 4331 2163 4331 
L 1581 4331 
L 1581 331 
z
M 353 0 
L 353 331 
L 947 331 
L 947 4331 
L 353 4331 
L 353 4666 
L 2209 4666 
Q 3416 4666 4089 4050 
Q 4763 3434 4763 2338 
Q 4763 1238 4088 619 
Q 3413 0 2209 0 
L 353 0 
z
" transform="scale(0.015625)"/>
       <path id="DejaVuSerif-63" d="M 3291 997 
Q 3169 466 2822 187 
Q 2475 -91 1925 -91 
Q 1200 -91 759 389 
Q 319 869 319 1663 
Q 319 2459 759 2936 
Q 1200 3413 1925 3413 
Q 2241 3413 2553 3339 
Q 2866 3266 3181 3116 
L 3181 2266 
L 2847 2266 
Q 2781 2703 2561 2903 
Q 2341 3103 1931 3103 
Q 1466 3103 1228 2742 
Q 991 2381 991 1663 
Q 991 944 1227 581 
Q 1463 219 1931 219 
Q 2303 219 2525 412 
Q 2747 606 2828 997 
L 3291 997 
z
" transform="scale(0.015625)"/>
       <path id="DejaVuSerif-73" d="M 359 184 
L 359 959 
L 691 959 
Q 703 588 923 403 
Q 1144 219 1575 219 
Q 1963 219 2166 364 
Q 2369 509 2369 788 
Q 2369 1006 2220 1140 
Q 2072 1275 1594 1428 
L 1178 1569 
Q 750 1706 558 1912 
Q 366 2119 366 2438 
Q 366 2894 700 3153 
Q 1034 3413 1625 3413 
Q 1888 3413 2178 3344 
Q 2469 3275 2778 3144 
L 2778 2419 
L 2447 2419 
Q 2434 2741 2221 2922 
Q 2009 3103 1644 3103 
Q 1281 3103 1095 2975 
Q 909 2847 909 2591 
Q 909 2381 1050 2254 
Q 1191 2128 1613 1997 
L 2069 1856 
Q 2541 1709 2748 1489 
Q 2956 1269 2956 922 
Q 2956 450 2595 179 
Q 2234 -91 1600 -91 
Q 1278 -91 972 -22 
Q 666 47 359 184 
z
" transform="scale(0.015625)"/>
       <path id="DejaVuSerif-6f" d="M 1925 219 
Q 2388 219 2623 584 
Q 2859 950 2859 1663 
Q 2859 2375 2623 2739 
Q 2388 3103 1925 3103 
Q 1463 3103 1227 2739 
Q 991 2375 991 1663 
Q 991 950 1228 584 
Q 1466 219 1925 219 
z
M 1925 -91 
Q 1200 -91 759 389 
Q 319 869 319 1663 
Q 319 2456 758 2934 
Q 1197 3413 1925 3413 
Q 2653 3413 3092 2934 
Q 3531 2456 3531 1663 
Q 3531 869 3092 389 
Q 2653 -91 1925 -91 
z
" transform="scale(0.015625)"/>
       <path id="DejaVuSerif-74" d="M 691 2988 
L 184 2988 
L 184 3322 
L 691 3322 
L 691 4353 
L 1269 4353 
L 1269 3322 
L 2350 3322 
L 2350 2988 
L 1269 2988 
L 1269 878 
Q 1269 456 1350 337 
Q 1431 219 1650 219 
Q 1875 219 1978 351 
Q 2081 484 2088 781 
L 2522 781 
Q 2497 328 2275 118 
Q 2053 -91 1600 -91 
Q 1103 -91 897 129 
Q 691 350 691 878 
L 691 2988 
z
" transform="scale(0.015625)"/>
       <path id="DejaVuSerif-70" d="M 1313 1825 
L 1313 1497 
Q 1313 897 1542 583 
Q 1772 269 2209 269 
Q 2650 269 2876 622 
Q 3103 975 3103 1663 
Q 3103 2353 2876 2703 
Q 2650 3053 2209 3053 
Q 1772 3053 1542 2737 
Q 1313 2422 1313 1825 
z
M 738 2988 
L 184 2988 
L 184 3322 
L 1313 3322 
L 1313 2803 
Q 1481 3116 1742 3264 
Q 2003 3413 2388 3413 
Q 3000 3413 3387 2928 
Q 3775 2444 3775 1663 
Q 3775 881 3387 395 
Q 3000 -91 2388 -91 
Q 2003 -91 1742 57 
Q 1481 206 1313 519 
L 1313 -997 
L 1856 -997 
L 1856 -1331 
L 184 -1331 
L 184 -997 
L 738 -997 
L 738 2988 
z
" transform="scale(0.015625)"/>
       <path id="DejaVuSerif-77" d="M 3072 3322 
L 3922 728 
L 4672 2988 
L 4191 2988 
L 4191 3322 
L 5394 3322 
L 5394 2988 
L 5025 2988 
L 4038 0 
L 3559 0 
L 2741 2484 
L 1919 0 
L 1459 0 
L 475 2988 
L 103 2988 
L 103 3322 
L 1606 3322 
L 1606 2988 
L 1069 2988 
L 1813 728 
L 2669 3322 
L 3072 3322 
z
" transform="scale(0.015625)"/>
       <path id="DejaVuSerif-68" d="M 263 0 
L 263 331 
L 781 331 
L 781 4531 
L 231 4531 
L 231 4863 
L 1356 4863 
L 1356 2731 
Q 1516 3069 1770 3241 
Q 2025 3413 2363 3413 
Q 2913 3413 3172 3097 
Q 3431 2781 3431 2113 
L 3431 331 
L 3944 331 
L 3944 0 
L 2356 0 
L 2356 331 
L 2853 331 
L 2853 1931 
Q 2853 2541 2704 2764 
Q 2556 2988 2175 2988 
Q 1775 2988 1565 2697 
Q 1356 2406 1356 1850 
L 1356 331 
L 1856 331 
L 1856 0 
L 263 0 
z
" transform="scale(0.015625)"/>
       <path id="DejaVuSerif-64" d="M 3359 331 
L 3909 331 
L 3909 0 
L 2784 0 
L 2784 519 
Q 2616 206 2355 57 
Q 2094 -91 1709 -91 
Q 1097 -91 708 395 
Q 319 881 319 1663 
Q 319 2444 706 2928 
Q 1094 3413 1709 3413 
Q 2094 3413 2355 3264 
Q 2616 3116 2784 2803 
L 2784 4531 
L 2241 4531 
L 2241 4863 
L 3359 4863 
L 3359 331 
z
M 2784 1497 
L 2784 1825 
Q 2784 2422 2554 2737 
Q 2325 3053 1888 3053 
Q 1444 3053 1217 2703 
Q 991 2353 991 1663 
Q 991 975 1217 622 
Q 1444 269 1888 269 
Q 2325 269 2554 583 
Q 2784 897 2784 1497 
z
" transform="scale(0.015625)"/>
       <path id="DejaVuSerif-2d" d="M 281 1959 
L 1881 1959 
L 1881 1472 
L 281 1472 
L 281 1959 
z
" transform="scale(0.015625)"/>
      </defs>
      <use xlink:href="#DejaVuSerif-44"/>
      <use xlink:href="#DejaVuSerif-65" transform="translate(80.175781 0)"/>
      <use xlink:href="#DejaVuSerif-63" transform="translate(139.355469 0)"/>
      <use xlink:href="#DejaVuSerif-69" transform="translate(195.361328 0)"/>
      <use xlink:href="#DejaVuSerif-73" transform="translate(227.34375 0)"/>
      <use xlink:href="#DejaVuSerif-69" transform="translate(278.662109 0)"/>
      <use xlink:href="#DejaVuSerif-6f" transform="translate(310.644531 0)"/>
      <use xlink:href="#DejaVuSerif-6e" transform="translate(370.849609 0)"/>
      <use xlink:href="#DejaVuSerif-20" transform="translate(435.253906 0)"/>
      <use xlink:href="#DejaVuSerif-73" transform="translate(467.041016 0)"/>
      <use xlink:href="#DejaVuSerif-74" transform="translate(518.359375 0)"/>
      <use xlink:href="#DejaVuSerif-65" transform="translate(558.544922 0)"/>
      <use xlink:href="#DejaVuSerif-70" transform="translate(617.724609 0)"/>
      <use xlink:href="#DejaVuSerif-20" transform="translate(681.738281 0)"/>
      <use xlink:href="#DejaVuSerif-77" transform="translate(713.525391 0)"/>
      <use xlink:href="#DejaVuSerif-69" transform="translate(799.121094 0)"/>
      <use xlink:href="#DejaVuSerif-74" transform="translate(831.103516 0)"/>
      <use xlink:href="#DejaVuSerif-68" transform="translate(871.289062 0)"/>
      <use xlink:href="#DejaVuSerif-69" transform="translate(935.693359 0)"/>
      <use xlink:href="#DejaVuSerif-6e" transform="translate(967.675781 0)"/>
      <use xlink:href="#DejaVuSerif-20" transform="translate(1032.080078 0)"/>
      <use xlink:href="#DejaVuSerif-68" transform="translate(1063.867188 0)"/>
      <use xlink:href="#DejaVuSerif-65" transform="translate(1128.271484 0)"/>
      <use xlink:href="#DejaVuSerif-6c" transform="translate(1187.451172 0)"/>
      <use xlink:href="#DejaVuSerif-64" transform="translate(1219.433594 0)"/>
      <use xlink:href="#DejaVuSerif-2d" transform="translate(1283.447266 0)"/>
      <use xlink:href="#DejaVuSerif-6f" transform="translate(1317.236328 0)"/>
      <use xlink:href="#DejaVuSerif-75" transform="translate(1377.441406 0)"/>
      <use xlink:href="#DejaVuSerif-74" transform="translate(1441.845703 0)"/>
      <use xlink:href="#DejaVuSerif-20" transform="translate(1482.03125 0)"/>
      <use xlink:href="#DejaVuSerif-65" transform="translate(1513.818359 0)"/>
      <use xlink:href="#DejaVuSerif-76" transform="translate(1572.998047 0)"/>
      <use xlink:href="#DejaVuSerif-61" transform="translate(1629.492188 0)"/>
      <use xlink:href="#DejaVuSerif-6c" transform="translate(1689.111328 0)"/>
      <use xlink:href="#DejaVuSerif-75" transform="translate(1721.09375 0)"/>
      <use xlink:href="#DejaVuSerif-61" transform="translate(1785.498047 0)"/>
      <use xlink:href="#DejaVuSerif-74" transform="translate(1845.117188 0)"/>
      <use xlink:href="#DejaVuSerif-69" transform="translate(1885.302734 0)"/>
      <use xlink:href="#DejaVuSerif-6f" transform="translate(1917.285156 0)"/>
      <use xlink:href="#DejaVuSerif-6e" transform="translate(1977.490234 0)"/>
      <use xlink:href="#DejaVuSerif-20" transform="translate(2041.894531 0)"/>
      <use xlink:href="#DejaVuSerif-65" transform="translate(2073.681641 0)"/>
      <use xlink:href="#DejaVuSerif-70" transform="translate(2132.861328 0)"/>
      <use xlink:href="#DejaVuSerif-69" transform="translate(2196.875 0)"/>
      <use xlink:href="#DejaVuSerif-73" transform="translate(2228.857422 0)"/>
      <use xlink:href="#DejaVuSerif-6f" transform="translate(2280.175781 0)"/>
      <use xlink:href="#DejaVuSerif-64" transform="translate(2340.380859 0)"/>
      <use xlink:href="#DejaVuSerif-65" transform="translate(2404.394531 0)"/>
     </g>
    </g>
   </g>
   <g id="matplotlib.axis_6">
    <g id="ytick_12">
     <g id="line2d_32">
      <path d="M 86.388676 517.345449 
L 746.294313 517.345449 
" clip-path="url(#p312d0bf15b)" style="fill: none; stroke: #cccccc; stroke-opacity: 0.25; stroke-width: 0.8; stroke-linecap: round"/>
     </g>
     <g id="text_25">
      <!-- −0.15 -->
      <g style="fill: #262626" transform="translate(50.507895 520.764746) scale(0.09 -0.09)">
       <defs>
        <path id="DejaVuSerif-2212" d="M 678 2259 
L 4684 2259 
L 4684 1753 
L 678 1753 
L 678 2259 
z
" transform="scale(0.015625)"/>
       </defs>
       <use xlink:href="#DejaVuSerif-2212"/>
       <use xlink:href="#DejaVuSerif-30" transform="translate(83.789062 0)"/>
       <use xlink:href="#DejaVuSerif-2e" transform="translate(147.412109 0)"/>
       <use xlink:href="#DejaVuSerif-31" transform="translate(179.199219 0)"/>
       <use xlink:href="#DejaVuSerif-35" transform="translate(242.822266 0)"/>
      </g>
     </g>
    </g>
    <g id="ytick_13">
     <g id="line2d_33">
      <path d="M 86.388676 483.47812 
L 746.294313 483.47812 
" clip-path="url(#p312d0bf15b)" style="fill: none; stroke: #cccccc; stroke-opacity: 0.25; stroke-width: 0.8; stroke-linecap: round"/>
     </g>
     <g id="text_26">
      <!-- −0.10 -->
      <g style="fill: #262626" transform="translate(50.507895 486.897417) scale(0.09 -0.09)">
       <use xlink:href="#DejaVuSerif-2212"/>
       <use xlink:href="#DejaVuSerif-30" transform="translate(83.789062 0)"/>
       <use xlink:href="#DejaVuSerif-2e" transform="translate(147.412109 0)"/>
       <use xlink:href="#DejaVuSerif-31" transform="translate(179.199219 0)"/>
       <use xlink:href="#DejaVuSerif-30" transform="translate(242.822266 0)"/>
      </g>
     </g>
    </g>
    <g id="ytick_14">
     <g id="line2d_34">
      <path d="M 86.388676 449.610791 
L 746.294313 449.610791 
" clip-path="url(#p312d0bf15b)" style="fill: none; stroke: #cccccc; stroke-opacity: 0.25; stroke-width: 0.8; stroke-linecap: round"/>
     </g>
     <g id="text_27">
      <!-- −0.05 -->
      <g style="fill: #262626" transform="translate(50.507895 453.030088) scale(0.09 -0.09)">
       <use xlink:href="#DejaVuSerif-2212"/>
       <use xlink:href="#DejaVuSerif-30" transform="translate(83.789062 0)"/>
       <use xlink:href="#DejaVuSerif-2e" transform="translate(147.412109 0)"/>
       <use xlink:href="#DejaVuSerif-30" transform="translate(179.199219 0)"/>
       <use xlink:href="#DejaVuSerif-35" transform="translate(242.822266 0)"/>
      </g>
     </g>
    </g>
    <g id="ytick_15">
     <g id="line2d_35">
      <path d="M 86.388676 415.743463 
L 746.294313 415.743463 
" clip-path="url(#p312d0bf15b)" style="fill: none; stroke: #cccccc; stroke-opacity: 0.25; stroke-width: 0.8; stroke-linecap: round"/>
     </g>
     <g id="text_28">
      <!-- 0.00 -->
      <g style="fill: #262626" transform="translate(58.049614 419.16276) scale(0.09 -0.09)">
       <use xlink:href="#DejaVuSerif-30"/>
       <use xlink:href="#DejaVuSerif-2e" transform="translate(63.623047 0)"/>
       <use xlink:href="#DejaVuSerif-30" transform="translate(95.410156 0)"/>
       <use xlink:href="#DejaVuSerif-30" transform="translate(159.033203 0)"/>
      </g>
     </g>
    </g>
    <g id="text_29">
     <!-- Reward value -->
     <g style="fill: #262626" transform="translate(44.428208 509.98) rotate(-90) scale(0.1 -0.1)">
      <defs>
       <path id="DejaVuSerif-52" d="M 3066 2316 
Q 3284 2256 3442 2114 
Q 3600 1972 3725 1716 
L 4403 331 
L 4972 331 
L 4972 0 
L 3872 0 
L 3144 1484 
Q 2934 1916 2759 2042 
Q 2584 2169 2278 2169 
L 1581 2169 
L 1581 331 
L 2241 331 
L 2241 0 
L 353 0 
L 353 331 
L 947 331 
L 947 4331 
L 353 4331 
L 353 4666 
L 2719 4666 
Q 3400 4666 3770 4341 
Q 4141 4016 4141 3419 
Q 4141 2938 3870 2661 
Q 3600 2384 3066 2316 
z
M 1581 2503 
L 2503 2503 
Q 2975 2503 3200 2726 
Q 3425 2950 3425 3419 
Q 3425 3888 3200 4109 
Q 2975 4331 2503 4331 
L 1581 4331 
L 1581 2503 
z
" transform="scale(0.015625)"/>
       <path id="DejaVuSerif-72" d="M 3059 3328 
L 3059 2497 
L 2728 2497 
Q 2713 2744 2591 2866 
Q 2469 2988 2234 2988 
Q 1809 2988 1582 2694 
Q 1356 2400 1356 1850 
L 1356 331 
L 2022 331 
L 2022 0 
L 263 0 
L 263 331 
L 781 331 
L 781 2994 
L 231 2994 
L 231 3322 
L 1356 3322 
L 1356 2731 
Q 1525 3078 1790 3245 
Q 2056 3413 2438 3413 
Q 2578 3413 2733 3391 
Q 2888 3369 3059 3328 
z
" transform="scale(0.015625)"/>
      </defs>
      <use xlink:href="#DejaVuSerif-52"/>
      <use xlink:href="#DejaVuSerif-65" transform="translate(75.292969 0)"/>
      <use xlink:href="#DejaVuSerif-77" transform="translate(134.472656 0)"/>
      <use xlink:href="#DejaVuSerif-61" transform="translate(220.068359 0)"/>
      <use xlink:href="#DejaVuSerif-72" transform="translate(279.6875 0)"/>
      <use xlink:href="#DejaVuSerif-64" transform="translate(327.490234 0)"/>
      <use xlink:href="#DejaVuSerif-20" transform="translate(391.503906 0)"/>
      <use xlink:href="#DejaVuSerif-76" transform="translate(423.291016 0)"/>
      <use xlink:href="#DejaVuSerif-61" transform="translate(479.785156 0)"/>
      <use xlink:href="#DejaVuSerif-6c" transform="translate(539.404297 0)"/>
      <use xlink:href="#DejaVuSerif-75" transform="translate(571.386719 0)"/>
      <use xlink:href="#DejaVuSerif-65" transform="translate(635.791016 0)"/>
     </g>
    </g>
   </g>
   <g id="patch_17">
    <path d="M 116.384387 547.26 
L 266.362941 547.26 
L 266.362941 403.2 
L 116.384387 403.2 
z
" clip-path="url(#p312d0bf15b)" style="fill: #d8ecff; opacity: 0.35"/>
   </g>
   <g id="patch_18">
    <path d="M 266.362941 547.26 
L 416.341495 547.26 
L 416.341495 403.2 
L 266.362941 403.2 
z
" clip-path="url(#p312d0bf15b)" style="fill: #ffe7d1; opacity: 0.35"/>
   </g>
   <g id="patch_19">
    <path d="M 416.341495 547.26 
L 566.320048 547.26 
L 566.320048 403.2 
L 416.341495 403.2 
z
" clip-path="url(#p312d0bf15b)" style="fill: #d8ecff; opacity: 0.35"/>
   </g>
   <g id="patch_20">
    <path d="M 566.320048 547.26 
L 716.298602 547.26 
L 716.298602 403.2 
L 566.320048 403.2 
z
" clip-path="url(#p312d0bf15b)" style="fill: #ffe7d1; opacity: 0.35"/>
   </g>
   <g id="FillBetweenPolyCollection_3">
    <defs>
     <path id="meeb49b4c24" d="M 116.384387 -175.381405 
L 116.384387 -174.894051 
L 122.633494 -174.231398 
L 128.8826 -174.830919 
L 135.131706 -174.231393 
L 141.380813 -174.867369 
L 147.629919 -174.233434 
L 153.879026 -174.876431 
L 160.128132 -174.2782 
L 166.377238 -174.853568 
L 172.626345 -174.255511 
L 178.875451 -174.85249 
L 185.124558 -174.144758 
L 191.373664 -174.821637 
L 197.62277 -174.275674 
L 203.871877 -174.820606 
L 210.120983 -174.232101 
L 216.37009 -174.852911 
L 222.619196 -174.247792 
L 228.868302 -174.866028 
L 235.117409 -169.802096 
L 241.366515 -174.893454 
L 247.615622 -174.243069 
L 253.864728 -174.898844 
L 260.113834 -172.409384 
L 266.362941 -157.331992 
L 272.612047 -78.123017 
L 278.861154 -58.1801 
L 285.11026 -82.757217 
L 291.359366 -79.262266 
L 297.608473 -51.973421 
L 303.857579 -64.76694 
L 310.106686 -49.823184 
L 316.355792 -57.759904 
L 322.604898 -51.549723 
L 328.854005 -78.204937 
L 335.103111 -81.473942 
L 341.352218 -88.177293 
L 347.601324 -76.709022 
L 353.85043 -90.751467 
L 360.099537 -89.084083 
L 366.348643 -75.732271 
L 372.59775 -81.961969 
L 378.846856 -104.211794 
L 385.095963 -90.498516 
L 391.345069 -85.811172 
L 397.594175 -72.765895 
L 403.843282 -94.698117 
L 410.092388 -99.994865 
L 416.341495 -98.106214 
L 422.590601 -100.306186 
L 428.839707 -116.440497 
L 435.088814 -103.039562 
L 441.33792 -121.103354 
L 447.587027 -103.844859 
L 453.836133 -116.543498 
L 460.085239 -120.208893 
L 466.334346 -123.401461 
L 472.583452 -107.904541 
L 478.832559 -106.050006 
L 485.081665 -117.660759 
L 491.330771 -121.632198 
L 497.579878 -121.336531 
L 503.828984 -130.588543 
L 510.078091 -142.421638 
L 516.327197 -139.61633 
L 522.576303 -129.663788 
L 528.82541 -127.430429 
L 535.074516 -147.851158 
L 541.323623 -157.057851 
L 547.572729 -160.303249 
L 553.821835 -155.826989 
L 560.070942 -154.80186 
L 566.320048 -151.117986 
L 572.569155 -86.93615 
L 578.818261 -44.436619 
L 585.067367 -71.942467 
L 591.316474 -45.616806 
L 597.56558 -72.283516 
L 603.814687 -86.080199 
L 610.063793 -89.731577 
L 616.3129 -96.720361 
L 622.562006 -72.966518 
L 628.811112 -71.33803 
L 635.060219 -86.166116 
L 641.309325 -71.263773 
L 647.558432 -79.4401 
L 653.807538 -87.275562 
L 660.056644 -93.690849 
L 666.305751 -111.035221 
L 672.554857 -93.915404 
L 678.803964 -95.906785 
L 685.05307 -97.096094 
L 691.302176 -101.7212 
L 697.551283 -96.045986 
L 703.800389 -88.420416 
L 710.049496 -78.066581 
L 710.049496 -126.948076 
L 710.049496 -126.948076 
L 703.800389 -134.076964 
L 697.551283 -136.599226 
L 691.302176 -142.947801 
L 685.05307 -141.942432 
L 678.803964 -140.151517 
L 672.554857 -135.7415 
L 666.305751 -148.785492 
L 660.056644 -138.984263 
L 653.807538 -130.699509 
L 647.558432 -129.337396 
L 641.309325 -122.911352 
L 635.060219 -130.235531 
L 628.811112 -119.722422 
L 622.562006 -125.591228 
L 616.3129 -140.099972 
L 610.063793 -136.308573 
L 603.814687 -129.269348 
L 597.56558 -119.891457 
L 591.316474 -100.491428 
L 585.067367 -119.054108 
L 578.818261 -97.873931 
L 572.569155 -125.740686 
L 566.320048 -168.416904 
L 560.070942 -169.383866 
L 553.821835 -172.743145 
L 547.572729 -172.783808 
L 541.323623 -173.888053 
L 535.074516 -168.267789 
L 528.82541 -158.946041 
L 522.576303 -160.676224 
L 516.327197 -165.051077 
L 510.078091 -164.477975 
L 503.828984 -158.252079 
L 497.579878 -151.173313 
L 491.330771 -155.509812 
L 485.081665 -150.805146 
L 478.832559 -146.749227 
L 472.583452 -145.586806 
L 466.334346 -156.792785 
L 460.085239 -154.086814 
L 453.836133 -153.588628 
L 447.587027 -146.178994 
L 441.33792 -155.552768 
L 435.088814 -144.455365 
L 428.839707 -152.462363 
L 422.590601 -144.536596 
L 416.341495 -139.671929 
L 410.092388 -145.649731 
L 403.843282 -136.768018 
L 397.594175 -122.072546 
L 391.345069 -132.471968 
L 385.095963 -135.139915 
L 378.846856 -145.679669 
L 372.59775 -127.070326 
L 366.348643 -123.564792 
L 360.099537 -133.118127 
L 353.85043 -134.497104 
L 347.601324 -122.118635 
L 341.352218 -130.976612 
L 335.103111 -127.937327 
L 328.854005 -128.414688 
L 322.604898 -105.736895 
L 316.355792 -108.500963 
L 310.106686 -103.050517 
L 303.857579 -113.306266 
L 297.608473 -106.562596 
L 291.359366 -121.117273 
L 285.11026 -130.151701 
L 278.861154 -110.40236 
L 272.612047 -119.593473 
L 266.362941 -171.69159 
L 260.113834 -174.331972 
L 253.864728 -175.400256 
L 247.615622 -174.484227 
L 241.366515 -175.352879 
L 235.117409 -174.417233 
L 228.868302 -175.34853 
L 222.619196 -174.491826 
L 216.37009 -175.27887 
L 210.120983 -174.450054 
L 203.871877 -175.235998 
L 197.62277 -174.591999 
L 191.373664 -175.238268 
L 185.124558 -174.424907 
L 178.875451 -175.309284 
L 172.626345 -174.528989 
L 166.377238 -175.279095 
L 160.128132 -174.584097 
L 153.879026 -175.355572 
L 147.629919 -174.44955 
L 141.380813 -175.366203 
L 135.131706 -174.448863 
L 128.8826 -175.268804 
L 122.633494 -174.448866 
L 116.384387 -175.381405 
z
" style="stroke: #029e73; stroke-opacity: 0.18; stroke-width: 0.8"/>
    </defs>
    <g clip-path="url(#p312d0bf15b)">
     <use xlink:href="#meeb49b4c24" x="0" y="585.148438" style="fill: #029e73; fill-opacity: 0.18; stroke: #029e73; stroke-opacity: 0.18; stroke-width: 0.8"/>
    </g>
   </g>
   <g id="line2d_36">
    <path d="M 116.384387 410.027246 
L 122.633494 410.797998 
L 128.8826 410.107302 
L 135.131706 410.798001 
L 141.380813 410.056421 
L 147.629919 410.796933 
L 153.879026 410.055557 
L 160.128132 410.716152 
L 166.377238 410.100778 
L 172.626345 410.755216 
L 178.875451 410.095391 
L 185.124558 410.844987 
L 191.373664 410.139616 
L 197.62277 410.717909 
L 203.871877 410.140314 
L 210.120983 410.797287 
L 216.37009 410.101916 
L 222.619196 410.770417 
L 228.868302 410.057524 
L 235.117409 412.28363 
L 241.366515 410.05545 
L 247.615622 410.775662 
L 253.864728 410.017825 
L 260.113834 411.462445 
L 266.362941 419.908638 
L 272.612047 485.000184 
L 278.861154 499.915558 
L 285.11026 477.030101 
L 291.359366 483.661137 
L 297.608473 505.249849 
L 303.857579 494.700989 
L 310.106686 508.148295 
L 316.355792 501.932467 
L 322.604898 505.148538 
L 328.854005 480.978726 
L 335.103111 480.839833 
L 341.352218 474.184174 
L 347.601324 485.15295 
L 353.85043 471.503157 
L 360.099537 473.920564 
L 366.348643 484.719974 
L 372.59775 479.960806 
L 378.846856 459.695165 
L 385.095963 471.50389 
L 391.345069 475.109502 
L 397.594175 486.532882 
L 403.843282 469.053551 
L 410.092388 461.218026 
L 416.341495 466.094761 
L 422.590601 461.239621 
L 428.839707 449.518522 
L 435.088814 459.817874 
L 441.33792 445.920848 
L 447.587027 459.38587 
L 453.836133 449.110775 
L 460.085239 447.531744 
L 466.334346 443.694159 
L 472.583452 457.406229 
L 478.832559 457.463155 
L 485.081665 450.030075 
L 491.330771 445.39795 
L 497.579878 448.064038 
L 503.828984 439.830322 
L 510.078091 430.806638 
L 516.327197 431.85722 
L 522.576303 438.472872 
L 528.82541 440.785185 
L 535.074516 426.005356 
L 541.323623 419.068382 
L 547.572729 418.201969 
L 553.821835 419.829703 
L 560.070942 422.616582 
L 566.320048 424.625478 
L 572.569155 477.351227 
L 578.818261 512.40856 
L 585.067367 487.745369 
L 591.316474 510.113382 
L 597.56558 488.383067 
L 603.814687 477.383661 
L 610.063793 471.469696 
L 616.3129 465.948208 
L 622.562006 484.434305 
L 628.811112 487.752416 
L 635.060219 475.713768 
L 641.309325 486.160256 
L 647.558432 479.03152 
L 653.807538 474.786912 
L 660.056644 467.074557 
L 666.305751 454.596986 
L 672.554857 468.310534 
L 678.803964 466.216864 
L 685.05307 463.984099 
L 691.302176 461.927355 
L 697.551283 467.768669 
L 703.800389 473.290737 
L 710.049496 481.969548 
" clip-path="url(#p312d0bf15b)" style="fill: none; stroke: #029e73; stroke-width: 2.2; stroke-linecap: round"/>
   </g>
   <g id="patch_21">
    <path d="M 86.388676 547.26 
L 86.388676 403.2 
" style="fill: none; stroke: #cccccc; stroke-width: 0.8; stroke-linejoin: miter; stroke-linecap: square"/>
   </g>
   <g id="patch_22">
    <path d="M 86.388676 547.26 
L 746.294313 547.26 
" style="fill: none; stroke: #cccccc; stroke-width: 0.8; stroke-linejoin: miter; stroke-linecap: square"/>
   </g>
   <g id="text_30">
    <!-- C -->
    <g style="fill: #262626" transform="translate(7.2 400.793325) scale(0.12 -0.12)">
     <defs>
      <path id="DejaVuSerif-Bold-43" d="M 4769 1331 
Q 4584 609 4106 259 
Q 3628 -91 2822 -91 
Q 1641 -91 955 561 
Q 269 1213 269 2328 
Q 269 3447 955 4098 
Q 1641 4750 2822 4750 
Q 3238 4750 3688 4650 
Q 4138 4550 4641 4347 
L 4641 3200 
L 4244 3200 
Q 4122 3788 3800 4080 
Q 3478 4372 2950 4372 
Q 2269 4372 1937 3870 
Q 1606 3369 1606 2328 
Q 1606 1288 1937 788 
Q 2269 288 2956 288 
Q 3422 288 3717 547 
Q 4013 806 4147 1331 
L 4769 1331 
z
" transform="scale(0.015625)"/>
     </defs>
     <use xlink:href="#DejaVuSerif-Bold-43"/>
    </g>
   </g>
   <g id="text_31">
    <!-- Intrinsic reward $r_{int}$ -->
    <g style="fill: #262626" transform="translate(86.388676 397.2) scale(0.11 -0.11)">
     <defs>
      <path id="DejaVuSerif-Bold-49" d="M 300 0 
L 300 378 
L 897 378 
L 897 4288 
L 300 4288 
L 300 4666 
L 2700 4666 
L 2700 4288 
L 2100 4288 
L 2100 378 
L 2700 378 
L 2700 0 
L 300 0 
z
" transform="scale(0.015625)"/>
      <path id="DejaVuSerif-Bold-77" d="M 3450 3322 
L 4206 1106 
L 4831 2944 
L 4397 2944 
L 4397 3322 
L 5638 3322 
L 5638 2944 
L 5247 2944 
L 4244 0 
L 3481 0 
L 2778 2081 
L 2069 0 
L 1313 0 
L 306 2944 
L -56 2944 
L -56 3322 
L 1825 3322 
L 1825 2944 
L 1434 2944 
L 2047 1147 
L 2791 3322 
L 3450 3322 
z
" transform="scale(0.015625)"/>
      <path id="DejaVuSerif-Bold-64" d="M 2747 1497 
L 2747 1825 
Q 2747 2406 2597 2665 
Q 2447 2925 2119 2925 
Q 1775 2925 1636 2651 
Q 1497 2378 1497 1663 
Q 1497 947 1637 672 
Q 1778 397 2119 397 
Q 2447 397 2597 656 
Q 2747 916 2747 1497 
z
M 3853 378 
L 4325 378 
L 4325 0 
L 2747 0 
L 2747 422 
Q 2606 163 2367 36 
Q 2128 -91 1778 -91 
Q 1072 -91 667 378 
Q 263 847 263 1663 
Q 263 2481 667 2947 
Q 1072 3413 1778 3413 
Q 2128 3413 2367 3286 
Q 2606 3159 2747 2900 
L 2747 4488 
L 2272 4488 
L 2272 4863 
L 3853 4863 
L 3853 378 
z
" transform="scale(0.015625)"/>
      <path id="DejaVuSans-Oblique-72" d="M 2853 2969 
Q 2766 3016 2653 3041 
Q 2541 3066 2413 3066 
Q 1953 3066 1609 2717 
Q 1266 2369 1153 1784 
L 800 0 
L 225 0 
L 909 3500 
L 1484 3500 
L 1375 2956 
Q 1603 3259 1920 3421 
Q 2238 3584 2597 3584 
Q 2691 3584 2781 3573 
Q 2872 3563 2963 3538 
L 2853 2969 
z
" transform="scale(0.015625)"/>
      <path id="DejaVuSans-Oblique-6e" d="M 3566 2113 
L 3156 0 
L 2578 0 
L 2988 2091 
Q 3016 2238 3031 2350 
Q 3047 2463 3047 2528 
Q 3047 2791 2881 2937 
Q 2716 3084 2419 3084 
Q 1956 3084 1622 2776 
Q 1288 2469 1184 1941 
L 800 0 
L 225 0 
L 903 3500 
L 1478 3500 
L 1363 2950 
Q 1603 3253 1940 3418 
Q 2278 3584 2650 3584 
Q 3113 3584 3367 3334 
Q 3622 3084 3622 2631 
Q 3622 2519 3608 2391 
Q 3594 2263 3566 2113 
z
" transform="scale(0.015625)"/>
      <path id="DejaVuSans-Oblique-74" d="M 2706 3500 
L 2619 3053 
L 1472 3053 
L 1100 1153 
Q 1081 1047 1072 975 
Q 1063 903 1063 863 
Q 1063 663 1183 572 
Q 1303 481 1569 481 
L 2150 481 
L 2053 0 
L 1503 0 
Q 991 0 739 200 
Q 488 400 488 806 
Q 488 878 497 964 
Q 506 1050 525 1153 
L 897 3053 
L 409 3053 
L 500 3500 
L 978 3500 
L 1172 4494 
L 1747 4494 
L 1556 3500 
L 2706 3500 
z
" transform="scale(0.015625)"/>
     </defs>
     <use xlink:href="#DejaVuSerif-Bold-49" transform="translate(0 0.015625)"/>
     <use xlink:href="#DejaVuSerif-Bold-6e" transform="translate(46.777344 0.015625)"/>
     <use xlink:href="#DejaVuSerif-Bold-74" transform="translate(119.482422 0.015625)"/>
     <use xlink:href="#DejaVuSerif-Bold-72" transform="translate(165.673828 0.015625)"/>
     <use xlink:href="#DejaVuSerif-Bold-69" transform="translate(218.359375 0.015625)"/>
     <use xlink:href="#DejaVuSerif-Bold-6e" transform="translate(256.347656 0.015625)"/>
     <use xlink:href="#DejaVuSerif-Bold-73" transform="translate(329.052734 0.015625)"/>
     <use xlink:href="#DejaVuSerif-Bold-69" transform="translate(385.351562 0.015625)"/>
     <use xlink:href="#DejaVuSerif-Bold-63" transform="translate(423.339844 0.015625)"/>
     <use xlink:href="#DejaVuSerif-Bold-20" transform="translate(484.228516 0.015625)"/>
     <use xlink:href="#DejaVuSerif-Bold-72" transform="translate(519.042969 0.015625)"/>
     <use xlink:href="#DejaVuSerif-Bold-65" transform="translate(571.728516 0.015625)"/>
     <use xlink:href="#DejaVuSerif-Bold-77" transform="translate(635.351562 0.015625)"/>
     <use xlink:href="#DejaVuSerif-Bold-61" transform="translate(721.435547 0.015625)"/>
     <use xlink:href="#DejaVuSerif-Bold-72" transform="translate(786.230469 0.015625)"/>
     <use xlink:href="#DejaVuSerif-Bold-64" transform="translate(838.916016 0.015625)"/>
     <use xlink:href="#DejaVuSerif-Bold-20" transform="translate(908.837891 0.015625)"/>
     <use xlink:href="#DejaVuSans-Oblique-72" transform="translate(943.652344 0.015625)"/>
     <use xlink:href="#DejaVuSans-Oblique-69" transform="translate(984.765625 -16.390625) scale(0.7)"/>
     <use xlink:href="#DejaVuSans-Oblique-6e" transform="translate(1004.213867 -16.390625) scale(0.7)"/>
     <use xlink:href="#DejaVuSans-Oblique-74" transform="translate(1048.579102 -16.390625) scale(0.7)"/>
    </g>
   </g>
  </g>
  <g id="text_32">
   <!-- Simplified PSAIM Signals Across Hidden Entropy Regime Blocks -->
   <g style="fill: #262626" transform="translate(165.125364 16.318125) scale(0.12 -0.12)">
    <defs>
     <path id="DejaVuSerif-Bold-53" d="M 494 225 
L 494 1331 
L 891 1331 
Q 981 806 1318 547 
Q 1656 288 2253 288 
Q 2738 288 2991 472 
Q 3244 656 3244 1013 
Q 3244 1294 3072 1450 
Q 2900 1606 2363 1741 
L 1663 1913 
Q 978 2088 700 2398 
Q 422 2709 422 3284 
Q 422 3978 883 4364 
Q 1344 4750 2175 4750 
Q 2584 4750 3026 4681 
Q 3469 4613 3944 4475 
L 3944 3444 
L 3547 3444 
Q 3456 3925 3150 4148 
Q 2844 4372 2278 4372 
Q 1816 4372 1580 4211 
Q 1344 4050 1344 3731 
Q 1344 3441 1506 3289 
Q 1669 3138 2303 2975 
L 3003 2803 
Q 3653 2641 3945 2297 
Q 4238 1953 4238 1350 
Q 4238 644 3750 276 
Q 3263 -91 2316 -91 
Q 1859 -91 1409 -12 
Q 959 66 494 225 
z
" transform="scale(0.015625)"/>
     <path id="DejaVuSerif-Bold-66" d="M 3097 4031 
L 2747 4031 
Q 2722 4275 2605 4394 
Q 2488 4513 2272 4513 
Q 2022 4513 1909 4333 
Q 1797 4153 1797 3750 
L 1797 3322 
L 2631 3322 
L 2631 2944 
L 1797 2944 
L 1797 378 
L 2438 378 
L 2438 0 
L 219 0 
L 219 378 
L 691 378 
L 691 2944 
L 197 2944 
L 197 3322 
L 691 3322 
L 691 3738 
Q 691 4291 1044 4577 
Q 1397 4863 2081 4863 
Q 2347 4863 2600 4833 
Q 2853 4803 3097 4744 
L 3097 4031 
z
" transform="scale(0.015625)"/>
     <path id="DejaVuSerif-Bold-50" d="M 300 0 
L 300 378 
L 897 378 
L 897 4288 
L 300 4288 
L 300 4666 
L 2956 4666 
Q 3734 4666 4193 4295 
Q 4653 3925 4653 3303 
Q 4653 2678 4192 2304 
Q 3731 1931 2956 1931 
L 2100 1931 
L 2100 378 
L 2853 378 
L 2853 0 
L 300 0 
z
M 2100 2309 
L 2450 2309 
Q 2856 2309 3098 2579 
Q 3341 2850 3341 3303 
Q 3341 3753 3100 4020 
Q 2859 4288 2450 4288 
L 2100 4288 
L 2100 2309 
z
" transform="scale(0.015625)"/>
     <path id="DejaVuSerif-Bold-4d" d="M 269 0 
L 269 378 
L 863 378 
L 863 4288 
L 269 4288 
L 269 4666 
L 2194 4666 
L 3525 1672 
L 4863 4666 
L 6784 4666 
L 6784 4288 
L 6188 4288 
L 6188 378 
L 6784 378 
L 6784 0 
L 4384 0 
L 4384 378 
L 4978 378 
L 4978 3938 
L 3531 684 
L 2741 684 
L 1300 3938 
L 1300 378 
L 1894 378 
L 1894 0 
L 269 0 
z
" transform="scale(0.015625)"/>
     <path id="DejaVuSerif-Bold-48" d="M 300 0 
L 300 378 
L 897 378 
L 897 4288 
L 300 4288 
L 300 4666 
L 2700 4666 
L 2700 4288 
L 2100 4288 
L 2100 2719 
L 3956 2719 
L 3956 4288 
L 3359 4288 
L 3359 4666 
L 5759 4666 
L 5759 4288 
L 5159 4288 
L 5159 378 
L 5759 378 
L 5759 0 
L 3359 0 
L 3359 378 
L 3956 378 
L 3956 2291 
L 2100 2291 
L 2100 378 
L 2700 378 
L 2700 0 
L 300 0 
z
" transform="scale(0.015625)"/>
     <path id="DejaVuSerif-Bold-79" d="M 1997 -750 
Q 1847 -1116 1634 -1269 
Q 1422 -1422 1063 -1422 
Q 909 -1422 721 -1387 
Q 534 -1353 313 -1288 
L 313 -594 
L 666 -597 
Q 675 -838 779 -953 
Q 884 -1069 1094 -1069 
Q 1297 -1069 1422 -958 
Q 1547 -847 1672 -538 
L 1722 -422 
L 275 2944 
L -84 2944 
L -84 3322 
L 1831 3322 
L 1831 2944 
L 1434 2944 
L 2278 978 
L 3066 2944 
L 2625 2944 
L 2625 3322 
L 3872 3322 
L 3872 2944 
L 3469 2944 
L 1997 -750 
z
" transform="scale(0.015625)"/>
     <path id="DejaVuSerif-Bold-52" d="M 3397 2278 
Q 3675 2238 3865 2094 
Q 4056 1950 4197 1678 
L 4878 378 
L 5356 378 
L 5356 0 
L 3822 0 
L 3078 1409 
Q 2863 1847 2711 1967 
Q 2559 2088 2291 2088 
L 2100 2088 
L 2100 378 
L 2700 378 
L 2700 0 
L 300 0 
L 300 378 
L 897 378 
L 897 4288 
L 300 4288 
L 300 4666 
L 2963 4666 
Q 3775 4666 4217 4339 
Q 4659 4013 4659 3413 
Q 4659 2925 4345 2642 
Q 4031 2359 3397 2278 
z
M 2100 2463 
L 2509 2463 
Q 2947 2463 3183 2700 
Q 3419 2938 3419 3378 
Q 3419 3819 3183 4053 
Q 2947 4288 2509 4288 
L 2100 4288 
L 2100 2463 
z
" transform="scale(0.015625)"/>
     <path id="DejaVuSerif-Bold-6b" d="M 2216 0 
L 219 0 
L 219 378 
L 691 378 
L 691 4488 
L 219 4488 
L 219 4863 
L 1797 4863 
L 1797 1741 
L 3138 2944 
L 2741 2944 
L 2741 3322 
L 4256 3322 
L 4256 2944 
L 3641 2944 
L 2784 2175 
L 4184 378 
L 4544 378 
L 4544 0 
L 2638 0 
L 2638 378 
L 3028 378 
L 2106 1563 
L 1797 1288 
L 1797 378 
L 2216 378 
L 2216 0 
z
" transform="scale(0.015625)"/>
    </defs>
    <use xlink:href="#DejaVuSerif-Bold-53"/>
    <use xlink:href="#DejaVuSerif-Bold-69" transform="translate(72.216797 0)"/>
    <use xlink:href="#DejaVuSerif-Bold-6d" transform="translate(110.205078 0)"/>
    <use xlink:href="#DejaVuSerif-Bold-70" transform="translate(216.015625 0)"/>
    <use xlink:href="#DejaVuSerif-Bold-6c" transform="translate(285.9375 0)"/>
    <use xlink:href="#DejaVuSerif-Bold-69" transform="translate(323.925781 0)"/>
    <use xlink:href="#DejaVuSerif-Bold-66" transform="translate(361.914062 0)"/>
    <use xlink:href="#DejaVuSerif-Bold-69" transform="translate(404.931641 0)"/>
    <use xlink:href="#DejaVuSerif-Bold-65" transform="translate(442.919922 0)"/>
    <use xlink:href="#DejaVuSerif-Bold-64" transform="translate(506.542969 0)"/>
    <use xlink:href="#DejaVuSerif-Bold-20" transform="translate(576.464844 0)"/>
    <use xlink:href="#DejaVuSerif-Bold-50" transform="translate(611.279297 0)"/>
    <use xlink:href="#DejaVuSerif-Bold-53" transform="translate(686.474609 0)"/>
    <use xlink:href="#DejaVuSerif-Bold-41" transform="translate(758.691406 0)"/>
    <use xlink:href="#DejaVuSerif-Bold-49" transform="translate(836.279297 0)"/>
    <use xlink:href="#DejaVuSerif-Bold-4d" transform="translate(883.056641 0)"/>
    <use xlink:href="#DejaVuSerif-Bold-20" transform="translate(993.75 0)"/>
    <use xlink:href="#DejaVuSerif-Bold-53" transform="translate(1028.564453 0)"/>
    <use xlink:href="#DejaVuSerif-Bold-69" transform="translate(1100.78125 0)"/>
    <use xlink:href="#DejaVuSerif-Bold-67" transform="translate(1138.769531 0)"/>
    <use xlink:href="#DejaVuSerif-Bold-6e" transform="translate(1208.691406 0)"/>
    <use xlink:href="#DejaVuSerif-Bold-61" transform="translate(1281.396484 0)"/>
    <use xlink:href="#DejaVuSerif-Bold-6c" transform="translate(1346.191406 0)"/>
    <use xlink:href="#DejaVuSerif-Bold-73" transform="translate(1384.179688 0)"/>
    <use xlink:href="#DejaVuSerif-Bold-20" transform="translate(1440.478516 0)"/>
    <use xlink:href="#DejaVuSerif-Bold-41" transform="translate(1475.292969 0)"/>
    <use xlink:href="#DejaVuSerif-Bold-63" transform="translate(1552.880859 0)"/>
    <use xlink:href="#DejaVuSerif-Bold-72" transform="translate(1613.769531 0)"/>
    <use xlink:href="#DejaVuSerif-Bold-6f" transform="translate(1666.455078 0)"/>
    <use xlink:href="#DejaVuSerif-Bold-73" transform="translate(1733.154297 0)"/>
    <use xlink:href="#DejaVuSerif-Bold-73" transform="translate(1789.453125 0)"/>
    <use xlink:href="#DejaVuSerif-Bold-20" transform="translate(1845.751953 0)"/>
    <use xlink:href="#DejaVuSerif-Bold-48" transform="translate(1880.566406 0)"/>
    <use xlink:href="#DejaVuSerif-Bold-69" transform="translate(1975.048828 0)"/>
    <use xlink:href="#DejaVuSerif-Bold-64" transform="translate(2013.037109 0)"/>
    <use xlink:href="#DejaVuSerif-Bold-64" transform="translate(2082.958984 0)"/>
    <use xlink:href="#DejaVuSerif-Bold-65" transform="translate(2152.880859 0)"/>
    <use xlink:href="#DejaVuSerif-Bold-6e" transform="translate(2216.503906 0)"/>
    <use xlink:href="#DejaVuSerif-Bold-20" transform="translate(2289.208984 0)"/>
    <use xlink:href="#DejaVuSerif-Bold-45" transform="translate(2324.023438 0)"/>
    <use xlink:href="#DejaVuSerif-Bold-6e" transform="translate(2400.244141 0)"/>
    <use xlink:href="#DejaVuSerif-Bold-74" transform="translate(2472.949219 0)"/>
    <use xlink:href="#DejaVuSerif-Bold-72" transform="translate(2519.140625 0)"/>
    <use xlink:href="#DejaVuSerif-Bold-6f" transform="translate(2571.826172 0)"/>
    <use xlink:href="#DejaVuSerif-Bold-70" transform="translate(2638.525391 0)"/>
    <use xlink:href="#DejaVuSerif-Bold-79" transform="translate(2708.447266 0)"/>
    <use xlink:href="#DejaVuSerif-Bold-20" transform="translate(2766.552734 0)"/>
    <use xlink:href="#DejaVuSerif-Bold-52" transform="translate(2801.367188 0)"/>
    <use xlink:href="#DejaVuSerif-Bold-65" transform="translate(2884.472656 0)"/>
    <use xlink:href="#DejaVuSerif-Bold-67" transform="translate(2948.095703 0)"/>
    <use xlink:href="#DejaVuSerif-Bold-69" transform="translate(3018.017578 0)"/>
    <use xlink:href="#DejaVuSerif-Bold-6d" transform="translate(3056.005859 0)"/>
    <use xlink:href="#DejaVuSerif-Bold-65" transform="translate(3161.816406 0)"/>
    <use xlink:href="#DejaVuSerif-Bold-20" transform="translate(3225.439453 0)"/>
    <use xlink:href="#DejaVuSerif-Bold-42" transform="translate(3260.253906 0)"/>
    <use xlink:href="#DejaVuSerif-Bold-6c" transform="translate(3344.775391 0)"/>
    <use xlink:href="#DejaVuSerif-Bold-6f" transform="translate(3382.763672 0)"/>
    <use xlink:href="#DejaVuSerif-Bold-63" transform="translate(3449.462891 0)"/>
    <use xlink:href="#DejaVuSerif-Bold-6b" transform="translate(3510.351562 0)"/>
    <use xlink:href="#DejaVuSerif-Bold-73" transform="translate(3579.638672 0)"/>
   </g>
  </g>
 </g>
 <defs>
  <clipPath id="p6b70720a77">
   <rect x="86.388676" y="62.28" width="659.905636" height="144.06"/>
  </clipPath>
  <clipPath id="p27aa33df2e">
   <rect x="86.388676" y="232.74" width="659.905636" height="144.06"/>
  </clipPath>
  <clipPath id="p312d0bf15b">
   <rect x="86.388676" y="403.2" width="659.905636" height="144.06"/>
  </clipPath>
 </defs>
</svg>
