<?xml version="1.0" encoding="utf-8" standalone="no"?>
<!DOCTYPE svg PUBLIC "-//W3C//DTD SVG 1.1//EN"
  "http://www.w3.org/Graphics/SVG/1.1/DTD/svg11.dtd">
<svg xmlns:xlink="http://www.w3.org/1999/xlink" width="714.276563pt" height="286.270312pt" viewBox="0 0 714.276563 286.270312" xmlns="http://www.w3.org/2000/svg" version="1.1">
 <metadata>
  <rdf:RDF xmlns:dc="http://purl.org/dc/elements/1.1/" xmlns:cc="http://creativecommons.org/ns#" xmlns:rdf="http://www.w3.org/1999/02/22-rdf-syntax-ns#">
   <cc:Work>
    <dc:type rdf:resource="http://purl.org/dc/dcmitype/StillImage"/>
    <dc:date>2026-05-09T12:36:42.922185</dc:date>
    <dc:format>image/svg+xml</dc:format>
    <dc:creator>
     <cc:Agent>
      <dc:title>Matplotlib v3.10.5, https://matplotlib.org/</dc:title>
     </cc:Agent>
    </dc:creator>
   </cc:Work>
  </rdf:RDF>
 </metadata>
 <defs>
  <style type="text/css">*{stroke-linejoin: round; stroke-linecap: butt}</style>
 </defs>
 <g id="figure_1">
  <g id="patch_1">
   <path d="M 0 286.270312 
L 714.276563 286.270312 
L 714.276563 0 
L 0 0 
z
" style="fill: #ffffff"/>
  </g>
  <g id="axes_1">
   <g id="patch_2">
    <path d="M 32.636563 263.36 
L 343.836562 263.36 
L 343.836562 47.76 
L 32.636563 47.76 
z
" style="fill: #ffffff"/>
   </g>
   <g id="patch_3">
    <path d="M 50.823575 263.36 
L 87.197601 263.36 
L 87.197601 69.799652 
L 50.823575 69.799652 
z
" clip-path="url(#pf4d863125b)" style="fill: #4c78a8; opacity: 0.86"/>
   </g>
   <g id="patch_4">
    <path d="M 151.862537 263.36 
L 188.236562 263.36 
L 188.236562 58.026667 
L 151.862537 58.026667 
z
" clip-path="url(#pf4d863125b)" style="fill: #4c78a8; opacity: 0.86"/>
   </g>
   <g id="patch_5">
    <path d="M 252.901498 263.36 
L 289.275524 263.36 
L 289.275524 58.026667 
L 252.901498 58.026667 
z
" clip-path="url(#pf4d863125b)" style="fill: #4c78a8; opacity: 0.86"/>
   </g>
   <g id="patch_6">
    <path d="M 87.197601 263.36 
L 123.571627 263.36 
L 123.571627 149.469671 
L 87.197601 149.469671 
z
" clip-path="url(#pf4d863125b)" style="fill: #e45756; opacity: 0.86"/>
   </g>
   <g id="patch_7">
    <path d="M 188.236562 263.36 
L 224.610588 263.36 
L 224.610588 152.507227 
L 188.236562 152.507227 
z
" clip-path="url(#pf4d863125b)" style="fill: #e45756; opacity: 0.86"/>
   </g>
   <g id="patch_8">
    <path d="M 289.275524 263.36 
L 325.64955 263.36 
L 325.64955 152.936071 
L 289.275524 152.936071 
z
" clip-path="url(#pf4d863125b)" style="fill: #e45756; opacity: 0.86"/>
   </g>
   <g id="matplotlib.axis_1">
    <g id="xtick_1">
     <g id="line2d_1">
      <defs>
       <path id="m64a3d04fd0" d="M 0 0 
L 0 3.5 
" style="stroke: #000000; stroke-width: 0.8"/>
      </defs>
      <g>
       <use xlink:href="#m64a3d04fd0" x="87.197601" y="263.36" style="stroke: #000000; stroke-width: 0.8"/>
      </g>
     </g>
     <g id="text_1">
      <!-- Low -->
      <g transform="translate(78.335414 277.198594) scale(0.09 -0.09)">
       <defs>
        <path id="DejaVuSans-4c" d="M 628 4666 
L 1259 4666 
L 1259 531 
L 3531 531 
L 3531 0 
L 628 0 
L 628 4666 
z
" transform="scale(0.015625)"/>
        <path id="DejaVuSans-6f" d="M 1959 3097 
Q 1497 3097 1228 2736 
Q 959 2375 959 1747 
Q 959 1119 1226 758 
Q 1494 397 1959 397 
Q 2419 397 2687 759 
Q 2956 1122 2956 1747 
Q 2956 2369 2687 2733 
Q 2419 3097 1959 3097 
z
M 1959 3584 
Q 2709 3584 3137 3096 
Q 3566 2609 3566 1747 
Q 3566 888 3137 398 
Q 2709 -91 1959 -91 
Q 1206 -91 779 398 
Q 353 888 353 1747 
Q 353 2609 779 3096 
Q 1206 3584 1959 3584 
z
" transform="scale(0.015625)"/>
        <path id="DejaVuSans-77" d="M 269 3500 
L 844 3500 
L 1563 769 
L 2278 3500 
L 2956 3500 
L 3675 769 
L 4391 3500 
L 4966 3500 
L 4050 0 
L 3372 0 
L 2619 2869 
L 1863 0 
L 1184 0 
L 269 3500 
z
" transform="scale(0.015625)"/>
       </defs>
       <use xlink:href="#DejaVuSans-4c"/>
       <use xlink:href="#DejaVuSans-6f" transform="translate(53.962891 0)"/>
       <use xlink:href="#DejaVuSans-77" transform="translate(115.144531 0)"/>
      </g>
     </g>
    </g>
    <g id="xtick_2">
     <g id="line2d_2">
      <g>
       <use xlink:href="#m64a3d04fd0" x="188.236562" y="263.36" style="stroke: #000000; stroke-width: 0.8"/>
      </g>
     </g>
     <g id="text_2">
      <!-- Medium -->
      <g transform="translate(170.242891 277.198594) scale(0.09 -0.09)">
       <defs>
        <path id="DejaVuSans-4d" d="M 628 4666 
L 1569 4666 
L 2759 1491 
L 3956 4666 
L 4897 4666 
L 4897 0 
L 4281 0 
L 4281 4097 
L 3078 897 
L 2444 897 
L 1241 4097 
L 1241 0 
L 628 0 
L 628 4666 
z
" transform="scale(0.015625)"/>
        <path id="DejaVuSans-65" d="M 3597 1894 
L 3597 1613 
L 953 1613 
Q 991 1019 1311 708 
Q 1631 397 2203 397 
Q 2534 397 2845 478 
Q 3156 559 3463 722 
L 3463 178 
Q 3153 47 2828 -22 
Q 2503 -91 2169 -91 
Q 1331 -91 842 396 
Q 353 884 353 1716 
Q 353 2575 817 3079 
Q 1281 3584 2069 3584 
Q 2775 3584 3186 3129 
Q 3597 2675 3597 1894 
z
M 3022 2063 
Q 3016 2534 2758 2815 
Q 2500 3097 2075 3097 
Q 1594 3097 1305 2825 
Q 1016 2553 972 2059 
L 3022 2063 
z
" transform="scale(0.015625)"/>
        <path id="DejaVuSans-64" d="M 2906 2969 
L 2906 4863 
L 3481 4863 
L 3481 0 
L 2906 0 
L 2906 525 
Q 2725 213 2448 61 
Q 2172 -91 1784 -91 
Q 1150 -91 751 415 
Q 353 922 353 1747 
Q 353 2572 751 3078 
Q 1150 3584 1784 3584 
Q 2172 3584 2448 3432 
Q 2725 3281 2906 2969 
z
M 947 1747 
Q 947 1113 1208 752 
Q 1469 391 1925 391 
Q 2381 391 2643 752 
Q 2906 1113 2906 1747 
Q 2906 2381 2643 2742 
Q 2381 3103 1925 3103 
Q 1469 3103 1208 2742 
Q 947 2381 947 1747 
z
" transform="scale(0.015625)"/>
        <path id="DejaVuSans-69" d="M 603 3500 
L 1178 3500 
L 1178 0 
L 603 0 
L 603 3500 
z
M 603 4863 
L 1178 4863 
L 1178 4134 
L 603 4134 
L 603 4863 
z
" transform="scale(0.015625)"/>
        <path id="DejaVuSans-75" d="M 544 1381 
L 544 3500 
L 1119 3500 
L 1119 1403 
Q 1119 906 1312 657 
Q 1506 409 1894 409 
Q 2359 409 2629 706 
Q 2900 1003 2900 1516 
L 2900 3500 
L 3475 3500 
L 3475 0 
L 2900 0 
L 2900 538 
Q 2691 219 2414 64 
Q 2138 -91 1772 -91 
Q 1169 -91 856 284 
Q 544 659 544 1381 
z
M 1991 3584 
L 1991 3584 
z
" transform="scale(0.015625)"/>
        <path id="DejaVuSans-6d" d="M 3328 2828 
Q 3544 3216 3844 3400 
Q 4144 3584 4550 3584 
Q 5097 3584 5394 3201 
Q 5691 2819 5691 2113 
L 5691 0 
L 5113 0 
L 5113 2094 
Q 5113 2597 4934 2840 
Q 4756 3084 4391 3084 
Q 3944 3084 3684 2787 
Q 3425 2491 3425 1978 
L 3425 0 
L 2847 0 
L 2847 2094 
Q 2847 2600 2669 2842 
Q 2491 3084 2119 3084 
Q 1678 3084 1418 2786 
Q 1159 2488 1159 1978 
L 1159 0 
L 581 0 
L 581 3500 
L 1159 3500 
L 1159 2956 
Q 1356 3278 1631 3431 
Q 1906 3584 2284 3584 
Q 2666 3584 2933 3390 
Q 3200 3197 3328 2828 
z
" transform="scale(0.015625)"/>
       </defs>
       <use xlink:href="#DejaVuSans-4d"/>
       <use xlink:href="#DejaVuSans-65" transform="translate(86.279297 0)"/>
       <use xlink:href="#DejaVuSans-64" transform="translate(147.802734 0)"/>
       <use xlink:href="#DejaVuSans-69" transform="translate(211.279297 0)"/>
       <use xlink:href="#DejaVuSans-75" transform="translate(239.0625 0)"/>
       <use xlink:href="#DejaVuSans-6d" transform="translate(302.441406 0)"/>
      </g>
     </g>
    </g>
    <g id="xtick_3">
     <g id="line2d_3">
      <g>
       <use xlink:href="#m64a3d04fd0" x="289.275524" y="263.36" style="stroke: #000000; stroke-width: 0.8"/>
      </g>
     </g>
     <g id="text_3">
      <!-- High -->
      <g transform="translate(278.932555 277.198594) scale(0.09 -0.09)">
       <defs>
        <path id="DejaVuSans-48" d="M 628 4666 
L 1259 4666 
L 1259 2753 
L 3553 2753 
L 3553 4666 
L 4184 4666 
L 4184 0 
L 3553 0 
L 3553 2222 
L 1259 2222 
L 1259 0 
L 628 0 
L 628 4666 
z
" transform="scale(0.015625)"/>
        <path id="DejaVuSans-67" d="M 2906 1791 
Q 2906 2416 2648 2759 
Q 2391 3103 1925 3103 
Q 1463 3103 1205 2759 
Q 947 2416 947 1791 
Q 947 1169 1205 825 
Q 1463 481 1925 481 
Q 2391 481 2648 825 
Q 2906 1169 2906 1791 
z
M 3481 434 
Q 3481 -459 3084 -895 
Q 2688 -1331 1869 -1331 
Q 1566 -1331 1297 -1286 
Q 1028 -1241 775 -1147 
L 775 -588 
Q 1028 -725 1275 -790 
Q 1522 -856 1778 -856 
Q 2344 -856 2625 -561 
Q 2906 -266 2906 331 
L 2906 616 
Q 2728 306 2450 153 
Q 2172 0 1784 0 
Q 1141 0 747 490 
Q 353 981 353 1791 
Q 353 2603 747 3093 
Q 1141 3584 1784 3584 
Q 2172 3584 2450 3431 
Q 2728 3278 2906 2969 
L 2906 3500 
L 3481 3500 
L 3481 434 
z
" transform="scale(0.015625)"/>
        <path id="DejaVuSans-68" d="M 3513 2113 
L 3513 0 
L 2938 0 
L 2938 2094 
Q 2938 2591 2744 2837 
Q 2550 3084 2163 3084 
Q 1697 3084 1428 2787 
Q 1159 2491 1159 1978 
L 1159 0 
L 581 0 
L 581 4863 
L 1159 4863 
L 1159 2956 
Q 1366 3272 1645 3428 
Q 1925 3584 2291 3584 
Q 2894 3584 3203 3211 
Q 3513 2838 3513 2113 
z
" transform="scale(0.015625)"/>
       </defs>
       <use xlink:href="#DejaVuSans-48"/>
       <use xlink:href="#DejaVuSans-69" transform="translate(75.195312 0)"/>
       <use xlink:href="#DejaVuSans-67" transform="translate(102.978516 0)"/>
       <use xlink:href="#DejaVuSans-68" transform="translate(166.455078 0)"/>
      </g>
     </g>
    </g>
   </g>
   <g id="matplotlib.axis_2">
    <g id="ytick_1">
     <g id="line2d_4">
      <defs>
       <path id="m1d77d2ca47" d="M 0 0 
L -3.5 0 
" style="stroke: #000000; stroke-width: 0.8"/>
      </defs>
      <g>
       <use xlink:href="#m1d77d2ca47" x="32.636563" y="263.36" style="stroke: #000000; stroke-width: 0.8"/>
      </g>
     </g>
     <g id="text_4">
      <!-- 0 -->
      <g transform="translate(19.910313 266.779297) scale(0.09 -0.09)">
       <defs>
        <path id="DejaVuSans-30" d="M 2034 4250 
Q 1547 4250 1301 3770 
Q 1056 3291 1056 2328 
Q 1056 1369 1301 889 
Q 1547 409 2034 409 
Q 2525 409 2770 889 
Q 3016 1369 3016 2328 
Q 3016 3291 2770 3770 
Q 2525 4250 2034 4250 
z
M 2034 4750 
Q 2819 4750 3233 4129 
Q 3647 3509 3647 2328 
Q 3647 1150 3233 529 
Q 2819 -91 2034 -91 
Q 1250 -91 836 529 
Q 422 1150 422 2328 
Q 422 3509 836 4129 
Q 1250 4750 2034 4750 
z
" transform="scale(0.015625)"/>
       </defs>
       <use xlink:href="#DejaVuSans-30"/>
      </g>
     </g>
    </g>
    <g id="ytick_2">
     <g id="line2d_5">
      <g>
       <use xlink:href="#m1d77d2ca47" x="32.636563" y="229.487674" style="stroke: #000000; stroke-width: 0.8"/>
      </g>
     </g>
     <g id="text_5">
      <!-- 1 -->
      <g transform="translate(19.910313 232.906971) scale(0.09 -0.09)">
       <defs>
        <path id="DejaVuSans-31" d="M 794 531 
L 1825 531 
L 1825 4091 
L 703 3866 
L 703 4441 
L 1819 4666 
L 2450 4666 
L 2450 531 
L 3481 531 
L 3481 0 
L 794 0 
L 794 531 
z
" transform="scale(0.015625)"/>
       </defs>
       <use xlink:href="#DejaVuSans-31"/>
      </g>
     </g>
    </g>
    <g id="ytick_3">
     <g id="line2d_6">
      <g>
       <use xlink:href="#m1d77d2ca47" x="32.636563" y="195.615348" style="stroke: #000000; stroke-width: 0.8"/>
      </g>
     </g>
     <g id="text_6">
      <!-- 2 -->
      <g transform="translate(19.910313 199.034645) scale(0.09 -0.09)">
       <defs>
        <path id="DejaVuSans-32" d="M 1228 531 
L 3431 531 
L 3431 0 
L 469 0 
L 469 531 
Q 828 903 1448 1529 
Q 2069 2156 2228 2338 
Q 2531 2678 2651 2914 
Q 2772 3150 2772 3378 
Q 2772 3750 2511 3984 
Q 2250 4219 1831 4219 
Q 1534 4219 1204 4116 
Q 875 4013 500 3803 
L 500 4441 
Q 881 4594 1212 4672 
Q 1544 4750 1819 4750 
Q 2544 4750 2975 4387 
Q 3406 4025 3406 3419 
Q 3406 3131 3298 2873 
Q 3191 2616 2906 2266 
Q 2828 2175 2409 1742 
Q 1991 1309 1228 531 
z
" transform="scale(0.015625)"/>
       </defs>
       <use xlink:href="#DejaVuSans-32"/>
      </g>
     </g>
    </g>
    <g id="ytick_4">
     <g id="line2d_7">
      <g>
       <use xlink:href="#m1d77d2ca47" x="32.636563" y="161.743023" style="stroke: #000000; stroke-width: 0.8"/>
      </g>
     </g>
     <g id="text_7">
      <!-- 3 -->
      <g transform="translate(19.910313 165.162319) scale(0.09 -0.09)">
       <defs>
        <path id="DejaVuSans-33" d="M 2597 2516 
Q 3050 2419 3304 2112 
Q 3559 1806 3559 1356 
Q 3559 666 3084 287 
Q 2609 -91 1734 -91 
Q 1441 -91 1130 -33 
Q 819 25 488 141 
L 488 750 
Q 750 597 1062 519 
Q 1375 441 1716 441 
Q 2309 441 2620 675 
Q 2931 909 2931 1356 
Q 2931 1769 2642 2001 
Q 2353 2234 1838 2234 
L 1294 2234 
L 1294 2753 
L 1863 2753 
Q 2328 2753 2575 2939 
Q 2822 3125 2822 3475 
Q 2822 3834 2567 4026 
Q 2313 4219 1838 4219 
Q 1578 4219 1281 4162 
Q 984 4106 628 3988 
L 628 4550 
Q 988 4650 1302 4700 
Q 1616 4750 1894 4750 
Q 2613 4750 3031 4423 
Q 3450 4097 3450 3541 
Q 3450 3153 3228 2886 
Q 3006 2619 2597 2516 
z
" transform="scale(0.015625)"/>
       </defs>
       <use xlink:href="#DejaVuSans-33"/>
      </g>
     </g>
    </g>
    <g id="ytick_5">
     <g id="line2d_8">
      <g>
       <use xlink:href="#m1d77d2ca47" x="32.636563" y="127.870697" style="stroke: #000000; stroke-width: 0.8"/>
      </g>
     </g>
     <g id="text_8">
      <!-- 4 -->
      <g transform="translate(19.910313 131.289994) scale(0.09 -0.09)">
       <defs>
        <path id="DejaVuSans-34" d="M 2419 4116 
L 825 1625 
L 2419 1625 
L 2419 4116 
z
M 2253 4666 
L 3047 4666 
L 3047 1625 
L 3713 1625 
L 3713 1100 
L 3047 1100 
L 3047 0 
L 2419 0 
L 2419 1100 
L 313 1100 
L 313 1709 
L 2253 4666 
z
" transform="scale(0.015625)"/>
       </defs>
       <use xlink:href="#DejaVuSans-34"/>
      </g>
     </g>
    </g>
    <g id="ytick_6">
     <g id="line2d_9">
      <g>
       <use xlink:href="#m1d77d2ca47" x="32.636563" y="93.998371" style="stroke: #000000; stroke-width: 0.8"/>
      </g>
     </g>
     <g id="text_9">
      <!-- 5 -->
      <g transform="translate(19.910313 97.417668) scale(0.09 -0.09)">
       <defs>
        <path id="DejaVuSans-35" d="M 691 4666 
L 3169 4666 
L 3169 4134 
L 1269 4134 
L 1269 2991 
Q 1406 3038 1543 3061 
Q 1681 3084 1819 3084 
Q 2600 3084 3056 2656 
Q 3513 2228 3513 1497 
Q 3513 744 3044 326 
Q 2575 -91 1722 -91 
Q 1428 -91 1123 -41 
Q 819 9 494 109 
L 494 744 
Q 775 591 1075 516 
Q 1375 441 1709 441 
Q 2250 441 2565 725 
Q 2881 1009 2881 1497 
Q 2881 1984 2565 2268 
Q 2250 2553 1709 2553 
Q 1456 2553 1204 2497 
Q 953 2441 691 2322 
L 691 4666 
z
" transform="scale(0.015625)"/>
       </defs>
       <use xlink:href="#DejaVuSans-35"/>
      </g>
     </g>
    </g>
    <g id="ytick_7">
     <g id="line2d_10">
      <g>
       <use xlink:href="#m1d77d2ca47" x="32.636563" y="60.126045" style="stroke: #000000; stroke-width: 0.8"/>
      </g>
     </g>
     <g id="text_10">
      <!-- 6 -->
      <g transform="translate(19.910313 63.545342) scale(0.09 -0.09)">
       <defs>
        <path id="DejaVuSans-36" d="M 2113 2584 
Q 1688 2584 1439 2293 
Q 1191 2003 1191 1497 
Q 1191 994 1439 701 
Q 1688 409 2113 409 
Q 2538 409 2786 701 
Q 3034 994 3034 1497 
Q 3034 2003 2786 2293 
Q 2538 2584 2113 2584 
z
M 3366 4563 
L 3366 3988 
Q 3128 4100 2886 4159 
Q 2644 4219 2406 4219 
Q 1781 4219 1451 3797 
Q 1122 3375 1075 2522 
Q 1259 2794 1537 2939 
Q 1816 3084 2150 3084 
Q 2853 3084 3261 2657 
Q 3669 2231 3669 1497 
Q 3669 778 3244 343 
Q 2819 -91 2113 -91 
Q 1303 -91 875 529 
Q 447 1150 447 2328 
Q 447 3434 972 4092 
Q 1497 4750 2381 4750 
Q 2619 4750 2861 4703 
Q 3103 4656 3366 4563 
z
" transform="scale(0.015625)"/>
       </defs>
       <use xlink:href="#DejaVuSans-36"/>
      </g>
     </g>
    </g>
    <g id="text_11">
     <!-- average slowdown -->
     <g transform="translate(14.038594 197.583672) rotate(-90) scale(0.09 -0.09)">
      <defs>
       <path id="DejaVuSans-61" d="M 2194 1759 
Q 1497 1759 1228 1600 
Q 959 1441 959 1056 
Q 959 750 1161 570 
Q 1363 391 1709 391 
Q 2188 391 2477 730 
Q 2766 1069 2766 1631 
L 2766 1759 
L 2194 1759 
z
M 3341 1997 
L 3341 0 
L 2766 0 
L 2766 531 
Q 2569 213 2275 61 
Q 1981 -91 1556 -91 
Q 1019 -91 701 211 
Q 384 513 384 1019 
Q 384 1609 779 1909 
Q 1175 2209 1959 2209 
L 2766 2209 
L 2766 2266 
Q 2766 2663 2505 2880 
Q 2244 3097 1772 3097 
Q 1472 3097 1187 3025 
Q 903 2953 641 2809 
L 641 3341 
Q 956 3463 1253 3523 
Q 1550 3584 1831 3584 
Q 2591 3584 2966 3190 
Q 3341 2797 3341 1997 
z
" transform="scale(0.015625)"/>
       <path id="DejaVuSans-76" d="M 191 3500 
L 800 3500 
L 1894 563 
L 2988 3500 
L 3597 3500 
L 2284 0 
L 1503 0 
L 191 3500 
z
" transform="scale(0.015625)"/>
       <path id="DejaVuSans-72" d="M 2631 2963 
Q 2534 3019 2420 3045 
Q 2306 3072 2169 3072 
Q 1681 3072 1420 2755 
Q 1159 2438 1159 1844 
L 1159 0 
L 581 0 
L 581 3500 
L 1159 3500 
L 1159 2956 
Q 1341 3275 1631 3429 
Q 1922 3584 2338 3584 
Q 2397 3584 2469 3576 
Q 2541 3569 2628 3553 
L 2631 2963 
z
" transform="scale(0.015625)"/>
       <path id="DejaVuSans-20" transform="scale(0.015625)"/>
       <path id="DejaVuSans-73" d="M 2834 3397 
L 2834 2853 
Q 2591 2978 2328 3040 
Q 2066 3103 1784 3103 
Q 1356 3103 1142 2972 
Q 928 2841 928 2578 
Q 928 2378 1081 2264 
Q 1234 2150 1697 2047 
L 1894 2003 
Q 2506 1872 2764 1633 
Q 3022 1394 3022 966 
Q 3022 478 2636 193 
Q 2250 -91 1575 -91 
Q 1294 -91 989 -36 
Q 684 19 347 128 
L 347 722 
Q 666 556 975 473 
Q 1284 391 1588 391 
Q 1994 391 2212 530 
Q 2431 669 2431 922 
Q 2431 1156 2273 1281 
Q 2116 1406 1581 1522 
L 1381 1569 
Q 847 1681 609 1914 
Q 372 2147 372 2553 
Q 372 3047 722 3315 
Q 1072 3584 1716 3584 
Q 2034 3584 2315 3537 
Q 2597 3491 2834 3397 
z
" transform="scale(0.015625)"/>
       <path id="DejaVuSans-6c" d="M 603 4863 
L 1178 4863 
L 1178 0 
L 603 0 
L 603 4863 
z
" transform="scale(0.015625)"/>
       <path id="DejaVuSans-6e" d="M 3513 2113 
L 3513 0 
L 2938 0 
L 2938 2094 
Q 2938 2591 2744 2837 
Q 2550 3084 2163 3084 
Q 1697 3084 1428 2787 
Q 1159 2491 1159 1978 
L 1159 0 
L 581 0 
L 581 3500 
L 1159 3500 
L 1159 2956 
Q 1366 3272 1645 3428 
Q 1925 3584 2291 3584 
Q 2894 3584 3203 3211 
Q 3513 2838 3513 2113 
z
" transform="scale(0.015625)"/>
      </defs>
      <use xlink:href="#DejaVuSans-61"/>
      <use xlink:href="#DejaVuSans-76" transform="translate(61.279297 0)"/>
      <use xlink:href="#DejaVuSans-65" transform="translate(120.458984 0)"/>
      <use xlink:href="#DejaVuSans-72" transform="translate(181.982422 0)"/>
      <use xlink:href="#DejaVuSans-61" transform="translate(223.095703 0)"/>
      <use xlink:href="#DejaVuSans-67" transform="translate(284.375 0)"/>
      <use xlink:href="#DejaVuSans-65" transform="translate(347.851562 0)"/>
      <use xlink:href="#DejaVuSans-20" transform="translate(409.375 0)"/>
      <use xlink:href="#DejaVuSans-73" transform="translate(441.162109 0)"/>
      <use xlink:href="#DejaVuSans-6c" transform="translate(493.261719 0)"/>
      <use xlink:href="#DejaVuSans-6f" transform="translate(521.044922 0)"/>
      <use xlink:href="#DejaVuSans-77" transform="translate(582.226562 0)"/>
      <use xlink:href="#DejaVuSans-64" transform="translate(664.013672 0)"/>
      <use xlink:href="#DejaVuSans-6f" transform="translate(727.490234 0)"/>
      <use xlink:href="#DejaVuSans-77" transform="translate(788.671875 0)"/>
      <use xlink:href="#DejaVuSans-6e" transform="translate(870.458984 0)"/>
     </g>
    </g>
   </g>
   <g id="LineCollection_1">
    <path d="M 69.010588 69.799652 
L 69.010588 69.799652 
" clip-path="url(#pf4d863125b)" style="fill: none; stroke: #000000"/>
    <path d="M 170.04955 58.026667 
L 170.04955 58.026667 
" clip-path="url(#pf4d863125b)" style="fill: none; stroke: #000000"/>
    <path d="M 271.088511 58.026667 
L 271.088511 58.026667 
" clip-path="url(#pf4d863125b)" style="fill: none; stroke: #000000"/>
   </g>
   <g id="line2d_11">
    <defs>
     <path id="m005879eaaf" d="M 3 0 
L -3 -0 
" style="stroke: #000000"/>
    </defs>
    <g clip-path="url(#pf4d863125b)">
     <use xlink:href="#m005879eaaf" x="69.010588" y="69.799652" style="stroke: #000000"/>
     <use xlink:href="#m005879eaaf" x="170.04955" y="58.026667" style="stroke: #000000"/>
     <use xlink:href="#m005879eaaf" x="271.088511" y="58.026667" style="stroke: #000000"/>
    </g>
   </g>
   <g id="line2d_12">
    <g clip-path="url(#pf4d863125b)">
     <use xlink:href="#m005879eaaf" x="69.010588" y="69.799652" style="stroke: #000000"/>
     <use xlink:href="#m005879eaaf" x="170.04955" y="58.026667" style="stroke: #000000"/>
     <use xlink:href="#m005879eaaf" x="271.088511" y="58.026667" style="stroke: #000000"/>
    </g>
   </g>
   <g id="LineCollection_2">
    <path d="M 105.384614 155.834843 
L 105.384614 143.30986 
" clip-path="url(#pf4d863125b)" style="fill: none; stroke: #000000"/>
    <path d="M 206.423575 156.895478 
L 206.423575 147.576589 
" clip-path="url(#pf4d863125b)" style="fill: none; stroke: #000000"/>
    <path d="M 307.462537 157.816685 
L 307.462537 147.398431 
" clip-path="url(#pf4d863125b)" style="fill: none; stroke: #000000"/>
   </g>
   <g id="line2d_13">
    <g clip-path="url(#pf4d863125b)">
     <use xlink:href="#m005879eaaf" x="105.384614" y="155.834843" style="stroke: #000000"/>
     <use xlink:href="#m005879eaaf" x="206.423575" y="156.895478" style="stroke: #000000"/>
     <use xlink:href="#m005879eaaf" x="307.462537" y="157.816685" style="stroke: #000000"/>
    </g>
   </g>
   <g id="line2d_14">
    <g clip-path="url(#pf4d863125b)">
     <use xlink:href="#m005879eaaf" x="105.384614" y="143.30986" style="stroke: #000000"/>
     <use xlink:href="#m005879eaaf" x="206.423575" y="147.576589" style="stroke: #000000"/>
     <use xlink:href="#m005879eaaf" x="307.462537" y="147.398431" style="stroke: #000000"/>
    </g>
   </g>
   <g id="patch_9">
    <path d="M 32.636563 263.36 
L 32.636563 47.76 
" style="fill: none; stroke: #000000; stroke-width: 0.8; stroke-linejoin: miter; stroke-linecap: square"/>
   </g>
   <g id="patch_10">
    <path d="M 32.636562 263.36 
L 343.836562 263.36 
" style="fill: none; stroke: #000000; stroke-width: 0.8; stroke-linejoin: miter; stroke-linecap: square"/>
   </g>
   <g id="text_12">
    <!-- Average Slowdown Under Duration Misreporting -->
    <g transform="translate(67.985781 41.76) scale(0.1 -0.1)">
     <defs>
      <path id="DejaVuSans-41" d="M 2188 4044 
L 1331 1722 
L 3047 1722 
L 2188 4044 
z
M 1831 4666 
L 2547 4666 
L 4325 0 
L 3669 0 
L 3244 1197 
L 1141 1197 
L 716 0 
L 50 0 
L 1831 4666 
z
" transform="scale(0.015625)"/>
      <path id="DejaVuSans-53" d="M 3425 4513 
L 3425 3897 
Q 3066 4069 2747 4153 
Q 2428 4238 2131 4238 
Q 1616 4238 1336 4038 
Q 1056 3838 1056 3469 
Q 1056 3159 1242 3001 
Q 1428 2844 1947 2747 
L 2328 2669 
Q 3034 2534 3370 2195 
Q 3706 1856 3706 1288 
Q 3706 609 3251 259 
Q 2797 -91 1919 -91 
Q 1588 -91 1214 -16 
Q 841 59 441 206 
L 441 856 
Q 825 641 1194 531 
Q 1563 422 1919 422 
Q 2459 422 2753 634 
Q 3047 847 3047 1241 
Q 3047 1584 2836 1778 
Q 2625 1972 2144 2069 
L 1759 2144 
Q 1053 2284 737 2584 
Q 422 2884 422 3419 
Q 422 4038 858 4394 
Q 1294 4750 2059 4750 
Q 2388 4750 2728 4690 
Q 3069 4631 3425 4513 
z
" transform="scale(0.015625)"/>
      <path id="DejaVuSans-55" d="M 556 4666 
L 1191 4666 
L 1191 1831 
Q 1191 1081 1462 751 
Q 1734 422 2344 422 
Q 2950 422 3222 751 
Q 3494 1081 3494 1831 
L 3494 4666 
L 4128 4666 
L 4128 1753 
Q 4128 841 3676 375 
Q 3225 -91 2344 -91 
Q 1459 -91 1007 375 
Q 556 841 556 1753 
L 556 4666 
z
" transform="scale(0.015625)"/>
      <path id="DejaVuSans-44" d="M 1259 4147 
L 1259 519 
L 2022 519 
Q 2988 519 3436 956 
Q 3884 1394 3884 2338 
Q 3884 3275 3436 3711 
Q 2988 4147 2022 4147 
L 1259 4147 
z
M 628 4666 
L 1925 4666 
Q 3281 4666 3915 4102 
Q 4550 3538 4550 2338 
Q 4550 1131 3912 565 
Q 3275 0 1925 0 
L 628 0 
L 628 4666 
z
" transform="scale(0.015625)"/>
      <path id="DejaVuSans-74" d="M 1172 4494 
L 1172 3500 
L 2356 3500 
L 2356 3053 
L 1172 3053 
L 1172 1153 
Q 1172 725 1289 603 
Q 1406 481 1766 481 
L 2356 481 
L 2356 0 
L 1766 0 
Q 1100 0 847 248 
Q 594 497 594 1153 
L 594 3053 
L 172 3053 
L 172 3500 
L 594 3500 
L 594 4494 
L 1172 4494 
z
" transform="scale(0.015625)"/>
      <path id="DejaVuSans-70" d="M 1159 525 
L 1159 -1331 
L 581 -1331 
L 581 3500 
L 1159 3500 
L 1159 2969 
Q 1341 3281 1617 3432 
Q 1894 3584 2278 3584 
Q 2916 3584 3314 3078 
Q 3713 2572 3713 1747 
Q 3713 922 3314 415 
Q 2916 -91 2278 -91 
Q 1894 -91 1617 61 
Q 1341 213 1159 525 
z
M 3116 1747 
Q 3116 2381 2855 2742 
Q 2594 3103 2138 3103 
Q 1681 3103 1420 2742 
Q 1159 2381 1159 1747 
Q 1159 1113 1420 752 
Q 1681 391 2138 391 
Q 2594 391 2855 752 
Q 3116 1113 3116 1747 
z
" transform="scale(0.015625)"/>
     </defs>
     <use xlink:href="#DejaVuSans-41"/>
     <use xlink:href="#DejaVuSans-76" transform="translate(62.533203 0)"/>
     <use xlink:href="#DejaVuSans-65" transform="translate(121.712891 0)"/>
     <use xlink:href="#DejaVuSans-72" transform="translate(183.236328 0)"/>
     <use xlink:href="#DejaVuSans-61" transform="translate(224.349609 0)"/>
     <use xlink:href="#DejaVuSans-67" transform="translate(285.628906 0)"/>
     <use xlink:href="#DejaVuSans-65" transform="translate(349.105469 0)"/>
     <use xlink:href="#DejaVuSans-20" transform="translate(410.628906 0)"/>
     <use xlink:href="#DejaVuSans-53" transform="translate(442.416016 0)"/>
     <use xlink:href="#DejaVuSans-6c" transform="translate(505.892578 0)"/>
     <use xlink:href="#DejaVuSans-6f" transform="translate(533.675781 0)"/>
     <use xlink:href="#DejaVuSans-77" transform="translate(594.857422 0)"/>
     <use xlink:href="#DejaVuSans-64" transform="translate(676.644531 0)"/>
     <use xlink:href="#DejaVuSans-6f" transform="translate(740.121094 0)"/>
     <use xlink:href="#DejaVuSans-77" transform="translate(801.302734 0)"/>
     <use xlink:href="#DejaVuSans-6e" transform="translate(883.089844 0)"/>
     <use xlink:href="#DejaVuSans-20" transform="translate(946.46875 0)"/>
     <use xlink:href="#DejaVuSans-55" transform="translate(978.255859 0)"/>
     <use xlink:href="#DejaVuSans-6e" transform="translate(1051.449219 0)"/>
     <use xlink:href="#DejaVuSans-64" transform="translate(1114.828125 0)"/>
     <use xlink:href="#DejaVuSans-65" transform="translate(1178.304688 0)"/>
     <use xlink:href="#DejaVuSans-72" transform="translate(1239.828125 0)"/>
     <use xlink:href="#DejaVuSans-20" transform="translate(1280.941406 0)"/>
     <use xlink:href="#DejaVuSans-44" transform="translate(1312.728516 0)"/>
     <use xlink:href="#DejaVuSans-75" transform="translate(1389.730469 0)"/>
     <use xlink:href="#DejaVuSans-72" transform="translate(1453.109375 0)"/>
     <use xlink:href="#DejaVuSans-61" transform="translate(1494.222656 0)"/>
     <use xlink:href="#DejaVuSans-74" transform="translate(1555.501953 0)"/>
     <use xlink:href="#DejaVuSans-69" transform="translate(1594.710938 0)"/>
     <use xlink:href="#DejaVuSans-6f" transform="translate(1622.494141 0)"/>
     <use xlink:href="#DejaVuSans-6e" transform="translate(1683.675781 0)"/>
     <use xlink:href="#DejaVuSans-20" transform="translate(1747.054688 0)"/>
     <use xlink:href="#DejaVuSans-4d" transform="translate(1778.841797 0)"/>
     <use xlink:href="#DejaVuSans-69" transform="translate(1865.121094 0)"/>
     <use xlink:href="#DejaVuSans-73" transform="translate(1892.904297 0)"/>
     <use xlink:href="#DejaVuSans-72" transform="translate(1945.003906 0)"/>
     <use xlink:href="#DejaVuSans-65" transform="translate(1983.867188 0)"/>
     <use xlink:href="#DejaVuSans-70" transform="translate(2045.390625 0)"/>
     <use xlink:href="#DejaVuSans-6f" transform="translate(2108.867188 0)"/>
     <use xlink:href="#DejaVuSans-72" transform="translate(2170.048828 0)"/>
     <use xlink:href="#DejaVuSans-74" transform="translate(2211.162109 0)"/>
     <use xlink:href="#DejaVuSans-69" transform="translate(2250.371094 0)"/>
     <use xlink:href="#DejaVuSans-6e" transform="translate(2278.154297 0)"/>
     <use xlink:href="#DejaVuSans-67" transform="translate(2341.533203 0)"/>
    </g>
   </g>
   <g id="legend_1">
    <g id="patch_11">
     <path d="M 38.236563 259.36 
L 130.824062 259.36 
Q 132.424062 259.36 132.424062 257.76 
L 132.424062 235.075 
Q 132.424062 233.475 130.824062 233.475 
L 38.236563 233.475 
Q 36.636563 233.475 36.636563 235.075 
L 36.636563 257.76 
Q 36.636563 259.36 38.236563 259.36 
z
" style="fill: #ffffff; opacity: 0.8; stroke: #cccccc; stroke-linejoin: miter"/>
    </g>
    <g id="patch_12">
     <path d="M 39.836563 242.75375 
L 55.836563 242.75375 
L 55.836563 237.15375 
L 39.836563 237.15375 
z
" style="fill: #4c78a8; opacity: 0.86"/>
    </g>
    <g id="text_13">
     <!-- SJF heuristic -->
     <g transform="translate(62.236563 242.75375) scale(0.08 -0.08)">
      <defs>
       <path id="DejaVuSans-4a" d="M 628 4666 
L 1259 4666 
L 1259 325 
Q 1259 -519 939 -900 
Q 619 -1281 -91 -1281 
L -331 -1281 
L -331 -750 
L -134 -750 
Q 284 -750 456 -515 
Q 628 -281 628 325 
L 628 4666 
z
" transform="scale(0.015625)"/>
       <path id="DejaVuSans-46" d="M 628 4666 
L 3309 4666 
L 3309 4134 
L 1259 4134 
L 1259 2759 
L 3109 2759 
L 3109 2228 
L 1259 2228 
L 1259 0 
L 628 0 
L 628 4666 
z
" transform="scale(0.015625)"/>
       <path id="DejaVuSans-63" d="M 3122 3366 
L 3122 2828 
Q 2878 2963 2633 3030 
Q 2388 3097 2138 3097 
Q 1578 3097 1268 2742 
Q 959 2388 959 1747 
Q 959 1106 1268 751 
Q 1578 397 2138 397 
Q 2388 397 2633 464 
Q 2878 531 3122 666 
L 3122 134 
Q 2881 22 2623 -34 
Q 2366 -91 2075 -91 
Q 1284 -91 818 406 
Q 353 903 353 1747 
Q 353 2603 823 3093 
Q 1294 3584 2113 3584 
Q 2378 3584 2631 3529 
Q 2884 3475 3122 3366 
z
" transform="scale(0.015625)"/>
      </defs>
      <use xlink:href="#DejaVuSans-53"/>
      <use xlink:href="#DejaVuSans-4a" transform="translate(63.476562 0)"/>
      <use xlink:href="#DejaVuSans-46" transform="translate(92.96875 0)"/>
      <use xlink:href="#DejaVuSans-20" transform="translate(150.488281 0)"/>
      <use xlink:href="#DejaVuSans-68" transform="translate(182.275391 0)"/>
      <use xlink:href="#DejaVuSans-65" transform="translate(245.654297 0)"/>
      <use xlink:href="#DejaVuSans-75" transform="translate(307.177734 0)"/>
      <use xlink:href="#DejaVuSans-72" transform="translate(370.556641 0)"/>
      <use xlink:href="#DejaVuSans-69" transform="translate(411.669922 0)"/>
      <use xlink:href="#DejaVuSans-73" transform="translate(439.453125 0)"/>
      <use xlink:href="#DejaVuSans-74" transform="translate(491.552734 0)"/>
      <use xlink:href="#DejaVuSans-69" transform="translate(530.761719 0)"/>
      <use xlink:href="#DejaVuSans-63" transform="translate(558.544922 0)"/>
     </g>
    </g>
    <g id="patch_13">
     <path d="M 39.836563 254.49625 
L 55.836563 254.49625 
L 55.836563 248.89625 
L 39.836563 248.89625 
z
" style="fill: #e45756; opacity: 0.86"/>
    </g>
    <g id="text_14">
     <!-- Simplified PSAIM -->
     <g transform="translate(62.236563 254.49625) scale(0.08 -0.08)">
      <defs>
       <path id="DejaVuSans-66" d="M 2375 4863 
L 2375 4384 
L 1825 4384 
Q 1516 4384 1395 4259 
Q 1275 4134 1275 3809 
L 1275 3500 
L 2222 3500 
L 2222 3053 
L 1275 3053 
L 1275 0 
L 697 0 
L 697 3053 
L 147 3053 
L 147 3500 
L 697 3500 
L 697 3744 
Q 697 4328 969 4595 
Q 1241 4863 1831 4863 
L 2375 4863 
z
" transform="scale(0.015625)"/>
       <path id="DejaVuSans-50" d="M 1259 4147 
L 1259 2394 
L 2053 2394 
Q 2494 2394 2734 2622 
Q 2975 2850 2975 3272 
Q 2975 3691 2734 3919 
Q 2494 4147 2053 4147 
L 1259 4147 
z
M 628 4666 
L 2053 4666 
Q 2838 4666 3239 4311 
Q 3641 3956 3641 3272 
Q 3641 2581 3239 2228 
Q 2838 1875 2053 1875 
L 1259 1875 
L 1259 0 
L 628 0 
L 628 4666 
z
" transform="scale(0.015625)"/>
       <path id="DejaVuSans-49" d="M 628 4666 
L 1259 4666 
L 1259 0 
L 628 0 
L 628 4666 
z
" transform="scale(0.015625)"/>
      </defs>
      <use xlink:href="#DejaVuSans-53"/>
      <use xlink:href="#DejaVuSans-69" transform="translate(63.476562 0)"/>
      <use xlink:href="#DejaVuSans-6d" transform="translate(91.259766 0)"/>
      <use xlink:href="#DejaVuSans-70" transform="translate(188.671875 0)"/>
      <use xlink:href="#DejaVuSans-6c" transform="translate(252.148438 0)"/>
      <use xlink:href="#DejaVuSans-69" transform="translate(279.931641 0)"/>
      <use xlink:href="#DejaVuSans-66" transform="translate(307.714844 0)"/>
      <use xlink:href="#DejaVuSans-69" transform="translate(342.919922 0)"/>
      <use xlink:href="#DejaVuSans-65" transform="translate(370.703125 0)"/>
      <use xlink:href="#DejaVuSans-64" transform="translate(432.226562 0)"/>
      <use xlink:href="#DejaVuSans-20" transform="translate(495.703125 0)"/>
      <use xlink:href="#DejaVuSans-50" transform="translate(527.490234 0)"/>
      <use xlink:href="#DejaVuSans-53" transform="translate(587.792969 0)"/>
      <use xlink:href="#DejaVuSans-41" transform="translate(653.144531 0)"/>
      <use xlink:href="#DejaVuSans-49" transform="translate(721.552734 0)"/>
      <use xlink:href="#DejaVuSans-4d" transform="translate(751.044922 0)"/>
     </g>
    </g>
   </g>
  </g>
  <g id="axes_2">
   <g id="patch_14">
    <path d="M 395.876562 263.36 
L 707.076563 263.36 
L 707.076563 47.76 
L 395.876562 47.76 
z
" style="fill: #ffffff"/>
   </g>
   <g id="patch_15">
    <path d="M 410.022017 47.76 
L 490.853186 47.76 
L 490.853186 211.516935 
L 410.022017 211.516935 
z
" clip-path="url(#pdf80ec17ef)" style="fill: #e45756; opacity: 0.86"/>
   </g>
   <g id="patch_16">
    <path d="M 511.060978 47.76 
L 591.892147 47.76 
L 591.892147 241.959115 
L 511.060978 241.959115 
z
" clip-path="url(#pdf80ec17ef)" style="fill: #e45756; opacity: 0.86"/>
   </g>
   <g id="patch_17">
    <path d="M 612.099939 47.76 
L 692.931108 47.76 
L 692.931108 242.840577 
L 612.099939 242.840577 
z
" clip-path="url(#pdf80ec17ef)" style="fill: #e45756; opacity: 0.86"/>
   </g>
   <g id="matplotlib.axis_3">
    <g id="xtick_4">
     <g id="line2d_15">
      <g>
       <use xlink:href="#m64a3d04fd0" x="450.437601" y="263.36" style="stroke: #000000; stroke-width: 0.8"/>
      </g>
     </g>
     <g id="text_15">
      <!-- Low -->
      <g transform="translate(441.575414 277.198594) scale(0.09 -0.09)">
       <use xlink:href="#DejaVuSans-4c"/>
       <use xlink:href="#DejaVuSans-6f" transform="translate(53.962891 0)"/>
       <use xlink:href="#DejaVuSans-77" transform="translate(115.144531 0)"/>
      </g>
     </g>
    </g>
    <g id="xtick_5">
     <g id="line2d_16">
      <g>
       <use xlink:href="#m64a3d04fd0" x="551.476562" y="263.36" style="stroke: #000000; stroke-width: 0.8"/>
      </g>
     </g>
     <g id="text_16">
      <!-- Medium -->
      <g transform="translate(533.482891 277.198594) scale(0.09 -0.09)">
       <use xlink:href="#DejaVuSans-4d"/>
       <use xlink:href="#DejaVuSans-65" transform="translate(86.279297 0)"/>
       <use xlink:href="#DejaVuSans-64" transform="translate(147.802734 0)"/>
       <use xlink:href="#DejaVuSans-69" transform="translate(211.279297 0)"/>
       <use xlink:href="#DejaVuSans-75" transform="translate(239.0625 0)"/>
       <use xlink:href="#DejaVuSans-6d" transform="translate(302.441406 0)"/>
      </g>
     </g>
    </g>
    <g id="xtick_6">
     <g id="line2d_17">
      <g>
       <use xlink:href="#m64a3d04fd0" x="652.515524" y="263.36" style="stroke: #000000; stroke-width: 0.8"/>
      </g>
     </g>
     <g id="text_17">
      <!-- High -->
      <g transform="translate(642.172555 277.198594) scale(0.09 -0.09)">
       <use xlink:href="#DejaVuSans-48"/>
       <use xlink:href="#DejaVuSans-69" transform="translate(75.195312 0)"/>
       <use xlink:href="#DejaVuSans-67" transform="translate(102.978516 0)"/>
       <use xlink:href="#DejaVuSans-68" transform="translate(166.455078 0)"/>
      </g>
     </g>
    </g>
   </g>
   <g id="matplotlib.axis_4">
    <g id="ytick_8">
     <g id="line2d_18">
      <g>
       <use xlink:href="#m1d77d2ca47" x="395.876562" y="256.627591" style="stroke: #000000; stroke-width: 0.8"/>
      </g>
     </g>
     <g id="text_18">
      <!-- −3.0 -->
      <g transform="translate(367.022031 260.046888) scale(0.09 -0.09)">
       <defs>
        <path id="DejaVuSans-2212" d="M 678 2272 
L 4684 2272 
L 4684 1741 
L 678 1741 
L 678 2272 
z
" transform="scale(0.015625)"/>
        <path id="DejaVuSans-2e" d="M 684 794 
L 1344 794 
L 1344 0 
L 684 0 
L 684 794 
z
" transform="scale(0.015625)"/>
       </defs>
       <use xlink:href="#DejaVuSans-2212"/>
       <use xlink:href="#DejaVuSans-33" transform="translate(83.789062 0)"/>
       <use xlink:href="#DejaVuSans-2e" transform="translate(147.412109 0)"/>
       <use xlink:href="#DejaVuSans-30" transform="translate(179.199219 0)"/>
      </g>
     </g>
    </g>
    <g id="ytick_9">
     <g id="line2d_19">
      <g>
       <use xlink:href="#m1d77d2ca47" x="395.876562" y="221.816326" style="stroke: #000000; stroke-width: 0.8"/>
      </g>
     </g>
     <g id="text_19">
      <!-- −2.5 -->
      <g transform="translate(367.022031 225.235623) scale(0.09 -0.09)">
       <use xlink:href="#DejaVuSans-2212"/>
       <use xlink:href="#DejaVuSans-32" transform="translate(83.789062 0)"/>
       <use xlink:href="#DejaVuSans-2e" transform="translate(147.412109 0)"/>
       <use xlink:href="#DejaVuSans-35" transform="translate(179.199219 0)"/>
      </g>
     </g>
    </g>
    <g id="ytick_10">
     <g id="line2d_20">
      <g>
       <use xlink:href="#m1d77d2ca47" x="395.876562" y="187.005061" style="stroke: #000000; stroke-width: 0.8"/>
      </g>
     </g>
     <g id="text_20">
      <!-- −2.0 -->
      <g transform="translate(367.022031 190.424357) scale(0.09 -0.09)">
       <use xlink:href="#DejaVuSans-2212"/>
       <use xlink:href="#DejaVuSans-32" transform="translate(83.789062 0)"/>
       <use xlink:href="#DejaVuSans-2e" transform="translate(147.412109 0)"/>
       <use xlink:href="#DejaVuSans-30" transform="translate(179.199219 0)"/>
      </g>
     </g>
    </g>
    <g id="ytick_11">
     <g id="line2d_21">
      <g>
       <use xlink:href="#m1d77d2ca47" x="395.876562" y="152.193795" style="stroke: #000000; stroke-width: 0.8"/>
      </g>
     </g>
     <g id="text_21">
      <!-- −1.5 -->
      <g transform="translate(367.022031 155.613092) scale(0.09 -0.09)">
       <use xlink:href="#DejaVuSans-2212"/>
       <use xlink:href="#DejaVuSans-31" transform="translate(83.789062 0)"/>
       <use xlink:href="#DejaVuSans-2e" transform="translate(147.412109 0)"/>
       <use xlink:href="#DejaVuSans-35" transform="translate(179.199219 0)"/>
      </g>
     </g>
    </g>
    <g id="ytick_12">
     <g id="line2d_22">
      <g>
       <use xlink:href="#m1d77d2ca47" x="395.876562" y="117.38253" style="stroke: #000000; stroke-width: 0.8"/>
      </g>
     </g>
     <g id="text_22">
      <!-- −1.0 -->
      <g transform="translate(367.022031 120.801827) scale(0.09 -0.09)">
       <use xlink:href="#DejaVuSans-2212"/>
       <use xlink:href="#DejaVuSans-31" transform="translate(83.789062 0)"/>
       <use xlink:href="#DejaVuSans-2e" transform="translate(147.412109 0)"/>
       <use xlink:href="#DejaVuSans-30" transform="translate(179.199219 0)"/>
      </g>
     </g>
    </g>
    <g id="ytick_13">
     <g id="line2d_23">
      <g>
       <use xlink:href="#m1d77d2ca47" x="395.876562" y="82.571265" style="stroke: #000000; stroke-width: 0.8"/>
      </g>
     </g>
     <g id="text_23">
      <!-- −0.5 -->
      <g transform="translate(367.022031 85.990562) scale(0.09 -0.09)">
       <use xlink:href="#DejaVuSans-2212"/>
       <use xlink:href="#DejaVuSans-30" transform="translate(83.789062 0)"/>
       <use xlink:href="#DejaVuSans-2e" transform="translate(147.412109 0)"/>
       <use xlink:href="#DejaVuSans-35" transform="translate(179.199219 0)"/>
      </g>
     </g>
    </g>
    <g id="ytick_14">
     <g id="line2d_24">
      <g>
       <use xlink:href="#m1d77d2ca47" x="395.876562" y="47.76" style="stroke: #000000; stroke-width: 0.8"/>
      </g>
     </g>
     <g id="text_24">
      <!-- 0.0 -->
      <g transform="translate(374.56375 51.179297) scale(0.09 -0.09)">
       <use xlink:href="#DejaVuSans-30"/>
       <use xlink:href="#DejaVuSans-2e" transform="translate(63.623047 0)"/>
       <use xlink:href="#DejaVuSans-30" transform="translate(95.410156 0)"/>
      </g>
     </g>
    </g>
    <g id="text_25">
     <!-- slowdown difference -->
     <g transform="translate(361.150312 201.817187) rotate(-90) scale(0.09 -0.09)">
      <use xlink:href="#DejaVuSans-73"/>
      <use xlink:href="#DejaVuSans-6c" transform="translate(52.099609 0)"/>
      <use xlink:href="#DejaVuSans-6f" transform="translate(79.882812 0)"/>
      <use xlink:href="#DejaVuSans-77" transform="translate(141.064453 0)"/>
      <use xlink:href="#DejaVuSans-64" transform="translate(222.851562 0)"/>
      <use xlink:href="#DejaVuSans-6f" transform="translate(286.328125 0)"/>
      <use xlink:href="#DejaVuSans-77" transform="translate(347.509766 0)"/>
      <use xlink:href="#DejaVuSans-6e" transform="translate(429.296875 0)"/>
      <use xlink:href="#DejaVuSans-20" transform="translate(492.675781 0)"/>
      <use xlink:href="#DejaVuSans-64" transform="translate(524.462891 0)"/>
      <use xlink:href="#DejaVuSans-69" transform="translate(587.939453 0)"/>
      <use xlink:href="#DejaVuSans-66" transform="translate(615.722656 0)"/>
      <use xlink:href="#DejaVuSans-66" transform="translate(650.927734 0)"/>
      <use xlink:href="#DejaVuSans-65" transform="translate(686.132812 0)"/>
      <use xlink:href="#DejaVuSans-72" transform="translate(747.65625 0)"/>
      <use xlink:href="#DejaVuSans-65" transform="translate(786.519531 0)"/>
      <use xlink:href="#DejaVuSans-6e" transform="translate(848.042969 0)"/>
      <use xlink:href="#DejaVuSans-63" transform="translate(911.421875 0)"/>
      <use xlink:href="#DejaVuSans-65" transform="translate(966.402344 0)"/>
     </g>
    </g>
   </g>
   <g id="LineCollection_3">
    <path d="M 450.437601 224.554022 
L 450.437601 198.640216 
" clip-path="url(#pdf80ec17ef)" style="fill: none; stroke: #000000"/>
    <path d="M 551.476562 250.785225 
L 551.476562 231.649114 
" clip-path="url(#pdf80ec17ef)" style="fill: none; stroke: #000000"/>
    <path d="M 652.515524 253.093333 
L 652.515524 231.526618 
" clip-path="url(#pdf80ec17ef)" style="fill: none; stroke: #000000"/>
   </g>
   <g id="line2d_25">
    <g clip-path="url(#pdf80ec17ef)">
     <use xlink:href="#m005879eaaf" x="450.437601" y="224.554022" style="stroke: #000000"/>
     <use xlink:href="#m005879eaaf" x="551.476562" y="250.785225" style="stroke: #000000"/>
     <use xlink:href="#m005879eaaf" x="652.515524" y="253.093333" style="stroke: #000000"/>
    </g>
   </g>
   <g id="line2d_26">
    <g clip-path="url(#pdf80ec17ef)">
     <use xlink:href="#m005879eaaf" x="450.437601" y="198.640216" style="stroke: #000000"/>
     <use xlink:href="#m005879eaaf" x="551.476562" y="231.649114" style="stroke: #000000"/>
     <use xlink:href="#m005879eaaf" x="652.515524" y="231.526618" style="stroke: #000000"/>
    </g>
   </g>
   <g id="line2d_27">
    <path d="M 395.876562 47.76 
L 707.076563 47.76 
" clip-path="url(#pdf80ec17ef)" style="fill: none; stroke: #333333; stroke-linecap: square"/>
   </g>
   <g id="patch_18">
    <path d="M 395.876562 263.36 
L 395.876562 47.76 
" style="fill: none; stroke: #000000; stroke-width: 0.8; stroke-linejoin: miter; stroke-linecap: square"/>
   </g>
   <g id="patch_19">
    <path d="M 395.876562 263.36 
L 707.076563 263.36 
" style="fill: none; stroke: #000000; stroke-width: 0.8; stroke-linejoin: miter; stroke-linecap: square"/>
   </g>
   <g id="text_26">
    <!-- Paired Difference: PSAIM - SJF -->
    <g transform="translate(477.328125 41.76) scale(0.1 -0.1)">
     <defs>
      <path id="DejaVuSans-3a" d="M 750 794 
L 1409 794 
L 1409 0 
L 750 0 
L 750 794 
z
M 750 3309 
L 1409 3309 
L 1409 2516 
L 750 2516 
L 750 3309 
z
" transform="scale(0.015625)"/>
      <path id="DejaVuSans-2d" d="M 313 2009 
L 1997 2009 
L 1997 1497 
L 313 1497 
L 313 2009 
z
" transform="scale(0.015625)"/>
     </defs>
     <use xlink:href="#DejaVuSans-50"/>
     <use xlink:href="#DejaVuSans-61" transform="translate(55.802734 0)"/>
     <use xlink:href="#DejaVuSans-69" transform="translate(117.082031 0)"/>
     <use xlink:href="#DejaVuSans-72" transform="translate(144.865234 0)"/>
     <use xlink:href="#DejaVuSans-65" transform="translate(183.728516 0)"/>
     <use xlink:href="#DejaVuSans-64" transform="translate(245.251953 0)"/>
     <use xlink:href="#DejaVuSans-20" transform="translate(308.728516 0)"/>
     <use xlink:href="#DejaVuSans-44" transform="translate(340.515625 0)"/>
     <use xlink:href="#DejaVuSans-69" transform="translate(417.517578 0)"/>
     <use xlink:href="#DejaVuSans-66" transform="translate(445.300781 0)"/>
     <use xlink:href="#DejaVuSans-66" transform="translate(480.505859 0)"/>
     <use xlink:href="#DejaVuSans-65" transform="translate(515.710938 0)"/>
     <use xlink:href="#DejaVuSans-72" transform="translate(577.234375 0)"/>
     <use xlink:href="#DejaVuSans-65" transform="translate(616.097656 0)"/>
     <use xlink:href="#DejaVuSans-6e" transform="translate(677.621094 0)"/>
     <use xlink:href="#DejaVuSans-63" transform="translate(741 0)"/>
     <use xlink:href="#DejaVuSans-65" transform="translate(795.980469 0)"/>
     <use xlink:href="#DejaVuSans-3a" transform="translate(857.503906 0)"/>
     <use xlink:href="#DejaVuSans-20" transform="translate(891.195312 0)"/>
     <use xlink:href="#DejaVuSans-50" transform="translate(922.982422 0)"/>
     <use xlink:href="#DejaVuSans-53" transform="translate(983.285156 0)"/>
     <use xlink:href="#DejaVuSans-41" transform="translate(1048.636719 0)"/>
     <use xlink:href="#DejaVuSans-49" transform="translate(1117.044922 0)"/>
     <use xlink:href="#DejaVuSans-4d" transform="translate(1146.537109 0)"/>
     <use xlink:href="#DejaVuSans-20" transform="translate(1232.816406 0)"/>
     <use xlink:href="#DejaVuSans-2d" transform="translate(1264.603516 0)"/>
     <use xlink:href="#DejaVuSans-20" transform="translate(1300.6875 0)"/>
     <use xlink:href="#DejaVuSans-53" transform="translate(1332.474609 0)"/>
     <use xlink:href="#DejaVuSans-4a" transform="translate(1395.951172 0)"/>
     <use xlink:href="#DejaVuSans-46" transform="translate(1425.443359 0)"/>
    </g>
   </g>
  </g>
  <g id="text_27">
   <!-- Positive Demonstration: Simplified PSAIM Beats SJF When Duration Ordering Is Misreported -->
   <g transform="translate(83.202187 16.318125) scale(0.12 -0.12)">
    <defs>
     <path id="DejaVuSans-42" d="M 1259 2228 
L 1259 519 
L 2272 519 
Q 2781 519 3026 730 
Q 3272 941 3272 1375 
Q 3272 1813 3026 2020 
Q 2781 2228 2272 2228 
L 1259 2228 
z
M 1259 4147 
L 1259 2741 
L 2194 2741 
Q 2656 2741 2882 2914 
Q 3109 3088 3109 3444 
Q 3109 3797 2882 3972 
Q 2656 4147 2194 4147 
L 1259 4147 
z
M 628 4666 
L 2241 4666 
Q 2963 4666 3353 4366 
Q 3744 4066 3744 3513 
Q 3744 3084 3544 2831 
Q 3344 2578 2956 2516 
Q 3422 2416 3680 2098 
Q 3938 1781 3938 1306 
Q 3938 681 3513 340 
Q 3088 0 2303 0 
L 628 0 
L 628 4666 
z
" transform="scale(0.015625)"/>
     <path id="DejaVuSans-57" d="M 213 4666 
L 850 4666 
L 1831 722 
L 2809 4666 
L 3519 4666 
L 4500 722 
L 5478 4666 
L 6119 4666 
L 4947 0 
L 4153 0 
L 3169 4050 
L 2175 0 
L 1381 0 
L 213 4666 
z
" transform="scale(0.015625)"/>
     <path id="DejaVuSans-4f" d="M 2522 4238 
Q 1834 4238 1429 3725 
Q 1025 3213 1025 2328 
Q 1025 1447 1429 934 
Q 1834 422 2522 422 
Q 3209 422 3611 934 
Q 4013 1447 4013 2328 
Q 4013 3213 3611 3725 
Q 3209 4238 2522 4238 
z
M 2522 4750 
Q 3503 4750 4090 4092 
Q 4678 3434 4678 2328 
Q 4678 1225 4090 567 
Q 3503 -91 2522 -91 
Q 1538 -91 948 565 
Q 359 1222 359 2328 
Q 359 3434 948 4092 
Q 1538 4750 2522 4750 
z
" transform="scale(0.015625)"/>
    </defs>
    <use xlink:href="#DejaVuSans-50"/>
    <use xlink:href="#DejaVuSans-6f" transform="translate(56.677734 0)"/>
    <use xlink:href="#DejaVuSans-73" transform="translate(117.859375 0)"/>
    <use xlink:href="#DejaVuSans-69" transform="translate(169.958984 0)"/>
    <use xlink:href="#DejaVuSans-74" transform="translate(197.742188 0)"/>
    <use xlink:href="#DejaVuSans-69" transform="translate(236.951172 0)"/>
    <use xlink:href="#DejaVuSans-76" transform="translate(264.734375 0)"/>
    <use xlink:href="#DejaVuSans-65" transform="translate(323.914062 0)"/>
    <use xlink:href="#DejaVuSans-20" transform="translate(385.4375 0)"/>
    <use xlink:href="#DejaVuSans-44" transform="translate(417.224609 0)"/>
    <use xlink:href="#DejaVuSans-65" transform="translate(494.226562 0)"/>
    <use xlink:href="#DejaVuSans-6d" transform="translate(555.75 0)"/>
    <use xlink:href="#DejaVuSans-6f" transform="translate(653.162109 0)"/>
    <use xlink:href="#DejaVuSans-6e" transform="translate(714.34375 0)"/>
    <use xlink:href="#DejaVuSans-73" transform="translate(777.722656 0)"/>
    <use xlink:href="#DejaVuSans-74" transform="translate(829.822266 0)"/>
    <use xlink:href="#DejaVuSans-72" transform="translate(869.03125 0)"/>
    <use xlink:href="#DejaVuSans-61" transform="translate(910.144531 0)"/>
    <use xlink:href="#DejaVuSans-74" transform="translate(971.423828 0)"/>
    <use xlink:href="#DejaVuSans-69" transform="translate(1010.632812 0)"/>
    <use xlink:href="#DejaVuSans-6f" transform="translate(1038.416016 0)"/>
    <use xlink:href="#DejaVuSans-6e" transform="translate(1099.597656 0)"/>
    <use xlink:href="#DejaVuSans-3a" transform="translate(1162.976562 0)"/>
    <use xlink:href="#DejaVuSans-20" transform="translate(1196.667969 0)"/>
    <use xlink:href="#DejaVuSans-53" transform="translate(1228.455078 0)"/>
    <use xlink:href="#DejaVuSans-69" transform="translate(1291.931641 0)"/>
    <use xlink:href="#DejaVuSans-6d" transform="translate(1319.714844 0)"/>
    <use xlink:href="#DejaVuSans-70" transform="translate(1417.126953 0)"/>
    <use xlink:href="#DejaVuSans-6c" transform="translate(1480.603516 0)"/>
    <use xlink:href="#DejaVuSans-69" transform="translate(1508.386719 0)"/>
    <use xlink:href="#DejaVuSans-66" transform="translate(1536.169922 0)"/>
    <use xlink:href="#DejaVuSans-69" transform="translate(1571.375 0)"/>
    <use xlink:href="#DejaVuSans-65" transform="translate(1599.158203 0)"/>
    <use xlink:href="#DejaVuSans-64" transform="translate(1660.681641 0)"/>
    <use xlink:href="#DejaVuSans-20" transform="translate(1724.158203 0)"/>
    <use xlink:href="#DejaVuSans-50" transform="translate(1755.945312 0)"/>
    <use xlink:href="#DejaVuSans-53" transform="translate(1816.248047 0)"/>
    <use xlink:href="#DejaVuSans-41" transform="translate(1881.599609 0)"/>
    <use xlink:href="#DejaVuSans-49" transform="translate(1950.007812 0)"/>
    <use xlink:href="#DejaVuSans-4d" transform="translate(1979.5 0)"/>
    <use xlink:href="#DejaVuSans-20" transform="translate(2065.779297 0)"/>
    <use xlink:href="#DejaVuSans-42" transform="translate(2097.566406 0)"/>
    <use xlink:href="#DejaVuSans-65" transform="translate(2166.169922 0)"/>
    <use xlink:href="#DejaVuSans-61" transform="translate(2227.693359 0)"/>
    <use xlink:href="#DejaVuSans-74" transform="translate(2288.972656 0)"/>
    <use xlink:href="#DejaVuSans-73" transform="translate(2328.181641 0)"/>
    <use xlink:href="#DejaVuSans-20" transform="translate(2380.28125 0)"/>
    <use xlink:href="#DejaVuSans-53" transform="translate(2412.068359 0)"/>
    <use xlink:href="#DejaVuSans-4a" transform="translate(2475.544922 0)"/>
    <use xlink:href="#DejaVuSans-46" transform="translate(2505.037109 0)"/>
    <use xlink:href="#DejaVuSans-20" transform="translate(2562.556641 0)"/>
    <use xlink:href="#DejaVuSans-57" transform="translate(2594.34375 0)"/>
    <use xlink:href="#DejaVuSans-68" transform="translate(2693.220703 0)"/>
    <use xlink:href="#DejaVuSans-65" transform="translate(2756.599609 0)"/>
    <use xlink:href="#DejaVuSans-6e" transform="translate(2818.123047 0)"/>
    <use xlink:href="#DejaVuSans-20" transform="translate(2881.501953 0)"/>
    <use xlink:href="#DejaVuSans-44" transform="translate(2913.289062 0)"/>
    <use xlink:href="#DejaVuSans-75" transform="translate(2990.291016 0)"/>
    <use xlink:href="#DejaVuSans-72" transform="translate(3053.669922 0)"/>
    <use xlink:href="#DejaVuSans-61" transform="translate(3094.783203 0)"/>
    <use xlink:href="#DejaVuSans-74" transform="translate(3156.0625 0)"/>
    <use xlink:href="#DejaVuSans-69" transform="translate(3195.271484 0)"/>
    <use xlink:href="#DejaVuSans-6f" transform="translate(3223.054688 0)"/>
    <use xlink:href="#DejaVuSans-6e" transform="translate(3284.236328 0)"/>
    <use xlink:href="#DejaVuSans-20" transform="translate(3347.615234 0)"/>
    <use xlink:href="#DejaVuSans-4f" transform="translate(3379.402344 0)"/>
    <use xlink:href="#DejaVuSans-72" transform="translate(3458.113281 0)"/>
    <use xlink:href="#DejaVuSans-64" transform="translate(3497.476562 0)"/>
    <use xlink:href="#DejaVuSans-65" transform="translate(3560.953125 0)"/>
    <use xlink:href="#DejaVuSans-72" transform="translate(3622.476562 0)"/>
    <use xlink:href="#DejaVuSans-69" transform="translate(3663.589844 0)"/>
    <use xlink:href="#DejaVuSans-6e" transform="translate(3691.373047 0)"/>
    <use xlink:href="#DejaVuSans-67" transform="translate(3754.751953 0)"/>
    <use xlink:href="#DejaVuSans-20" transform="translate(3818.228516 0)"/>
    <use xlink:href="#DejaVuSans-49" transform="translate(3850.015625 0)"/>
    <use xlink:href="#DejaVuSans-73" transform="translate(3879.507812 0)"/>
    <use xlink:href="#DejaVuSans-20" transform="translate(3931.607422 0)"/>
    <use xlink:href="#DejaVuSans-4d" transform="translate(3963.394531 0)"/>
    <use xlink:href="#DejaVuSans-69" transform="translate(4049.673828 0)"/>
    <use xlink:href="#DejaVuSans-73" transform="translate(4077.457031 0)"/>
    <use xlink:href="#DejaVuSans-72" transform="translate(4129.556641 0)"/>
    <use xlink:href="#DejaVuSans-65" transform="translate(4168.419922 0)"/>
    <use xlink:href="#DejaVuSans-70" transform="translate(4229.943359 0)"/>
    <use xlink:href="#DejaVuSans-6f" transform="translate(4293.419922 0)"/>
    <use xlink:href="#DejaVuSans-72" transform="translate(4354.601562 0)"/>
    <use xlink:href="#DejaVuSans-74" transform="translate(4395.714844 0)"/>
    <use xlink:href="#DejaVuSans-65" transform="translate(4434.923828 0)"/>
    <use xlink:href="#DejaVuSans-64" transform="translate(4496.447266 0)"/>
   </g>
  </g>
 </g>
 <defs>
  <clipPath id="pf4d863125b">
   <rect x="32.636563" y="47.76" width="311.2" height="215.6"/>
  </clipPath>
  <clipPath id="pdf80ec17ef">
   <rect x="395.876562" y="47.76" width="311.2" height="215.6"/>
  </clipPath>
 </defs>
</svg>
